G04 DipTrace 2.4.0.2*
%INBottomSilk.gbr*%
%MOIN*%
%ADD10C,0.0098*%
%ADD23C,0.0013*%
%ADD99C,0.0046*%
%FSLAX44Y44*%
G04*
G70*
G90*
G75*
G01*
%LNBotSilk*%
%LPD*%
X8050Y16952D2*
D10*
Y14495D1*
X9484D1*
Y16440D1*
X17876Y16338D2*
Y14495D1*
X19310D1*
Y16952D1*
X7911Y13259D2*
D23*
X11033D1*
Y10104D1*
X7911D1*
Y13259D1*
X14980Y13061D2*
X20272D1*
Y9870D1*
X14980D1*
Y13061D1*
X14722Y14350D2*
D99*
X14750Y14379D1*
X14793Y14393D1*
X14851D1*
X14894Y14379D1*
X14923Y14350D1*
Y14322D1*
X14908Y14293D1*
X14894Y14279D1*
X14865Y14264D1*
X14779Y14235D1*
X14750Y14221D1*
X14736Y14207D1*
X14722Y14178D1*
Y14135D1*
X14750Y14106D1*
X14793Y14092D1*
X14851D1*
X14894Y14106D1*
X14923Y14135D1*
X14529Y14393D2*
Y14092D1*
X14629Y14393D2*
X14428D1*
X14163Y14350D2*
X14178Y14379D1*
X14221Y14393D1*
X14249D1*
X14292Y14379D1*
X14321Y14336D1*
X14336Y14264D1*
Y14192D1*
X14321Y14135D1*
X14292Y14106D1*
X14249Y14092D1*
X14235D1*
X14192Y14106D1*
X14163Y14135D1*
X14149Y14178D1*
Y14192D1*
X14163Y14235D1*
X14192Y14264D1*
X14235Y14278D1*
X14249D1*
X14292Y14264D1*
X14321Y14235D1*
X14336Y14192D1*
X13970Y14393D2*
X14013Y14379D1*
X14042Y14336D1*
X14056Y14264D1*
Y14221D1*
X14042Y14149D1*
X14013Y14106D1*
X13970Y14092D1*
X13942D1*
X13899Y14106D1*
X13870Y14149D1*
X13856Y14221D1*
Y14264D1*
X13870Y14336D1*
X13899Y14379D1*
X13942Y14393D1*
X13970D1*
X13870Y14336D2*
X14042Y14149D1*
X13763Y14393D2*
X13562Y14092D1*
Y14393D2*
X13763Y14092D1*
X13469Y14242D2*
X13304D1*
X13182Y14393D2*
X13024D1*
X13110Y14278D1*
X13067D1*
X13039Y14264D1*
X13024Y14250D1*
X13010Y14207D1*
Y14178D1*
X13024Y14135D1*
X13053Y14106D1*
X13096Y14092D1*
X13139D1*
X13182Y14106D1*
X13196Y14121D1*
X13211Y14149D1*
X12745Y14350D2*
X12759Y14379D1*
X12803Y14393D1*
X12831D1*
X12874Y14379D1*
X12903Y14336D1*
X12917Y14264D1*
Y14192D1*
X12903Y14135D1*
X12874Y14106D1*
X12831Y14092D1*
X12817D1*
X12774Y14106D1*
X12745Y14135D1*
X12731Y14178D1*
Y14192D1*
X12745Y14235D1*
X12774Y14264D1*
X12817Y14278D1*
X12831D1*
X12874Y14264D1*
X12903Y14235D1*
X12917Y14192D1*
X12437Y14350D2*
X12466Y14379D1*
X12509Y14393D1*
X12566D1*
X12609Y14379D1*
X12638Y14350D1*
Y14322D1*
X12624Y14293D1*
X12609Y14279D1*
X12581Y14264D1*
X12495Y14235D1*
X12466Y14221D1*
X12452Y14207D1*
X12437Y14178D1*
Y14135D1*
X12466Y14106D1*
X12509Y14092D1*
X12566D1*
X12609Y14106D1*
X12638Y14135D1*
X15916Y14110D2*
X15902Y14081D1*
X15859Y14038D1*
X16160D1*
X15859Y13859D2*
X15873Y13902D1*
X15916Y13931D1*
X15988Y13945D1*
X16031D1*
X16103Y13931D1*
X16146Y13902D1*
X16160Y13859D1*
Y13830D1*
X16146Y13787D1*
X16103Y13759D1*
X16031Y13744D1*
X15988D1*
X15916Y13759D1*
X15873Y13787D1*
X15859Y13830D1*
Y13859D1*
X15916Y13759D2*
X16103Y13931D1*
X15859Y13651D2*
X16160D1*
X15859Y13450D2*
X16060Y13651D1*
X15988Y13580D2*
X16160Y13450D1*
X8869Y12926D2*
X8883Y12954D1*
X8912Y12983D1*
X8940Y12997D1*
X8998D1*
X9027Y12983D1*
X9055Y12954D1*
X9070Y12926D1*
X9084Y12882D1*
Y12810D1*
X9070Y12768D1*
X9055Y12739D1*
X9027Y12710D1*
X8998Y12696D1*
X8940D1*
X8912Y12710D1*
X8883Y12739D1*
X8869Y12768D1*
Y12810D1*
X8940D1*
X8776Y12839D2*
X8647D1*
X8604Y12854D1*
X8589Y12868D1*
X8575Y12897D1*
Y12940D1*
X8589Y12968D1*
X8604Y12983D1*
X8647Y12997D1*
X8776D1*
Y12696D1*
X8483Y12939D2*
X8454Y12954D1*
X8411Y12997D1*
Y12696D1*
X8303Y12925D2*
Y12939D1*
X8289Y12968D1*
X8275Y12983D1*
X8246Y12997D1*
X8189D1*
X8160Y12983D1*
X8146Y12968D1*
X8131Y12939D1*
Y12911D1*
X8146Y12882D1*
X8174Y12839D1*
X8318Y12696D1*
X8117D1*
X8978Y12326D2*
X8992Y12354D1*
X9021Y12383D1*
X9049Y12397D1*
X9107D1*
X9135Y12383D1*
X9164Y12354D1*
X9179Y12326D1*
X9193Y12283D1*
Y12211D1*
X9179Y12168D1*
X9164Y12139D1*
X9135Y12110D1*
X9107Y12096D1*
X9049D1*
X9021Y12110D1*
X8992Y12139D1*
X8978Y12168D1*
Y12211D1*
X9049D1*
X8885Y12239D2*
X8756D1*
X8713Y12254D1*
X8698Y12268D1*
X8684Y12297D1*
Y12340D1*
X8698Y12368D1*
X8713Y12383D1*
X8756Y12397D1*
X8885D1*
Y12096D1*
X8405Y12297D2*
X8419Y12254D1*
X8448Y12225D1*
X8491Y12211D1*
X8505D1*
X8548Y12225D1*
X8577Y12254D1*
X8591Y12297D1*
Y12311D1*
X8577Y12354D1*
X8548Y12383D1*
X8505Y12397D1*
X8491D1*
X8448Y12383D1*
X8419Y12354D1*
X8405Y12297D1*
Y12225D1*
X8419Y12153D1*
X8448Y12110D1*
X8491Y12096D1*
X8519D1*
X8562Y12110D1*
X8577Y12139D1*
X8283Y12397D2*
X8126D1*
X8212Y12282D1*
X8168D1*
X8140Y12268D1*
X8126Y12254D1*
X8111Y12211D1*
Y12182D1*
X8126Y12139D1*
X8154Y12110D1*
X8197Y12096D1*
X8240D1*
X8283Y12110D1*
X8297Y12125D1*
X8312Y12153D1*
X8997Y11755D2*
X9012Y11783D1*
X9041Y11812D1*
X9069Y11826D1*
X9126D1*
X9155Y11812D1*
X9184Y11783D1*
X9198Y11755D1*
X9213Y11712D1*
Y11640D1*
X9198Y11597D1*
X9184Y11568D1*
X9155Y11540D1*
X9126Y11525D1*
X9069D1*
X9041Y11540D1*
X9012Y11568D1*
X8997Y11597D1*
Y11640D1*
X9069D1*
X8905Y11669D2*
X8775D1*
X8733Y11683D1*
X8718Y11697D1*
X8704Y11726D1*
Y11769D1*
X8718Y11798D1*
X8733Y11812D1*
X8775Y11826D1*
X8905D1*
Y11525D1*
X8424Y11726D2*
X8439Y11683D1*
X8468Y11654D1*
X8511Y11640D1*
X8525D1*
X8568Y11654D1*
X8597Y11683D1*
X8611Y11726D1*
Y11740D1*
X8597Y11783D1*
X8568Y11812D1*
X8525Y11826D1*
X8511D1*
X8468Y11812D1*
X8439Y11783D1*
X8424Y11726D1*
Y11654D1*
X8439Y11582D1*
X8468Y11539D1*
X8511Y11525D1*
X8539D1*
X8582Y11539D1*
X8597Y11568D1*
X8188Y11525D2*
Y11826D1*
X8332Y11625D1*
X8117D1*
X9013Y11188D2*
X9028Y11216D1*
X9056Y11245D1*
X9085Y11260D1*
X9142D1*
X9171Y11245D1*
X9200Y11216D1*
X9214Y11188D1*
X9229Y11145D1*
Y11073D1*
X9214Y11030D1*
X9200Y11001D1*
X9171Y10973D1*
X9142Y10958D1*
X9085D1*
X9056Y10973D1*
X9028Y11001D1*
X9013Y11030D1*
Y11073D1*
X9085D1*
X8921Y11102D2*
X8791D1*
X8749Y11116D1*
X8734Y11131D1*
X8720Y11159D1*
Y11202D1*
X8734Y11231D1*
X8749Y11245D1*
X8791Y11260D1*
X8921D1*
Y10958D1*
X8455Y11259D2*
X8598D1*
X8613Y11130D1*
X8598Y11144D1*
X8555Y11159D1*
X8512D1*
X8469Y11144D1*
X8440Y11116D1*
X8426Y11073D1*
Y11044D1*
X8440Y11001D1*
X8469Y10972D1*
X8512Y10958D1*
X8555D1*
X8598Y10972D1*
X8613Y10987D1*
X8627Y11015D1*
X8319Y11188D2*
Y11202D1*
X8305Y11231D1*
X8290Y11245D1*
X8262Y11259D1*
X8204D1*
X8176Y11245D1*
X8161Y11231D1*
X8147Y11202D1*
Y11173D1*
X8161Y11144D1*
X8190Y11102D1*
X8334Y10958D1*
X8133D1*
X9016Y10589D2*
X9031Y10618D1*
X9059Y10647D1*
X9088Y10661D1*
X9145D1*
X9174Y10647D1*
X9203Y10618D1*
X9217Y10589D1*
X9232Y10546D1*
Y10474D1*
X9217Y10431D1*
X9203Y10402D1*
X9174Y10374D1*
X9145Y10359D1*
X9088D1*
X9059Y10374D1*
X9031Y10402D1*
X9016Y10431D1*
Y10474D1*
X9088D1*
X8924Y10503D2*
X8794D1*
X8752Y10517D1*
X8737Y10532D1*
X8723Y10560D1*
Y10603D1*
X8737Y10632D1*
X8752Y10647D1*
X8794Y10661D1*
X8924D1*
Y10359D1*
X8458Y10660D2*
X8601D1*
X8615Y10531D1*
X8601Y10546D1*
X8558Y10560D1*
X8515D1*
X8472Y10546D1*
X8443Y10517D1*
X8429Y10474D1*
Y10446D1*
X8443Y10402D1*
X8472Y10374D1*
X8515Y10359D1*
X8558D1*
X8601Y10374D1*
X8615Y10388D1*
X8630Y10417D1*
X8250Y10660D2*
X8293Y10646D1*
X8322Y10603D1*
X8336Y10531D1*
Y10488D1*
X8322Y10417D1*
X8293Y10374D1*
X8250Y10359D1*
X8222D1*
X8179Y10374D1*
X8150Y10417D1*
X8136Y10488D1*
Y10531D1*
X8150Y10603D1*
X8179Y10646D1*
X8222Y10660D1*
X8250D1*
X8150Y10603D2*
X8322Y10417D1*
X10439Y12921D2*
X10453Y12949D1*
X10482Y12978D1*
X10511Y12992D1*
X10568D1*
X10597Y12978D1*
X10625Y12949D1*
X10640Y12921D1*
X10654Y12877D1*
Y12805D1*
X10640Y12763D1*
X10625Y12734D1*
X10597Y12705D1*
X10568Y12691D1*
X10511D1*
X10482Y12705D1*
X10453Y12734D1*
X10439Y12763D1*
Y12805D1*
X10511D1*
X10346Y12834D2*
X10217D1*
X10174Y12849D1*
X10160Y12863D1*
X10145Y12892D1*
Y12935D1*
X10160Y12963D1*
X10174Y12978D1*
X10217Y12992D1*
X10346D1*
Y12691D1*
X9881Y12992D2*
X10024D1*
X10038Y12863D1*
X10024Y12877D1*
X9981Y12892D1*
X9938D1*
X9895Y12877D1*
X9866Y12849D1*
X9852Y12805D1*
Y12777D1*
X9866Y12734D1*
X9895Y12705D1*
X9938Y12691D1*
X9981D1*
X10024Y12705D1*
X10038Y12720D1*
X10053Y12748D1*
X9759Y12934D2*
X9730Y12949D1*
X9687Y12992D1*
Y12691D1*
X10627Y12310D2*
X10641Y12339D1*
X10670Y12367D1*
X10699Y12382D1*
X10756D1*
X10785Y12367D1*
X10814Y12339D1*
X10828Y12310D1*
X10842Y12267D1*
Y12195D1*
X10828Y12152D1*
X10814Y12123D1*
X10785Y12095D1*
X10756Y12080D1*
X10699D1*
X10670Y12095D1*
X10641Y12123D1*
X10627Y12152D1*
Y12195D1*
X10699D1*
X10535Y12224D2*
X10405D1*
X10362Y12238D1*
X10348Y12253D1*
X10334Y12281D1*
Y12324D1*
X10348Y12353D1*
X10362Y12367D1*
X10405Y12382D1*
X10535D1*
Y12080D1*
X10241Y12324D2*
X10212Y12339D1*
X10169Y12381D1*
Y12080D1*
X10076Y12324D2*
X10047Y12339D1*
X10004Y12381D1*
Y12080D1*
X9768D2*
Y12381D1*
X9912Y12181D1*
X9696D1*
X10451Y11738D2*
X10466Y11767D1*
X10494Y11796D1*
X10523Y11810D1*
X10580D1*
X10609Y11796D1*
X10638Y11767D1*
X10652Y11738D1*
X10667Y11695D1*
Y11623D1*
X10652Y11580D1*
X10638Y11552D1*
X10609Y11523D1*
X10580Y11508D1*
X10523D1*
X10494Y11523D1*
X10466Y11552D1*
X10451Y11580D1*
Y11623D1*
X10523D1*
X10359Y11652D2*
X10229D1*
X10187Y11666D1*
X10172Y11681D1*
X10158Y11709D1*
Y11752D1*
X10172Y11781D1*
X10187Y11796D1*
X10229Y11810D1*
X10359D1*
Y11508D1*
X9993Y11810D2*
X10036Y11795D1*
X10051Y11767D1*
Y11738D1*
X10036Y11709D1*
X10008Y11695D1*
X9950Y11681D1*
X9907Y11666D1*
X9879Y11637D1*
X9864Y11609D1*
Y11566D1*
X9879Y11537D1*
X9893Y11523D1*
X9936Y11508D1*
X9993D1*
X10036Y11523D1*
X10051Y11537D1*
X10065Y11566D1*
Y11609D1*
X10051Y11637D1*
X10022Y11666D1*
X9979Y11681D1*
X9922Y11695D1*
X9893Y11709D1*
X9879Y11738D1*
Y11767D1*
X9893Y11795D1*
X9936Y11810D1*
X9993D1*
X9772Y11752D2*
X9743Y11767D1*
X9700Y11810D1*
Y11508D1*
X10564Y11201D2*
X10579Y11230D1*
X10607Y11258D1*
X10636Y11273D1*
X10693D1*
X10722Y11258D1*
X10751Y11230D1*
X10765Y11201D1*
X10780Y11158D1*
Y11086D1*
X10765Y11043D1*
X10751Y11014D1*
X10722Y10986D1*
X10693Y10971D1*
X10636D1*
X10607Y10986D1*
X10579Y11014D1*
X10564Y11043D1*
Y11086D1*
X10636D1*
X10472Y11115D2*
X10342D1*
X10300Y11129D1*
X10285Y11144D1*
X10271Y11172D1*
Y11215D1*
X10285Y11244D1*
X10300Y11258D1*
X10342Y11273D1*
X10472D1*
Y10971D1*
X10006Y11272D2*
X10149D1*
X10163Y11143D1*
X10149Y11158D1*
X10106Y11172D1*
X10063D1*
X10020Y11158D1*
X9991Y11129D1*
X9977Y11086D1*
Y11058D1*
X9991Y11014D1*
X10020Y10986D1*
X10063Y10971D1*
X10106D1*
X10149Y10986D1*
X10163Y11000D1*
X10178Y11029D1*
X9856Y11272D2*
X9698D1*
X9784Y11158D1*
X9741D1*
X9712Y11143D1*
X9698Y11129D1*
X9684Y11086D1*
Y11058D1*
X9698Y11014D1*
X9727Y10986D1*
X9770Y10971D1*
X9813D1*
X9856Y10986D1*
X9870Y11000D1*
X9884Y11029D1*
X10256Y10603D2*
X10270Y10632D1*
X10299Y10660D1*
X10327Y10675D1*
X10385D1*
X10414Y10660D1*
X10442Y10632D1*
X10457Y10603D1*
X10471Y10560D1*
Y10488D1*
X10457Y10445D1*
X10442Y10416D1*
X10414Y10388D1*
X10385Y10373D1*
X10327D1*
X10299Y10388D1*
X10270Y10416D1*
X10256Y10445D1*
Y10488D1*
X10327D1*
X9962Y10675D2*
Y10373D1*
X10163Y10675D1*
Y10373D1*
X9870Y10675D2*
Y10373D1*
X9769D1*
X9726Y10388D1*
X9697Y10416D1*
X9683Y10445D1*
X9669Y10488D1*
Y10560D1*
X9683Y10603D1*
X9697Y10632D1*
X9726Y10660D1*
X9769Y10675D1*
X9870D1*
X17238Y12636D2*
Y12937D1*
X17353Y12636D1*
X17468Y12937D1*
Y12636D1*
X17146Y12937D2*
Y12636D1*
X16838Y12866D2*
X16852Y12894D1*
X16881Y12923D1*
X16909Y12937D1*
X16967D1*
X16996Y12923D1*
X17024Y12894D1*
X17039Y12866D1*
X17053Y12822D1*
Y12751D1*
X17039Y12708D1*
X17024Y12679D1*
X16996Y12650D1*
X16967Y12636D1*
X16909D1*
X16881Y12650D1*
X16852Y12679D1*
X16838Y12708D1*
X16745Y12586D2*
X16473D1*
X16380Y12937D2*
Y12636D1*
X16086Y12937D2*
Y12636D1*
X16287Y12937D1*
Y12636D1*
X17244Y12013D2*
X17359Y12314D1*
X17474Y12013D1*
X17431Y12113D2*
X17287D1*
X17151Y12314D2*
Y12099D1*
X17137Y12056D1*
X17108Y12027D1*
X17065Y12013D1*
X17036D1*
X16993Y12027D1*
X16965Y12056D1*
X16950Y12099D1*
Y12314D1*
X16858D2*
Y12013D1*
X16757D1*
X16714Y12027D1*
X16685Y12056D1*
X16671Y12085D1*
X16657Y12127D1*
Y12199D1*
X16671Y12242D1*
X16685Y12271D1*
X16714Y12300D1*
X16757Y12314D1*
X16858D1*
X16564Y11963D2*
X16291D1*
X15984Y12242D2*
X15998Y12271D1*
X16027Y12300D1*
X16055Y12314D1*
X16113D1*
X16141Y12300D1*
X16170Y12271D1*
X16185Y12242D1*
X16199Y12199D1*
Y12127D1*
X16185Y12085D1*
X16170Y12056D1*
X16141Y12027D1*
X16113Y12013D1*
X16055D1*
X16027Y12027D1*
X15998Y12056D1*
X15984Y12085D1*
X15805Y12314D2*
X15834Y12300D1*
X15862Y12271D1*
X15877Y12242D1*
X15891Y12199D1*
Y12127D1*
X15877Y12085D1*
X15862Y12056D1*
X15834Y12027D1*
X15805Y12013D1*
X15747D1*
X15719Y12027D1*
X15690Y12056D1*
X15676Y12085D1*
X15661Y12127D1*
Y12199D1*
X15676Y12242D1*
X15690Y12271D1*
X15719Y12300D1*
X15747Y12314D1*
X15805D1*
X15339Y12013D2*
Y12314D1*
X15454Y12013D1*
X15569Y12314D1*
Y12013D1*
X17469Y11701D2*
Y11400D1*
X17268Y11701D2*
Y11400D1*
X17469Y11558D2*
X17268D1*
X17175Y11543D2*
X17046D1*
X17003Y11558D1*
X16989Y11572D1*
X16974Y11601D1*
Y11644D1*
X16989Y11672D1*
X17003Y11687D1*
X17046Y11701D1*
X17175D1*
Y11400D1*
X16882Y11350D2*
X16609D1*
X16517Y11701D2*
Y11400D1*
X16416D1*
X16373Y11414D1*
X16344Y11443D1*
X16330Y11472D1*
X16316Y11515D1*
Y11587D1*
X16330Y11630D1*
X16344Y11658D1*
X16373Y11687D1*
X16416Y11701D1*
X16517D1*
X16037D2*
X16223D1*
Y11400D1*
X16037D1*
X16223Y11558D2*
X16108D1*
X15843Y11701D2*
Y11400D1*
X15944Y11701D2*
X15743D1*
X17259Y10761D2*
X17374Y11063D1*
X17489Y10761D1*
X17446Y10862D2*
X17302D1*
X17166Y11063D2*
Y10847D1*
X17152Y10804D1*
X17123Y10776D1*
X17080Y10761D1*
X17052D1*
X17008Y10776D1*
X16980Y10804D1*
X16965Y10847D1*
Y11063D1*
X16873D2*
Y10761D1*
X16772D1*
X16729Y10776D1*
X16700Y10804D1*
X16686Y10833D1*
X16672Y10876D1*
Y10948D1*
X16686Y10991D1*
X16700Y11019D1*
X16729Y11048D1*
X16772Y11063D1*
X16873D1*
X16579Y10711D2*
X16306D1*
X16214Y10919D2*
X16085D1*
X16042Y10934D1*
X16027Y10948D1*
X16013Y10976D1*
Y11005D1*
X16027Y11034D1*
X16042Y11048D1*
X16085Y11063D1*
X16214D1*
Y10761D1*
X16113Y10919D2*
X16013Y10761D1*
X15834Y11063D2*
X15863Y11048D1*
X15891Y11019D1*
X15906Y10991D1*
X15920Y10948D1*
Y10876D1*
X15906Y10833D1*
X15891Y10804D1*
X15863Y10776D1*
X15834Y10761D1*
X15777D1*
X15748Y10776D1*
X15719Y10804D1*
X15705Y10833D1*
X15691Y10876D1*
Y10948D1*
X15705Y10991D1*
X15719Y11019D1*
X15748Y11048D1*
X15777Y11063D1*
X15834D1*
X15598D2*
Y10847D1*
X15584Y10804D1*
X15555Y10776D1*
X15512Y10761D1*
X15483D1*
X15440Y10776D1*
X15411Y10804D1*
X15397Y10847D1*
Y11063D1*
X15204D2*
Y10761D1*
X15305Y11063D2*
X15104D1*
X17261Y10142D2*
X17377Y10443D1*
X17491Y10142D1*
X17448Y10242D2*
X17305D1*
X17169Y10443D2*
Y10228D1*
X17155Y10185D1*
X17126Y10156D1*
X17083Y10142D1*
X17054D1*
X17011Y10156D1*
X16982Y10185D1*
X16968Y10228D1*
Y10443D1*
X16875D2*
Y10142D1*
X16775D1*
X16732Y10156D1*
X16703Y10185D1*
X16689Y10214D1*
X16674Y10256D1*
Y10328D1*
X16689Y10371D1*
X16703Y10400D1*
X16732Y10429D1*
X16775Y10443D1*
X16875D1*
X16582Y10092D2*
X16309D1*
X16216Y10443D2*
Y10142D1*
X16044D1*
X15865Y10443D2*
X15894Y10429D1*
X15923Y10400D1*
X15937Y10371D1*
X15952Y10328D1*
Y10256D1*
X15937Y10214D1*
X15923Y10185D1*
X15894Y10156D1*
X15865Y10142D1*
X15808D1*
X15780Y10156D1*
X15751Y10185D1*
X15736Y10214D1*
X15722Y10256D1*
Y10328D1*
X15736Y10371D1*
X15751Y10400D1*
X15780Y10429D1*
X15808Y10443D1*
X15865D1*
X15630D2*
Y10228D1*
X15615Y10185D1*
X15586Y10156D1*
X15543Y10142D1*
X15515D1*
X15472Y10156D1*
X15443Y10185D1*
X15429Y10228D1*
Y10443D1*
X15235D2*
Y10142D1*
X15336Y10443D2*
X15135D1*
X19842Y12649D2*
Y12951D1*
X19957Y12649D1*
X20072Y12951D1*
Y12649D1*
X19750Y12951D2*
Y12649D1*
X19442Y12879D2*
X19456Y12908D1*
X19485Y12936D1*
X19514Y12951D1*
X19571D1*
X19600Y12936D1*
X19628Y12908D1*
X19643Y12879D1*
X19657Y12836D1*
Y12764D1*
X19643Y12721D1*
X19628Y12692D1*
X19600Y12664D1*
X19571Y12649D1*
X19514D1*
X19485Y12664D1*
X19456Y12692D1*
X19442Y12721D1*
X19349Y12600D2*
X19077D1*
X18984Y12807D2*
X18855D1*
X18812Y12822D1*
X18797Y12836D1*
X18783Y12864D1*
Y12893D1*
X18797Y12922D1*
X18812Y12936D1*
X18855Y12951D1*
X18984D1*
Y12649D1*
X18884Y12807D2*
X18783Y12649D1*
X18504Y12951D2*
X18691D1*
Y12649D1*
X18504D1*
X18691Y12807D2*
X18576D1*
X18182Y12649D2*
Y12951D1*
X18297Y12649D1*
X18412Y12951D1*
Y12649D1*
X18774Y12261D2*
X18788Y12290D1*
X18817Y12319D1*
X18846Y12333D1*
X18903D1*
X18932Y12319D1*
X18961Y12290D1*
X18975Y12261D1*
X18989Y12218D1*
Y12146D1*
X18975Y12104D1*
X18961Y12075D1*
X18932Y12046D1*
X18903Y12032D1*
X18846D1*
X18817Y12046D1*
X18788Y12075D1*
X18774Y12104D1*
Y12146D1*
X18846D1*
X18481Y12333D2*
Y12032D1*
X18682Y12333D1*
Y12032D1*
X18388Y12333D2*
Y12032D1*
X18288D1*
X18244Y12046D1*
X18216Y12075D1*
X18201Y12104D1*
X18187Y12146D1*
Y12218D1*
X18201Y12261D1*
X18216Y12290D1*
X18244Y12319D1*
X18288Y12333D1*
X18388D1*
X18979Y11736D2*
X18821D1*
X18907Y11621D1*
X18864D1*
X18835Y11607D1*
X18821Y11593D1*
X18807Y11549D1*
Y11521D1*
X18821Y11478D1*
X18850Y11449D1*
X18893Y11435D1*
X18936D1*
X18979Y11449D1*
X18993Y11464D1*
X19008Y11492D1*
X18714Y11736D2*
X18599Y11435D1*
X18484Y11736D1*
X18363D2*
X18205D1*
X18291Y11621D1*
X18248D1*
X18220Y11607D1*
X18205Y11593D1*
X18191Y11549D1*
Y11521D1*
X18205Y11478D1*
X18234Y11449D1*
X18277Y11435D1*
X18320D1*
X18363Y11449D1*
X18377Y11464D1*
X18392Y11492D1*
X18805Y11041D2*
X18834Y11070D1*
X18877Y11084D1*
X18934D1*
X18977Y11070D1*
X19006Y11041D1*
Y11012D1*
X18991Y10984D1*
X18977Y10969D1*
X18949Y10955D1*
X18862Y10926D1*
X18834Y10912D1*
X18819Y10897D1*
X18805Y10869D1*
Y10826D1*
X18834Y10797D1*
X18877Y10783D1*
X18934D1*
X18977Y10797D1*
X19006Y10826D1*
X18712Y11084D2*
Y10783D1*
X18612D1*
X18569Y10797D1*
X18540Y10826D1*
X18526Y10855D1*
X18511Y10897D1*
Y10969D1*
X18526Y11012D1*
X18540Y11041D1*
X18569Y11070D1*
X18612Y11084D1*
X18712D1*
X18189Y10783D2*
X18304Y11084D1*
X18419Y10783D1*
X18376Y10883D2*
X18232D1*
X18760Y10419D2*
X18789Y10448D1*
X18832Y10462D1*
X18889D1*
X18933Y10448D1*
X18961Y10419D1*
Y10390D1*
X18947Y10361D1*
X18933Y10347D1*
X18904Y10333D1*
X18818Y10304D1*
X18789Y10290D1*
X18775Y10275D1*
X18760Y10247D1*
Y10203D1*
X18789Y10175D1*
X18832Y10160D1*
X18889D1*
X18933Y10175D1*
X18961Y10203D1*
X18453Y10390D2*
X18467Y10419D1*
X18496Y10448D1*
X18524Y10462D1*
X18582D1*
X18610Y10448D1*
X18639Y10419D1*
X18654Y10390D1*
X18668Y10347D1*
Y10275D1*
X18654Y10232D1*
X18639Y10203D1*
X18610Y10175D1*
X18582Y10160D1*
X18524D1*
X18496Y10175D1*
X18467Y10203D1*
X18453Y10232D1*
X18360Y10462D2*
Y10160D1*
X18188D1*
M02*
