M48
INCH
T01C0.0157
T02C0.02
T03C0.0362
T04C0.0433
T05C0.0449
T06C0.063
T07C0.0669
T08C0.0906
T09C0.1083
%
T01
X+015166Y+015135
X+015573Y+015129
X+016008Y+015108
X+015995Y+014671
X+015574Y+014675
X+015160Y+014690
X+016886Y+014475
X+016440Y+013190
X+016453Y+012592
X+015500Y+012722
X+015500Y+012150
X+015117Y+010087
X+015752Y+009547
X+015233Y+009113
X+013894Y+009558
X+014061Y+010063
X+013576Y+009092
X+012816Y+009126
X+012537Y+008609
X+012102Y+011979
X+012088Y+012504
X+012276Y+012887
X+012062Y+013230
X+012568Y+014147
X+013355Y+014147
X+013355Y+014728
X+012765Y+015102
X+011839Y+014728
X+011535Y+014195
X+010864Y+017105
X+010404Y+017102
X+009919Y+017105
X+012409Y+017080
X+016626Y+017126
X+017220Y+017121
X+020362Y+012448
X+019092Y+010837
X+018727Y+010841
X+018723Y+010401
X+019089Y+010401
X+018724Y+009129
X+018263Y+009129
X+017814Y+009140
X+017814Y+009734
X+017480Y+011003
X+019886Y+009343
X+020392Y+009330
X+022554Y+009320
X+022542Y+010123
X+020392Y+005629
X+019889Y+005630
X+009122Y+009047
X+008291Y+009171
X+008280Y+008732
X+007562Y+008724
X+007557Y+009199
X+009023Y+011037
X+006820Y+011846
X+006663Y+011440
X+006930Y+012940
X+007313Y+013284
X+007230Y+013766
X+007810Y+013781
X+006930Y+014440
X+006160Y+015159
X+005184Y+015181
T02
X+010360Y+011359
T03
X+009380Y+005898
X+010365Y+005898
X+011152Y+005898
X+012136Y+005898
T04
X+013468Y+012941
X+013468Y+011941
X+013468Y+010941
X+013440Y+008190
X+014440Y+008190
X+015440Y+008190
X+015440Y+007182
X+014440Y+007182
X+013440Y+007182
X+006053Y+007464
X+006053Y+008464
X+005053Y+008464
X+005053Y+007464
X+005053Y+006464
X+006053Y+006464
X+021187Y+006336
X+021187Y+007336
X+021187Y+008336
X+022187Y+008336
X+022187Y+007336
X+022187Y+006336
X+022190Y+010940
X+022190Y+011940
X+022190Y+012940
X+021190Y+012940
X+021190Y+013940
X+021190Y+014940
X+022190Y+014940
X+022190Y+013940
X+021190Y+011940
X+021190Y+010940
T05
X+005090Y+014440
X+005090Y+013440
X+005090Y+012440
X+005090Y+011440
X+006090Y+011440
X+006090Y+012440
X+006090Y+013440
X+006090Y+014440
X+006090Y+010440
X+005090Y+010440
T06
X+008765Y+015084
X+008555Y+016440
X+018583Y+015093
X+018790Y+016440
T07
X+009339Y+016834
X+018021Y+016834
T08
X+008172Y+004831
X+013345Y+004831
T09
X+022440Y+004940
X+022440Y+016440
X+004940Y+016440
X+004940Y+004940
T00
M30
