G04 DipTrace 2.4.0.2*
%INTopSilk.gbr*%
%MOIN*%
%ADD10C,0.0098*%
%ADD12C,0.003*%
%ADD24C,0.0168*%
%ADD26C,0.0157*%
%ADD37C,0.0197*%
%ADD43C,0.0154*%
%ADD99C,0.0046*%
%ADD100C,0.0087*%
%ADD101C,0.0062*%
%FSLAX44Y44*%
G04*
G70*
G90*
G75*
G01*
%LNTopSilk*%
%LPD*%
X7946Y7414D2*
D10*
Y7886D1*
X8654Y7414D2*
Y7886D1*
D26*
X8300Y6686D3*
X7936Y10014D2*
D10*
Y10486D1*
X8644Y10014D2*
Y10486D1*
D26*
X8290Y9286D3*
X7907Y12523D2*
D10*
Y12996D1*
X8616Y12523D2*
Y12996D1*
D26*
X8262Y11795D3*
X6606Y14960D2*
D10*
X4574D1*
Y9920D1*
X6606D1*
Y14960D1*
X13968Y13441D2*
X12968D1*
Y10441D1*
X13968D1*
Y13441D1*
X20690Y10440D2*
X22690D1*
Y15440D1*
X20690D1*
Y10440D1*
X6553Y5964D2*
X4553D1*
Y6964D1*
X6553D1*
Y5964D1*
X8160Y6382D2*
X13356D1*
Y784D2*
Y3965D1*
Y5697D2*
Y6375D1*
Y784D2*
X8160D1*
Y3965D1*
Y5697D2*
Y6375D1*
X12940Y7682D2*
X15940D1*
Y6682D1*
X12940D1*
Y7682D1*
Y8690D2*
X15940D1*
Y7690D1*
X12940D1*
Y8690D1*
X18861Y4017D2*
Y3662D1*
X15869D2*
Y4017D1*
D37*
X17876Y6044D3*
X15770Y3662D2*
D10*
X18959D1*
X15770D2*
Y3426D1*
X18959Y3662D2*
Y3426D1*
X15770D2*
X18959D1*
X6553Y6964D2*
X4553D1*
Y7964D1*
X6553D1*
Y6964D1*
Y7964D2*
X4553D1*
Y8964D1*
X6553D1*
Y7964D1*
X20687Y5836D2*
X22687D1*
Y8836D1*
X20687D1*
Y5836D1*
D43*
X10158Y6969D3*
X9656Y7061D2*
D10*
Y8242D1*
X9459D1*
Y7061D1*
X9656D1*
D43*
X10210Y9557D3*
X9708Y9650D2*
D10*
Y10831D1*
X9512D1*
Y9650D1*
X9708D1*
D43*
X10210Y12094D3*
X9709Y12186D2*
D10*
Y13367D1*
X9512D1*
Y12186D1*
X9709D1*
D24*
X16096Y12229D3*
X17325Y13565D2*
D99*
X17311Y13593D1*
X17282Y13622D1*
X17254Y13636D1*
X17196D1*
X17167Y13622D1*
X17139Y13593D1*
X17124Y13565D1*
X17110Y13521D1*
Y13449D1*
X17124Y13407D1*
X17139Y13378D1*
X17167Y13349D1*
X17196Y13335D1*
X17254D1*
X17282Y13349D1*
X17311Y13378D1*
X17325Y13407D1*
X17418Y13578D2*
X17447Y13593D1*
X17490Y13636D1*
Y13335D1*
X16591Y10090D2*
X16577Y10118D1*
X16548Y10147D1*
X16519Y10161D1*
X16462D1*
X16433Y10147D1*
X16404Y10118D1*
X16390Y10090D1*
X16376Y10047D1*
Y9975D1*
X16390Y9932D1*
X16404Y9903D1*
X16433Y9875D1*
X16462Y9860D1*
X16519D1*
X16548Y9875D1*
X16577Y9903D1*
X16591Y9932D1*
X16698Y10089D2*
Y10104D1*
X16712Y10133D1*
X16727Y10147D1*
X16755Y10161D1*
X16813D1*
X16841Y10147D1*
X16856Y10133D1*
X16870Y10104D1*
Y10075D1*
X16856Y10046D1*
X16827Y10004D1*
X16683Y9860D1*
X16884D1*
X8117Y8877D2*
Y8575D1*
X8218D1*
X8261Y8590D1*
X8290Y8618D1*
X8304Y8647D1*
X8318Y8690D1*
Y8762D1*
X8304Y8805D1*
X8290Y8834D1*
X8261Y8862D1*
X8218Y8877D1*
X8117D1*
X8411Y8819D2*
X8440Y8834D1*
X8483Y8876D1*
Y8575D1*
X8043Y11477D2*
Y11175D1*
X8143D1*
X8186Y11190D1*
X8215Y11218D1*
X8229Y11247D1*
X8244Y11290D1*
Y11362D1*
X8229Y11405D1*
X8215Y11434D1*
X8186Y11462D1*
X8143Y11477D1*
X8043D1*
X8351Y11405D2*
Y11419D1*
X8365Y11448D1*
X8379Y11462D1*
X8408Y11476D1*
X8466D1*
X8494Y11462D1*
X8508Y11448D1*
X8523Y11419D1*
Y11391D1*
X8508Y11362D1*
X8480Y11319D1*
X8336Y11175D1*
X8537D1*
X8014Y13986D2*
Y13685D1*
X8115D1*
X8158Y13699D1*
X8187Y13728D1*
X8201Y13757D1*
X8215Y13799D1*
Y13871D1*
X8201Y13915D1*
X8187Y13943D1*
X8158Y13972D1*
X8115Y13986D1*
X8014D1*
X8337D2*
X8494D1*
X8408Y13871D1*
X8452D1*
X8480Y13857D1*
X8494Y13843D1*
X8509Y13799D1*
Y13771D1*
X8494Y13728D1*
X8466Y13699D1*
X8423Y13685D1*
X8380D1*
X8337Y13699D1*
X8323Y13714D1*
X8308Y13742D1*
X22792Y10947D2*
X23093D1*
X22864Y11055D2*
X22849D1*
X22821Y11069D1*
X22806Y11083D1*
X22792Y11112D1*
Y11169D1*
X22806Y11198D1*
X22821Y11212D1*
X22849Y11227D1*
X22878D1*
X22907Y11212D1*
X22950Y11184D1*
X23093Y11040D1*
Y11241D1*
X22863Y11549D2*
X22835Y11534D1*
X22806Y11506D1*
X22792Y11477D1*
Y11420D1*
X22806Y11391D1*
X22835Y11362D1*
X22863Y11348D1*
X22906Y11334D1*
X22978D1*
X23021Y11348D1*
X23050Y11362D1*
X23079Y11391D1*
X23093Y11420D1*
Y11477D1*
X23079Y11506D1*
X23050Y11534D1*
X23021Y11549D1*
X23093Y11641D2*
X22792Y11842D1*
X23093Y12165D2*
X22792Y12050D1*
X23093Y11935D1*
X22993Y11978D2*
Y12122D1*
X22892Y12257D2*
X23036D1*
X23079Y12272D1*
X23093Y12301D1*
Y12344D1*
X23079Y12372D1*
X23036Y12415D1*
X22892D2*
X23093D1*
X22792Y12680D2*
X23093D1*
X22935D2*
X22906Y12651D1*
X22892Y12623D1*
Y12580D1*
X22906Y12551D1*
X22935Y12522D1*
X22978Y12508D1*
X23007D1*
X23050Y12522D1*
X23079Y12551D1*
X23093Y12580D1*
Y12623D1*
X23079Y12651D1*
X23050Y12680D1*
X22792Y12773D2*
X22806Y12787D1*
X22792Y12801D1*
X22777Y12787D1*
X22792Y12773D1*
X22892Y12787D2*
X23093D1*
X22892Y12966D2*
X22906Y12937D1*
X22935Y12908D1*
X22978Y12894D1*
X23007D1*
X23050Y12908D1*
X23079Y12937D1*
X23093Y12966D1*
Y13009D1*
X23079Y13038D1*
X23050Y13066D1*
X23007Y13081D1*
X22978D1*
X22935Y13066D1*
X22906Y13038D1*
X22892Y13009D1*
Y12966D1*
X22792Y13465D2*
X23093D1*
X22792Y13666D2*
X23093D1*
X22935Y13465D2*
Y13666D1*
X22978Y13759D2*
Y13931D1*
X22950D1*
X22921Y13917D1*
X22906Y13902D1*
X22892Y13873D1*
Y13830D1*
X22906Y13802D1*
X22935Y13773D1*
X22978Y13759D1*
X23007D1*
X23050Y13773D1*
X23079Y13802D1*
X23093Y13830D1*
Y13873D1*
X23079Y13902D1*
X23050Y13931D1*
X22892Y14196D2*
X23093D1*
X22935D2*
X22906Y14167D1*
X22892Y14138D1*
Y14095D1*
X22906Y14067D1*
X22935Y14038D1*
X22978Y14023D1*
X23007D1*
X23050Y14038D1*
X23079Y14067D1*
X23093Y14095D1*
Y14138D1*
X23079Y14167D1*
X23050Y14196D1*
X22792Y14460D2*
X23093D1*
X22935D2*
X22906Y14432D1*
X22892Y14403D1*
Y14360D1*
X22906Y14331D1*
X22935Y14302D1*
X22978Y14288D1*
X23007D1*
X23050Y14302D1*
X23079Y14331D1*
X23093Y14360D1*
Y14403D1*
X23079Y14432D1*
X23050Y14460D1*
X22978Y14553D2*
Y14725D1*
X22950D1*
X22921Y14711D1*
X22906Y14696D1*
X22892Y14668D1*
Y14625D1*
X22906Y14596D1*
X22935Y14567D1*
X22978Y14553D1*
X23007D1*
X23050Y14567D1*
X23079Y14596D1*
X23093Y14625D1*
Y14668D1*
X23079Y14696D1*
X23050Y14725D1*
X22892Y14818D2*
X23093D1*
X22978D2*
X22935Y14832D1*
X22906Y14861D1*
X22892Y14890D1*
Y14933D1*
X19391Y11412D2*
X19692D1*
Y11584D1*
X19448Y11677D2*
X19434Y11706D1*
X19391Y11749D1*
X19692D1*
X9456Y8682D2*
X9427Y8668D1*
X9398Y8639D1*
X9384Y8610D1*
X9369Y8567D1*
Y8495D1*
X9384Y8452D1*
X9398Y8424D1*
X9427Y8395D1*
X9456Y8380D1*
X9513D1*
X9542Y8395D1*
X9570Y8424D1*
X9585Y8452D1*
X9599Y8495D1*
Y8567D1*
X9585Y8610D1*
X9570Y8639D1*
X9542Y8668D1*
X9513Y8682D1*
X9456D1*
X9499Y8438D2*
X9585Y8352D1*
X9692Y8624D2*
X9721Y8638D1*
X9764Y8681D1*
Y8380D1*
X9443Y11270D2*
X9415Y11256D1*
X9386Y11227D1*
X9372Y11198D1*
X9357Y11155D1*
Y11084D1*
X9372Y11040D1*
X9386Y11012D1*
X9415Y10983D1*
X9443Y10969D1*
X9501D1*
X9529Y10983D1*
X9558Y11012D1*
X9572Y11040D1*
X9587Y11084D1*
Y11155D1*
X9572Y11198D1*
X9558Y11227D1*
X9529Y11256D1*
X9501Y11270D1*
X9443D1*
X9486Y11026D2*
X9572Y10940D1*
X9694Y11198D2*
Y11212D1*
X9708Y11241D1*
X9723Y11255D1*
X9751Y11270D1*
X9809D1*
X9837Y11255D1*
X9852Y11241D1*
X9866Y11212D1*
Y11184D1*
X9852Y11155D1*
X9823Y11112D1*
X9679Y10968D1*
X9880D1*
X9444Y13806D2*
X9415Y13792D1*
X9386Y13764D1*
X9372Y13735D1*
X9358Y13692D1*
Y13620D1*
X9372Y13577D1*
X9386Y13548D1*
X9415Y13519D1*
X9444Y13505D1*
X9501D1*
X9530Y13519D1*
X9559Y13548D1*
X9573Y13577D1*
X9587Y13620D1*
Y13692D1*
X9573Y13735D1*
X9559Y13764D1*
X9530Y13792D1*
X9501Y13806D1*
X9444D1*
X9487Y13563D2*
X9573Y13476D1*
X9709Y13806D2*
X9866D1*
X9780Y13691D1*
X9824D1*
X9852Y13677D1*
X9866Y13663D1*
X9881Y13620D1*
Y13591D1*
X9866Y13548D1*
X9838Y13519D1*
X9795Y13505D1*
X9752D1*
X9709Y13519D1*
X9695Y13534D1*
X9680Y13562D1*
X10717Y8553D2*
X10746Y8567D1*
X10789Y8610D1*
Y8309D1*
X10882Y8611D2*
Y8309D1*
X11083Y8611D2*
X10882Y8410D1*
X10953Y8482D2*
X11083Y8309D1*
X10744Y11158D2*
X10773Y11173D1*
X10816Y11215D1*
Y10914D1*
X10909Y11216D2*
Y10914D1*
X11110Y11216D2*
X10909Y11015D1*
X10980Y11087D2*
X11110Y10914D1*
X10717Y13693D2*
X10746Y13707D1*
X10789Y13750D1*
Y13449D1*
X10882Y13751D2*
Y13449D1*
X11083Y13751D2*
X10882Y13550D1*
X10953Y13622D2*
X11083Y13449D1*
X17600Y9979D2*
X17629Y9994D1*
X17672Y10037D1*
Y9736D1*
X17851Y10037D2*
X17808Y10022D1*
X17779Y9979D1*
X17765Y9908D1*
Y9865D1*
X17779Y9793D1*
X17808Y9750D1*
X17851Y9736D1*
X17880D1*
X17923Y9750D1*
X17951Y9793D1*
X17966Y9865D1*
Y9908D1*
X17951Y9979D1*
X17923Y10022D1*
X17880Y10037D1*
X17851D1*
X17951Y9979D2*
X17779Y9793D1*
X18059Y10037D2*
Y9736D1*
X18260Y10037D2*
X18059Y9836D1*
X18130Y9908D2*
X18260Y9736D1*
X12244Y7311D2*
Y7009D1*
X12345D1*
X12388Y7024D1*
X12417Y7052D1*
X12431Y7081D1*
X12445Y7124D1*
Y7196D1*
X12431Y7239D1*
X12417Y7268D1*
X12388Y7297D1*
X12345Y7311D1*
X12244D1*
X12667Y7289D2*
Y7031D1*
X12538Y7160D2*
X12796D1*
X12257Y8361D2*
Y8059D1*
X12358D1*
X12401Y8074D1*
X12430Y8102D1*
X12444Y8131D1*
X12458Y8174D1*
Y8246D1*
X12444Y8289D1*
X12430Y8317D1*
X12401Y8346D1*
X12358Y8361D1*
X12257D1*
X12551Y8210D2*
X12717D1*
X11702Y7818D2*
Y7516D1*
X11903Y7818D2*
Y7516D1*
X11702Y7674D2*
X11903D1*
X12082Y7818D2*
X12053Y7803D1*
X12024Y7774D1*
X12010Y7746D1*
X11996Y7703D1*
Y7631D1*
X12010Y7588D1*
X12024Y7559D1*
X12053Y7531D1*
X12082Y7516D1*
X12139D1*
X12168Y7531D1*
X12197Y7559D1*
X12211Y7588D1*
X12225Y7631D1*
Y7703D1*
X12211Y7746D1*
X12197Y7774D1*
X12168Y7803D1*
X12139Y7818D1*
X12082D1*
X12519Y7774D2*
X12490Y7803D1*
X12447Y7818D1*
X12390D1*
X12347Y7803D1*
X12318Y7774D1*
Y7746D1*
X12332Y7717D1*
X12347Y7703D1*
X12375Y7689D1*
X12461Y7660D1*
X12490Y7645D1*
X12504Y7631D1*
X12519Y7602D1*
Y7559D1*
X12490Y7531D1*
X12447Y7516D1*
X12390D1*
X12347Y7531D1*
X12318Y7559D1*
X12712Y7818D2*
Y7516D1*
X12611Y7818D2*
X12812D1*
X16212Y7837D2*
X16184Y7823D1*
X16155Y7794D1*
X16140Y7765D1*
X16126Y7722D1*
Y7650D1*
X16140Y7607D1*
X16155Y7579D1*
X16184Y7550D1*
X16212Y7535D1*
X16270D1*
X16298Y7550D1*
X16327Y7579D1*
X16341Y7607D1*
X16356Y7650D1*
Y7722D1*
X16341Y7765D1*
X16327Y7794D1*
X16298Y7823D1*
X16270Y7837D1*
X16212D1*
X16549D2*
Y7535D1*
X16448Y7837D2*
X16649D1*
X16957Y7765D2*
X16943Y7794D1*
X16914Y7823D1*
X16885Y7837D1*
X16828D1*
X16799Y7823D1*
X16771Y7794D1*
X16756Y7765D1*
X16742Y7722D1*
Y7650D1*
X16756Y7607D1*
X16771Y7579D1*
X16799Y7550D1*
X16828Y7535D1*
X16885D1*
X16914Y7550D1*
X16943Y7579D1*
X16957Y7607D1*
Y7650D1*
X16885D1*
X14180Y10945D2*
X14309D1*
X14352Y10960D1*
X14366Y10974D1*
X14380Y11003D1*
Y11032D1*
X14366Y11060D1*
X14352Y11075D1*
X14309Y11089D1*
X14180D1*
Y10788D1*
X14280Y10945D2*
X14380Y10788D1*
X14659Y11089D2*
X14473D1*
Y10788D1*
X14659D1*
X14473Y10945D2*
X14588D1*
X14967Y11017D2*
X14953Y11046D1*
X14924Y11075D1*
X14896Y11089D1*
X14838D1*
X14809Y11075D1*
X14781Y11046D1*
X14766Y11017D1*
X14752Y10974D1*
Y10902D1*
X14766Y10860D1*
X14781Y10831D1*
X14809Y10802D1*
X14838Y10788D1*
X14896D1*
X14924Y10802D1*
X14953Y10831D1*
X14967Y10860D1*
Y10902D1*
X14896D1*
X15232Y11089D2*
X15089D1*
X15075Y10960D1*
X15089Y10974D1*
X15132Y10989D1*
X15175D1*
X15218Y10974D1*
X15247Y10945D1*
X15261Y10902D1*
Y10874D1*
X15247Y10831D1*
X15218Y10802D1*
X15175Y10788D1*
X15132D1*
X15089Y10802D1*
X15075Y10816D1*
X15060Y10845D1*
X15354Y11089D2*
X15468Y10788D1*
X15583Y11089D1*
X14145Y13111D2*
Y12809D1*
X14245D1*
X14289Y12824D1*
X14317Y12852D1*
X14332Y12881D1*
X14346Y12924D1*
Y12996D1*
X14332Y13039D1*
X14317Y13068D1*
X14289Y13096D1*
X14245Y13111D1*
X14145D1*
X14654Y13039D2*
X14639Y13068D1*
X14611Y13096D1*
X14582Y13111D1*
X14525D1*
X14496Y13096D1*
X14467Y13068D1*
X14453Y13039D1*
X14439Y12996D1*
Y12924D1*
X14453Y12881D1*
X14467Y12852D1*
X14496Y12824D1*
X14525Y12809D1*
X14582D1*
X14611Y12824D1*
X14639Y12852D1*
X14654Y12881D1*
X14746Y12759D2*
X15019D1*
X15112Y13111D2*
Y12809D1*
X15405Y13111D2*
Y12809D1*
X15204Y13111D1*
Y12809D1*
X14128Y12108D2*
X14242Y11807D1*
X14357Y12108D1*
X14665Y12037D2*
X14651Y12065D1*
X14622Y12094D1*
X14593Y12108D1*
X14536D1*
X14507Y12094D1*
X14479Y12065D1*
X14464Y12037D1*
X14450Y11994D1*
Y11922D1*
X14464Y11879D1*
X14479Y11850D1*
X14507Y11822D1*
X14536Y11807D1*
X14593D1*
X14622Y11822D1*
X14651Y11850D1*
X14665Y11879D1*
X14973Y12037D2*
X14959Y12065D1*
X14930Y12094D1*
X14901Y12108D1*
X14844D1*
X14815Y12094D1*
X14786Y12065D1*
X14772Y12037D1*
X14758Y11994D1*
Y11922D1*
X14772Y11879D1*
X14786Y11850D1*
X14815Y11822D1*
X14844Y11807D1*
X14901D1*
X14930Y11822D1*
X14959Y11850D1*
X14973Y11879D1*
X12555Y10170D2*
X12770D1*
X12813Y10184D1*
X12842Y10213D1*
X12856Y10256D1*
Y10285D1*
X12842Y10328D1*
X12813Y10357D1*
X12770Y10371D1*
X12555D1*
X12598Y10664D2*
X12569Y10636D1*
X12555Y10593D1*
Y10535D1*
X12569Y10492D1*
X12598Y10464D1*
X12626D1*
X12655Y10478D1*
X12669Y10492D1*
X12684Y10521D1*
X12713Y10607D1*
X12727Y10636D1*
X12741Y10650D1*
X12770Y10664D1*
X12813D1*
X12842Y10636D1*
X12856Y10593D1*
Y10535D1*
X12842Y10492D1*
X12813Y10464D1*
X12555Y10757D2*
X12856D1*
Y10886D1*
X12842Y10930D1*
X12827Y10944D1*
X12799Y10958D1*
X12756D1*
X12727Y10944D1*
X12713Y10930D1*
X12698Y10886D1*
X12684Y10930D1*
X12669Y10944D1*
X12641Y10958D1*
X12612D1*
X12584Y10944D1*
X12569Y10930D1*
X12555Y10886D1*
Y10757D1*
X12698D2*
Y10886D1*
X12555Y11342D2*
X12856D1*
X12555Y11543D2*
X12856D1*
X12698Y11342D2*
Y11543D1*
X12555Y11722D2*
X12569Y11693D1*
X12598Y11665D1*
X12626Y11650D1*
X12669Y11636D1*
X12741D1*
X12784Y11650D1*
X12813Y11665D1*
X12842Y11693D1*
X12856Y11722D1*
Y11780D1*
X12842Y11808D1*
X12813Y11837D1*
X12784Y11851D1*
X12741Y11865D1*
X12669D1*
X12626Y11851D1*
X12598Y11837D1*
X12569Y11808D1*
X12555Y11780D1*
Y11722D1*
X12598Y12159D2*
X12569Y12130D1*
X12555Y12087D1*
Y12030D1*
X12569Y11987D1*
X12598Y11958D1*
X12626D1*
X12655Y11973D1*
X12669Y11987D1*
X12684Y12015D1*
X12713Y12102D1*
X12727Y12130D1*
X12741Y12145D1*
X12770Y12159D1*
X12813D1*
X12842Y12130D1*
X12856Y12087D1*
Y12030D1*
X12842Y11987D1*
X12813Y11958D1*
X12555Y12352D2*
X12856D1*
X12555Y12252D2*
Y12453D1*
X12713Y12837D2*
Y12966D1*
X12698Y13009D1*
X12684Y13024D1*
X12655Y13038D1*
X12612D1*
X12584Y13024D1*
X12569Y13009D1*
X12555Y12966D1*
Y12837D1*
X12856D1*
X12555Y13130D2*
X12856Y13202D1*
X12555Y13274D1*
X12856Y13346D1*
X12555Y13418D1*
X12698Y13510D2*
Y13639D1*
X12684Y13682D1*
X12669Y13697D1*
X12641Y13711D1*
X12612D1*
X12584Y13697D1*
X12569Y13682D1*
X12555Y13639D1*
Y13510D1*
X12856D1*
X12698Y13611D2*
X12856Y13711D1*
X4211Y6016D2*
Y6145D1*
X4197Y6188D1*
X4182Y6203D1*
X4154Y6217D1*
X4125D1*
X4096Y6203D1*
X4082Y6188D1*
X4068Y6145D1*
Y6016D1*
X4369D1*
X4211Y6117D2*
X4369Y6217D1*
X4254Y6310D2*
Y6482D1*
X4225D1*
X4197Y6467D1*
X4182Y6453D1*
X4168Y6424D1*
Y6381D1*
X4182Y6353D1*
X4211Y6324D1*
X4254Y6310D1*
X4283D1*
X4326Y6324D1*
X4354Y6353D1*
X4369Y6381D1*
Y6424D1*
X4354Y6453D1*
X4326Y6482D1*
X4068Y6574D2*
X4369D1*
X4168Y6839D2*
X4369D1*
X4211D2*
X4182Y6811D1*
X4168Y6782D1*
Y6739D1*
X4182Y6710D1*
X4211Y6682D1*
X4254Y6667D1*
X4283D1*
X4326Y6682D1*
X4354Y6710D1*
X4369Y6739D1*
Y6782D1*
X4354Y6811D1*
X4326Y6839D1*
X4168Y6946D2*
X4369Y7032D1*
X4426Y7004D1*
X4455Y6975D1*
X4470Y6946D1*
Y6932D1*
X4168Y7118D2*
X4369Y7032D1*
X4068Y7589D2*
X4082Y7560D1*
X4111Y7532D1*
X4139Y7517D1*
X4182Y7503D1*
X4254D1*
X4297Y7517D1*
X4326Y7532D1*
X4354Y7560D1*
X4369Y7589D1*
Y7646D1*
X4354Y7675D1*
X4326Y7704D1*
X4297Y7718D1*
X4254Y7732D1*
X4182D1*
X4139Y7718D1*
X4111Y7704D1*
X4082Y7675D1*
X4068Y7646D1*
Y7589D1*
X4168Y7825D2*
X4312D1*
X4354Y7839D1*
X4369Y7868D1*
Y7911D1*
X4354Y7940D1*
X4312Y7983D1*
X4168D2*
X4369D1*
X4068Y8118D2*
X4312D1*
X4354Y8133D1*
X4369Y8162D1*
Y8190D1*
X4168Y8075D2*
Y8176D1*
Y8283D2*
X4470D1*
X4211D2*
X4183Y8312D1*
X4168Y8340D1*
Y8383D1*
X4183Y8412D1*
X4211Y8441D1*
X4254Y8455D1*
X4283D1*
X4326Y8441D1*
X4355Y8412D1*
X4369Y8383D1*
Y8340D1*
X4355Y8312D1*
X4326Y8283D1*
X4168Y8548D2*
X4312D1*
X4354Y8562D1*
X4369Y8591D1*
Y8634D1*
X4354Y8662D1*
X4312Y8706D1*
X4168D2*
X4369D1*
X4068Y8841D2*
X4312D1*
X4354Y8856D1*
X4369Y8884D1*
Y8913D1*
X4168Y8798D2*
Y8899D1*
X6923Y8542D2*
X6909Y8571D1*
X6880Y8599D1*
X6852Y8614D1*
X6794D1*
X6766Y8599D1*
X6737Y8571D1*
X6722Y8542D1*
X6708Y8499D1*
Y8427D1*
X6722Y8384D1*
X6737Y8355D1*
X6766Y8327D1*
X6794Y8312D1*
X6852D1*
X6880Y8327D1*
X6909Y8355D1*
X6923Y8384D1*
Y8427D1*
X6852D1*
X7016Y8456D2*
X7145D1*
X7188Y8470D1*
X7203Y8485D1*
X7217Y8513D1*
Y8556D1*
X7203Y8585D1*
X7188Y8599D1*
X7145Y8614D1*
X7016D1*
Y8312D1*
X7453D2*
Y8613D1*
X7310Y8413D1*
X7525D1*
X7761Y8312D2*
Y8613D1*
X7617Y8413D1*
X7833D1*
X6925Y7540D2*
X6911Y7568D1*
X6882Y7597D1*
X6853Y7612D1*
X6796D1*
X6767Y7597D1*
X6739Y7568D1*
X6724Y7540D1*
X6710Y7497D1*
Y7425D1*
X6724Y7382D1*
X6739Y7353D1*
X6767Y7325D1*
X6796Y7310D1*
X6853D1*
X6882Y7325D1*
X6911Y7353D1*
X6925Y7382D1*
Y7425D1*
X6853D1*
X7018Y7454D2*
X7147D1*
X7190Y7468D1*
X7204Y7483D1*
X7219Y7511D1*
Y7554D1*
X7204Y7583D1*
X7190Y7597D1*
X7147Y7612D1*
X7018D1*
Y7310D1*
X7383Y7611D2*
X7340Y7597D1*
X7325Y7568D1*
Y7540D1*
X7340Y7511D1*
X7369Y7496D1*
X7426Y7482D1*
X7469Y7468D1*
X7498Y7439D1*
X7512Y7411D1*
Y7367D1*
X7498Y7339D1*
X7483Y7324D1*
X7440Y7310D1*
X7383D1*
X7340Y7324D1*
X7325Y7339D1*
X7311Y7367D1*
Y7411D1*
X7325Y7439D1*
X7354Y7468D1*
X7397Y7482D1*
X7454Y7496D1*
X7483Y7511D1*
X7498Y7540D1*
Y7568D1*
X7483Y7597D1*
X7440Y7611D1*
X7383D1*
X7748Y7310D2*
Y7611D1*
X7604Y7411D1*
X7820D1*
X6927Y6524D2*
X6912Y6552D1*
X6883Y6581D1*
X6855Y6595D1*
X6798D1*
X6769Y6581D1*
X6740Y6552D1*
X6726Y6524D1*
X6711Y6480D1*
Y6409D1*
X6726Y6366D1*
X6740Y6337D1*
X6769Y6308D1*
X6798Y6294D1*
X6855D1*
X6883Y6308D1*
X6912Y6337D1*
X6927Y6366D1*
Y6409D1*
X6855D1*
X7019Y6437D2*
X7149D1*
X7191Y6452D1*
X7206Y6466D1*
X7220Y6495D1*
Y6538D1*
X7206Y6566D1*
X7191Y6581D1*
X7149Y6595D1*
X7019D1*
Y6294D1*
X7384Y6595D2*
X7342Y6581D1*
X7327Y6552D1*
Y6523D1*
X7342Y6495D1*
X7370Y6480D1*
X7428Y6466D1*
X7471Y6452D1*
X7499Y6423D1*
X7513Y6394D1*
Y6351D1*
X7499Y6323D1*
X7485Y6308D1*
X7442Y6294D1*
X7384D1*
X7342Y6308D1*
X7327Y6323D1*
X7313Y6351D1*
Y6394D1*
X7327Y6423D1*
X7356Y6452D1*
X7399Y6466D1*
X7456Y6480D1*
X7485Y6495D1*
X7499Y6523D1*
Y6552D1*
X7485Y6581D1*
X7442Y6595D1*
X7384D1*
X7778Y6552D2*
X7764Y6581D1*
X7721Y6595D1*
X7692D1*
X7649Y6581D1*
X7620Y6538D1*
X7606Y6466D1*
Y6394D1*
X7620Y6337D1*
X7649Y6308D1*
X7692Y6294D1*
X7707D1*
X7749Y6308D1*
X7778Y6337D1*
X7792Y6380D1*
Y6394D1*
X7778Y6437D1*
X7749Y6466D1*
X7707Y6480D1*
X7692D1*
X7649Y6466D1*
X7620Y6437D1*
X7606Y6394D1*
X22931Y8046D2*
X22917Y8074D1*
X22874Y8118D1*
X23175D1*
X22874Y8210D2*
X23175Y8325D1*
X22874Y8440D1*
Y8604D2*
X22888Y8561D1*
X22917Y8547D1*
X22946D1*
X22974Y8561D1*
X22989Y8590D1*
X23003Y8647D1*
X23017Y8690D1*
X23046Y8719D1*
X23075Y8733D1*
X23118D1*
X23146Y8719D1*
X23161Y8704D1*
X23175Y8661D1*
Y8604D1*
X23161Y8561D1*
X23146Y8547D1*
X23118Y8532D1*
X23075D1*
X23046Y8547D1*
X23017Y8575D1*
X23003Y8618D1*
X22989Y8676D1*
X22974Y8704D1*
X22946Y8719D1*
X22917D1*
X22888Y8704D1*
X22874Y8661D1*
Y8604D1*
X22883Y6984D2*
Y7141D1*
X22998Y7055D1*
Y7098D1*
X23012Y7127D1*
X23026Y7141D1*
X23069Y7156D1*
X23098D1*
X23141Y7141D1*
X23170Y7113D1*
X23184Y7070D1*
Y7026D1*
X23170Y6984D1*
X23155Y6969D1*
X23127Y6955D1*
X22883Y7248D2*
X23184Y7363D1*
X22883Y7478D1*
Y7599D2*
Y7757D1*
X22998Y7671D1*
Y7714D1*
X23012Y7743D1*
X23026Y7757D1*
X23069Y7771D1*
X23098D1*
X23141Y7757D1*
X23170Y7728D1*
X23184Y7685D1*
Y7642D1*
X23170Y7599D1*
X23155Y7585D1*
X23127Y7571D1*
X22957Y6094D2*
X22929Y6079D1*
X22900Y6050D1*
X22886Y6022D1*
Y5965D1*
X22900Y5936D1*
X22929Y5907D1*
X22957Y5893D1*
X23001Y5878D1*
X23072D1*
X23115Y5893D1*
X23144Y5907D1*
X23173Y5936D1*
X23187Y5965D1*
Y6022D1*
X23173Y6050D1*
X23144Y6079D1*
X23115Y6094D1*
X23072D1*
Y6022D1*
X22886Y6387D2*
X23187D1*
X22886Y6186D1*
X23187D1*
X22886Y6480D2*
X23187D1*
Y6580D1*
X23173Y6623D1*
X23144Y6652D1*
X23115Y6667D1*
X23072Y6681D1*
X23001D1*
X22957Y6667D1*
X22929Y6652D1*
X22900Y6623D1*
X22886Y6580D1*
Y6480D1*
X19106Y6355D2*
X19235D1*
X19279Y6370D1*
X19293Y6384D1*
X19307Y6413D1*
Y6442D1*
X19293Y6470D1*
X19279Y6485D1*
X19235Y6499D1*
X19106D1*
Y6197D1*
X19207Y6355D2*
X19307Y6197D1*
X19586Y6499D2*
X19400D1*
Y6197D1*
X19586D1*
X19400Y6355D2*
X19515D1*
X19894Y6427D2*
X19880Y6456D1*
X19851Y6485D1*
X19823Y6499D1*
X19765D1*
X19736Y6485D1*
X19708Y6456D1*
X19693Y6427D1*
X19679Y6384D1*
Y6312D1*
X19693Y6269D1*
X19708Y6241D1*
X19736Y6212D1*
X19765Y6197D1*
X19823D1*
X19851Y6212D1*
X19880Y6241D1*
X19894Y6269D1*
Y6312D1*
X19823D1*
X20159Y6499D2*
X20016D1*
X20001Y6370D1*
X20016Y6384D1*
X20059Y6398D1*
X20102D1*
X20145Y6384D1*
X20174Y6355D1*
X20188Y6312D1*
Y6284D1*
X20174Y6241D1*
X20145Y6212D1*
X20102Y6197D1*
X20059D1*
X20016Y6212D1*
X20001Y6226D1*
X19987Y6255D1*
X20281Y6499D2*
X20395Y6197D1*
X20510Y6499D1*
X19596Y8520D2*
Y8219D1*
X19696D1*
X19739Y8234D1*
X19768Y8262D1*
X19783Y8291D1*
X19797Y8334D1*
Y8406D1*
X19783Y8449D1*
X19768Y8477D1*
X19739Y8506D1*
X19696Y8520D1*
X19596D1*
X20105Y8449D2*
X20090Y8477D1*
X20062Y8506D1*
X20033Y8520D1*
X19976D1*
X19947Y8506D1*
X19918Y8477D1*
X19904Y8449D1*
X19889Y8406D1*
Y8334D1*
X19904Y8291D1*
X19918Y8262D1*
X19947Y8234D1*
X19976Y8219D1*
X20033D1*
X20062Y8234D1*
X20090Y8262D1*
X20105Y8291D1*
X20197Y8520D2*
Y8219D1*
X20491Y8520D2*
Y8219D1*
X20290Y8520D1*
Y8219D1*
X9847Y16080D2*
D100*
X10115D1*
X9847Y15678D1*
X10115D1*
X10290Y16080D2*
X10309Y16061D1*
X10329Y16080D1*
X10309Y16100D1*
X10290Y16080D1*
X10309Y15946D2*
Y15678D1*
X10504Y15946D2*
Y15544D1*
Y15889D2*
X10542Y15927D1*
X10580Y15946D1*
X10638D1*
X10676Y15927D1*
X10714Y15889D1*
X10734Y15831D1*
Y15793D1*
X10714Y15736D1*
X10676Y15697D1*
X10638Y15678D1*
X10580D1*
X10542Y15697D1*
X10504Y15736D1*
X10908Y16080D2*
X10928Y16061D1*
X10947Y16080D1*
X10928Y16100D1*
X10908Y16080D1*
X10928Y15946D2*
Y15678D1*
X11179Y16080D2*
Y15755D1*
X11198Y15698D1*
X11237Y15678D1*
X11275D1*
X11122Y15946D2*
X11256D1*
X11890Y16080D2*
X12158D1*
X11890Y15678D1*
X12158D1*
X12353Y15984D2*
Y16003D1*
X12372Y16042D1*
X12391Y16061D1*
X12429Y16080D1*
X12506D1*
X12544Y16061D1*
X12563Y16042D1*
X12582Y16003D1*
Y15965D1*
X12563Y15927D1*
X12525Y15870D1*
X12333Y15678D1*
X12601D1*
X13216Y16080D2*
Y15678D1*
X13389D1*
X13446Y15698D1*
X13465Y15717D1*
X13484Y15755D1*
Y15812D1*
X13465Y15851D1*
X13446Y15870D1*
X13389Y15889D1*
X13446Y15908D1*
X13465Y15927D1*
X13484Y15965D1*
Y16004D1*
X13465Y16042D1*
X13446Y16061D1*
X13389Y16080D1*
X13216D1*
Y15889D2*
X13389D1*
X13659Y15946D2*
Y15678D1*
Y15831D2*
X13679Y15889D1*
X13717Y15927D1*
X13755Y15946D1*
X13813D1*
X13988Y15831D2*
X14217D1*
Y15870D1*
X14198Y15908D1*
X14179Y15927D1*
X14141Y15946D1*
X14083D1*
X14045Y15927D1*
X14007Y15889D1*
X13988Y15831D1*
Y15793D1*
X14007Y15736D1*
X14045Y15698D1*
X14083Y15678D1*
X14141D1*
X14179Y15698D1*
X14217Y15736D1*
X14622Y15946D2*
Y15678D1*
Y15889D2*
X14584Y15927D1*
X14545Y15946D1*
X14488D1*
X14450Y15927D1*
X14412Y15889D1*
X14392Y15831D1*
Y15793D1*
X14412Y15736D1*
X14450Y15698D1*
X14488Y15678D1*
X14545D1*
X14584Y15698D1*
X14622Y15736D1*
X14797Y16080D2*
Y15678D1*
X14988Y15946D2*
X14797Y15755D1*
X14873Y15831D2*
X15007Y15678D1*
X15277Y15946D2*
X15239Y15927D1*
X15201Y15889D1*
X15182Y15831D1*
Y15793D1*
X15201Y15736D1*
X15239Y15698D1*
X15277Y15678D1*
X15335D1*
X15373Y15698D1*
X15411Y15736D1*
X15431Y15793D1*
Y15831D1*
X15411Y15889D1*
X15373Y15927D1*
X15335Y15946D1*
X15277D1*
X15606D2*
Y15755D1*
X15625Y15698D1*
X15663Y15678D1*
X15721D1*
X15759Y15698D1*
X15816Y15755D1*
Y15946D2*
Y15678D1*
X16049Y16080D2*
Y15755D1*
X16068Y15698D1*
X16106Y15678D1*
X16144D1*
X15991Y15946D2*
X16125D1*
X16760D2*
X16875Y15678D1*
X16989Y15946D1*
X17164Y16003D2*
X17203Y16023D1*
X17260Y16080D1*
Y15678D1*
X11305Y16736D2*
D101*
Y16468D1*
Y16660D2*
X11363Y16717D1*
X11401Y16736D1*
X11458D1*
X11497Y16717D1*
X11516Y16660D1*
Y16468D1*
Y16660D2*
X11573Y16717D1*
X11612Y16736D1*
X11669D1*
X11707Y16717D1*
X11727Y16660D1*
Y16468D1*
X11946Y16736D2*
X11908Y16717D1*
X11869Y16679D1*
X11850Y16621D1*
Y16583D1*
X11869Y16526D1*
X11908Y16488D1*
X11946Y16468D1*
X12003D1*
X12042Y16488D1*
X12080Y16526D1*
X12099Y16583D1*
Y16621D1*
X12080Y16679D1*
X12042Y16717D1*
X12003Y16736D1*
X11946D1*
X12223D2*
X12433D1*
X12223Y16468D1*
X12433D1*
X12557Y16736D2*
X12767D1*
X12557Y16468D1*
X12767D1*
X12890Y16736D2*
X12967Y16468D1*
X13043Y16736D1*
X13120Y16468D1*
X13196Y16736D1*
X13549D2*
Y16468D1*
Y16679D2*
X13511Y16717D1*
X13473Y16736D1*
X13416D1*
X13377Y16717D1*
X13339Y16679D1*
X13320Y16621D1*
Y16583D1*
X13339Y16526D1*
X13377Y16488D1*
X13416Y16468D1*
X13473D1*
X13511Y16488D1*
X13549Y16526D1*
X13673Y16870D2*
Y16468D1*
X14026Y16870D2*
Y16468D1*
Y16679D2*
X13988Y16717D1*
X13949Y16736D1*
X13892D1*
X13854Y16717D1*
X13815Y16679D1*
X13796Y16621D1*
Y16583D1*
X13815Y16526D1*
X13854Y16488D1*
X13892Y16468D1*
X13949D1*
X13988Y16488D1*
X14026Y16526D1*
X14168Y16507D2*
X14149Y16487D1*
X14168Y16468D1*
X14188Y16487D1*
X14168Y16507D1*
X14541Y16679D2*
X14503Y16717D1*
X14464Y16736D1*
X14407D1*
X14369Y16717D1*
X14331Y16679D1*
X14311Y16621D1*
Y16583D1*
X14331Y16526D1*
X14369Y16488D1*
X14407Y16468D1*
X14464D1*
X14503Y16488D1*
X14541Y16526D1*
X14760Y16736D2*
X14722Y16717D1*
X14684Y16679D1*
X14665Y16621D1*
Y16583D1*
X14684Y16526D1*
X14722Y16488D1*
X14760Y16468D1*
X14818D1*
X14856Y16488D1*
X14894Y16526D1*
X14914Y16583D1*
Y16621D1*
X14894Y16679D1*
X14856Y16717D1*
X14818Y16736D1*
X14760D1*
X15037D2*
Y16468D1*
Y16660D2*
X15095Y16717D1*
X15133Y16736D1*
X15190D1*
X15229Y16717D1*
X15248Y16660D1*
Y16468D1*
Y16660D2*
X15305Y16717D1*
X15344Y16736D1*
X15401D1*
X15439Y16717D1*
X15459Y16660D1*
Y16468D1*
X19896Y7432D2*
D99*
X19882Y7461D1*
X19853Y7490D1*
X19824Y7504D1*
X19767D1*
X19738Y7490D1*
X19710Y7461D1*
X19695Y7432D1*
X19681Y7389D1*
Y7317D1*
X19695Y7275D1*
X19710Y7246D1*
X19738Y7217D1*
X19767Y7203D1*
X19824D1*
X19853Y7217D1*
X19882Y7246D1*
X19896Y7275D1*
Y7317D1*
X19824D1*
X20190Y7504D2*
Y7203D1*
X19989Y7504D1*
Y7203D1*
X20282Y7504D2*
Y7203D1*
X20383D1*
X20426Y7217D1*
X20455Y7246D1*
X20469Y7275D1*
X20483Y7317D1*
Y7389D1*
X20469Y7432D1*
X20455Y7461D1*
X20426Y7490D1*
X20383Y7504D1*
X20282D1*
X20770Y9708D2*
D12*
X20760Y9728D1*
X20732Y9756D1*
X20933D1*
X20732Y9876D2*
X20741Y9847D1*
X20770Y9828D1*
X20818Y9818D1*
X20847D1*
X20894Y9828D1*
X20923Y9847D1*
X20933Y9876D1*
Y9895D1*
X20923Y9923D1*
X20894Y9942D1*
X20847Y9952D1*
X20818D1*
X20770Y9942D1*
X20741Y9923D1*
X20732Y9895D1*
Y9876D1*
X20770Y9942D2*
X20894Y9828D1*
X20732Y10014D2*
X20933D1*
X20732Y10148D2*
X20866Y10014D1*
X20818Y10062D2*
X20933Y10148D1*
X20782Y9097D2*
X20773Y9116D1*
X20744Y9145D1*
X20945D1*
X20744Y9264D2*
X20754Y9236D1*
X20782Y9216D1*
X20830Y9207D1*
X20859D1*
X20907Y9216D1*
X20935Y9236D1*
X20945Y9264D1*
Y9283D1*
X20935Y9312D1*
X20907Y9331D1*
X20859Y9341D1*
X20830D1*
X20782Y9331D1*
X20754Y9312D1*
X20744Y9283D1*
Y9264D1*
X20782Y9331D2*
X20907Y9216D1*
X20744Y9403D2*
X20945D1*
X20744Y9537D2*
X20878Y9403D1*
X20830Y9450D2*
X20945Y9537D1*
X4166Y11301D2*
D99*
X4137Y11287D1*
X4108Y11258D1*
X4094Y11229D1*
Y11172D1*
X4108Y11143D1*
X4137Y11115D1*
X4166Y11100D1*
X4209Y11086D1*
X4281D1*
X4324Y11100D1*
X4353Y11115D1*
X4381Y11143D1*
X4396Y11172D1*
Y11229D1*
X4381Y11258D1*
X4353Y11287D1*
X4324Y11301D1*
X4281D1*
Y11229D1*
X4252Y11394D2*
Y11523D1*
X4238Y11566D1*
X4223Y11580D1*
X4195Y11595D1*
X4152D1*
X4123Y11580D1*
X4108Y11566D1*
X4094Y11523D1*
Y11394D1*
X4396D1*
X4094Y11687D2*
X4396D1*
X4094Y11866D2*
X4108Y11837D1*
X4137Y11809D1*
X4166Y11794D1*
X4209Y11780D1*
X4281D1*
X4324Y11794D1*
X4353Y11809D1*
X4381Y11837D1*
X4396Y11866D1*
Y11924D1*
X4381Y11952D1*
X4353Y11981D1*
X4324Y11995D1*
X4281Y12009D1*
X4209D1*
X4166Y11995D1*
X4137Y11981D1*
X4108Y11952D1*
X4094Y11924D1*
Y11866D1*
Y12394D2*
X4396D1*
X4094Y12595D2*
X4396D1*
X4238Y12394D2*
Y12595D1*
X4281Y12687D2*
Y12859D1*
X4252D1*
X4223Y12845D1*
X4209Y12831D1*
X4195Y12802D1*
Y12759D1*
X4209Y12730D1*
X4238Y12702D1*
X4281Y12687D1*
X4309D1*
X4353Y12702D1*
X4381Y12730D1*
X4396Y12759D1*
Y12802D1*
X4381Y12831D1*
X4353Y12859D1*
X4195Y13124D2*
X4396D1*
X4238D2*
X4209Y13096D1*
X4195Y13067D1*
Y13024D1*
X4209Y12995D1*
X4238Y12967D1*
X4281Y12952D1*
X4309D1*
X4353Y12967D1*
X4381Y12995D1*
X4396Y13024D1*
Y13067D1*
X4381Y13096D1*
X4353Y13124D1*
X4094Y13389D2*
X4396D1*
X4238D2*
X4209Y13360D1*
X4195Y13332D1*
Y13288D1*
X4209Y13260D1*
X4238Y13231D1*
X4281Y13217D1*
X4309D1*
X4353Y13231D1*
X4381Y13260D1*
X4396Y13288D1*
Y13332D1*
X4381Y13360D1*
X4353Y13389D1*
X4281Y13482D2*
Y13654D1*
X4252D1*
X4223Y13639D1*
X4209Y13625D1*
X4195Y13596D1*
Y13553D1*
X4209Y13525D1*
X4238Y13496D1*
X4281Y13482D1*
X4309D1*
X4353Y13496D1*
X4381Y13525D1*
X4396Y13553D1*
Y13596D1*
X4381Y13625D1*
X4353Y13654D1*
X4195Y13746D2*
X4396D1*
X4281D2*
X4238Y13761D1*
X4209Y13789D1*
X4195Y13818D1*
Y13861D1*
X16155Y7260D2*
Y6959D1*
X16255D1*
X16298Y6973D1*
X16327Y7002D1*
X16341Y7031D1*
X16355Y7073D1*
Y7145D1*
X16341Y7188D1*
X16327Y7217D1*
X16298Y7246D1*
X16255Y7260D1*
X16155D1*
X16577Y7238D2*
Y6980D1*
X16448Y7109D2*
X16706D1*
X16144Y8397D2*
Y8096D1*
X16244D1*
X16287Y8111D1*
X16316Y8139D1*
X16330Y8168D1*
X16345Y8211D1*
Y8283D1*
X16330Y8326D1*
X16316Y8354D1*
X16287Y8383D1*
X16244Y8397D1*
X16144D1*
X16437Y8246D2*
X16603D1*
M02*
