G04 DipTrace 2.4.0.2*
%INBottomMask.gbr*%
%MOIN*%
%ADD47C,0.0669*%
%ADD48C,0.02*%
%ADD57R,0.0494X0.0336*%
%ADD63R,0.04X0.024*%
%ADD65R,0.024X0.04*%
%ADD69O,0.0496X0.0592*%
%ADD71O,0.0592X0.0496*%
%ADD75C,0.0691*%
%ADD77C,0.0572*%
%ADD81C,0.1458*%
%ADD83C,0.071*%
%ADD85R,0.071X0.071*%
%ADD87C,0.0966*%
%ADD93R,0.0474X0.0513*%
%FSLAX44Y44*%
G04*
G70*
G90*
G75*
G01*
%LNBotMask*%
%LPD*%
D87*
X21483Y7337D3*
X11458Y8693D3*
X11665Y7346D3*
X21693Y8693D3*
D47*
X20909Y9087D3*
X12227D3*
D85*
X28508Y8758D3*
D83*
X29492D3*
X30279D3*
X31264D3*
D81*
X27299Y7691D3*
X32472D3*
D77*
X5346Y5568D3*
X7314D3*
D75*
X4952Y4505D3*
X7708D3*
D71*
X10318Y9068D3*
Y8568D3*
Y8068D3*
Y7568D3*
Y7068D3*
Y6568D3*
Y6068D3*
D69*
X11318D3*
X11818D3*
X12318D3*
X12818D3*
X13318D3*
X13818D3*
X14318D3*
X14818D3*
X15318D3*
X15818D3*
X16318D3*
X16818D3*
X17318D3*
X17818D3*
X18318D3*
X18818D3*
X19318D3*
X19818D3*
X20318D3*
X20818D3*
X21318D3*
X21818D3*
D71*
X22818D3*
Y6568D3*
Y7068D3*
Y7568D3*
Y8068D3*
Y8568D3*
Y9068D3*
D65*
X13663Y5193D3*
X13443D3*
X13223D3*
X14473D3*
X14693D3*
X14913D3*
D63*
X27443Y9473D3*
Y9693D3*
Y9913D3*
D48*
X24180Y9646D3*
Y5559D3*
Y6105D3*
Y5832D3*
Y4751D3*
Y5298D3*
Y8566D3*
Y9112D3*
Y8839D3*
Y7484D3*
Y10193D3*
Y8031D3*
Y7758D3*
Y6677D3*
Y6950D3*
Y8304D3*
Y6378D3*
Y4239D3*
D71*
X24912Y7019D3*
Y6519D3*
Y6019D3*
Y5519D3*
Y5019D3*
Y4519D3*
D69*
X5318Y8414D3*
X5818D3*
X6318D3*
X6818D3*
X7318D3*
D65*
X25630Y8255D3*
X25410D3*
X25190D3*
D48*
X8955Y4740D3*
Y8827D3*
Y8281D3*
Y8554D3*
Y9635D3*
Y9088D3*
Y5820D3*
Y5274D3*
Y5547D3*
Y6902D3*
Y4193D3*
Y6355D3*
Y6628D3*
Y7709D3*
Y7436D3*
Y6082D3*
Y8008D3*
Y10147D3*
D69*
X16564Y7053D3*
D57*
X18115Y7961D3*
Y7213D3*
X17209Y7587D3*
D93*
X18681Y7938D3*
Y7269D3*
M02*
