G04 DipTrace 2.4.0.2*
%INTop.gbr*%
%MOIN*%
%ADD14C,0.0142*%
%ADD15C,0.0079*%
%ADD16C,0.0157*%
%ADD18C,0.0138*%
%ADD19C,0.0118*%
%ADD20C,0.025*%
%ADD23R,0.0394X0.0433*%
%ADD24R,0.0433X0.0394*%
%ADD25R,0.0126X0.0827*%
%ADD26C,0.0886*%
%ADD27R,0.063X0.063*%
%ADD28C,0.063*%
%ADD29C,0.1378*%
%ADD32R,0.0157X0.0531*%
%ADD33C,0.0492*%
%ADD34C,0.061*%
%ADD35R,0.0591X0.0591*%
%ADD36O,0.0512X0.0416*%
%ADD37O,0.0416X0.0512*%
%ADD38R,0.0394X0.0531*%
%ADD42R,0.0118X0.0276*%
%ADD43R,0.063X0.0394*%
%ADD46C,0.031*%
%FSLAX44Y44*%
G04*
G70*
G90*
G75*
G01*
%LNTop*%
%LPD*%
X16174Y8693D2*
D14*
Y6212D1*
X16318Y6068D1*
X15977Y8693D2*
Y6227D1*
X15818Y6068D1*
X25431Y9318D2*
D15*
X25125D1*
X24993Y9186D1*
Y9893D1*
X24943Y9943D1*
X16174Y8693D2*
D14*
Y9549D1*
D16*
X16568Y9943D1*
X22977D1*
X23309Y9611D1*
X23694D1*
X23914Y9391D1*
X24553D1*
X24788D1*
X24993Y9186D1*
X15977Y8693D2*
D14*
Y9352D1*
X16174Y9549D1*
X21300Y5130D2*
D15*
Y5049D1*
X21006Y4755D1*
X18943D1*
X24553Y9391D2*
D16*
Y7379D1*
X24912Y7019D1*
X21300Y5130D2*
D15*
X22336D1*
X25687Y8373D2*
X25943D1*
X25687D2*
Y7884D1*
X25737Y7834D1*
X25943Y8373D2*
X26248D1*
X26318Y8443D1*
Y8068D2*
Y8443D1*
X14403Y8693D2*
D18*
Y8168D1*
X14500Y8071D1*
X14599Y8171D1*
Y8693D1*
X14500Y8071D2*
X13121Y6693D1*
X12693D1*
X12318Y6318D1*
Y6068D1*
X11818D2*
Y6318D1*
X12193Y6693D1*
X12693D1*
X14403Y8693D2*
Y9248D1*
X14512Y9358D1*
X14599Y9270D1*
Y8693D1*
X23443Y9943D2*
D16*
X23818D1*
X14512Y9357D2*
Y9718D1*
X14979Y10185D1*
X23231D1*
X23481Y9936D1*
D15*
X23436D1*
X23443Y9943D1*
X5818Y5568D2*
D16*
Y6068D1*
X5318Y6568D1*
Y8414D1*
X14979Y10185D2*
X9435D1*
X9156Y9906D1*
X5669D1*
X5323Y9560D1*
Y8418D1*
X5318Y8414D1*
X15584Y8693D2*
D15*
Y7584D1*
X14818Y6818D1*
Y6068D1*
X16962Y8693D2*
Y6587D1*
X16818Y6443D1*
Y6068D1*
X17552Y8693D2*
Y6834D1*
X18318Y6068D1*
X14796Y8693D2*
Y7921D1*
X13318Y6443D1*
X12943D1*
X12818Y6318D1*
Y6068D1*
X25431Y8373D2*
X25136D1*
X24993Y8517D1*
X25068Y7834D2*
Y8442D1*
X24993Y8517D1*
X25431Y8373D2*
Y8590D1*
X25687Y8846D1*
X27299Y7691D2*
X31264D1*
X32472D1*
X31264Y8758D2*
Y7691D1*
X14206Y8693D2*
Y9325D1*
X14032Y9498D1*
X6842Y5568D2*
X7314D1*
Y4899D1*
X7708Y4505D1*
X6724D1*
X5936D1*
X4952D1*
X5346Y5568D2*
Y4899D1*
X4952Y4505D1*
X7708D2*
D16*
Y4465D1*
X10466D1*
X10996Y4996D1*
X11318Y5318D1*
Y6068D1*
X7708Y4505D2*
X8074D1*
X8565Y4996D1*
X10996D1*
X7318Y8414D2*
D15*
Y6568D1*
X6842Y6092D1*
Y5568D1*
X25687Y8846D2*
X27081D1*
X27288Y8638D1*
Y7702D1*
X27299Y7691D1*
X24912Y6519D2*
D16*
X24719D1*
X24500Y6300D1*
Y5224D1*
X24302Y5027D1*
X24064D1*
X23546Y4510D1*
X23339Y4303D1*
X18583D1*
X18318Y4568D1*
Y5548D1*
Y6068D1*
X24500Y5224D2*
Y4510D1*
X23546D1*
X24912Y6519D2*
X26037D1*
X26039Y6521D1*
X26129D1*
X27299Y7691D1*
X24500Y4510D2*
D18*
Y4164D1*
X28946D1*
X32472Y7691D1*
X14818Y6068D2*
D15*
Y5766D1*
X15036Y5548D1*
X16818D1*
X18318D1*
X16818Y6068D2*
Y5548D1*
X12828Y8693D2*
Y9308D1*
X12543Y9593D1*
X10843D1*
X10318Y9068D1*
X13025Y8693D2*
Y9361D1*
X12617Y9769D1*
X10394D1*
X9915Y9290D1*
Y8721D1*
X10068Y8568D1*
X10318D1*
X13222Y8693D2*
Y9414D1*
X12679Y9957D1*
X10332D1*
X9764Y9389D1*
Y8622D1*
X10318Y8068D1*
X13418Y8693D2*
Y9593D1*
X13193Y9818D1*
X13615Y8693D2*
Y8115D1*
X13443Y7943D1*
X13068D1*
X13812Y8693D2*
Y8062D1*
X13318Y7568D1*
X12693D1*
X12277Y7984D1*
X11234D1*
X10818Y7568D1*
Y6693D1*
X10693Y6568D1*
X10318D1*
X14009Y8693D2*
Y8009D1*
X12889Y6889D1*
X12032D1*
X11586Y6443D1*
X11068D1*
X10693Y6068D1*
X10318D1*
X20308Y8693D2*
Y9308D1*
X20568Y9568D1*
X22318D1*
X22818Y9068D1*
X20111Y8693D2*
Y9361D1*
X20473Y9723D1*
X22663D1*
X23193Y9193D1*
Y8943D1*
X22818Y8568D1*
X19914Y8693D2*
Y9621D1*
X19913Y9622D1*
X20631Y5130D2*
Y5380D1*
X20756Y5505D1*
X22193D1*
X22381Y5693D1*
Y7631D1*
X22818Y8068D1*
X19718Y8693D2*
Y9293D1*
X19610Y9401D1*
X23006Y5130D2*
Y5505D1*
X23256Y5755D1*
Y7130D1*
X22818Y7568D1*
X20037Y8008D2*
X19726D1*
X19521Y8213D1*
Y8693D1*
X19922Y7570D2*
X19340Y8152D1*
Y8677D1*
X19324Y8693D1*
X19411Y7676D2*
Y7589D1*
X19127Y7872D1*
Y8693D1*
X14068Y5193D2*
Y4943D1*
X14518Y4493D1*
X15425D1*
X25687Y9318D2*
D19*
Y9789D1*
X25534Y9943D1*
X14993Y8693D2*
D15*
Y7743D1*
X13318Y6068D1*
X6074Y5568D2*
Y6687D1*
X5943Y6818D1*
X5818D1*
Y8414D1*
X15781Y8693D2*
Y6531D1*
X15318Y6068D1*
X6330Y5568D2*
Y6705D1*
X6443Y6818D1*
X6318D1*
Y8414D1*
X17159Y8693D2*
Y6227D1*
X17318Y6068D1*
X17159Y8693D2*
Y9409D1*
X17193Y9443D1*
X24912Y5519D2*
X25706D1*
X26039Y5852D1*
X17355Y8693D2*
Y6531D1*
X17818Y6068D1*
X17749Y8693D2*
Y7137D1*
X18818Y6068D1*
X17946Y8693D2*
Y7267D1*
X18726Y6487D1*
X18937D1*
X19318Y6106D1*
Y6068D1*
X18143Y8693D2*
Y7390D1*
X18904Y6629D1*
X19286D1*
X19818Y6097D1*
Y6068D1*
X18340Y8693D2*
Y7494D1*
X19040Y6794D1*
X19386D1*
X19685Y6495D1*
X19984D1*
X20318Y6161D1*
Y6068D1*
X18536Y8693D2*
Y7590D1*
X19178Y6948D1*
X19471D1*
X19772Y6647D1*
X20316D1*
X20818Y6145D1*
Y6068D1*
X18733Y8693D2*
Y7705D1*
X19286Y7152D1*
X19512D1*
X19846Y6818D1*
X20443D1*
X20818Y6443D1*
X21193D1*
X21318Y6318D1*
Y6068D1*
X21818D2*
Y6193D1*
X21318Y6693D1*
X20943D1*
X20633Y7003D1*
X19919D1*
X19586Y7336D1*
X19327D1*
X18924Y7740D1*
Y8700D1*
X18930Y8693D1*
X6586Y5568D2*
Y6209D1*
X6818Y6441D1*
Y8414D1*
X25943Y9318D2*
X26318D1*
X15387Y8693D2*
Y7637D1*
X14318Y6568D1*
Y6068D1*
X15190Y8693D2*
Y7690D1*
X13818Y6318D1*
Y6068D1*
D46*
X23818Y9943D3*
X23443D3*
X26318Y8443D3*
Y8068D3*
Y9318D3*
X14068Y5193D3*
X15425Y4493D3*
X17193Y9443D3*
X5943Y6818D3*
X6443D3*
X19913Y9622D3*
X19610Y9401D3*
X19411Y7676D3*
X19922Y7570D3*
X20037Y8008D3*
X18943Y4755D3*
X13193Y9818D3*
X13068Y7943D3*
X14032Y9498D3*
X24720Y9902D2*
D20*
X25041D1*
X24720Y9654D2*
X25041D1*
X24720Y9405D2*
X25045D1*
X24720Y9156D2*
X25041D1*
X25317Y9302D2*
X25401Y9303D1*
Y9383D1*
X25193D1*
X25088Y9445D1*
X25068Y9508D1*
X25067Y10153D1*
X24695Y10148D1*
X24693Y9066D1*
X25066Y9071D1*
X25068Y9179D1*
X25131Y9283D1*
X25192Y9301D1*
X25317Y9302D1*
X25781Y8229D2*
X26344D1*
X25773Y7980D2*
X26294D1*
X26223Y8479D2*
Y8429D1*
X26164D1*
X26138Y8408D1*
X26085Y8388D1*
X25755Y8387D1*
Y8067D1*
X25694Y7962D1*
X25632Y7942D1*
X25621Y7941D1*
Y7740D1*
X25939D1*
X26293Y7936D1*
X26368Y8061D1*
X26370Y8478D1*
X26225D1*
X4368Y9882D2*
X5197D1*
X9579D2*
X9865D1*
X13587D2*
X14236D1*
X15122D2*
X16061D1*
X25974D2*
X33018D1*
X4280Y9633D2*
X5006D1*
X9302D2*
X9615D1*
X13700D2*
X14189D1*
X14876D2*
X15822D1*
X16704D2*
X16846D1*
X17540D2*
X19291D1*
X26548D2*
X33107D1*
X4280Y9384D2*
X4998D1*
X5646D2*
X8729D1*
X9181D2*
X9479D1*
X13704D2*
X14123D1*
X14888D2*
X15662D1*
X16489D2*
X16799D1*
X17587D2*
X19209D1*
X26712D2*
X33107D1*
X4280Y9136D2*
X4998D1*
X5646D2*
X8611D1*
X9298D2*
X9477D1*
X10814D2*
X11650D1*
X16489D2*
X16850D1*
X21486D2*
X22322D1*
X23478D2*
X23732D1*
X26669D2*
X27947D1*
X30685D2*
X33107D1*
X4280Y8887D2*
X4998D1*
X5646D2*
X8615D1*
X9294D2*
X9477D1*
X10779D2*
X11686D1*
X16489D2*
X16850D1*
X21450D2*
X22357D1*
X23470D2*
X23838D1*
X25435D2*
X27947D1*
X30825D2*
X33107D1*
X4280Y8638D2*
X4904D1*
X7232D2*
X8619D1*
X9290D2*
X9477D1*
X10814D2*
X11877D1*
X16489D2*
X16850D1*
X21259D2*
X22322D1*
X23314D2*
X23842D1*
X24876D2*
X25385D1*
X26736D2*
X27947D1*
X30825D2*
X33107D1*
X4280Y8390D2*
X4865D1*
X7271D2*
X8627D1*
X9282D2*
X9604D1*
X10779D2*
X12522D1*
X16489D2*
X16850D1*
X20614D2*
X22357D1*
X23279D2*
X23846D1*
X24876D2*
X25385D1*
X26739D2*
X27947D1*
X30693D2*
X33107D1*
X4280Y8141D2*
X4928D1*
X7208D2*
X8639D1*
X9271D2*
X9822D1*
X10814D2*
X10998D1*
X16489D2*
X16850D1*
X20614D2*
X22322D1*
X23314D2*
X23854D1*
X24876D2*
X25264D1*
X26739D2*
X33107D1*
X4280Y7892D2*
X4994D1*
X7103D2*
X8631D1*
X9279D2*
X9854D1*
X16489D2*
X16873D1*
X20419D2*
X22252D1*
X23282D2*
X23865D1*
X24876D2*
X25252D1*
X26693D2*
X33107D1*
X4280Y7644D2*
X4994D1*
X7103D2*
X8615D1*
X9294D2*
X9822D1*
X11286D2*
X12225D1*
X16489D2*
X16873D1*
X20314D2*
X22096D1*
X23314D2*
X23857D1*
X24876D2*
X25252D1*
X26501D2*
X33107D1*
X4280Y7395D2*
X4994D1*
X7103D2*
X8611D1*
X9298D2*
X9854D1*
X11103D2*
X12475D1*
X20279D2*
X22096D1*
X23384D2*
X23850D1*
X25193D2*
X25459D1*
X26013D2*
X33107D1*
X4280Y7146D2*
X4994D1*
X7103D2*
X8725D1*
X9185D2*
X9822D1*
X11103D2*
X11975D1*
X15286D2*
X15494D1*
X20880D2*
X22096D1*
X23540D2*
X23900D1*
X25396D2*
X33107D1*
X4280Y6898D2*
X4994D1*
X7103D2*
X8607D1*
X9298D2*
X9854D1*
X11103D2*
X11647D1*
X15040D2*
X15494D1*
X21501D2*
X22096D1*
X23540D2*
X23838D1*
X25396D2*
X33107D1*
X4280Y6649D2*
X4994D1*
X7103D2*
X8611D1*
X9298D2*
X9826D1*
X14790D2*
X15494D1*
X17642D2*
X17846D1*
X21755D2*
X22096D1*
X23540D2*
X23838D1*
X24525D2*
X24623D1*
X25200D2*
X33107D1*
X4280Y6400D2*
X5045D1*
X7099D2*
X8611D1*
X9298D2*
X9850D1*
X12833D2*
X12971D1*
X14661D2*
X14975D1*
X16661D2*
X16873D1*
X23540D2*
X23838D1*
X24525D2*
X24643D1*
X25181D2*
X33107D1*
X4280Y6151D2*
X5287D1*
X6919D2*
X8615D1*
X9290D2*
X9826D1*
X11169D2*
X11365D1*
X12771D2*
X12865D1*
X14771D2*
X14865D1*
X16771D2*
X16865D1*
X23540D2*
X23838D1*
X25392D2*
X25596D1*
X26482D2*
X33107D1*
X4280Y5903D2*
X5494D1*
X6911D2*
X8619D1*
X9290D2*
X9850D1*
X10919D2*
X11381D1*
X12755D2*
X12881D1*
X14755D2*
X14881D1*
X16755D2*
X16881D1*
X18255D2*
X18381D1*
X23540D2*
X23842D1*
X25396D2*
X25596D1*
X26482D2*
X33107D1*
X4280Y5654D2*
X5494D1*
X6911D2*
X8627D1*
X9282D2*
X10135D1*
X10501D2*
X11572D1*
X12564D2*
X13072D1*
X14564D2*
X15072D1*
X16564D2*
X17072D1*
X18064D2*
X18572D1*
X23521D2*
X23850D1*
X26482D2*
X33107D1*
X4280Y5405D2*
X5494D1*
X6911D2*
X8639D1*
X9271D2*
X13732D1*
X14404D2*
X20170D1*
X23466D2*
X23854D1*
X25986D2*
X33107D1*
X4280Y5157D2*
X5494D1*
X6911D2*
X8631D1*
X9279D2*
X13670D1*
X14466D2*
X20170D1*
X23466D2*
X23869D1*
X25392D2*
X33107D1*
X4280Y4908D2*
X8658D1*
X9251D2*
X13787D1*
X14493D2*
X18576D1*
X23466D2*
X23877D1*
X25400D2*
X33107D1*
X4298Y4659D2*
X8619D1*
X9290D2*
X13959D1*
X15786D2*
X18557D1*
X21302D2*
X23850D1*
X25392D2*
X33088D1*
X4431Y4411D2*
X8693D1*
X9216D2*
X14209D1*
X15818D2*
X18772D1*
X19114D2*
X23885D1*
X25400D2*
X32955D1*
X26174Y7472D2*
Y7417D1*
X26069D1*
X25975Y7394D1*
X25464Y7398D1*
X25300Y7417D1*
X25296Y7525D1*
X25276Y7615D1*
Y8075D1*
X25300Y8167D1*
Y8251D1*
X25375D1*
X25407Y8266D1*
X25408Y8731D1*
X25892Y8732D1*
X26001Y8813D1*
X26067Y8823D1*
X26495D1*
X26613Y8788D1*
X26695Y8692D1*
X26715Y8603D1*
Y8028D1*
X26683Y7914D1*
X26542Y7692D1*
X26489Y7651D1*
X26173Y7473D1*
X20591Y8635D2*
Y8059D1*
X20408D1*
X20413Y8008D1*
X20392Y7885D1*
X20332Y7776D1*
X20266Y7716D1*
X20282Y7676D1*
X20297Y7570D1*
X20277Y7447D1*
X20217Y7338D1*
X20134Y7262D1*
X20633Y7263D1*
X20765Y7227D1*
X20905Y7098D1*
X21051Y6952D1*
X21318Y6953D1*
X21450Y6917D1*
X21590Y6788D1*
X21836Y6542D1*
X21923Y6531D1*
X22038Y6483D1*
X22120Y6417D1*
X22121Y7631D1*
X22157Y7763D1*
X22286Y7903D1*
X22352Y7973D1*
X22343Y8097D1*
X22369Y8219D1*
X22424Y8318D1*
X22397Y8357D1*
X22352Y8473D1*
X22343Y8597D1*
X22369Y8719D1*
X22424Y8818D1*
X22397Y8857D1*
X22352Y8973D1*
X22343Y9097D1*
X22357Y9162D1*
X22212Y9307D1*
X21416Y9308D1*
X21452Y9198D1*
X21463Y9087D1*
X21449Y8963D1*
X21408Y8845D1*
X21342Y8740D1*
X21253Y8652D1*
X21147Y8586D1*
X21029Y8545D1*
X20905Y8532D1*
X20781Y8547D1*
X20664Y8589D1*
X20588Y8637D1*
X17985Y9327D2*
X19241D1*
X19242Y9471D1*
X19285Y9588D1*
X19332Y9645D1*
X17512Y9644D1*
X17553Y9549D1*
X17568Y9443D1*
X17548Y9324D1*
X17639Y9323D1*
X17913Y9327D1*
X18229Y9323D1*
X18426Y9327D1*
X18623D1*
X18820D1*
X19017D1*
X19213D1*
X19219D1*
X16898Y8059D2*
X16875D1*
Y9243D1*
X16822Y9389D1*
X16824Y9514D1*
X16880Y9645D1*
X16691Y9643D1*
X16467Y9419D1*
X16465Y7517D1*
X16545Y7528D1*
X16669Y7516D1*
X16784Y7468D1*
X16880Y7389D1*
X16900Y7360D1*
X16899Y8059D1*
X14886Y9327D2*
X15276Y9323D1*
X15229Y9327D1*
X15670Y9323D1*
X15686Y9352D1*
X15715Y9477D1*
X15772Y9558D1*
X15963Y9761D1*
X16087Y9885D1*
X15102Y9886D1*
X14811Y9593D1*
Y9464D1*
X14853Y9408D1*
X14882Y9329D1*
X15473Y9327D1*
X15670D1*
X13681D2*
X14095Y9323D1*
X14148Y9385D1*
X14214Y9469D1*
X14213Y9718D1*
X14241Y9842D1*
X14261Y9881D1*
X14104Y9886D1*
X13561D1*
X13568Y9814D1*
X13602Y9776D1*
X13670Y9658D1*
X13678Y9468D1*
Y9323D1*
X13702D1*
X13899Y9327D1*
X14095D1*
X12545Y8087D2*
Y8634D1*
X12466Y8586D1*
X12348Y8545D1*
X12224Y8532D1*
X12100Y8547D1*
X11983Y8589D1*
X11878Y8656D1*
X11790Y8745D1*
X11725Y8851D1*
X11685Y8969D1*
X11673Y9093D1*
X11688Y9217D1*
X11729Y9331D1*
X10953Y9334D1*
X10781Y9164D1*
X10794Y9068D1*
X10776Y8945D1*
X10710Y8817D1*
X10752Y8753D1*
X10789Y8634D1*
X10794Y8568D1*
X10776Y8445D1*
X10710Y8317D1*
X10752Y8253D1*
X10789Y8134D1*
X10794Y8068D1*
X10776Y7945D1*
X10732Y7850D1*
X11050Y8167D1*
X11169Y8235D1*
X11359Y8243D1*
X12277D1*
X12409Y8207D1*
X12547Y8082D1*
X28098Y9293D2*
X29043D1*
X29049Y9058D1*
X29130Y9152D1*
X29231Y9225D1*
X29347Y9273D1*
X29470Y9293D1*
X29594Y9283D1*
X29713Y9245D1*
X29820Y9181D1*
X29884Y9118D1*
X30019Y9225D1*
X30134Y9273D1*
X30257Y9293D1*
X30382Y9283D1*
X30500Y9245D1*
X30607Y9181D1*
X30696Y9094D1*
X30763Y8988D1*
X30803Y8870D1*
X30815Y8758D1*
X30800Y8634D1*
X30757Y8517D1*
X30689Y8413D1*
X30598Y8328D1*
X30489Y8266D1*
X30370Y8230D1*
X30245Y8224D1*
X30122Y8246D1*
X30008Y8296D1*
X29909Y8372D1*
X29887Y8399D1*
X29810Y8328D1*
X29702Y8266D1*
X29582Y8230D1*
X29458Y8224D1*
X29335Y8246D1*
X29221Y8296D1*
X29121Y8372D1*
X29045Y8465D1*
X29043Y8223D1*
X27973D1*
Y9293D1*
X28098D1*
X6629Y5085D2*
X6254Y5082D1*
X5998D1*
X5519D1*
X5518Y5945D1*
X5107Y6357D1*
X5038Y6464D1*
X5019Y6568D1*
Y8056D1*
X4945Y8155D1*
X4900Y8271D1*
X4890Y8366D1*
X4894Y8462D1*
X4891Y8491D1*
X4917Y8613D1*
X4978Y8722D1*
X5025Y8768D1*
X5023Y9560D1*
X5052Y9684D1*
X5111Y9771D1*
X5461Y10120D1*
X5443Y10130D1*
X4713D1*
X4560Y10079D1*
X4406Y9976D1*
X4306Y9824D1*
X4256Y9673D1*
X4255Y4713D1*
X4307Y4560D1*
X4410Y4406D1*
X4562Y4306D1*
X4713Y4250D1*
X8638Y4252D1*
X8656Y4309D1*
X8723Y4414D1*
X8796Y4465D1*
X8731Y4510D1*
X8661Y4612D1*
X8634Y4734D1*
X8656Y4856D1*
X8723Y4961D1*
X8783Y5003D1*
X8731Y5044D1*
X8661Y5146D1*
X8634Y5268D1*
X8656Y5390D1*
X8666Y5406D1*
X8634Y5541D1*
X8656Y5663D1*
X8666Y5679D1*
X8634Y5814D1*
X8662Y5946D1*
X8634Y6076D1*
X8656Y6198D1*
X8666Y6214D1*
X8634Y6349D1*
X8656Y6471D1*
X8666Y6488D1*
X8634Y6622D1*
X8656Y6745D1*
X8666Y6761D1*
X8634Y6895D1*
X8656Y7018D1*
X8723Y7123D1*
X8783Y7165D1*
X8731Y7206D1*
X8661Y7308D1*
X8634Y7429D1*
X8656Y7552D1*
X8666Y7568D1*
X8634Y7703D1*
X8656Y7825D1*
X8675Y7854D1*
X8661Y7880D1*
X8634Y8001D1*
X8656Y8124D1*
X8666Y8140D1*
X8634Y8275D1*
X8656Y8397D1*
X8666Y8414D1*
X8634Y8548D1*
X8656Y8670D1*
X8666Y8687D1*
X8634Y8821D1*
X8662Y8953D1*
X8634Y9082D1*
X8656Y9204D1*
X8723Y9309D1*
X8796Y9361D1*
X8731Y9405D1*
X8661Y9507D1*
X8638Y9609D1*
X5793Y9607D1*
X5622Y9435D1*
Y8845D1*
X5677Y8866D1*
X5799Y8890D1*
X5923Y8877D1*
X6038Y8829D1*
X6065Y8807D1*
X6177Y8866D1*
X6299Y8890D1*
X6423Y8877D1*
X6538Y8829D1*
X6565Y8807D1*
X6677Y8866D1*
X6799Y8890D1*
X6923Y8877D1*
X7038Y8829D1*
X7135Y8750D1*
X7204Y8647D1*
X7241Y8528D1*
X7246Y8366D1*
X7228Y8243D1*
X7175Y8130D1*
X7076Y8027D1*
X7078Y6441D1*
X7042Y6309D1*
X6913Y6169D1*
X6844Y6100D1*
X6845Y6056D1*
X6885Y6054D1*
Y5082D1*
X6287Y5086D1*
X6031Y5082D1*
X5775D1*
Y5086D1*
X9924Y7823D2*
X9897Y7857D1*
X9852Y7973D1*
X9843Y8097D1*
X9857Y8162D1*
X9580Y8439D1*
X9512Y8557D1*
X9504Y8747D1*
Y9389D1*
X9540Y9521D1*
X9669Y9661D1*
X9892Y9885D1*
X9558Y9886D1*
X9330Y9664D1*
X9251Y9513D1*
X9182Y9409D1*
X9115Y9364D1*
X9173Y9322D1*
X9246Y9221D1*
X9275Y9088D1*
X9244Y8957D1*
X9275Y8827D1*
X9244Y8696D1*
X9275Y8554D1*
X9244Y8423D1*
X9275Y8281D1*
X9244Y8150D1*
X9275Y8008D1*
X9251Y7886D1*
X9236Y7863D1*
X9275Y7721D1*
X9251Y7587D1*
X9246Y7569D1*
X9275Y7436D1*
X9251Y7314D1*
X9182Y7210D1*
X9127Y7173D1*
X9173Y7136D1*
X9246Y7035D1*
X9275Y6902D1*
X9244Y6770D1*
X9275Y6628D1*
X9244Y6497D1*
X9275Y6355D1*
X9244Y6224D1*
X9275Y6082D1*
X9244Y5950D1*
X9275Y5820D1*
X9244Y5689D1*
X9275Y5547D1*
X9244Y5415D1*
X9275Y5274D1*
X9251Y5152D1*
X9182Y5048D1*
X9127Y5011D1*
X9173Y4974D1*
X9246Y4873D1*
X9275Y4740D1*
X9251Y4618D1*
X9182Y4514D1*
X9115Y4469D1*
X9173Y4427D1*
X9246Y4326D1*
X9263Y4254D1*
X10688Y4252D1*
X14419Y4253D1*
X14335Y4309D1*
X13884Y4759D1*
X13816Y4880D1*
X13809Y4921D1*
X13735Y5021D1*
X13697Y5139D1*
X13699Y5264D1*
X13743Y5380D1*
X13822Y5476D1*
X13928Y5541D1*
X14050Y5568D1*
X14173Y5553D1*
X14285Y5499D1*
X14373Y5411D1*
X14428Y5299D1*
X14443Y5193D1*
X14423Y5070D1*
X14384Y4999D1*
X14624Y4754D1*
X15155Y4752D1*
X15285Y4841D1*
X15406Y4867D1*
X15530Y4853D1*
X15642Y4799D1*
X15730Y4711D1*
X15785Y4599D1*
X15800Y4493D1*
X15779Y4370D1*
X15711Y4253D1*
X23864Y4254D1*
X23882Y4355D1*
X23949Y4460D1*
X23996Y4494D1*
X23957Y4522D1*
X23887Y4624D1*
X23860Y4745D1*
X23882Y4867D1*
X23949Y4972D1*
X24022Y5024D1*
X23957Y5068D1*
X23887Y5170D1*
X23860Y5292D1*
X23888Y5424D1*
X23860Y5552D1*
X23882Y5675D1*
X23892Y5691D1*
X23860Y5826D1*
X23882Y5948D1*
X23892Y5964D1*
X23860Y6099D1*
X23882Y6221D1*
X23892Y6237D1*
X23860Y6372D1*
X23882Y6495D1*
X23901Y6524D1*
X23887Y6550D1*
X23860Y6671D1*
X23882Y6793D1*
X23892Y6810D1*
X23860Y6944D1*
X23882Y7066D1*
X23949Y7171D1*
X24009Y7214D1*
X23957Y7255D1*
X23887Y7357D1*
X23860Y7478D1*
X23882Y7600D1*
X23892Y7617D1*
X23860Y7751D1*
X23882Y7874D1*
X23892Y7890D1*
X23860Y8025D1*
X23882Y8147D1*
X23892Y8163D1*
X23860Y8298D1*
X23888Y8430D1*
X23860Y8560D1*
X23882Y8682D1*
X23892Y8698D1*
X23860Y8833D1*
X23882Y8955D1*
X23892Y8972D1*
X23863Y9095D1*
X23753Y9139D1*
X23615Y9268D1*
X23569Y9312D1*
X23425D1*
X23444Y9258D1*
X23453Y9068D1*
Y8943D1*
X23417Y8811D1*
X23285Y8668D1*
X23294Y8568D1*
X23276Y8445D1*
X23210Y8317D1*
X23252Y8253D1*
X23289Y8134D1*
X23294Y8068D1*
X23276Y7945D1*
X23210Y7817D1*
X23252Y7753D1*
X23289Y7634D1*
X23294Y7568D1*
X23280Y7472D1*
X23440Y7314D1*
X23507Y7195D1*
X23516Y7005D1*
Y5755D1*
X23480Y5624D1*
X23415Y5547D1*
X23442Y5548D1*
Y4713D1*
X22569Y4717D1*
X22148Y4713D1*
X21899D1*
Y4874D1*
X21739Y4871D1*
X21737Y4713D1*
X21334D1*
X21189Y4572D1*
X21071Y4504D1*
X20881Y4496D1*
X19213D1*
X19146Y4440D1*
X19032Y4391D1*
X18908Y4382D1*
X18787Y4414D1*
X18684Y4483D1*
X18610Y4583D1*
X18572Y4701D1*
X18574Y4826D1*
X18618Y4942D1*
X18697Y5039D1*
X18803Y5103D1*
X18925Y5130D1*
X19048Y5115D1*
X19160Y5061D1*
X19207Y5015D1*
X20197D1*
X20194Y5548D1*
X20432D1*
X20534Y5651D1*
X20486Y5626D1*
X20366Y5594D1*
X20241Y5599D1*
X20123Y5639D1*
X20069Y5677D1*
X19986Y5626D1*
X19866Y5594D1*
X19741Y5599D1*
X19623Y5639D1*
X19569Y5677D1*
X19486Y5626D1*
X19366Y5594D1*
X19241Y5599D1*
X19123Y5639D1*
X19069Y5677D1*
X18986Y5626D1*
X18866Y5594D1*
X18741Y5599D1*
X18623Y5639D1*
X18522Y5711D1*
X18445Y5809D1*
X18400Y5925D1*
X18390Y6020D1*
X18394Y6116D1*
X18281Y6238D1*
X18190Y6329D1*
X18241Y6182D1*
X18246Y6020D1*
X18228Y5897D1*
X18175Y5784D1*
X18092Y5691D1*
X17986Y5626D1*
X17866Y5594D1*
X17741Y5599D1*
X17623Y5639D1*
X17569Y5677D1*
X17486Y5626D1*
X17366Y5594D1*
X17241Y5599D1*
X17123Y5639D1*
X17022Y5711D1*
X16945Y5809D1*
X16900Y5925D1*
X16890Y6020D1*
X16894Y6116D1*
X16901Y6195D1*
X16899Y6739D1*
X16838Y6676D1*
X16732Y6611D1*
X16611Y6579D1*
X16469Y6590D1*
X16465Y6517D1*
X16538Y6483D1*
X16635Y6404D1*
X16704Y6301D1*
X16741Y6182D1*
X16746Y6020D1*
X16728Y5897D1*
X16675Y5784D1*
X16592Y5691D1*
X16486Y5626D1*
X16366Y5594D1*
X16241Y5599D1*
X16123Y5639D1*
X16069Y5677D1*
X15986Y5626D1*
X15866Y5594D1*
X15741Y5599D1*
X15623Y5639D1*
X15569Y5677D1*
X15486Y5626D1*
X15366Y5594D1*
X15241Y5599D1*
X15123Y5639D1*
X15022Y5711D1*
X14945Y5809D1*
X14900Y5925D1*
X14890Y6020D1*
X14894Y6116D1*
X14891Y6145D1*
X14917Y6267D1*
X14978Y6376D1*
X15067Y6463D1*
X15177Y6520D1*
X15299Y6544D1*
X15412Y6532D1*
X15518Y6636D1*
X15521Y7402D1*
X14579Y6462D1*
X14635Y6404D1*
X14704Y6301D1*
X14741Y6182D1*
X14746Y6020D1*
X14728Y5897D1*
X14675Y5784D1*
X14592Y5691D1*
X14486Y5626D1*
X14366Y5594D1*
X14241Y5599D1*
X14123Y5639D1*
X14069Y5677D1*
X13986Y5626D1*
X13866Y5594D1*
X13741Y5599D1*
X13623Y5639D1*
X13569Y5677D1*
X13486Y5626D1*
X13366Y5594D1*
X13241Y5599D1*
X13123Y5639D1*
X13022Y5711D1*
X12945Y5809D1*
X12900Y5925D1*
X12890Y6020D1*
X12894Y6116D1*
X12891Y6145D1*
X12917Y6267D1*
X12978Y6376D1*
X13008Y6406D1*
X12809Y6400D1*
X12707Y6298D1*
X12741Y6182D1*
X12746Y6020D1*
X12728Y5897D1*
X12675Y5784D1*
X12592Y5691D1*
X12486Y5626D1*
X12366Y5594D1*
X12241Y5599D1*
X12123Y5639D1*
X12069Y5677D1*
X11986Y5626D1*
X11866Y5594D1*
X11741Y5599D1*
X11623Y5639D1*
X11522Y5711D1*
X11445Y5809D1*
X11400Y5925D1*
X11390Y6020D1*
X11394Y6116D1*
X11400Y6187D1*
X11176Y6183D1*
X10877Y5884D1*
X10756Y5816D1*
X10534Y5674D1*
X10414Y5642D1*
X10366Y5640D1*
X10193Y5647D1*
X10075Y5686D1*
X9974Y5759D1*
X9897Y5857D1*
X9852Y5973D1*
X9843Y6097D1*
X9869Y6219D1*
X9924Y6318D1*
X9897Y6357D1*
X9852Y6473D1*
X9843Y6597D1*
X9869Y6719D1*
X9924Y6818D1*
X9897Y6857D1*
X9852Y6973D1*
X9843Y7097D1*
X9869Y7219D1*
X9924Y7318D1*
X9897Y7357D1*
X9852Y7473D1*
X9843Y7597D1*
X9869Y7719D1*
X9924Y7818D1*
X17727Y6530D2*
X17799Y6544D1*
X17923Y6531D1*
X18035Y6485D1*
X17615Y6904D1*
Y6634D1*
X17719Y6535D1*
X25967Y8963D2*
X25467Y8960D1*
X25410Y8963D1*
Y8749D1*
X24851D1*
X24853Y7502D1*
X24906Y7449D1*
X25066Y7435D1*
X25181Y7387D1*
X25277Y7308D1*
X25347Y7204D1*
X25384Y7085D1*
X25389Y7019D1*
X25371Y6896D1*
X25318Y6783D1*
X25235Y6690D1*
X25129Y6625D1*
X25008Y6594D1*
X24960Y6591D1*
X24788Y6598D1*
X24670Y6638D1*
X24568Y6710D1*
X24492Y6808D1*
X24479Y6841D1*
X24472Y6810D1*
X24501Y6677D1*
X24477Y6555D1*
X24462Y6533D1*
X24501Y6391D1*
X24477Y6257D1*
X24472Y6238D1*
X24480Y6204D1*
X24524Y6279D1*
X24613Y6366D1*
X24724Y6424D1*
X24865Y6445D1*
X24960Y6448D1*
X25066Y6435D1*
X25181Y6387D1*
X25277Y6308D1*
X25347Y6204D1*
X25384Y6085D1*
X25389Y6019D1*
X25371Y5896D1*
X25315Y5780D1*
X25596Y5779D1*
X25619Y5800D1*
X25622Y6289D1*
X26456D1*
Y5415D1*
X25968D1*
X25890Y5336D1*
X25771Y5268D1*
X25581Y5260D1*
X25312D1*
X25347Y5204D1*
X25384Y5085D1*
X25389Y5019D1*
X25371Y4896D1*
X25305Y4769D1*
X25347Y4704D1*
X25384Y4585D1*
X25389Y4519D1*
X25371Y4396D1*
X25318Y4283D1*
X25289Y4251D1*
X25938Y4254D1*
X32677Y4255D1*
X32826Y4307D1*
X32980Y4410D1*
X33080Y4562D1*
X33130Y4713D1*
Y9673D1*
X33079Y9826D1*
X32976Y9980D1*
X32824Y10080D1*
X32673Y10130D1*
X25947D1*
X25951Y9878D1*
X25967Y9789D1*
Y9672D1*
X26206Y9676D1*
X26300Y9693D1*
X26423Y9678D1*
X26535Y9624D1*
X26623Y9536D1*
X26678Y9424D1*
X26693Y9318D1*
X26673Y9195D1*
X26613Y9086D1*
X26521Y9002D1*
X26407Y8953D1*
X26283Y8944D1*
X26219Y8961D1*
X25664Y8964D1*
X25586Y8960D1*
X25410D1*
X12939Y7308D2*
X12693D1*
X12561Y7344D1*
X12421Y7473D1*
X12170Y7724D1*
X11344D1*
X11078Y7460D1*
Y6705D1*
X11478Y6703D1*
X11848Y7072D1*
X11967Y7140D1*
X12157Y7149D1*
X12778D1*
X12940Y7307D1*
D23*
X24993Y9186D3*
Y8517D3*
D24*
X25737Y7834D3*
X25068D3*
D25*
X20308Y8693D3*
X20111D3*
X19914D3*
X19718D3*
X19521D3*
X19324D3*
X19127D3*
X18930D3*
X18733D3*
X18536D3*
X18340D3*
X18143D3*
X17946D3*
X17749D3*
X17552D3*
X17355D3*
X17159D3*
X16962D3*
X16174D3*
X15977D3*
X15781D3*
X15584D3*
X15387D3*
X15190D3*
X14993D3*
X14796D3*
X14599D3*
X14403D3*
X14206D3*
X14009D3*
X13812D3*
X13615D3*
X13418D3*
X13222D3*
X13025D3*
X12828D3*
D26*
X21483Y7337D3*
X11458Y8693D3*
X11665Y7346D3*
X21693Y8693D3*
D27*
X28508Y8758D3*
D28*
X29492D3*
X30279D3*
X31264D3*
D29*
X27299Y7691D3*
X32472D3*
D32*
X5818Y5568D3*
X6074D3*
X6330D3*
X6586D3*
X6842D3*
D33*
X5346D3*
X7314D3*
D34*
X4952Y4505D3*
X7708D3*
D35*
X5936D3*
X6724D3*
D36*
X10318Y9068D3*
Y8568D3*
Y8068D3*
Y7568D3*
Y7068D3*
Y6568D3*
Y6068D3*
D37*
X11318D3*
X11818D3*
X12318D3*
X12818D3*
X13318D3*
X13818D3*
X14318D3*
X14818D3*
X15318D3*
X15818D3*
X16318D3*
X16818D3*
X17318D3*
X17818D3*
X18318D3*
X18818D3*
X19318D3*
X19818D3*
X20318D3*
X20818D3*
X21318D3*
X21818D3*
D36*
X22818D3*
Y6568D3*
Y7068D3*
Y7568D3*
Y8068D3*
Y8568D3*
Y9068D3*
D38*
X24943Y9943D3*
X25534D3*
D23*
X26039Y5852D3*
Y6521D3*
D24*
X20631Y5130D3*
X21300D3*
X23006D3*
X22336D3*
D42*
X25943Y9318D3*
X25687D3*
X25431D3*
Y8373D3*
X25687D3*
X25943D3*
D43*
X25687Y8846D3*
D36*
X24912Y7019D3*
Y6519D3*
Y6019D3*
Y5519D3*
Y5019D3*
Y4519D3*
D37*
X5318Y8414D3*
X5818D3*
X6318D3*
X6818D3*
X7318D3*
X16564Y7053D3*
M02*
