G04 DipTrace 2.4.0.2*
%INTopSilk.gbr*%
%MOIN*%
%ADD10C,0.0098*%
%ADD12C,0.003*%
%ADD21C,0.0125*%
%ADD30C,0.0059*%
%ADD31C,0.0197*%
%ADD95C,0.0046*%
%ADD96C,0.0062*%
%FSLAX44Y44*%
G04*
G70*
G90*
G75*
G01*
%LNTopSilk*%
%LPD*%
X22198Y9205D2*
D10*
Y6748D1*
X20764D1*
Y8693D1*
X12372Y8591D2*
Y6748D1*
X10938D1*
Y9205D1*
X27288Y9242D2*
X32484D1*
Y3644D2*
Y6825D1*
Y8557D2*
Y9234D1*
Y3644D2*
X27288D1*
Y6825D1*
Y8557D2*
Y9234D1*
D31*
X5602Y6060D3*
X4755Y4859D2*
D30*
Y5686D1*
X5030D1*
X7944Y4859D2*
Y5686D1*
X7629D1*
X4755Y4190D2*
Y4032D1*
X7944Y4190D2*
Y4032D1*
X10739Y9318D2*
D10*
Y5818D1*
X9897Y9318D2*
Y5818D1*
X11068Y6489D2*
X22068D1*
X11068Y5647D2*
X22068D1*
X22397Y5818D2*
Y9318D1*
X23239Y5818D2*
Y9318D1*
X25334Y7269D2*
Y4269D1*
X24491Y7269D2*
Y4269D1*
X5068Y8835D2*
X7568D1*
X5068Y7993D2*
X7568D1*
D21*
X25279Y8165D3*
X25926Y7464D2*
D95*
X25912Y7493D1*
X25883Y7521D1*
X25854Y7536D1*
X25797D1*
X25768Y7521D1*
X25740Y7493D1*
X25725Y7464D1*
X25711Y7421D1*
Y7349D1*
X25725Y7306D1*
X25740Y7277D1*
X25768Y7249D1*
X25797Y7234D1*
X25854D1*
X25883Y7249D1*
X25912Y7277D1*
X25926Y7306D1*
X26033Y7464D2*
Y7478D1*
X26047Y7507D1*
X26062Y7521D1*
X26091Y7535D1*
X26148D1*
X26176Y7521D1*
X26191Y7507D1*
X26205Y7478D1*
Y7449D1*
X26191Y7421D1*
X26162Y7378D1*
X26019Y7234D1*
X26220D1*
X16557Y8104D2*
Y7875D1*
X16543Y7832D1*
X16529Y7817D1*
X16500Y7803D1*
X16471D1*
X16443Y7817D1*
X16428Y7832D1*
X16414Y7875D1*
Y7903D1*
X16650Y8046D2*
X16679Y8061D1*
X16722Y8104D1*
Y7803D1*
X32504Y9918D2*
Y9688D1*
X32489Y9645D1*
X32475Y9631D1*
X32446Y9616D1*
X32417D1*
X32389Y9631D1*
X32375Y9645D1*
X32360Y9688D1*
Y9717D1*
X32611Y9846D2*
Y9860D1*
X32625Y9889D1*
X32639Y9903D1*
X32668Y9917D1*
X32726D1*
X32754Y9903D1*
X32768Y9889D1*
X32783Y9860D1*
Y9831D1*
X32768Y9803D1*
X32740Y9760D1*
X32596Y9616D1*
X32797D1*
X4207Y4781D2*
X4437D1*
X4480Y4767D1*
X4494Y4752D1*
X4509Y4724D1*
Y4695D1*
X4494Y4666D1*
X4480Y4652D1*
X4437Y4637D1*
X4408D1*
X4208Y4902D2*
Y5060D1*
X4322Y4974D1*
Y5017D1*
X4337Y5046D1*
X4351Y5060D1*
X4394Y5075D1*
X4423D1*
X4466Y5060D1*
X4495Y5031D1*
X4509Y4988D1*
Y4945D1*
X4495Y4902D1*
X4480Y4888D1*
X4451Y4874D1*
X25832Y9775D2*
X26134D1*
Y9947D1*
X25890Y10039D2*
X25875Y10068D1*
X25833Y10111D1*
X26134D1*
X25856Y5390D2*
X25985D1*
X26028Y5405D1*
X26043Y5419D1*
X26057Y5448D1*
Y5476D1*
X26043Y5505D1*
X26028Y5520D1*
X25985Y5534D1*
X25856D1*
Y5232D1*
X25957Y5390D2*
X26057Y5232D1*
X26150Y5476D2*
X26179Y5491D1*
X26222Y5533D1*
Y5232D1*
X20718Y4688D2*
X20847D1*
X20890Y4703D1*
X20905Y4717D1*
X20919Y4746D1*
Y4775D1*
X20905Y4803D1*
X20890Y4818D1*
X20847Y4832D1*
X20718D1*
Y4530D1*
X20818Y4688D2*
X20919Y4530D1*
X21026Y4760D2*
Y4774D1*
X21040Y4803D1*
X21055Y4817D1*
X21084Y4832D1*
X21141D1*
X21169Y4817D1*
X21184Y4803D1*
X21198Y4774D1*
Y4746D1*
X21184Y4717D1*
X21155Y4674D1*
X21012Y4530D1*
X21213D1*
X22424Y4688D2*
X22553D1*
X22596Y4703D1*
X22610Y4717D1*
X22625Y4746D1*
Y4775D1*
X22610Y4803D1*
X22596Y4818D1*
X22553Y4832D1*
X22424D1*
Y4530D1*
X22524Y4688D2*
X22625Y4530D1*
X22746Y4832D2*
X22904D1*
X22818Y4717D1*
X22861D1*
X22889Y4703D1*
X22904Y4688D1*
X22918Y4645D1*
Y4617D1*
X22904Y4574D1*
X22875Y4545D1*
X22832Y4530D1*
X22789D1*
X22746Y4545D1*
X22732Y4559D1*
X22717Y4588D1*
X26104Y8663D2*
X26319D1*
X26362Y8677D1*
X26391Y8706D1*
X26405Y8749D1*
Y8778D1*
X26391Y8821D1*
X26362Y8850D1*
X26319Y8864D1*
X26104D1*
X26162Y8957D2*
X26147Y8985D1*
X26104Y9029D1*
X26405D1*
X9560Y4955D2*
D96*
Y4687D1*
Y4879D2*
X9617Y4936D1*
X9656Y4955D1*
X9713D1*
X9751Y4936D1*
X9770Y4879D1*
Y4687D1*
Y4879D2*
X9828Y4936D1*
X9866Y4955D1*
X9923D1*
X9962Y4936D1*
X9981Y4879D1*
Y4687D1*
X10200Y4955D2*
X10162Y4936D1*
X10124Y4898D1*
X10105Y4840D1*
Y4802D1*
X10124Y4745D1*
X10162Y4707D1*
X10200Y4687D1*
X10258D1*
X10296Y4707D1*
X10334Y4745D1*
X10354Y4802D1*
Y4840D1*
X10334Y4898D1*
X10296Y4936D1*
X10258Y4955D1*
X10200D1*
X10477D2*
X10688D1*
X10477Y4687D1*
X10688D1*
X10811Y4955D2*
X11022D1*
X10811Y4687D1*
X11022D1*
X11145Y4955D2*
X11222Y4687D1*
X11298Y4955D1*
X11375Y4687D1*
X11451Y4955D1*
X11804D2*
Y4687D1*
Y4898D2*
X11766Y4936D1*
X11728Y4955D1*
X11670D1*
X11632Y4936D1*
X11594Y4898D1*
X11575Y4840D1*
Y4802D1*
X11594Y4745D1*
X11632Y4707D1*
X11670Y4687D1*
X11728D1*
X11766Y4707D1*
X11804Y4745D1*
X11928Y5089D2*
Y4687D1*
X12281Y5089D2*
Y4687D1*
Y4898D2*
X12242Y4936D1*
X12204Y4955D1*
X12147D1*
X12109Y4936D1*
X12070Y4898D1*
X12051Y4840D1*
Y4802D1*
X12070Y4745D1*
X12109Y4707D1*
X12147Y4687D1*
X12204D1*
X12242Y4707D1*
X12281Y4745D1*
X12423Y4726D2*
X12404Y4706D1*
X12423Y4687D1*
X12442Y4706D1*
X12423Y4726D1*
X12796Y4898D2*
X12757Y4936D1*
X12719Y4955D1*
X12662D1*
X12623Y4936D1*
X12585Y4898D1*
X12566Y4840D1*
Y4802D1*
X12585Y4745D1*
X12623Y4707D1*
X12662Y4687D1*
X12719D1*
X12757Y4707D1*
X12796Y4745D1*
X13015Y4955D2*
X12977Y4936D1*
X12938Y4898D1*
X12919Y4840D1*
Y4802D1*
X12938Y4745D1*
X12977Y4707D1*
X13015Y4687D1*
X13072D1*
X13111Y4707D1*
X13149Y4745D1*
X13168Y4802D1*
Y4840D1*
X13149Y4898D1*
X13111Y4936D1*
X13072Y4955D1*
X13015D1*
X13292D2*
Y4687D1*
Y4879D2*
X13349Y4936D1*
X13388Y4955D1*
X13445D1*
X13483Y4936D1*
X13502Y4879D1*
Y4687D1*
Y4879D2*
X13560Y4936D1*
X13598Y4955D1*
X13655D1*
X13694Y4936D1*
X13713Y4879D1*
Y4687D1*
X28407Y9673D2*
D12*
Y9578D1*
X28493Y9568D1*
X28483Y9578D1*
X28473Y9607D1*
Y9635D1*
X28483Y9664D1*
X28502Y9683D1*
X28531Y9693D1*
X28550D1*
X28579Y9683D1*
X28598Y9664D1*
X28607Y9635D1*
Y9607D1*
X28598Y9578D1*
X28588Y9568D1*
X28569Y9559D1*
X28406Y9754D2*
X28607Y9831D1*
X28406Y9907D1*
X30179Y9569D2*
X30380D1*
Y9636D1*
X30371Y9665D1*
X30352Y9684D1*
X30332Y9693D1*
X30304Y9703D1*
X30256D1*
X30227Y9693D1*
X30208Y9684D1*
X30189Y9665D1*
X30179Y9636D1*
Y9569D1*
X30194Y9851D2*
X30366D1*
X30280Y9765D2*
Y9937D1*
X29390Y9582D2*
X29591D1*
Y9649D1*
X29581Y9677D1*
X29562Y9697D1*
X29543Y9706D1*
X29515Y9716D1*
X29467D1*
X29438Y9706D1*
X29419Y9697D1*
X29400Y9677D1*
X29390Y9649D1*
Y9582D1*
X29491Y9777D2*
Y9888D1*
X31206Y9640D2*
X31187Y9630D1*
X31168Y9611D1*
X31158Y9592D1*
Y9554D1*
X31168Y9535D1*
X31187Y9516D1*
X31206Y9506D1*
X31235Y9496D1*
X31283D1*
X31311Y9506D1*
X31331Y9516D1*
X31350Y9535D1*
X31359Y9554D1*
Y9592D1*
X31350Y9611D1*
X31331Y9630D1*
X31311Y9640D1*
X31283D1*
Y9592D1*
X31158Y9836D2*
X31359D1*
X31158Y9702D1*
X31359D1*
X31158Y9897D2*
X31359D1*
Y9964D1*
X31350Y9993D1*
X31331Y10012D1*
X31311Y10022D1*
X31283Y10031D1*
X31235D1*
X31206Y10022D1*
X31187Y10012D1*
X31168Y9993D1*
X31158Y9964D1*
Y9897D1*
X5196Y7287D2*
X5397Y7363D1*
X5196Y7440D1*
X5244Y7645D2*
X5225Y7635D1*
X5206Y7616D1*
X5196Y7597D1*
Y7559D1*
X5206Y7540D1*
X5225Y7521D1*
X5244Y7511D1*
X5273Y7501D1*
X5321D1*
X5349Y7511D1*
X5369Y7521D1*
X5388Y7540D1*
X5397Y7559D1*
Y7597D1*
X5388Y7616D1*
X5369Y7635D1*
X5349Y7645D1*
X5244Y7850D2*
X5225Y7841D1*
X5206Y7821D1*
X5196Y7802D1*
Y7764D1*
X5206Y7745D1*
X5225Y7726D1*
X5244Y7716D1*
X5273Y7707D1*
X5321D1*
X5349Y7716D1*
X5369Y7726D1*
X5388Y7745D1*
X5397Y7764D1*
Y7802D1*
X5388Y7821D1*
X5369Y7841D1*
X5349Y7850D1*
X5716Y7535D2*
X5917D1*
Y7602D1*
X5908Y7631D1*
X5889Y7650D1*
X5869Y7659D1*
X5841Y7669D1*
X5793D1*
X5764Y7659D1*
X5745Y7650D1*
X5726Y7631D1*
X5716Y7602D1*
Y7535D1*
X5817Y7731D2*
Y7841D1*
X6211Y7510D2*
X6412D1*
Y7577D1*
X6402Y7605D1*
X6383Y7625D1*
X6364Y7634D1*
X6336Y7644D1*
X6288D1*
X6259Y7634D1*
X6240Y7625D1*
X6221Y7605D1*
X6211Y7577D1*
Y7510D1*
X6226Y7791D2*
X6398D1*
X6312Y7705D2*
Y7878D1*
X6697Y7649D2*
X6898D1*
X6697Y7711D2*
X6898D1*
Y7778D1*
X6889Y7807D1*
X6870Y7826D1*
X6850Y7836D1*
X6822Y7845D1*
X6774D1*
X6745Y7836D1*
X6726Y7826D1*
X6707Y7807D1*
X6697Y7778D1*
Y7711D1*
X7251Y7453D2*
X7232Y7444D1*
X7213Y7424D1*
X7204Y7405D1*
Y7367D1*
X7213Y7348D1*
X7232Y7329D1*
X7251Y7319D1*
X7280Y7310D1*
X7328D1*
X7357Y7319D1*
X7376Y7329D1*
X7395Y7348D1*
X7405Y7367D1*
Y7405D1*
X7395Y7424D1*
X7376Y7444D1*
X7357Y7453D1*
X7328D1*
Y7405D1*
X7204Y7649D2*
X7405D1*
X7204Y7515D1*
X7405D1*
X7204Y7711D2*
X7405D1*
Y7778D1*
X7395Y7806D1*
X7376Y7826D1*
X7357Y7835D1*
X7328Y7845D1*
X7280D1*
X7251Y7835D1*
X7232Y7826D1*
X7213Y7806D1*
X7204Y7778D1*
Y7711D1*
X24522Y8862D2*
X24503Y8853D1*
X24484Y8834D1*
X24475Y8815D1*
Y8776D1*
X24484Y8757D1*
X24503Y8738D1*
X24522Y8728D1*
X24551Y8719D1*
X24599D1*
X24628Y8728D1*
X24647Y8738D1*
X24666Y8757D1*
X24676Y8776D1*
Y8815D1*
X24666Y8834D1*
X24647Y8853D1*
X24628Y8862D1*
X24513Y8924D2*
X24503Y8943D1*
X24475Y8972D1*
X24676D1*
M02*
