G04 DipTrace 2.4.0.2*
%INBottom.gbr*%
%MOIN*%
%ADD15C,0.0079*%
%ADD16C,0.0157*%
%ADD17C,0.0236*%
%ADD20C,0.0118*%
%ADD21C,0.025*%
%ADD24R,0.0394X0.0433*%
%ADD27C,0.0886*%
%ADD28R,0.063X0.063*%
%ADD29C,0.063*%
%ADD30C,0.1378*%
%ADD33C,0.0492*%
%ADD34C,0.061*%
%ADD36O,0.0512X0.0416*%
%ADD37O,0.0416X0.0512*%
%ADD40R,0.016X0.032*%
%ADD41R,0.032X0.016*%
%ADD45R,0.0413X0.0256*%
%ADD47C,0.031*%
%FSLAX44Y44*%
G04*
G70*
G90*
G75*
G01*
%LNBottom*%
%LPD*%
X16315Y6065D2*
D15*
Y5752D1*
X17315Y4752D1*
X18940D1*
X18112Y7210D2*
D16*
X18622D1*
X18678Y7265D1*
X16315Y6065D2*
D17*
Y6362D1*
X16543Y6590D1*
X17101D1*
X17720Y7210D1*
X18112D1*
X16543Y6590D2*
X15993D1*
X15817Y6414D1*
Y6067D1*
X15815Y6065D1*
X25627Y8252D2*
D15*
Y7914D1*
X25489Y7776D1*
X24417D1*
X24272Y7921D1*
Y8734D1*
X23628Y9378D1*
X26315Y8440D2*
D16*
X26309Y8446D1*
Y8653D1*
X26772Y9116D1*
X27071D1*
X26315Y8065D2*
Y8440D1*
X23440Y9940D2*
X23815D1*
X24503D1*
X24753Y10190D1*
X26878D1*
X27071Y9998D1*
Y9556D1*
X11315Y6065D2*
D15*
Y6996D1*
X11662Y7342D1*
X11455Y8690D2*
X11658D1*
X11986Y8362D1*
X13368D1*
X14802Y6928D1*
Y6527D1*
Y6078D1*
X14815Y6065D1*
X21690Y8690D2*
Y7545D1*
X21480Y7334D1*
X11662Y7342D2*
X12037D1*
X12815Y6565D1*
Y6523D1*
Y6065D1*
Y6523D2*
X14802Y6527D1*
Y6928D2*
Y8722D1*
X14029Y9495D1*
X21690Y8690D2*
Y8502D1*
X14770D1*
X14029Y9495D1*
X13190Y9815D2*
X10315D1*
X9940Y9440D1*
Y7940D1*
X10315Y7565D1*
X13065Y7940D2*
Y7995D1*
X11245D1*
X10815Y7565D1*
Y7190D1*
X10690Y7065D1*
X10315D1*
X19910Y9619D2*
Y9534D1*
X20135Y9759D1*
X22620D1*
X23190Y9190D1*
Y8440D1*
X22815Y8065D1*
X19607Y9397D2*
Y9297D1*
X20102D1*
X20410Y9605D1*
X21899D1*
X22440Y9065D1*
Y7940D1*
X22815Y7565D1*
X20034Y8005D2*
X20008D1*
X20294Y7718D1*
Y7498D1*
X21002Y6791D1*
X22166D1*
X22440Y7065D1*
X22815D1*
X19919Y7566D2*
Y7461D1*
X20750Y6630D1*
X22250D1*
X22315Y6565D1*
X22815D1*
X19407Y7673D2*
Y7537D1*
X20469Y6476D1*
X22029D1*
X22440Y6065D1*
X22815D1*
X13660Y5190D2*
X14065D1*
X29440Y8706D2*
X29489Y8755D1*
X15422Y4489D2*
Y4395D1*
X28413D1*
X29761Y5743D1*
Y8755D1*
X29489D1*
X28505D2*
D16*
Y9336D1*
X27071D1*
X5940Y6650D2*
D15*
Y6824D1*
X6093Y6977D1*
X7403D1*
X8440Y5940D1*
Y5214D1*
X8649Y5006D1*
X9438D1*
Y5190D1*
X9690D1*
Y4940D1*
X9940D1*
Y5190D1*
X10190D1*
Y4940D1*
X10440D1*
Y5190D1*
X13220D1*
X6440Y6650D2*
X7355D1*
X8190Y5815D1*
Y5057D1*
X8770Y4477D1*
X14227D1*
X14440Y4690D1*
Y5160D1*
X14470Y5190D1*
X17190Y9440D2*
Y9565D1*
X17565Y9940D1*
X22991D1*
X23286Y9645D1*
X23745D1*
X24005Y9385D1*
X24495D1*
X25187Y8692D1*
Y8252D1*
X24565Y8190D2*
X25125D1*
X25187Y8252D1*
X18112Y7958D2*
D16*
X18655D1*
X18678Y7935D1*
D20*
X18680D1*
X19804Y6810D1*
Y6075D1*
X19815Y6065D1*
X30315Y8716D2*
D15*
X30276Y8755D1*
X14910Y5190D2*
Y4586D1*
X15307Y4189D1*
X28570D1*
X30016Y5635D1*
Y8672D1*
X30359D1*
X30276Y8755D1*
X25407Y8252D2*
Y8782D1*
X25941Y9315D1*
Y9751D1*
X25999Y9809D1*
X16561Y7050D2*
D17*
Y7361D1*
X16783Y7584D1*
X17206D1*
X14315Y6065D2*
D15*
Y5815D1*
X14690Y5440D1*
Y5190D1*
X13815Y6065D2*
Y5815D1*
X13440Y5440D1*
Y5190D1*
D47*
X23815Y9940D3*
X23440D3*
X26315Y8440D3*
Y8065D3*
X25999Y9809D3*
X14065Y5190D3*
X15422Y4489D3*
X17190Y9440D3*
X5940Y6650D3*
X6440D3*
X19910Y9619D3*
X19607Y9397D3*
X19407Y7673D3*
X19919Y7566D3*
X20034Y8005D3*
X18940Y4752D3*
X13190Y9815D3*
X13065Y7940D3*
X14029Y9495D3*
X24565Y8190D3*
X23628Y9378D3*
X4366Y9879D2*
D21*
X5621D1*
X6882D2*
X9981D1*
X13589D2*
X17106D1*
X24894D2*
X25602D1*
X26398D2*
X26734D1*
X27398D2*
X33016D1*
X4277Y9630D2*
X5277D1*
X7226D2*
X9731D1*
X13546D2*
X16836D1*
X17652D2*
X19281D1*
X24616D2*
X25641D1*
X26359D2*
X26660D1*
X28605D2*
X33102D1*
X4277Y9381D2*
X5078D1*
X7421D2*
X9652D1*
X10683D2*
X11727D1*
X12722D2*
X16789D1*
X17589D2*
X19203D1*
X24898D2*
X25609D1*
X26230D2*
X26602D1*
X28831D2*
X33102D1*
X4277Y9133D2*
X4961D1*
X7542D2*
X9652D1*
X10816D2*
X11641D1*
X12808D2*
X16941D1*
X17437D2*
X19309D1*
X21488D2*
X21973D1*
X25144D2*
X25359D1*
X26156D2*
X26338D1*
X30687D2*
X33102D1*
X4277Y8884D2*
X4895D1*
X7605D2*
X9652D1*
X10781D2*
X11676D1*
X12773D2*
X20359D1*
X21452D2*
X22152D1*
X23480D2*
X23723D1*
X24515D2*
X24598D1*
X25909D2*
X26088D1*
X27480D2*
X27941D1*
X30824D2*
X33102D1*
X4277Y8635D2*
X4879D1*
X7620D2*
X9652D1*
X10816D2*
X11863D1*
X12585D2*
X20547D1*
X21265D2*
X22152D1*
X23480D2*
X23973D1*
X24562D2*
X24848D1*
X26745D2*
X27941D1*
X30827D2*
X33102D1*
X4277Y8387D2*
X4910D1*
X7593D2*
X9652D1*
X10781D2*
X22152D1*
X23472D2*
X23984D1*
X26714D2*
X27941D1*
X30695D2*
X33102D1*
X4277Y8138D2*
X4992D1*
X7511D2*
X9652D1*
X10816D2*
X10988D1*
X13413D2*
X17656D1*
X19124D2*
X19652D1*
X20413D2*
X22152D1*
X23316D2*
X23984D1*
X26714D2*
X29473D1*
X30304D2*
X33102D1*
X4277Y7889D2*
X5133D1*
X7370D2*
X9656D1*
X13464D2*
X16602D1*
X20519D2*
X22156D1*
X23284D2*
X23984D1*
X26675D2*
X29473D1*
X30304D2*
X33102D1*
X4277Y7640D2*
X5363D1*
X7136D2*
X9816D1*
X11288D2*
X12805D1*
X13324D2*
X16332D1*
X20581D2*
X22316D1*
X23312D2*
X24152D1*
X25753D2*
X29473D1*
X30304D2*
X33102D1*
X4277Y7392D2*
X5820D1*
X6683D2*
X9844D1*
X11105D2*
X16195D1*
X20800D2*
X22344D1*
X23284D2*
X29473D1*
X30304D2*
X33102D1*
X4277Y7143D2*
X5859D1*
X7636D2*
X9816D1*
X11101D2*
X16106D1*
X21046D2*
X22121D1*
X23312D2*
X29473D1*
X30304D2*
X33102D1*
X4277Y6894D2*
X5625D1*
X7882D2*
X9844D1*
X10917D2*
X15809D1*
X19124D2*
X19293D1*
X23284D2*
X24617D1*
X26003D2*
X29473D1*
X30304D2*
X33102D1*
X4277Y6646D2*
X5535D1*
X8132D2*
X9816D1*
X10812D2*
X15539D1*
X17667D2*
X19496D1*
X23312D2*
X24305D1*
X26320D2*
X29473D1*
X30304D2*
X33102D1*
X4277Y6397D2*
X5633D1*
X8382D2*
X9844D1*
X10784D2*
X11465D1*
X12667D2*
X12965D1*
X14667D2*
X14965D1*
X18167D2*
X18465D1*
X23284D2*
X24117D1*
X26503D2*
X29473D1*
X30304D2*
X33102D1*
X4277Y6148D2*
X7457D1*
X8628D2*
X9816D1*
X10812D2*
X11359D1*
X12773D2*
X12859D1*
X14773D2*
X14859D1*
X16773D2*
X16859D1*
X18273D2*
X18359D1*
X23312D2*
X24008D1*
X26616D2*
X29473D1*
X30304D2*
X33102D1*
X4277Y5900D2*
X7707D1*
X8730D2*
X9844D1*
X10788D2*
X11375D1*
X12757D2*
X12875D1*
X14757D2*
X14875D1*
X16757D2*
X16875D1*
X18257D2*
X18375D1*
X23288D2*
X23949D1*
X26671D2*
X29473D1*
X30304D2*
X33102D1*
X4277Y5651D2*
X7902D1*
X8730D2*
X10117D1*
X10515D2*
X11559D1*
X12570D2*
X13059D1*
X14878D2*
X15059D1*
X16816D2*
X17059D1*
X18070D2*
X18559D1*
X22070D2*
X22617D1*
X23015D2*
X23941D1*
X26683D2*
X29270D1*
X30304D2*
X33102D1*
X4277Y5402D2*
X7902D1*
X8730D2*
X9258D1*
X15238D2*
X16266D1*
X17062D2*
X23981D1*
X26644D2*
X29024D1*
X30183D2*
X33102D1*
X4277Y5154D2*
X7902D1*
X15238D2*
X16516D1*
X17312D2*
X24066D1*
X26554D2*
X28774D1*
X29933D2*
X33102D1*
X4277Y4905D2*
X7949D1*
X10726D2*
X12891D1*
X15238D2*
X16766D1*
X19312D2*
X24219D1*
X26406D2*
X28524D1*
X29683D2*
X33102D1*
X4292Y4656D2*
X8191D1*
X29437D2*
X33086D1*
X4429Y4408D2*
X8441D1*
X14554D2*
X14694D1*
X29187D2*
X32953D1*
X21451Y8960D2*
X21410Y8842D1*
X21344Y8736D1*
X21256Y8648D1*
X21150Y8581D1*
X21033Y8539D1*
X20909Y8524D1*
X20785Y8537D1*
X20667Y8578D1*
X20561Y8643D1*
X20472Y8731D1*
X20404Y8836D1*
X20362Y8953D1*
X20346Y9077D1*
X20357Y9181D1*
X20288Y9110D1*
X20180Y9045D1*
X20102Y9033D1*
X19702Y9030D1*
X19579Y9019D1*
X19458Y9049D1*
X19353Y9116D1*
X19275Y9213D1*
X19234Y9330D1*
X19232Y9455D1*
X19271Y9573D1*
X19349Y9675D1*
X17674Y9676D1*
X17550Y9552D1*
X17569Y9440D1*
X17549Y9317D1*
X17490Y9208D1*
X17399Y9123D1*
X17285Y9072D1*
X17161Y9061D1*
X17040Y9091D1*
X16936Y9158D1*
X16858Y9255D1*
X16816Y9373D1*
X16815Y9497D1*
X16853Y9615D1*
X16928Y9715D1*
X17042Y9788D1*
X17376Y10124D1*
X13413Y10123D1*
X13484Y10055D1*
X13546Y9947D1*
X13569Y9815D1*
X13549Y9692D1*
X13490Y9583D1*
X13399Y9498D1*
X13285Y9447D1*
X13161Y9436D1*
X13040Y9466D1*
X12923Y9548D1*
X12530Y9551D1*
X12654Y9442D1*
X12722Y9338D1*
X12766Y9221D1*
X12784Y9084D1*
X12770Y8960D1*
X12729Y8842D1*
X12662Y8736D1*
X12575Y8648D1*
X12469Y8581D1*
X12352Y8539D1*
X12228Y8524D1*
X12104Y8537D1*
X11986Y8578D1*
X11879Y8643D1*
X11790Y8731D1*
X11723Y8836D1*
X11681Y8953D1*
X11665Y9077D1*
X11677Y9201D1*
X11717Y9319D1*
X11782Y9426D1*
X11869Y9515D1*
X11924Y9551D1*
X10420D1*
X10372Y9498D1*
X10448Y9489D1*
X10565Y9447D1*
X10666Y9373D1*
X10741Y9274D1*
X10785Y9158D1*
X10795Y9065D1*
X10777Y8942D1*
X10712Y8814D1*
X10741Y8774D1*
X10785Y8658D1*
X10795Y8565D1*
X10777Y8442D1*
X10712Y8314D1*
X10741Y8274D1*
X10785Y8158D1*
X10795Y8065D1*
X10777Y7942D1*
X10743Y7867D1*
X11058Y8181D1*
X11167Y8247D1*
X11245Y8259D1*
X12858D1*
X12906Y8285D1*
X13026Y8317D1*
X13150Y8310D1*
X13265Y8262D1*
X13359Y8180D1*
X13421Y8072D1*
X13444Y7940D1*
X13424Y7817D1*
X13365Y7708D1*
X13274Y7623D1*
X13160Y7572D1*
X13036Y7561D1*
X12915Y7591D1*
X12811Y7658D1*
X12755Y7728D1*
X11440Y7731D1*
X11350D1*
X11081Y7457D1*
X11079Y7190D1*
X11047Y7067D1*
X11065Y7106D1*
X11002Y7003D1*
X10877Y6878D1*
X10766Y6812D1*
X10741Y6774D1*
X10785Y6658D1*
X10795Y6565D1*
X10777Y6442D1*
X10712Y6314D1*
X10741Y6274D1*
X10785Y6158D1*
X10795Y6065D1*
X10777Y5942D1*
X10725Y5829D1*
X10643Y5735D1*
X10537Y5669D1*
X10417Y5636D1*
X10363Y5632D1*
X10197Y5638D1*
X10078Y5676D1*
X9975Y5745D1*
X9896Y5842D1*
X9848Y5957D1*
X9835Y6081D1*
X9857Y6203D1*
X9916Y6317D1*
X9896Y6342D1*
X9848Y6457D1*
X9835Y6581D1*
X9857Y6703D1*
X9916Y6817D1*
X9896Y6842D1*
X9848Y6957D1*
X9835Y7081D1*
X9857Y7203D1*
X9916Y7317D1*
X9896Y7342D1*
X9848Y7457D1*
X9835Y7581D1*
X9849Y7661D1*
X9753Y7753D1*
X9688Y7862D1*
X9676Y7940D1*
Y9440D1*
X9706Y9563D1*
X9753Y9627D1*
X10128Y10002D1*
X10237Y10067D1*
X10315Y10079D1*
X12920D1*
X12976Y10123D1*
X4709Y10121D1*
X4557Y10076D1*
X4402Y9973D1*
X4303Y9821D1*
X4250Y9666D1*
X4253Y4698D1*
X4303Y4557D1*
X4407Y4402D1*
X4559Y4303D1*
X4713Y4251D1*
X8635Y4250D1*
X8495Y4379D1*
X8003Y4870D1*
X7938Y4979D1*
X7926Y5057D1*
Y5709D1*
X7473Y6159D1*
X7244Y6388D1*
X6710Y6386D1*
X6649Y6333D1*
X6535Y6282D1*
X6411Y6271D1*
X6290Y6301D1*
X6189Y6366D1*
X6149Y6333D1*
X6035Y6282D1*
X5911Y6271D1*
X5790Y6301D1*
X5686Y6368D1*
X5608Y6465D1*
X5566Y6582D1*
X5565Y6707D1*
X5603Y6825D1*
X5678Y6925D1*
X5707Y6944D1*
X5753Y7010D1*
X5906Y7163D1*
X6015Y7229D1*
X6093Y7241D1*
X7403D1*
X7526Y7210D1*
X7590Y7163D1*
X8627Y6127D1*
X8692Y6018D1*
X8704Y5940D1*
Y5327D1*
X8756Y5271D1*
X9184Y5270D1*
X9253Y5379D1*
X9359Y5442D1*
X9438Y5454D1*
X9690D1*
X9813Y5422D1*
X9777Y5438D1*
X9940Y5454D1*
X10190D1*
X10313Y5422D1*
X10277Y5438D1*
X10440Y5454D1*
X12912D1*
X12915Y5574D1*
X13209D1*
X13023Y5698D1*
X12944Y5794D1*
X12896Y5909D1*
X12882Y6017D1*
X12886Y6113D1*
X12905Y6251D1*
X12961Y6362D1*
X13047Y6452D1*
X13155Y6515D1*
X13276Y6544D1*
X13400Y6537D1*
X13518Y6495D1*
X13558Y6465D1*
X13655Y6515D1*
X13776Y6544D1*
X13900Y6537D1*
X14018Y6495D1*
X14058Y6465D1*
X14155Y6515D1*
X14276Y6544D1*
X14400Y6537D1*
X14518Y6495D1*
X14618Y6421D1*
X14693Y6322D1*
X14737Y6206D1*
X14748Y6113D1*
X14744Y6017D1*
X14730Y5894D1*
X14692Y5812D1*
X14881Y5621D1*
X14980Y5574D1*
X15214D1*
Y4807D1*
X15263Y4834D1*
X15383Y4867D1*
X15507Y4859D1*
X15622Y4812D1*
X15716Y4730D1*
X15756Y4659D1*
X17035D1*
X16124Y5571D1*
X15989Y5621D1*
X15869Y5588D1*
X15745Y5590D1*
X15626Y5628D1*
X15571Y5665D1*
X15489Y5621D1*
X15369Y5588D1*
X15245Y5590D1*
X15126Y5628D1*
X15023Y5698D1*
X14944Y5794D1*
X14896Y5909D1*
X14882Y6017D1*
X14886Y6113D1*
X14905Y6251D1*
X14961Y6362D1*
X15047Y6452D1*
X15155Y6515D1*
X15276Y6544D1*
X15400Y6537D1*
X15485Y6507D1*
X15565Y6645D1*
X15751Y6833D1*
X15853Y6903D1*
X15993Y6933D1*
X16137D1*
X16128Y7097D1*
X16151Y7236D1*
X16220Y7361D1*
X16240Y7484D1*
X16318Y7604D1*
X16540Y7826D1*
X16643Y7896D1*
X16767Y7925D1*
X16775Y7936D1*
X17637D1*
Y7542D1*
X17680Y7562D1*
X18255D1*
X18256Y7602D1*
X17680Y7605D1*
Y8310D1*
X18255D1*
X18256Y8376D1*
X19099D1*
Y7919D1*
X19249Y8018D1*
X19369Y8051D1*
X19493Y8043D1*
X19608Y7996D1*
X19658Y7952D1*
X19659Y8062D1*
X19698Y8180D1*
X19773Y8280D1*
X19875Y8350D1*
X19996Y8383D1*
X20120Y8375D1*
X20235Y8327D1*
X20328Y8245D1*
X20390Y8137D1*
X20414Y8005D1*
X20409Y7978D1*
X20481Y7905D1*
X20547Y7796D1*
X20558Y7718D1*
Y7605D1*
X21114Y7052D1*
X22002Y7055D1*
X22060D1*
X22253Y7252D1*
X22364Y7317D1*
X22396Y7342D1*
X22348Y7457D1*
X22335Y7581D1*
X22349Y7661D1*
X22253Y7753D1*
X22188Y7862D1*
X22176Y7940D1*
Y8959D1*
X21792Y9339D1*
X21403Y9341D1*
X21447Y9221D1*
X21465Y9084D1*
X21451Y8960D1*
X28805Y9294D2*
X29044D1*
Y9064D1*
X29112Y9141D1*
X29210Y9217D1*
X29324Y9269D1*
X29446Y9293D1*
X29571Y9288D1*
X29691Y9255D1*
X29801Y9195D1*
X29879Y9125D1*
X29998Y9217D1*
X30111Y9269D1*
X30234Y9293D1*
X30358Y9288D1*
X30479Y9255D1*
X30588Y9195D1*
X30681Y9112D1*
X30752Y9009D1*
X30798Y8893D1*
X30816Y8755D1*
X30801Y8631D1*
X30759Y8514D1*
X30691Y8409D1*
X30600Y8323D1*
X30493Y8260D1*
X30373Y8224D1*
X30276Y8218D1*
X30280Y7672D1*
Y5635D1*
X30249Y5512D1*
X30202Y5448D1*
X29001Y4247D1*
X30444Y4249D1*
X32675D1*
X32821Y4302D1*
X32977Y4407D1*
X33077Y4559D1*
X33129Y4710D1*
X33126Y9667D1*
X33076Y9823D1*
X32973Y9977D1*
X32821Y10077D1*
X32670Y10127D1*
X27342Y10126D1*
X27364Y10075D1*
X27374Y9873D1*
Y9861D1*
X27455Y9860D1*
Y9636D1*
X28505Y9639D1*
X28626Y9614D1*
X28727Y9542D1*
X28798Y9413D1*
X28808Y9293D1*
X29044Y8447D2*
Y8215D1*
X27965D1*
Y9032D1*
X27451Y9031D1*
X27455Y8811D1*
X26897D1*
X26669Y8584D1*
X26694Y8440D1*
X26674Y8317D1*
X26643Y8259D1*
X26671Y8197D1*
X26694Y8065D1*
X26674Y7942D1*
X26615Y7833D1*
X26524Y7748D1*
X26410Y7697D1*
X26286Y7686D1*
X26165Y7716D1*
X26061Y7783D1*
X25983Y7880D1*
X25941Y7998D1*
X25940Y8122D1*
X25985Y8250D1*
X25941Y8373D1*
X25940Y8497D1*
X25978Y8615D1*
X26004Y8650D1*
X26008Y8688D1*
X26047Y8806D1*
X26183Y8956D1*
X26557Y9330D1*
X26665Y9399D1*
X26690Y9420D1*
X26686Y9860D1*
X26768D1*
X26628Y9887D1*
X26367D1*
X26378Y9809D1*
X26358Y9687D1*
X26299Y9577D1*
X26204Y9491D1*
X26205Y9315D1*
X26174Y9192D1*
X26127Y9128D1*
X25672Y8673D1*
X25671Y8637D1*
X25932D1*
Y7868D1*
X25889D1*
X25861Y7791D1*
X25814Y7727D1*
X25676Y7589D1*
X25567Y7524D1*
X25489Y7512D1*
X24417D1*
X24294Y7542D1*
X24230Y7589D1*
X24085Y7734D1*
X24020Y7843D1*
X24008Y7921D1*
Y8628D1*
X23635Y8997D1*
X23478Y9029D1*
X23455Y9043D1*
X23454Y8440D1*
X23423Y8317D1*
X23377Y8253D1*
X23285Y8158D1*
X23295Y8065D1*
X23277Y7942D1*
X23212Y7814D1*
X23241Y7774D1*
X23285Y7658D1*
X23295Y7565D1*
X23277Y7442D1*
X23212Y7314D1*
X23241Y7274D1*
X23285Y7158D1*
X23295Y7065D1*
X23277Y6942D1*
X23212Y6814D1*
X23241Y6774D1*
X23285Y6658D1*
X23295Y6565D1*
X23277Y6442D1*
X23212Y6314D1*
X23241Y6274D1*
X23285Y6158D1*
X23295Y6065D1*
X23277Y5942D1*
X23225Y5829D1*
X23143Y5735D1*
X23037Y5669D1*
X22917Y5636D1*
X22863Y5632D1*
X22697Y5638D1*
X22578Y5676D1*
X22475Y5745D1*
X22428Y5803D1*
X22317Y5831D1*
X22234Y5898D1*
X22177Y5781D1*
X22095Y5687D1*
X21989Y5621D1*
X21869Y5588D1*
X21745Y5590D1*
X21626Y5628D1*
X21571Y5665D1*
X21489Y5621D1*
X21369Y5588D1*
X21245Y5590D1*
X21126Y5628D1*
X21071Y5665D1*
X20989Y5621D1*
X20869Y5588D1*
X20745Y5590D1*
X20626Y5628D1*
X20571Y5665D1*
X20489Y5621D1*
X20369Y5588D1*
X20245Y5590D1*
X20126Y5628D1*
X20071Y5665D1*
X19989Y5621D1*
X19869Y5588D1*
X19745Y5590D1*
X19626Y5628D1*
X19571Y5665D1*
X19489Y5621D1*
X19369Y5588D1*
X19245Y5590D1*
X19126Y5628D1*
X19071Y5665D1*
X18989Y5621D1*
X18869Y5588D1*
X18745Y5590D1*
X18626Y5628D1*
X18523Y5698D1*
X18444Y5794D1*
X18396Y5909D1*
X18382Y6017D1*
X18386Y6113D1*
X18405Y6251D1*
X18461Y6362D1*
X18547Y6452D1*
X18655Y6515D1*
X18776Y6544D1*
X18900Y6537D1*
X19018Y6495D1*
X19058Y6465D1*
X19155Y6515D1*
X19276Y6544D1*
X19400Y6537D1*
X19521Y6493D1*
X19515Y6698D1*
X19098Y7115D1*
X19099Y6824D1*
X18256D1*
Y6859D1*
X17852Y6857D1*
X17501Y6506D1*
X17558Y6465D1*
X17655Y6515D1*
X17776Y6544D1*
X17900Y6537D1*
X18018Y6495D1*
X18118Y6421D1*
X18193Y6322D1*
X18237Y6206D1*
X18248Y6113D1*
X18244Y6017D1*
X18230Y5894D1*
X18177Y5781D1*
X18095Y5687D1*
X17989Y5621D1*
X17869Y5588D1*
X17745Y5590D1*
X17626Y5628D1*
X17571Y5665D1*
X17489Y5621D1*
X17369Y5588D1*
X17245Y5590D1*
X17126Y5628D1*
X17023Y5698D1*
X16944Y5794D1*
X16896Y5909D1*
X16882Y6017D1*
X16886Y6113D1*
X16904Y6247D1*
X16722Y6248D1*
X16737Y6206D1*
X16748Y6113D1*
X16744Y6017D1*
X16730Y5894D1*
X16670Y5772D1*
X17427Y5013D1*
X18065Y5016D1*
X18670D1*
X18781Y5097D1*
X18901Y5130D1*
X19025Y5122D1*
X19140Y5074D1*
X19234Y4992D1*
X19296Y4884D1*
X19320Y4752D1*
X19304Y4656D1*
X21672Y4659D1*
X24489D1*
X24306Y4829D1*
X24158Y5030D1*
X24050Y5255D1*
X23984Y5496D1*
X23965Y5744D1*
X23991Y5993D1*
X24063Y6232D1*
X24178Y6453D1*
X24332Y6650D1*
X24520Y6815D1*
X24734Y6942D1*
X24969Y7028D1*
X25215Y7069D1*
X25465Y7064D1*
X25709Y7012D1*
X25940Y6917D1*
X26149Y6780D1*
X26329Y6608D1*
X26474Y6405D1*
X26580Y6179D1*
X26642Y5937D1*
X26658Y5725D1*
X26635Y5477D1*
X26566Y5237D1*
X26455Y5014D1*
X26304Y4815D1*
X26134Y4660D1*
X28300Y4659D1*
X29198Y5554D1*
X29500Y5855D1*
X29497Y7118D1*
Y8216D1*
X29338Y8237D1*
X29223Y8285D1*
X29123Y8358D1*
X29044Y8450D1*
X11385Y6109D2*
X11405Y6251D1*
X11461Y6362D1*
X11547Y6452D1*
X11655Y6515D1*
X11776Y6544D1*
X11900Y6537D1*
X12018Y6495D1*
X12058Y6465D1*
X12155Y6515D1*
X12276Y6544D1*
X12400Y6537D1*
X12518Y6495D1*
X12618Y6421D1*
X12693Y6322D1*
X12737Y6206D1*
X12748Y6113D1*
X12744Y6017D1*
X12730Y5894D1*
X12677Y5781D1*
X12595Y5687D1*
X12489Y5621D1*
X12369Y5588D1*
X12245Y5590D1*
X12126Y5628D1*
X12071Y5665D1*
X11989Y5621D1*
X11869Y5588D1*
X11745Y5590D1*
X11626Y5628D1*
X11523Y5698D1*
X11444Y5794D1*
X11396Y5909D1*
X11382Y6017D1*
X11386Y6113D1*
X13964Y4824D2*
Y4805D1*
X13355Y4809D1*
X13244Y4805D1*
X13135Y4809D1*
X13024Y4805D1*
X12915D1*
Y4926D1*
X10700D1*
X10690Y4856D1*
X10621Y4749D1*
X10645Y4741D1*
X14117D1*
X14176Y4799D1*
X14165Y4805D1*
X14160Y4822D1*
X14036Y4811D1*
X13964Y4829D1*
X25679Y9610D2*
X25625Y9742D1*
X25629Y9885D1*
X24882Y9887D1*
X24717Y9725D1*
X24610Y9657D1*
X24577Y9646D1*
X24682Y9572D1*
X25253Y9000D1*
X25676Y9424D1*
X25677Y9608D1*
X24538Y8567D2*
X24651Y8560D1*
X24766Y8512D1*
X24833Y8453D1*
X24883Y8493D1*
Y8624D1*
X24385Y9122D1*
X24257Y9121D1*
X24458Y8920D1*
X24524Y8812D1*
X24536Y8734D1*
Y8566D1*
X7592Y8550D2*
X7546Y8305D1*
X7455Y8072D1*
X7323Y7861D1*
X7155Y7677D1*
X6955Y7527D1*
X6731Y7417D1*
X6490Y7350D1*
X6242Y7329D1*
X5993Y7353D1*
X5754Y7424D1*
X5531Y7537D1*
X5334Y7689D1*
X5167Y7876D1*
X5038Y8089D1*
X4951Y8323D1*
X4908Y8569D1*
X4912Y8819D1*
X4961Y9064D1*
X5055Y9295D1*
X5190Y9505D1*
X5362Y9687D1*
X5564Y9833D1*
X5789Y9940D1*
X6031Y10004D1*
X6280Y10022D1*
X6528Y9993D1*
X6766Y9920D1*
X6987Y9803D1*
X7182Y9648D1*
X7346Y9460D1*
X7472Y9244D1*
X7556Y9009D1*
X7595Y8762D1*
X7592Y8550D1*
X14538Y4415D2*
X14408Y4286D1*
X14444Y4250D1*
X14870D1*
X14723Y4399D1*
X14657Y4510D1*
X14627Y4503D1*
X14538Y4415D1*
D27*
X21480Y7334D3*
X11455Y8690D3*
X11662Y7342D3*
X21690Y8690D3*
D28*
X28505Y8755D3*
D29*
X29489D3*
X30276D3*
X31261D3*
D30*
X27296Y7688D3*
X32469D3*
D33*
X5342Y5565D3*
X7311D3*
D34*
X4949Y4502D3*
X7705D3*
D36*
X10315Y9065D3*
Y8565D3*
Y8065D3*
Y7565D3*
Y7065D3*
Y6565D3*
Y6065D3*
D37*
X11315D3*
X11815D3*
X12315D3*
X12815D3*
X13315D3*
X13815D3*
X14315D3*
X14815D3*
X15315D3*
X15815D3*
X16315D3*
X16815D3*
X17315D3*
X17815D3*
X18315D3*
X18815D3*
X19315D3*
X19815D3*
X20315D3*
X20815D3*
X21315D3*
X21815D3*
D36*
X22815D3*
Y6565D3*
Y7065D3*
Y7565D3*
Y8065D3*
Y8565D3*
Y9065D3*
D40*
X13660Y5190D3*
X13440D3*
X13220D3*
X14470D3*
X14690D3*
X14910D3*
D41*
X27071Y9116D3*
Y9336D3*
Y9556D3*
D40*
X25627Y8252D3*
X25407D3*
X25187D3*
D37*
X16561Y7050D3*
D45*
X18112Y7958D3*
Y7210D3*
X17206Y7584D3*
D24*
X18678Y7935D3*
Y7265D3*
M02*
