G04 DipTrace 2.4.0.2*
%INBottomMask.gbr*%
%MOIN*%
%ADD48C,0.0669*%
%ADD49C,0.1083*%
%ADD60R,0.0492X0.0335*%
%ADD66R,0.0399X0.0239*%
%ADD68R,0.0239X0.0399*%
%ADD72O,0.0495X0.0591*%
%ADD74O,0.0591X0.0495*%
%ADD78C,0.0689*%
%ADD80C,0.0571*%
%ADD84C,0.1457*%
%ADD86C,0.0709*%
%ADD88R,0.0709X0.0709*%
%ADD90C,0.0965*%
%ADD96R,0.0472X0.0512*%
%FSLAX44Y44*%
G04*
G70*
G90*
G75*
G01*
%LNBotMask*%
%LPD*%
D90*
X21480Y7334D3*
X11455Y8690D3*
X11662Y7342D3*
X21690Y8690D3*
D48*
X20905Y9084D3*
X12224D3*
D88*
X28505Y8755D3*
D86*
X29489D3*
X30276D3*
X31261D3*
D84*
X27296Y7688D3*
X32469D3*
D80*
X5342Y5565D3*
X7311D3*
D78*
X4949Y4502D3*
X7705D3*
D74*
X10315Y9065D3*
Y8565D3*
Y8065D3*
Y7565D3*
Y7065D3*
Y6565D3*
Y6065D3*
D72*
X11315D3*
X11815D3*
X12315D3*
X12815D3*
X13315D3*
X13815D3*
X14315D3*
X14815D3*
X15315D3*
X15815D3*
X16315D3*
X16815D3*
X17315D3*
X17815D3*
X18315D3*
X18815D3*
X19315D3*
X19815D3*
X20315D3*
X20815D3*
X21315D3*
X21815D3*
D74*
X22815D3*
Y6565D3*
Y7065D3*
Y7565D3*
Y8065D3*
Y8565D3*
Y9065D3*
D68*
X13660Y5190D3*
X13440D3*
X13220D3*
X14470D3*
X14690D3*
X14910D3*
D66*
X27071Y9116D3*
Y9336D3*
Y9556D3*
D49*
X25311Y5725D3*
D68*
X25627Y8252D3*
X25407D3*
X25187D3*
D72*
X16561Y7050D3*
D60*
X18112Y7958D3*
Y7210D3*
X17206Y7584D3*
D96*
X18678Y7935D3*
Y7265D3*
D49*
X6251Y8675D3*
M02*
