M48
INCH
T01C0.0157
T02C0.0276
T03C0.0335
T04C0.0362
T05C0.0453
T06C0.063
T07C0.0669
T08C0.0906
T09C0.1083
%
T01
X+023815Y+009940
X+023440Y+009940
X+023628Y+009378
X+024565Y+008190
X+026315Y+008065
X+026315Y+008440
X+025999Y+009809
X+019910Y+009619
X+019607Y+009397
X+020034Y+008005
X+019919Y+007566
X+019407Y+007673
X+017190Y+009440
X+014029Y+009495
X+013190Y+009815
X+013065Y+007940
X+014065Y+005190
X+015422Y+004489
X+018940Y+004752
X+006440Y+006650
X+005940Y+006650
T02
X+010315Y+009065
X+010315Y+008565
X+010315Y+008065
X+010315Y+007565
X+010315Y+007065
X+010315Y+006565
X+010315Y+006065
X+011315Y+006065
X+011815Y+006065
X+012315Y+006065
X+012815Y+006065
X+013315Y+006065
X+013815Y+006065
X+014315Y+006065
X+014815Y+006065
X+015315Y+006065
X+015815Y+006065
X+016315Y+006065
X+016815Y+006065
X+017315Y+006065
X+017815Y+006065
X+018315Y+006065
X+018815Y+006065
X+019315Y+006065
X+019815Y+006065
X+020315Y+006065
X+020815Y+006065
X+021315Y+006065
X+021815Y+006065
X+022815Y+006065
X+022815Y+006565
X+022815Y+007065
X+022815Y+007565
X+022815Y+008065
X+022815Y+008565
X+022815Y+009065
X+016561Y+007050
T03
X+005342Y+005565
X+007311Y+005565
T04
X+028505Y+008755
X+029489Y+008755
X+030276Y+008755
X+031261Y+008755
T05
X+004949Y+004502
X+007705Y+004502
T06
X+021480Y+007334
X+021690Y+008690
X+011662Y+007342
X+011455Y+008690
T07
X+020905Y+009084
X+012224Y+009084
T08
X+027296Y+007688
X+032469Y+007688
T09
X+025311Y+005725
X+006251Y+008675
T00
M30
