G04 DipTrace 2.4.0.2*
%INTop.gbr*%
%MOIN*%
%ADD14C,0.0142*%
%ADD15C,0.0079*%
%ADD16C,0.0157*%
%ADD18C,0.0138*%
%ADD19C,0.0197*%
%ADD20C,0.0118*%
%ADD21C,0.025*%
%ADD24R,0.0394X0.0433*%
%ADD25R,0.0433X0.0394*%
%ADD26R,0.0126X0.0827*%
%ADD27C,0.0886*%
%ADD28R,0.063X0.063*%
%ADD29C,0.063*%
%ADD30C,0.1378*%
%ADD32R,0.0157X0.0531*%
%ADD33C,0.0492*%
%ADD34C,0.061*%
%ADD35R,0.0591X0.0591*%
%ADD36O,0.0512X0.0416*%
%ADD37O,0.0416X0.0512*%
%ADD38R,0.0394X0.0531*%
%ADD42R,0.0118X0.0276*%
%ADD43R,0.063X0.0394*%
%ADD46R,0.062X0.082*%
%ADD47C,0.031*%
%FSLAX44Y44*%
G04*
G70*
G90*
G75*
G01*
%LNTop*%
%LPD*%
X16171Y8690D2*
D14*
Y6209D1*
X16315Y6065D1*
X15974Y8690D2*
Y6224D1*
X15815Y6065D1*
X25428Y9315D2*
D15*
X25122D1*
X24990Y9183D1*
Y9890D1*
X24940Y9940D1*
X16171Y8690D2*
D16*
Y9546D1*
X16565Y9940D1*
X22781D1*
X23344Y9378D1*
X23628D1*
X21297Y5127D2*
D15*
Y5046D1*
X21003Y4752D1*
X18940D1*
X21297Y5127D2*
X22333D1*
X15974Y8690D2*
D14*
Y9349D1*
X16171Y9546D1*
X24990Y9183D2*
D16*
X24785Y9388D1*
X23638D1*
X23628Y9378D1*
X25684Y8370D2*
D15*
X25940D1*
X25684D2*
Y7911D1*
X25588Y7815D1*
X25940Y8370D2*
X26245D1*
X26315Y8440D1*
Y8065D2*
Y8440D1*
X14399Y8690D2*
D18*
Y8165D1*
X14496Y8068D1*
X14596Y8168D1*
Y8690D1*
X14496Y8068D2*
X13118Y6690D1*
X12690D1*
X12315Y6315D1*
Y6065D1*
X11815D2*
Y6315D1*
X12190Y6690D1*
X12690D1*
X14399Y8690D2*
Y9245D1*
X14509Y9354D1*
X14596Y9267D1*
Y8690D1*
X23440Y9940D2*
D16*
X23815D1*
X14509Y9354D2*
Y9715D1*
X14976Y10182D1*
X23228D1*
X23478Y9932D1*
D15*
X23432D1*
X23440Y9940D1*
X14509Y9715D2*
D16*
Y9746D1*
X14064Y10190D1*
X5426D1*
X4721Y9485D1*
Y7283D1*
X5814Y6190D1*
Y5566D1*
X5815Y5565D1*
X15581Y8690D2*
D15*
Y7581D1*
X14815Y6815D1*
Y6065D1*
X16959Y8690D2*
Y6584D1*
X16815Y6440D1*
Y6065D1*
X17549Y8690D2*
Y6831D1*
X18315Y6065D1*
X14793Y8690D2*
Y7918D1*
X13315Y6440D1*
X12940D1*
X12815Y6315D1*
Y6065D1*
X25428Y8370D2*
X25133D1*
X24990Y8514D1*
X24918Y7815D2*
Y8443D1*
X24990Y8514D1*
X25428Y8370D2*
Y8587D1*
X25684Y8843D1*
X27296Y7688D2*
X31261D1*
X32469D1*
X31261Y8755D2*
Y7688D1*
X14203Y8690D2*
Y9322D1*
X14029Y9495D1*
X6838Y5565D2*
X7311D1*
Y4895D1*
X7705Y4502D1*
X6720D1*
X5933D1*
X4949D1*
X5342Y5565D2*
Y4895D1*
X4949Y4502D1*
X7705D2*
D16*
Y4462D1*
X10463D1*
X10993Y4992D1*
X11315Y5314D1*
Y6065D1*
X7705Y4502D2*
X8071D1*
X8562Y4992D1*
X10993D1*
X25684Y8843D2*
D15*
X27078D1*
X27285Y8635D1*
Y7699D1*
X27296Y7688D1*
X24034Y7522D2*
D16*
Y7309D1*
X26917D1*
X27296Y7688D1*
X14815Y6065D2*
D15*
Y5763D1*
X15033Y5545D1*
X16815D1*
X18315D1*
D16*
Y6065D1*
X16815D2*
D15*
Y5545D1*
X31261Y8755D2*
D19*
Y9496D1*
X31004Y9753D1*
X30408D1*
X30386Y9774D1*
X18315Y5545D2*
D15*
Y4615D1*
X18596Y4334D1*
X26918D1*
X27294Y4710D1*
Y7686D1*
X12825Y8690D2*
Y9305D1*
X12539Y9590D1*
X10840D1*
X10315Y9065D1*
X13022Y8690D2*
Y9358D1*
X12614Y9766D1*
X10391D1*
X9912Y9287D1*
Y8718D1*
X10065Y8565D1*
X10315D1*
X13218Y8690D2*
Y9411D1*
X12676Y9954D1*
X10329D1*
X9761Y9386D1*
Y8619D1*
X10315Y8065D1*
X13415Y8690D2*
Y9589D1*
X13190Y9815D1*
X13612Y8690D2*
Y8112D1*
X13440Y7940D1*
X13065D1*
X13809Y8690D2*
Y8059D1*
X13315Y7565D1*
X12690D1*
X12274Y7981D1*
X11231D1*
X10815Y7565D1*
Y6690D1*
X10690Y6565D1*
X10315D1*
X14006Y8690D2*
Y8006D1*
X12886Y6886D1*
X12029D1*
X11583Y6440D1*
X11065D1*
X10690Y6065D1*
X10315D1*
X20305Y8690D2*
Y9305D1*
X20565Y9565D1*
X22315D1*
X22815Y9065D1*
X20108Y8690D2*
Y9358D1*
X20470Y9720D1*
X22660D1*
X23190Y9190D1*
Y8940D1*
X22815Y8565D1*
X19911Y8690D2*
Y9618D1*
X19910Y9619D1*
X20627Y5127D2*
Y5377D1*
X20753Y5502D1*
X22190D1*
X22378Y5690D1*
Y7628D1*
X22815Y8065D1*
X19714Y8690D2*
Y9290D1*
X19607Y9397D1*
X23002Y5127D2*
Y5502D1*
X23253Y5752D1*
Y7127D1*
X22815Y7565D1*
X20034Y8005D2*
X19723D1*
X19518Y8210D1*
Y8690D1*
X19919Y7566D2*
X19337Y8149D1*
Y8674D1*
X19321Y8690D1*
X19407Y7673D2*
Y7586D1*
X19124Y7869D1*
Y8690D1*
X14065Y5190D2*
Y4940D1*
X14515Y4489D1*
X15422D1*
X28505Y8755D2*
D19*
Y9504D1*
X28753Y9753D1*
X29365D1*
X29386Y9774D1*
X25684Y9315D2*
D20*
Y9786D1*
X25531Y9940D1*
X14990Y8690D2*
D15*
Y7740D1*
X13315Y6065D1*
X6071Y5565D2*
Y6519D1*
X5940Y6650D1*
X15777Y8690D2*
Y6527D1*
X15315Y6065D1*
X6327Y5565D2*
Y6536D1*
X6440Y6650D1*
X17155Y8690D2*
Y6224D1*
X17315Y6065D1*
X17155Y8690D2*
Y9405D1*
X17190Y9440D1*
X24034Y8192D2*
X24564D1*
X24565Y8190D1*
X17352Y8690D2*
Y6527D1*
X17815Y6065D1*
X17746Y8690D2*
Y7134D1*
X18815Y6065D1*
X17943Y8690D2*
Y7264D1*
X18723Y6484D1*
X18934D1*
X19315Y6103D1*
Y6065D1*
X18140Y8690D2*
Y7386D1*
X18900Y6626D1*
X19283D1*
X19815Y6094D1*
Y6065D1*
X18336Y8690D2*
Y7491D1*
X19037Y6791D1*
X19383D1*
X19682Y6492D1*
X19981D1*
X20315Y6158D1*
Y6065D1*
X18533Y8690D2*
Y7587D1*
X19175Y6945D1*
X19468D1*
X19769Y6644D1*
X20313D1*
X20815Y6141D1*
Y6065D1*
X18730Y8690D2*
Y7701D1*
X19283Y7149D1*
X19509D1*
X19843Y6815D1*
X20440D1*
X20815Y6440D1*
X21190D1*
X21315Y6315D1*
Y6065D1*
X21815D2*
Y6190D1*
X21315Y6690D1*
X20940D1*
X20630Y7000D1*
X19916D1*
X19583Y7333D1*
X19324D1*
X18920Y7737D1*
Y8697D1*
X18927Y8690D1*
X25940Y9315D2*
Y9751D1*
X25999Y9809D1*
X15384Y8690D2*
Y7634D1*
X14315Y6565D1*
Y6065D1*
X15187Y8690D2*
Y7687D1*
X13815Y6315D1*
Y6065D1*
D47*
X23815Y9940D3*
X23440D3*
X26315Y8440D3*
Y8065D3*
X25999Y9809D3*
X14065Y5190D3*
X15422Y4489D3*
X17190Y9440D3*
X5940Y6650D3*
X6440D3*
X19910Y9619D3*
X19607Y9397D3*
X19407Y7673D3*
X19919Y7566D3*
X20034Y8005D3*
X18940Y4752D3*
X13190Y9815D3*
X13065Y7940D3*
X14029Y9495D3*
X24565Y8190D3*
X23628Y9378D3*
X24717Y9899D2*
D21*
X25038D1*
X24717Y9651D2*
X25038D1*
X24717Y9402D2*
X25042D1*
X24717Y9153D2*
X25038D1*
X25314Y9299D2*
X25398Y9300D1*
Y9380D1*
X25190D1*
X25084Y9441D1*
X25065Y9505D1*
X25064Y10150D1*
X24692Y10145D1*
X24690Y9063D1*
X25062Y9068D1*
X25065Y9175D1*
X25128Y9280D1*
X25189Y9298D1*
X25314Y9299D1*
X25778Y8226D2*
X26341D1*
X25770Y7977D2*
X26290D1*
X26219Y8475D2*
Y8425D1*
X26161D1*
X26134Y8405D1*
X26082Y8385D1*
X25752Y8384D1*
Y8064D1*
X25691Y7959D1*
X25629Y7939D1*
X25618Y7938D1*
Y7736D1*
X25936D1*
X26290Y7933D1*
X26365Y8058D1*
X26366Y8474D1*
X26222D1*
X4365Y9879D2*
X4667D1*
X6881D2*
X9862D1*
X13584D2*
X13929D1*
X15119D2*
X16057D1*
X26393D2*
X28405D1*
X29943D2*
X33014D1*
X4277Y9630D2*
X4436D1*
X7225D2*
X9612D1*
X13697D2*
X14179D1*
X14873D2*
X15819D1*
X16701D2*
X16843D1*
X17537D2*
X19288D1*
X26354D2*
X28186D1*
X29943D2*
X33104D1*
X4277Y9381D2*
X4397D1*
X7424D2*
X9475D1*
X13701D2*
X14120D1*
X14885D2*
X15659D1*
X16494D2*
X16796D1*
X17584D2*
X19206D1*
X26244D2*
X28163D1*
X29943D2*
X33104D1*
X4277Y9133D2*
X4397D1*
X7541D2*
X9475D1*
X10811D2*
X11647D1*
X16494D2*
X16846D1*
X21482D2*
X22319D1*
X26244D2*
X27944D1*
X30682D2*
X33104D1*
X4277Y8884D2*
X4397D1*
X7607D2*
X9475D1*
X10775D2*
X11682D1*
X16494D2*
X16846D1*
X21447D2*
X22354D1*
X23467D2*
X24245D1*
X25432D2*
X27944D1*
X30822D2*
X33104D1*
X4277Y8635D2*
X4397D1*
X7623D2*
X9475D1*
X10811D2*
X11874D1*
X16490D2*
X16846D1*
X21256D2*
X22319D1*
X23311D2*
X25382D1*
X26732D2*
X27944D1*
X30822D2*
X33104D1*
X4277Y8387D2*
X4397D1*
X7592D2*
X9600D1*
X10775D2*
X12518D1*
X16486D2*
X16846D1*
X20611D2*
X22354D1*
X23275D2*
X23593D1*
X24908D2*
X25382D1*
X26736D2*
X27944D1*
X30689D2*
X33104D1*
X4277Y8138D2*
X4397D1*
X7510D2*
X9819D1*
X10811D2*
X10995D1*
X16486D2*
X16846D1*
X20611D2*
X22319D1*
X23311D2*
X23593D1*
X24963D2*
X25128D1*
X26736D2*
X33104D1*
X4277Y7889D2*
X4397D1*
X5045D2*
X5129D1*
X7369D2*
X9850D1*
X16486D2*
X16870D1*
X20416D2*
X22249D1*
X23279D2*
X23593D1*
X24814D2*
X25128D1*
X26689D2*
X33104D1*
X4277Y7640D2*
X4397D1*
X5045D2*
X5366D1*
X7139D2*
X9819D1*
X11283D2*
X12221D1*
X16486D2*
X16870D1*
X20311D2*
X22093D1*
X23311D2*
X25128D1*
X26498D2*
X33104D1*
X4277Y7392D2*
X4397D1*
X5061D2*
X5819D1*
X6686D2*
X9850D1*
X11100D2*
X12471D1*
X20275D2*
X22093D1*
X23381D2*
X25456D1*
X26010D2*
X33104D1*
X4277Y7143D2*
X4432D1*
X5307D2*
X9819D1*
X11100D2*
X11971D1*
X15283D2*
X15491D1*
X20877D2*
X22093D1*
X23537D2*
X33104D1*
X4277Y6894D2*
X4663D1*
X6748D2*
X9850D1*
X11100D2*
X11643D1*
X15037D2*
X15491D1*
X21498D2*
X22093D1*
X23537D2*
X24616D1*
X26006D2*
X33104D1*
X4277Y6646D2*
X4909D1*
X6842D2*
X9823D1*
X14787D2*
X15491D1*
X17639D2*
X17843D1*
X21752D2*
X22093D1*
X23537D2*
X24304D1*
X26318D2*
X33104D1*
X4277Y6397D2*
X5159D1*
X6740D2*
X9846D1*
X12830D2*
X12968D1*
X14658D2*
X14971D1*
X16658D2*
X16870D1*
X23537D2*
X24120D1*
X26502D2*
X33104D1*
X4277Y6148D2*
X5409D1*
X6611D2*
X9823D1*
X11166D2*
X11362D1*
X12768D2*
X12862D1*
X14768D2*
X14862D1*
X16768D2*
X16862D1*
X23537D2*
X24007D1*
X26615D2*
X33104D1*
X4277Y5900D2*
X5491D1*
X6908D2*
X9846D1*
X10916D2*
X11378D1*
X12752D2*
X12878D1*
X14752D2*
X14878D1*
X16752D2*
X16878D1*
X18252D2*
X18378D1*
X23537D2*
X23952D1*
X26670D2*
X33104D1*
X4277Y5651D2*
X5491D1*
X6908D2*
X10132D1*
X10498D2*
X11569D1*
X12561D2*
X13069D1*
X14561D2*
X15069D1*
X16561D2*
X17069D1*
X18061D2*
X18569D1*
X23518D2*
X23940D1*
X26682D2*
X33104D1*
X4277Y5402D2*
X5491D1*
X6908D2*
X13729D1*
X14400D2*
X20167D1*
X23463D2*
X23979D1*
X26643D2*
X33104D1*
X4277Y5154D2*
X5491D1*
X6908D2*
X13667D1*
X14463D2*
X20167D1*
X23463D2*
X24069D1*
X26557D2*
X33104D1*
X4277Y4905D2*
X13784D1*
X14490D2*
X18573D1*
X23463D2*
X24218D1*
X26404D2*
X33104D1*
X4295Y4656D2*
X13956D1*
X15783D2*
X18554D1*
X21299D2*
X24468D1*
X26154D2*
X33085D1*
X4428Y4408D2*
X14206D1*
X15814D2*
X18768D1*
X19111D2*
X25011D1*
X25611D2*
X32952D1*
X25276Y8232D2*
X25350D1*
X25404Y8263D1*
X25405Y8728D1*
X25889Y8729D1*
X25998Y8810D1*
X26064Y8820D1*
X26491D1*
X26610Y8785D1*
X26692Y8689D1*
X26712Y8599D1*
Y8025D1*
X26680Y7911D1*
X26539Y7689D1*
X26486Y7648D1*
X26038Y7401D1*
X25972Y7391D1*
X25400Y7398D1*
X25151D1*
Y8232D1*
X25276D1*
X20588Y8632D2*
Y8056D1*
X20405D1*
X20410Y8005D1*
X20389Y7882D1*
X20329Y7773D1*
X20263Y7713D1*
X20279Y7673D1*
X20294Y7566D1*
X20274Y7444D1*
X20214Y7335D1*
X20131Y7259D1*
X20630Y7260D1*
X20762Y7224D1*
X20902Y7095D1*
X21048Y6949D1*
X21315D1*
X21447Y6914D1*
X21587Y6785D1*
X21833Y6539D1*
X21920Y6528D1*
X22035Y6480D1*
X22117Y6413D1*
X22118Y7628D1*
X22154Y7760D1*
X22283Y7900D1*
X22349Y7970D1*
X22340Y8094D1*
X22366Y8216D1*
X22421Y8315D1*
X22394Y8354D1*
X22349Y8470D1*
X22340Y8594D1*
X22366Y8716D1*
X22421Y8815D1*
X22394Y8854D1*
X22349Y8970D1*
X22340Y9094D1*
X22354Y9159D1*
X22209Y9304D1*
X21412Y9305D1*
X21449Y9194D1*
X21460Y9084D1*
X21446Y8960D1*
X21405Y8842D1*
X21338Y8736D1*
X21250Y8649D1*
X21144Y8583D1*
X21026Y8542D1*
X20902Y8529D1*
X20778Y8543D1*
X20661Y8585D1*
X20585Y8634D1*
X17981Y9324D2*
X19238D1*
X19239Y9468D1*
X19282Y9585D1*
X19329Y9642D1*
X17504Y9641D1*
X17550Y9546D1*
X17565Y9440D1*
X17545Y9321D1*
X17636Y9320D1*
X17910Y9324D1*
X18226Y9320D1*
X18423Y9324D1*
X18620D1*
X18817D1*
X19013D1*
X19210D1*
X19216D1*
X16895Y8056D2*
X16872D1*
Y9240D1*
X16818Y9386D1*
X16821Y9510D1*
X16877Y9642D1*
X16688Y9640D1*
X16470Y9421D1*
Y8690D1*
X16462Y8565D1*
Y7514D1*
X16542Y7525D1*
X16666Y7513D1*
X16781Y7465D1*
X16877Y7386D1*
X16897Y7357D1*
X16896Y8056D1*
X14883Y9324D2*
X15273Y9320D1*
X15225Y9324D1*
X15667Y9320D1*
X15683Y9349D1*
X15712Y9474D1*
X15768Y9555D1*
X15960Y9758D1*
X16084Y9882D1*
X15099D1*
X14808Y9590D1*
Y9461D1*
X14850Y9405D1*
X14879Y9325D1*
X15470Y9324D1*
X15667D1*
X13678D2*
X14092Y9320D1*
X14145Y9382D1*
X14211Y9466D1*
X14209Y9623D1*
X13939Y9891D1*
X13560D1*
X13564Y9811D1*
X13599Y9773D1*
X13667Y9654D1*
X13675Y9464D1*
Y9320D1*
X13699D1*
X13895Y9324D1*
X14092D1*
X12541Y8084D2*
Y8630D1*
X12463Y8583D1*
X12345Y8542D1*
X12221Y8529D1*
X12097Y8543D1*
X11980Y8585D1*
X11875Y8653D1*
X11787Y8742D1*
X11722Y8848D1*
X11682Y8966D1*
X11669Y9090D1*
X11685Y9214D1*
X11726Y9327D1*
X10950Y9331D1*
X10778Y9161D1*
X10791Y9065D1*
X10773Y8942D1*
X10707Y8814D1*
X10749Y8750D1*
X10786Y8631D1*
X10791Y8565D1*
X10773Y8442D1*
X10707Y8314D1*
X10749Y8250D1*
X10786Y8131D1*
X10791Y8065D1*
X10773Y7942D1*
X10728Y7846D1*
X11047Y8164D1*
X11166Y8232D1*
X11356Y8240D1*
X12274D1*
X12406Y8204D1*
X12543Y8079D1*
X17724Y6527D2*
X17796Y6541D1*
X17920Y6528D1*
X18032Y6481D1*
X17612Y6900D1*
Y6631D1*
X17715Y6531D1*
X23742Y8629D2*
X24451D1*
Y8546D1*
X24547Y8565D1*
X24671Y8550D1*
X24783Y8496D1*
X24871Y8408D1*
X24925Y8296D1*
X24941Y8190D1*
X24920Y8067D1*
X24861Y7958D1*
X24768Y7874D1*
X24654Y7825D1*
X24530Y7816D1*
X24451Y7837D1*
Y7755D1*
X23617D1*
Y8629D1*
X23742D1*
X25963Y8960D2*
X25463Y8957D1*
X25407Y8960D1*
Y8746D1*
X24397D1*
X24291Y8807D1*
X24272Y8871D1*
Y9086D1*
X23867Y9089D1*
X23831Y9062D1*
X23717Y9013D1*
X23592Y9004D1*
X23472Y9036D1*
X23450Y9051D1*
X23449Y8940D1*
X23414Y8808D1*
X23282Y8665D1*
X23291Y8565D1*
X23273Y8442D1*
X23207Y8314D1*
X23249Y8250D1*
X23286Y8131D1*
X23291Y8065D1*
X23273Y7942D1*
X23207Y7814D1*
X23249Y7750D1*
X23286Y7631D1*
X23291Y7565D1*
X23277Y7469D1*
X23436Y7310D1*
X23504Y7192D1*
X23513Y7002D1*
Y5752D1*
X23477Y5620D1*
X23412Y5544D1*
X23439D1*
Y4710D1*
X22566Y4714D1*
X22145Y4710D1*
X21896D1*
Y4870D1*
X21735Y4868D1*
X21734Y4710D1*
X21331D1*
X21186Y4568D1*
X21068Y4501D1*
X20878Y4492D1*
X19210D1*
X19143Y4436D1*
X19029Y4387D1*
X18904Y4378D1*
X18784Y4411D1*
X18681Y4480D1*
X18607Y4580D1*
X18569Y4698D1*
X18571Y4823D1*
X18615Y4939D1*
X18694Y5035D1*
X18800Y5100D1*
X18921Y5127D1*
X19045Y5112D1*
X19157Y5058D1*
X19204Y5012D1*
X20194D1*
X20191Y5544D1*
X20429D1*
X20531Y5648D1*
X20483Y5623D1*
X20363Y5591D1*
X20238Y5596D1*
X20120Y5635D1*
X20066Y5674D1*
X19983Y5623D1*
X19863Y5591D1*
X19738Y5596D1*
X19620Y5635D1*
X19566Y5674D1*
X19483Y5623D1*
X19363Y5591D1*
X19238Y5596D1*
X19120Y5635D1*
X19066Y5674D1*
X18983Y5623D1*
X18863Y5591D1*
X18738Y5596D1*
X18620Y5635D1*
X18519Y5708D1*
X18442Y5806D1*
X18397Y5922D1*
X18386Y6017D1*
X18390Y6113D1*
X18278Y6235D1*
X18187Y6326D1*
X18238Y6179D1*
X18243Y6017D1*
X18225Y5894D1*
X18172Y5781D1*
X18089Y5688D1*
X17983Y5623D1*
X17863Y5591D1*
X17738Y5596D1*
X17620Y5635D1*
X17566Y5674D1*
X17483Y5623D1*
X17363Y5591D1*
X17238Y5596D1*
X17120Y5635D1*
X17019Y5708D1*
X16942Y5806D1*
X16897Y5922D1*
X16886Y6017D1*
X16890Y6113D1*
X16898Y6191D1*
X16896Y6736D1*
X16835Y6673D1*
X16729Y6608D1*
X16608Y6576D1*
X16465Y6587D1*
X16462Y6514D1*
X16535Y6480D1*
X16632Y6401D1*
X16701Y6298D1*
X16738Y6179D1*
X16743Y6017D1*
X16725Y5894D1*
X16672Y5781D1*
X16589Y5688D1*
X16483Y5623D1*
X16363Y5591D1*
X16238Y5596D1*
X16120Y5635D1*
X16066Y5674D1*
X15983Y5623D1*
X15863Y5591D1*
X15738Y5596D1*
X15620Y5635D1*
X15566Y5674D1*
X15483Y5623D1*
X15363Y5591D1*
X15238Y5596D1*
X15120Y5635D1*
X15019Y5708D1*
X14942Y5806D1*
X14897Y5922D1*
X14886Y6017D1*
X14890Y6113D1*
X14887Y6142D1*
X14914Y6264D1*
X14974Y6373D1*
X15064Y6460D1*
X15174Y6517D1*
X15296Y6541D1*
X15409Y6529D1*
X15515Y6632D1*
X15518Y7399D1*
X14576Y6459D1*
X14632Y6401D1*
X14701Y6298D1*
X14738Y6179D1*
X14743Y6017D1*
X14725Y5894D1*
X14672Y5781D1*
X14589Y5688D1*
X14483Y5623D1*
X14363Y5591D1*
X14238Y5596D1*
X14120Y5635D1*
X14066Y5674D1*
X13983Y5623D1*
X13863Y5591D1*
X13738Y5596D1*
X13620Y5635D1*
X13566Y5674D1*
X13483Y5623D1*
X13363Y5591D1*
X13238Y5596D1*
X13120Y5635D1*
X13019Y5708D1*
X12942Y5806D1*
X12897Y5922D1*
X12886Y6017D1*
X12890Y6113D1*
X12887Y6142D1*
X12914Y6264D1*
X12974Y6373D1*
X13005Y6403D1*
X12806Y6397D1*
X12704Y6295D1*
X12738Y6179D1*
X12743Y6017D1*
X12725Y5894D1*
X12672Y5781D1*
X12589Y5688D1*
X12483Y5623D1*
X12363Y5591D1*
X12238Y5596D1*
X12120Y5635D1*
X12066Y5674D1*
X11983Y5623D1*
X11863Y5591D1*
X11738Y5596D1*
X11620Y5635D1*
X11519Y5708D1*
X11442Y5806D1*
X11397Y5922D1*
X11386Y6017D1*
X11390Y6113D1*
X11397Y6184D1*
X11173Y6180D1*
X10873Y5881D1*
X10753Y5813D1*
X10531Y5671D1*
X10410Y5639D1*
X10363Y5636D1*
X10190Y5643D1*
X10072Y5683D1*
X9971Y5755D1*
X9894Y5854D1*
X9849Y5970D1*
X9840Y6094D1*
X9866Y6216D1*
X9921Y6315D1*
X9894Y6354D1*
X9849Y6470D1*
X9840Y6594D1*
X9866Y6716D1*
X9921Y6815D1*
X9894Y6854D1*
X9849Y6970D1*
X9840Y7094D1*
X9866Y7216D1*
X9921Y7315D1*
X9894Y7354D1*
X9849Y7470D1*
X9840Y7594D1*
X9866Y7716D1*
X9921Y7815D1*
X9894Y7854D1*
X9849Y7970D1*
X9840Y8094D1*
X9854Y8159D1*
X9577Y8435D1*
X9509Y8554D1*
X9501Y8744D1*
Y9386D1*
X9537Y9517D1*
X9665Y9658D1*
X9900Y9892D1*
X6826Y9891D1*
X6987Y9803D1*
X7182Y9648D1*
X7346Y9460D1*
X7472Y9244D1*
X7556Y9009D1*
X7595Y8762D1*
X7592Y8550D1*
X7546Y8305D1*
X7455Y8072D1*
X7323Y7861D1*
X7155Y7677D1*
X6955Y7527D1*
X6731Y7417D1*
X6490Y7350D1*
X6242Y7329D1*
X5993Y7353D1*
X5754Y7424D1*
X5531Y7537D1*
X5334Y7689D1*
X5167Y7876D1*
X5038Y8089D1*
X5018Y8136D1*
X5021Y7406D1*
X5603Y6823D1*
X5694Y6933D1*
X5800Y6998D1*
X5921Y7024D1*
X6045Y7010D1*
X6157Y6956D1*
X6187Y6926D1*
X6300Y6998D1*
X6421Y7024D1*
X6545Y7010D1*
X6657Y6956D1*
X6745Y6868D1*
X6800Y6756D1*
X6815Y6650D1*
X6794Y6527D1*
X6735Y6418D1*
X6643Y6334D1*
X6589Y6311D1*
X6586Y6048D1*
X6626Y6047D1*
X6882Y6051D1*
Y5079D1*
X6284Y5083D1*
X6028Y5079D1*
X5772D1*
X5516D1*
X5514Y6067D1*
X4509Y7071D1*
X4441Y7179D1*
X4422Y7283D1*
Y9485D1*
X4450Y9609D1*
X4509Y9696D1*
X4943Y10130D1*
X4708Y10127D1*
X4557Y10076D1*
X4402Y9973D1*
X4303Y9821D1*
X4252Y9670D1*
Y4709D1*
X4303Y4557D1*
X4407Y4402D1*
X4559Y4303D1*
X4710Y4247D1*
X14416Y4250D1*
X14332Y4306D1*
X13881Y4756D1*
X13813Y4877D1*
X13806Y4918D1*
X13731Y5018D1*
X13693Y5136D1*
X13696Y5260D1*
X13740Y5377D1*
X13819Y5473D1*
X13925Y5538D1*
X14046Y5565D1*
X14170Y5550D1*
X14282Y5496D1*
X14370Y5408D1*
X14425Y5296D1*
X14440Y5190D1*
X14419Y5067D1*
X14380Y4995D1*
X14621Y4751D1*
X15152Y4749D1*
X15282Y4838D1*
X15403Y4864D1*
X15527Y4850D1*
X15639Y4795D1*
X15727Y4708D1*
X15782Y4596D1*
X15797Y4489D1*
X15776Y4367D1*
X15708Y4250D1*
X32673Y4252D1*
X32823Y4303D1*
X32977Y4407D1*
X33077Y4559D1*
X33127Y4710D1*
Y9670D1*
X33076Y9823D1*
X32973Y9977D1*
X32821Y10077D1*
X32670Y10127D1*
X29920Y10125D1*
X29917Y9405D1*
Y9151D1*
X30016Y9222D1*
X30131Y9270D1*
X30254Y9290D1*
X30378Y9280D1*
X30497Y9242D1*
X30604Y9178D1*
X30693Y9091D1*
X30759Y8985D1*
X30800Y8867D1*
X30811Y8755D1*
X30797Y8631D1*
X30754Y8514D1*
X30685Y8410D1*
X30594Y8324D1*
X30486Y8262D1*
X30367Y8227D1*
X30242Y8221D1*
X30119Y8243D1*
X30005Y8293D1*
X29906Y8369D1*
X29883Y8396D1*
X29807Y8324D1*
X29699Y8262D1*
X29579Y8227D1*
X29455Y8221D1*
X29332Y8243D1*
X29218Y8293D1*
X29118Y8369D1*
X29041Y8462D1*
X29040Y8220D1*
X27969D1*
Y9290D1*
X28184D1*
X28186Y9504D1*
X28210Y9626D1*
X28279Y9729D1*
X28528Y9978D1*
X28631Y10047D1*
X28753Y10071D1*
X28859D1*
X28815Y10123D1*
X26216Y10115D1*
X26304Y10028D1*
X26358Y9916D1*
X26374Y9809D1*
X26353Y9687D1*
X26294Y9578D1*
X26222Y9512D1*
X26219Y8957D1*
X25661Y8961D1*
X25583Y8957D1*
X25407D1*
X26652Y5601D2*
X26606Y5355D1*
X26516Y5123D1*
X26384Y4911D1*
X26215Y4727D1*
X26015Y4577D1*
X25791Y4467D1*
X25551Y4400D1*
X25302Y4379D1*
X25054Y4404D1*
X24814Y4474D1*
X24592Y4587D1*
X24394Y4740D1*
X24228Y4926D1*
X24099Y5140D1*
X24011Y5374D1*
X23969Y5620D1*
X23972Y5869D1*
X24022Y6114D1*
X24116Y6345D1*
X24251Y6555D1*
X24422Y6737D1*
X24624Y6884D1*
X24849Y6991D1*
X25091Y7054D1*
X25340Y7072D1*
X25588Y7044D1*
X25826Y6970D1*
X26047Y6853D1*
X26243Y6698D1*
X26406Y6510D1*
X26532Y6294D1*
X26616Y6059D1*
X26655Y5812D1*
X26652Y5601D1*
X12936Y7305D2*
X12690D1*
X12558Y7341D1*
X12418Y7470D1*
X12167Y7721D1*
X11341D1*
X11074Y7457D1*
Y6702D1*
X11475Y6699D1*
X11845Y7069D1*
X11964Y7137D1*
X12154Y7145D1*
X12775D1*
X12937Y7304D1*
D24*
X24990Y9183D3*
Y8514D3*
D25*
X25588Y7815D3*
X24918D3*
D26*
X20305Y8690D3*
X20108D3*
X19911D3*
X19714D3*
X19518D3*
X19321D3*
X19124D3*
X18927D3*
X18730D3*
X18533D3*
X18336D3*
X18140D3*
X17943D3*
X17746D3*
X17549D3*
X17352D3*
X17155D3*
X16959D3*
X16171D3*
X15974D3*
X15777D3*
X15581D3*
X15384D3*
X15187D3*
X14990D3*
X14793D3*
X14596D3*
X14399D3*
X14203D3*
X14006D3*
X13809D3*
X13612D3*
X13415D3*
X13218D3*
X13022D3*
X12825D3*
D27*
X21480Y7334D3*
X11455Y8690D3*
X11662Y7342D3*
X21690Y8690D3*
D28*
X28505Y8755D3*
D29*
X29489D3*
X30276D3*
X31261D3*
D30*
X27296Y7688D3*
X32469D3*
D32*
X5815Y5565D3*
X6071D3*
X6327D3*
X6583D3*
X6838D3*
D33*
X5342D3*
X7311D3*
D34*
X4949Y4502D3*
X7705D3*
D35*
X5933D3*
X6720D3*
D36*
X10315Y9065D3*
Y8565D3*
Y8065D3*
Y7565D3*
Y7065D3*
Y6565D3*
Y6065D3*
D37*
X11315D3*
X11815D3*
X12315D3*
X12815D3*
X13315D3*
X13815D3*
X14315D3*
X14815D3*
X15315D3*
X15815D3*
X16315D3*
X16815D3*
X17315D3*
X17815D3*
X18315D3*
X18815D3*
X19315D3*
X19815D3*
X20315D3*
X20815D3*
X21315D3*
X21815D3*
D36*
X22815D3*
Y6565D3*
Y7065D3*
Y7565D3*
Y8065D3*
Y8565D3*
Y9065D3*
D38*
X24940Y9940D3*
X25531D3*
D24*
X24034Y8192D3*
Y7522D3*
D25*
X20627Y5127D3*
X21297D3*
X23002D3*
X22333D3*
D42*
X25940Y9315D3*
X25684D3*
X25428D3*
Y8370D3*
X25684D3*
X25940D3*
D43*
X25684Y8843D3*
D37*
X16561Y7050D3*
D46*
X30386Y9774D3*
X29386D3*
M02*
