G04 DipTrace 2.4.0.2*
%INTopSilk.gbr*%
%MOIN*%
%ADD10C,0.0098*%
%ADD12C,0.003*%
%ADD16C,0.0157*%
%ADD19C,0.0197*%
%ADD22C,0.0125*%
%ADD31C,0.0059*%
%ADD98C,0.0046*%
%ADD99C,0.0062*%
%FSLAX44Y44*%
G04*
G70*
G90*
G75*
G01*
%LNTopSilk*%
%LPD*%
X22194Y9202D2*
D10*
Y6745D1*
X20761D1*
Y8690D1*
X12368Y8588D2*
Y6745D1*
X10935D1*
Y9202D1*
X27284Y9239D2*
X32481D1*
Y3641D2*
Y6822D1*
Y8554D2*
Y9231D1*
Y3641D2*
X27284D1*
Y6822D1*
Y8554D2*
Y9231D1*
D19*
X5598Y6057D3*
X4752Y4856D2*
D31*
Y5683D1*
X5027D1*
X7941Y4856D2*
Y5683D1*
X7626D1*
X4752Y4187D2*
Y4029D1*
X7941Y4187D2*
Y4029D1*
X10736Y9315D2*
D10*
Y5815D1*
X9894Y9315D2*
Y5815D1*
X11065Y6486D2*
X22065D1*
X11065Y5644D2*
X22065D1*
X22394Y5815D2*
Y9315D1*
X23236Y5815D2*
Y9315D1*
D16*
X28902Y9774D3*
X28986Y9246D2*
D10*
X30786D1*
X28986Y10303D2*
X30786D1*
D22*
X25276Y8162D3*
X25225Y7465D2*
D98*
X25211Y7493D1*
X25182Y7522D1*
X25153Y7536D1*
X25096D1*
X25067Y7522D1*
X25038Y7493D1*
X25024Y7465D1*
X25010Y7421D1*
Y7350D1*
X25024Y7307D1*
X25038Y7278D1*
X25067Y7249D1*
X25096Y7235D1*
X25153D1*
X25182Y7249D1*
X25211Y7278D1*
X25225Y7307D1*
X25332Y7464D2*
Y7479D1*
X25346Y7507D1*
X25361Y7522D1*
X25389Y7536D1*
X25447D1*
X25475Y7522D1*
X25490Y7507D1*
X25504Y7479D1*
Y7450D1*
X25490Y7421D1*
X25461Y7378D1*
X25317Y7235D1*
X25518D1*
X24304Y9771D2*
X24605D1*
Y9944D1*
X24362Y10036D2*
X24347Y10065D1*
X24304Y10108D1*
X24605D1*
X23852Y7026D2*
X23981D1*
X24024Y7041D1*
X24039Y7055D1*
X24053Y7083D1*
Y7112D1*
X24039Y7141D1*
X24024Y7155D1*
X23981Y7170D1*
X23852D1*
Y6868D1*
X23953Y7026D2*
X24053Y6868D1*
X24146Y7112D2*
X24175Y7126D1*
X24218Y7169D1*
Y6868D1*
X20715Y4685D2*
X20844D1*
X20887Y4700D1*
X20901Y4714D1*
X20916Y4743D1*
Y4771D1*
X20901Y4800D1*
X20887Y4814D1*
X20844Y4829D1*
X20715D1*
Y4527D1*
X20815Y4685D2*
X20916Y4527D1*
X21023Y4757D2*
Y4771D1*
X21037Y4800D1*
X21052Y4814D1*
X21080Y4828D1*
X21138D1*
X21166Y4814D1*
X21181Y4800D1*
X21195Y4771D1*
Y4743D1*
X21181Y4714D1*
X21152Y4671D1*
X21008Y4527D1*
X21209D1*
X22421Y4685D2*
X22550D1*
X22593Y4700D1*
X22607Y4714D1*
X22621Y4743D1*
Y4771D1*
X22607Y4800D1*
X22593Y4814D1*
X22550Y4829D1*
X22421D1*
Y4527D1*
X22521Y4685D2*
X22621Y4527D1*
X22743Y4828D2*
X22900D1*
X22815Y4714D1*
X22858D1*
X22886Y4699D1*
X22900Y4685D1*
X22915Y4642D1*
Y4614D1*
X22900Y4570D1*
X22872Y4542D1*
X22829Y4527D1*
X22786D1*
X22743Y4542D1*
X22729Y4556D1*
X22714Y4585D1*
X26101Y8660D2*
X26316D1*
X26359Y8674D1*
X26388Y8703D1*
X26402Y8746D1*
Y8775D1*
X26388Y8818D1*
X26359Y8847D1*
X26316Y8861D1*
X26101D1*
X26159Y8953D2*
X26144Y8982D1*
X26101Y9025D1*
X26402D1*
X28078Y10233D2*
X28064Y10262D1*
X28035Y10291D1*
X28006Y10305D1*
X27949D1*
X27920Y10291D1*
X27892Y10262D1*
X27877Y10233D1*
X27863Y10190D1*
Y10118D1*
X27877Y10075D1*
X27892Y10047D1*
X27920Y10018D1*
X27949Y10004D1*
X28006D1*
X28035Y10018D1*
X28064Y10047D1*
X28078Y10075D1*
X28200Y10305D2*
X28357D1*
X28271Y10190D1*
X28314D1*
X28343Y10176D1*
X28357Y10161D1*
X28372Y10118D1*
Y10090D1*
X28357Y10047D1*
X28329Y10018D1*
X28285Y10004D1*
X28242D1*
X28200Y10018D1*
X28185Y10032D1*
X28171Y10061D1*
X9557Y4952D2*
D99*
Y4684D1*
Y4876D2*
X9614Y4933D1*
X9653Y4952D1*
X9710D1*
X9748Y4933D1*
X9767Y4876D1*
Y4684D1*
Y4876D2*
X9825Y4933D1*
X9863Y4952D1*
X9920D1*
X9959Y4933D1*
X9978Y4876D1*
Y4684D1*
X10197Y4952D2*
X10159Y4933D1*
X10120Y4895D1*
X10101Y4837D1*
Y4799D1*
X10120Y4742D1*
X10159Y4704D1*
X10197Y4684D1*
X10254D1*
X10293Y4704D1*
X10331Y4742D1*
X10350Y4799D1*
Y4837D1*
X10331Y4895D1*
X10293Y4933D1*
X10254Y4952D1*
X10197D1*
X10474D2*
X10684D1*
X10474Y4684D1*
X10684D1*
X10808Y4952D2*
X11018D1*
X10808Y4684D1*
X11018D1*
X11142Y4952D2*
X11218Y4684D1*
X11295Y4952D1*
X11371Y4684D1*
X11448Y4952D1*
X11801D2*
Y4684D1*
Y4895D2*
X11763Y4933D1*
X11724Y4952D1*
X11667D1*
X11629Y4933D1*
X11591Y4895D1*
X11571Y4837D1*
Y4799D1*
X11591Y4742D1*
X11629Y4704D1*
X11667Y4684D1*
X11724D1*
X11763Y4704D1*
X11801Y4742D1*
X11924Y5086D2*
Y4684D1*
X12277Y5086D2*
Y4684D1*
Y4895D2*
X12239Y4933D1*
X12201Y4952D1*
X12143D1*
X12105Y4933D1*
X12067Y4895D1*
X12048Y4837D1*
Y4799D1*
X12067Y4742D1*
X12105Y4704D1*
X12143Y4684D1*
X12201D1*
X12239Y4704D1*
X12277Y4742D1*
X12420Y4723D2*
X12401Y4703D1*
X12420Y4684D1*
X12439Y4703D1*
X12420Y4723D1*
X12793Y4895D2*
X12754Y4933D1*
X12716Y4952D1*
X12659D1*
X12620Y4933D1*
X12582Y4895D1*
X12563Y4837D1*
Y4799D1*
X12582Y4742D1*
X12620Y4704D1*
X12659Y4684D1*
X12716D1*
X12754Y4704D1*
X12793Y4742D1*
X13012Y4952D2*
X12974Y4933D1*
X12935Y4895D1*
X12916Y4837D1*
Y4799D1*
X12935Y4742D1*
X12974Y4704D1*
X13012Y4684D1*
X13069D1*
X13108Y4704D1*
X13146Y4742D1*
X13165Y4799D1*
Y4837D1*
X13146Y4895D1*
X13108Y4933D1*
X13069Y4952D1*
X13012D1*
X13289D2*
Y4684D1*
Y4876D2*
X13346Y4933D1*
X13385Y4952D1*
X13442D1*
X13480Y4933D1*
X13499Y4876D1*
Y4684D1*
Y4876D2*
X13557Y4933D1*
X13595Y4952D1*
X13652D1*
X13691Y4933D1*
X13710Y4876D1*
Y4684D1*
X28404Y7785D2*
D12*
Y7690D1*
X28490Y7680D1*
X28480Y7690D1*
X28470Y7719D1*
Y7747D1*
X28480Y7776D1*
X28499Y7795D1*
X28528Y7805D1*
X28547D1*
X28576Y7795D1*
X28595Y7776D1*
X28604Y7747D1*
Y7719D1*
X28595Y7690D1*
X28585Y7680D1*
X28566Y7671D1*
X28403Y7866D2*
X28604Y7943D1*
X28403Y8019D1*
X30176Y7681D2*
X30377D1*
Y7748D1*
X30367Y7777D1*
X30348Y7796D1*
X30329Y7806D1*
X30301Y7815D1*
X30253D1*
X30224Y7806D1*
X30205Y7796D1*
X30186Y7777D1*
X30176Y7748D1*
Y7681D1*
X30191Y7963D2*
X30363D1*
X30277Y7877D2*
Y8049D1*
X29387Y7694D2*
X29588D1*
Y7761D1*
X29578Y7789D1*
X29559Y7809D1*
X29540Y7818D1*
X29511Y7828D1*
X29463D1*
X29435Y7818D1*
X29416Y7809D1*
X29396Y7789D1*
X29387Y7761D1*
Y7694D1*
X29488Y7889D2*
Y8000D1*
X31203Y7752D2*
X31184Y7742D1*
X31165Y7723D1*
X31155Y7704D1*
Y7666D1*
X31165Y7647D1*
X31184Y7628D1*
X31203Y7618D1*
X31232Y7608D1*
X31280D1*
X31308Y7618D1*
X31328Y7628D1*
X31347Y7647D1*
X31356Y7666D1*
Y7704D1*
X31347Y7723D1*
X31328Y7742D1*
X31308Y7752D1*
X31280D1*
Y7704D1*
X31155Y7948D2*
X31356D1*
X31155Y7814D1*
X31356D1*
X31155Y8009D2*
X31356D1*
Y8076D1*
X31347Y8105D1*
X31328Y8124D1*
X31308Y8134D1*
X31280Y8143D1*
X31232D1*
X31203Y8134D1*
X31184Y8124D1*
X31165Y8105D1*
X31155Y8076D1*
Y8009D1*
X24519Y8859D2*
X24500Y8850D1*
X24481Y8831D1*
X24471Y8812D1*
Y8773D1*
X24481Y8754D1*
X24500Y8735D1*
X24519Y8725D1*
X24548Y8716D1*
X24596D1*
X24624Y8725D1*
X24644Y8735D1*
X24663Y8754D1*
X24672Y8773D1*
Y8812D1*
X24663Y8831D1*
X24644Y8850D1*
X24624Y8859D1*
X24510Y8921D2*
X24500Y8940D1*
X24472Y8969D1*
X24672D1*
X28404Y9661D2*
Y9565D1*
X28490Y9556D1*
X28480Y9565D1*
X28470Y9594D1*
Y9622D1*
X28480Y9651D1*
X28499Y9670D1*
X28528Y9680D1*
X28547D1*
X28576Y9670D1*
X28595Y9651D1*
X28604Y9622D1*
Y9594D1*
X28595Y9565D1*
X28585Y9556D1*
X28566Y9546D1*
X28403Y9742D2*
X28604Y9818D1*
X28403Y9895D1*
X31203Y9627D2*
X31184Y9617D1*
X31165Y9598D1*
X31155Y9579D1*
Y9541D1*
X31165Y9522D1*
X31184Y9503D1*
X31203Y9493D1*
X31232Y9484D1*
X31280D1*
X31308Y9493D1*
X31328Y9503D1*
X31347Y9522D1*
X31356Y9541D1*
Y9579D1*
X31347Y9598D1*
X31328Y9617D1*
X31308Y9627D1*
X31280D1*
Y9579D1*
X31155Y9823D2*
X31356D1*
X31155Y9689D1*
X31356D1*
X31155Y9884D2*
X31356D1*
Y9951D1*
X31347Y9980D1*
X31328Y9999D1*
X31308Y10009D1*
X31280Y10018D1*
X31232D1*
X31203Y10009D1*
X31184Y9999D1*
X31165Y9980D1*
X31155Y9951D1*
Y9884D1*
M02*
