G04 DipTrace 2.4.0.2*
%INBottomSilk.gbr*%
%MOIN*%
%ADD12C,0.003*%
%ADD38C,0.0039*%
%ADD91C,0.0062*%
%FSLAX44Y44*%
G04*
G70*
G90*
G75*
G01*
%LNBotSilk*%
%LPD*%
X13723Y5393D2*
D38*
X13163D1*
X13723Y4993D2*
X13163D1*
X14413D2*
X14973D1*
X14413Y5393D2*
X14973D1*
X27643Y9413D2*
Y9973D1*
X27243Y9413D2*
Y9973D1*
X25691Y8455D2*
X25130D1*
X25691Y8055D2*
X25130D1*
G36*
X29898Y6236D2*
X29945Y6264D1*
X29984Y6309D1*
X30004Y6360D1*
X30011Y6412D1*
X29998Y6479D1*
X29959Y6536D1*
X29902Y6579D1*
X29821Y6597D1*
X29742Y6579D1*
X29688Y6544D1*
X29648Y6483D1*
X29633Y6412D1*
X29642Y6352D1*
X29668Y6298D1*
X29701Y6263D1*
X29748Y6234D1*
X29586Y5870D1*
X29507Y5902D1*
X29339Y5792D1*
X29193Y5949D1*
X29305Y6121D1*
X29236Y6278D1*
X29031Y6320D1*
Y6529D1*
X29243Y6575D1*
X29310Y6724D1*
X29189Y6913D1*
X29333Y7059D1*
X29527Y6936D1*
X29674Y7002D1*
X29715Y7218D1*
X29929D1*
X29969Y6997D1*
X30119Y6938D1*
X30298Y7057D1*
X30453Y6914D1*
X30334Y6735D1*
X30405Y6580D1*
X30608Y6533D1*
Y6318D1*
X30405Y6271D1*
X30334Y6116D1*
X30453Y5938D1*
X30298Y5795D1*
X30131Y5902D1*
X30048Y5854D1*
X29898Y6236D1*
G37*
X9792Y8974D2*
D12*
Y9175D1*
X9869Y8974D1*
X9945Y9175D1*
Y8974D1*
X9731Y9175D2*
Y8974D1*
X9525Y9127D2*
X9535Y9146D1*
X9554Y9165D1*
X9573Y9175D1*
X9611D1*
X9631Y9165D1*
X9650Y9146D1*
X9659Y9127D1*
X9669Y9098D1*
Y9050D1*
X9659Y9022D1*
X9650Y9003D1*
X9631Y8984D1*
X9611Y8974D1*
X9573D1*
X9554Y8984D1*
X9535Y9003D1*
X9525Y9022D1*
X9808Y8493D2*
X9885Y8694D1*
X9962Y8493D1*
X9933Y8560D2*
X9837D1*
X9603Y8646D2*
X9613Y8665D1*
X9632Y8684D1*
X9651Y8694D1*
X9689D1*
X9708Y8684D1*
X9727Y8665D1*
X9737Y8646D1*
X9747Y8617D1*
Y8569D1*
X9737Y8541D1*
X9727Y8522D1*
X9708Y8503D1*
X9689Y8493D1*
X9651D1*
X9632Y8503D1*
X9613Y8522D1*
X9603Y8541D1*
Y8569D1*
X9651D1*
X9407Y8694D2*
Y8493D1*
X9541Y8694D1*
Y8493D1*
X9346Y8694D2*
Y8493D1*
X9279D1*
X9250Y8503D1*
X9231Y8522D1*
X9221Y8541D1*
X9212Y8569D1*
Y8617D1*
X9221Y8646D1*
X9231Y8665D1*
X9250Y8684D1*
X9279Y8694D1*
X9346D1*
X9940Y8186D2*
Y7985D1*
X9806Y8186D2*
Y7985D1*
X9940Y8091D2*
X9806D1*
X9744Y8081D2*
X9658D1*
X9629Y8091D1*
X9620Y8100D1*
X9610Y8119D1*
Y8148D1*
X9620Y8167D1*
X9629Y8177D1*
X9658Y8186D1*
X9744D1*
Y7985D1*
X9453Y8186D2*
Y8033D1*
X9462Y8005D1*
X9472Y7995D1*
X9491Y7985D1*
X9510D1*
X9529Y7995D1*
X9539Y8005D1*
X9548Y8033D1*
Y8052D1*
X9391Y8186D2*
Y7985D1*
X9276D1*
X9958Y7688D2*
Y7487D1*
X9824Y7688D2*
Y7487D1*
X9958Y7592D2*
X9824D1*
X9763Y7582D2*
X9676D1*
X9648Y7592D1*
X9638Y7602D1*
X9629Y7621D1*
Y7649D1*
X9638Y7668D1*
X9648Y7678D1*
X9676Y7688D1*
X9763D1*
Y7487D1*
X9471Y7688D2*
Y7535D1*
X9481Y7506D1*
X9490Y7496D1*
X9509Y7487D1*
X9529D1*
X9548Y7496D1*
X9557Y7506D1*
X9567Y7535D1*
Y7554D1*
X9409Y7592D2*
X9323D1*
X9295Y7602D1*
X9285Y7611D1*
X9275Y7630D1*
Y7649D1*
X9285Y7668D1*
X9295Y7678D1*
X9323Y7688D1*
X9409D1*
Y7487D1*
X9342Y7592D2*
X9275Y7487D1*
X9960Y7187D2*
Y6986D1*
X9826Y7187D2*
Y6986D1*
X9960Y7091D2*
X9826D1*
X9764Y7081D2*
X9678D1*
X9649Y7091D1*
X9640Y7101D1*
X9630Y7120D1*
Y7148D1*
X9640Y7167D1*
X9649Y7177D1*
X9678Y7187D1*
X9764D1*
Y6986D1*
X9473Y7187D2*
Y7034D1*
X9482Y7005D1*
X9492Y6995D1*
X9511Y6986D1*
X9530D1*
X9549Y6995D1*
X9559Y7005D1*
X9568Y7034D1*
Y7053D1*
X9411Y7187D2*
Y6986D1*
X9344D1*
X9315Y6995D1*
X9296Y7014D1*
X9286Y7034D1*
X9277Y7062D1*
Y7110D1*
X9286Y7139D1*
X9296Y7158D1*
X9315Y7177D1*
X9344Y7187D1*
X9411D1*
X9929Y6589D2*
X9843D1*
X9814Y6599D1*
X9805Y6608D1*
X9795Y6627D1*
Y6646D1*
X9805Y6665D1*
X9814Y6675D1*
X9843Y6685D1*
X9929D1*
Y6484D1*
X9862Y6589D2*
X9795Y6484D1*
X9609Y6685D2*
X9733D1*
Y6484D1*
X9609D1*
X9733Y6589D2*
X9657D1*
X9394Y6484D2*
Y6685D1*
X9471Y6484D1*
X9547Y6685D1*
Y6484D1*
X9808Y6137D2*
X9818Y6156D1*
X9837Y6175D1*
X9856Y6184D1*
X9894D1*
X9913Y6175D1*
X9932Y6156D1*
X9942Y6137D1*
X9952Y6108D1*
Y6060D1*
X9942Y6031D1*
X9932Y6012D1*
X9913Y5993D1*
X9894Y5984D1*
X9856D1*
X9837Y5993D1*
X9818Y6012D1*
X9808Y6031D1*
Y6060D1*
X9856D1*
X9746Y6079D2*
X9660D1*
X9632Y6089D1*
X9622Y6098D1*
X9612Y6117D1*
Y6146D1*
X9622Y6165D1*
X9632Y6175D1*
X9660Y6184D1*
X9746D1*
Y5984D1*
X9455D2*
Y6184D1*
X9551Y6051D1*
X9407D1*
X9336Y6137D2*
Y6146D1*
X9326Y6165D1*
X9317Y6175D1*
X9298Y6184D1*
X9259D1*
X9240Y6175D1*
X9231Y6165D1*
X9221Y6146D1*
Y6127D1*
X9231Y6108D1*
X9250Y6079D1*
X9345Y5984D1*
X9212D1*
X11262Y5493D2*
X11243Y5503D1*
X11223Y5522D1*
X11214Y5541D1*
Y5579D1*
X11223Y5599D1*
X11243Y5618D1*
X11262Y5627D1*
X11290Y5637D1*
X11338D1*
X11367Y5627D1*
X11386Y5618D1*
X11405Y5599D1*
X11415Y5579D1*
Y5541D1*
X11405Y5522D1*
X11386Y5503D1*
X11367Y5493D1*
X11338D1*
Y5541D1*
X11214Y5298D2*
X11415D1*
X11214Y5432D1*
X11415D1*
X11214Y5236D2*
X11415D1*
Y5169D1*
X11405Y5140D1*
X11386Y5121D1*
X11367Y5111D1*
X11338Y5102D1*
X11290D1*
X11262Y5111D1*
X11243Y5121D1*
X11223Y5140D1*
X11214Y5169D1*
Y5236D1*
X11720Y5652D2*
X11921D1*
Y5585D1*
X11912Y5556D1*
X11893Y5537D1*
X11873Y5528D1*
X11845Y5518D1*
X11797D1*
X11768Y5528D1*
X11749Y5537D1*
X11730Y5556D1*
X11720Y5585D1*
Y5652D1*
X11768Y5313D2*
X11749Y5322D1*
X11730Y5342D1*
X11720Y5361D1*
Y5399D1*
X11730Y5418D1*
X11749Y5437D1*
X11768Y5447D1*
X11797Y5456D1*
X11845D1*
X11873Y5447D1*
X11893Y5437D1*
X11912Y5418D1*
X11921Y5399D1*
Y5361D1*
X11912Y5342D1*
X11893Y5322D1*
X11873Y5313D1*
X11720Y5251D2*
X11921D1*
X11720Y5055D2*
X11921D1*
X11720Y5189D1*
X11921D1*
X12232Y5654D2*
X12433D1*
Y5587D1*
X12423Y5558D1*
X12404Y5539D1*
X12385Y5529D1*
X12356Y5520D1*
X12308D1*
X12279Y5529D1*
X12260Y5539D1*
X12241Y5558D1*
X12232Y5587D1*
Y5654D1*
X12279Y5315D2*
X12260Y5324D1*
X12241Y5343D1*
X12232Y5362D1*
Y5401D1*
X12241Y5420D1*
X12260Y5439D1*
X12279Y5448D1*
X12308Y5458D1*
X12356D1*
X12385Y5448D1*
X12404Y5439D1*
X12423Y5420D1*
X12433Y5401D1*
Y5362D1*
X12423Y5343D1*
X12404Y5324D1*
X12385Y5315D1*
X12232Y5253D2*
X12433D1*
X12232Y5057D2*
X12433D1*
X12232Y5191D1*
X12433D1*
X12806Y6871D2*
X12787Y6880D1*
X12768Y6900D1*
X12758Y6919D1*
Y6957D1*
X12768Y6976D1*
X12787Y6995D1*
X12806Y7005D1*
X12835Y7014D1*
X12883D1*
X12911Y7005D1*
X12930Y6995D1*
X12950Y6976D1*
X12959Y6957D1*
Y6919D1*
X12950Y6900D1*
X12930Y6880D1*
X12911Y6871D1*
X12883D1*
Y6919D1*
X12758Y6675D2*
X12959D1*
X12758Y6809D1*
X12959D1*
X12758Y6613D2*
X12959D1*
Y6546D1*
X12950Y6518D1*
X12930Y6498D1*
X12911Y6489D1*
X12883Y6479D1*
X12835D1*
X12806Y6489D1*
X12787Y6498D1*
X12768Y6518D1*
X12758Y6546D1*
Y6613D1*
X13259Y7271D2*
X13402D1*
X13431Y7261D1*
X13450Y7242D1*
X13460Y7213D1*
Y7194D1*
X13450Y7166D1*
X13431Y7146D1*
X13402Y7137D1*
X13259D1*
Y7075D2*
X13460D1*
Y7008D1*
X13450Y6979D1*
X13431Y6960D1*
X13412Y6951D1*
X13383Y6941D1*
X13335D1*
X13307Y6951D1*
X13288Y6960D1*
X13268Y6979D1*
X13259Y7008D1*
Y7075D1*
X13307Y6736D2*
X13288Y6745D1*
X13268Y6765D1*
X13259Y6784D1*
Y6822D1*
X13268Y6841D1*
X13288Y6860D1*
X13307Y6870D1*
X13335Y6879D1*
X13383D1*
X13412Y6870D1*
X13431Y6860D1*
X13450Y6841D1*
X13460Y6822D1*
Y6784D1*
X13450Y6765D1*
X13431Y6745D1*
X13412Y6736D1*
X13259Y6674D2*
X13460D1*
X13259Y6478D2*
X13460D1*
X13259Y6612D1*
X13460D1*
X13751Y6787D2*
X13952D1*
Y6720D1*
X13942Y6692D1*
X13923Y6673D1*
X13904Y6663D1*
X13875Y6653D1*
X13827D1*
X13798Y6663D1*
X13779Y6673D1*
X13760Y6692D1*
X13751Y6720D1*
Y6787D1*
X13851Y6592D2*
Y6481D1*
X14249Y6843D2*
X14450D1*
Y6776D1*
X14440Y6747D1*
X14421Y6728D1*
X14402Y6718D1*
X14373Y6709D1*
X14325D1*
X14297Y6718D1*
X14277Y6728D1*
X14258Y6747D1*
X14249Y6776D1*
Y6843D1*
X14263Y6561D2*
X14435D1*
X14349Y6647D2*
Y6475D1*
X14814Y6858D2*
X14795Y6868D1*
X14776Y6887D1*
X14766Y6906D1*
Y6944D1*
X14776Y6963D1*
X14795Y6982D1*
X14814Y6992D1*
X14843Y7002D1*
X14891D1*
X14919Y6992D1*
X14939Y6982D1*
X14958Y6963D1*
X14967Y6944D1*
Y6906D1*
X14958Y6887D1*
X14939Y6868D1*
X14919Y6858D1*
X14891D1*
Y6906D1*
X14766Y6662D2*
X14967D1*
X14766Y6796D1*
X14967D1*
X14766Y6601D2*
X14967D1*
Y6534D1*
X14958Y6505D1*
X14939Y6486D1*
X14919Y6476D1*
X14891Y6467D1*
X14843D1*
X14814Y6476D1*
X14795Y6486D1*
X14776Y6505D1*
X14766Y6534D1*
Y6601D1*
X15298Y6935D2*
X15288Y6915D1*
X15260Y6887D1*
X15461D1*
X15260Y6825D2*
X15461Y6748D1*
X15260Y6672D1*
Y6562D2*
X15269Y6591D1*
X15288Y6601D1*
X15308D1*
X15327Y6591D1*
X15336Y6572D1*
X15346Y6534D1*
X15355Y6505D1*
X15375Y6486D1*
X15394Y6476D1*
X15422D1*
X15441Y6486D1*
X15451Y6495D1*
X15461Y6524D1*
Y6562D1*
X15451Y6591D1*
X15441Y6601D1*
X15422Y6610D1*
X15394D1*
X15375Y6601D1*
X15355Y6581D1*
X15346Y6553D1*
X15336Y6515D1*
X15327Y6495D1*
X15308Y6486D1*
X15288D1*
X15269Y6495D1*
X15260Y6524D1*
Y6562D1*
X15712Y5615D2*
Y5510D1*
X15789Y5567D1*
Y5539D1*
X15798Y5520D1*
X15808Y5510D1*
X15836Y5500D1*
X15855D1*
X15884Y5510D1*
X15903Y5529D1*
X15913Y5558D1*
Y5587D1*
X15903Y5615D1*
X15894Y5625D1*
X15875Y5634D1*
X15712Y5439D2*
X15913Y5362D1*
X15712Y5286D1*
Y5205D2*
Y5100D1*
X15789Y5157D1*
Y5128D1*
X15798Y5109D1*
X15808Y5100D1*
X15836Y5090D1*
X15855D1*
X15884Y5100D1*
X15903Y5119D1*
X15913Y5147D1*
Y5176D1*
X15903Y5205D1*
X15894Y5214D1*
X15875Y5224D1*
X16227Y5623D2*
Y5518D1*
X16303Y5575D1*
Y5547D1*
X16313Y5528D1*
X16323Y5518D1*
X16351Y5508D1*
X16370D1*
X16399Y5518D1*
X16418Y5537D1*
X16428Y5566D1*
Y5595D1*
X16418Y5623D1*
X16409Y5633D1*
X16389Y5642D1*
X16227Y5447D2*
X16428Y5370D1*
X16227Y5294D1*
Y5213D2*
Y5108D1*
X16303Y5165D1*
Y5136D1*
X16313Y5117D1*
X16323Y5108D1*
X16351Y5098D1*
X16370D1*
X16399Y5108D1*
X16418Y5127D1*
X16428Y5155D1*
Y5184D1*
X16418Y5213D1*
X16409Y5222D1*
X16389Y5232D1*
X16761Y5489D2*
X16742Y5498D1*
X16723Y5517D1*
X16714Y5536D1*
Y5575D1*
X16723Y5594D1*
X16742Y5613D1*
X16761Y5623D1*
X16790Y5632D1*
X16838D1*
X16867Y5623D1*
X16886Y5613D1*
X16905Y5594D1*
X16914Y5575D1*
Y5536D1*
X16905Y5517D1*
X16886Y5498D1*
X16867Y5489D1*
X16838D1*
Y5536D1*
X16714Y5293D2*
X16914D1*
X16714Y5427D1*
X16914D1*
X16714Y5231D2*
X16914D1*
Y5164D1*
X16905Y5135D1*
X16886Y5116D1*
X16867Y5107D1*
X16838Y5097D1*
X16790D1*
X16761Y5107D1*
X16742Y5116D1*
X16723Y5135D1*
X16714Y5164D1*
Y5231D1*
X17264Y5518D2*
X17245Y5527D1*
X17226Y5546D1*
X17217Y5565D1*
Y5604D1*
X17226Y5623D1*
X17245Y5642D1*
X17264Y5652D1*
X17293Y5661D1*
X17341D1*
X17370Y5652D1*
X17389Y5642D1*
X17408Y5623D1*
X17418Y5604D1*
Y5565D1*
X17408Y5546D1*
X17389Y5527D1*
X17370Y5518D1*
X17341D1*
Y5565D1*
X17322Y5456D2*
Y5370D1*
X17312Y5341D1*
X17303Y5332D1*
X17284Y5322D1*
X17255D1*
X17236Y5332D1*
X17226Y5341D1*
X17217Y5370D1*
Y5456D1*
X17418D1*
X17217Y5146D2*
Y5241D1*
X17303Y5251D1*
X17293Y5241D1*
X17284Y5212D1*
Y5184D1*
X17293Y5155D1*
X17312Y5136D1*
X17341Y5126D1*
X17360D1*
X17389Y5136D1*
X17408Y5155D1*
X17418Y5184D1*
Y5212D1*
X17408Y5241D1*
X17398Y5251D1*
X17379Y5260D1*
X17418Y4969D2*
X17217D1*
X17351Y5065D1*
Y4921D1*
X18272Y5494D2*
X18253Y5503D1*
X18234Y5522D1*
X18224Y5541D1*
Y5580D1*
X18234Y5599D1*
X18253Y5618D1*
X18272Y5628D1*
X18301Y5637D1*
X18349D1*
X18377Y5628D1*
X18396Y5618D1*
X18415Y5599D1*
X18425Y5580D1*
Y5541D1*
X18415Y5522D1*
X18396Y5503D1*
X18377Y5494D1*
X18349D1*
Y5541D1*
X18224Y5298D2*
X18425D1*
X18224Y5432D1*
X18425D1*
X18224Y5236D2*
X18425D1*
Y5169D1*
X18415Y5140D1*
X18396Y5121D1*
X18377Y5112D1*
X18349Y5102D1*
X18301D1*
X18272Y5112D1*
X18253Y5121D1*
X18234Y5140D1*
X18224Y5169D1*
Y5236D1*
X17761Y5494D2*
X17742Y5504D1*
X17722Y5523D1*
X17713Y5542D1*
Y5580D1*
X17722Y5600D1*
X17742Y5619D1*
X17761Y5628D1*
X17789Y5638D1*
X17837D1*
X17866Y5628D1*
X17885Y5619D1*
X17904Y5600D1*
X17914Y5580D1*
Y5542D1*
X17904Y5523D1*
X17885Y5504D1*
X17866Y5494D1*
X17837D1*
Y5542D1*
X17818Y5433D2*
Y5346D1*
X17809Y5318D1*
X17799Y5308D1*
X17780Y5299D1*
X17751D1*
X17732Y5308D1*
X17722Y5318D1*
X17713Y5346D1*
Y5433D1*
X17914D1*
X17713Y5122D2*
Y5218D1*
X17799Y5227D1*
X17790Y5218D1*
X17780Y5189D1*
Y5160D1*
X17790Y5132D1*
X17809Y5112D1*
X17837Y5103D1*
X17856D1*
X17885Y5112D1*
X17904Y5132D1*
X17914Y5160D1*
Y5189D1*
X17904Y5218D1*
X17895Y5227D1*
X17876Y5237D1*
X17713Y5022D2*
Y4917D1*
X17790Y4974D1*
Y4945D1*
X17799Y4926D1*
X17809Y4917D1*
X17837Y4907D1*
X17856D1*
X17885Y4917D1*
X17904Y4936D1*
X17914Y4965D1*
Y4993D1*
X17904Y5022D1*
X17895Y5031D1*
X17876Y5041D1*
X18780Y5472D2*
X18761Y5481D1*
X18742Y5500D1*
X18732Y5519D1*
Y5558D1*
X18742Y5577D1*
X18761Y5596D1*
X18780Y5606D1*
X18809Y5615D1*
X18856D1*
X18885Y5606D1*
X18904Y5596D1*
X18923Y5577D1*
X18933Y5558D1*
Y5519D1*
X18923Y5500D1*
X18904Y5481D1*
X18885Y5472D1*
X18856D1*
Y5519D1*
X18837Y5410D2*
Y5324D1*
X18828Y5295D1*
X18818Y5285D1*
X18799Y5276D1*
X18770D1*
X18751Y5285D1*
X18742Y5295D1*
X18732Y5324D1*
Y5410D1*
X18933D1*
X18732Y5166D2*
X18742Y5195D1*
X18761Y5205D1*
X18780D1*
X18799Y5195D1*
X18809Y5176D1*
X18818Y5138D1*
X18828Y5109D1*
X18847Y5090D1*
X18866Y5080D1*
X18895D1*
X18914Y5090D1*
X18923Y5099D1*
X18933Y5128D1*
Y5166D1*
X18923Y5195D1*
X18914Y5205D1*
X18895Y5214D1*
X18866D1*
X18847Y5205D1*
X18828Y5185D1*
X18818Y5157D1*
X18809Y5119D1*
X18799Y5099D1*
X18780Y5090D1*
X18761D1*
X18742Y5099D1*
X18732Y5128D1*
Y5166D1*
X18770Y5019D2*
X18761Y4999D1*
X18732Y4971D1*
X18933D1*
X19271Y5524D2*
X19252Y5534D1*
X19233Y5553D1*
X19224Y5572D1*
Y5610D1*
X19233Y5629D1*
X19252Y5648D1*
X19271Y5658D1*
X19300Y5668D1*
X19348D1*
X19377Y5658D1*
X19396Y5648D1*
X19415Y5629D1*
X19425Y5610D1*
Y5572D1*
X19415Y5553D1*
X19396Y5534D1*
X19377Y5524D1*
X19348D1*
Y5572D1*
X19329Y5462D2*
Y5376D1*
X19319Y5348D1*
X19310Y5338D1*
X19291Y5328D1*
X19262D1*
X19243Y5338D1*
X19233Y5348D1*
X19224Y5376D1*
Y5462D1*
X19425D1*
X19262Y5267D2*
X19252Y5247D1*
X19224Y5219D1*
X19425D1*
X19262Y5157D2*
X19252Y5138D1*
X19224Y5109D1*
X19425D1*
Y4952D2*
X19224D1*
X19358Y5047D1*
Y4904D1*
X19768Y5470D2*
X19749Y5480D1*
X19730Y5499D1*
X19720Y5518D1*
Y5556D1*
X19730Y5575D1*
X19749Y5594D1*
X19768Y5604D1*
X19797Y5614D1*
X19845D1*
X19873Y5604D1*
X19892Y5594D1*
X19911Y5575D1*
X19921Y5556D1*
Y5518D1*
X19911Y5499D1*
X19892Y5480D1*
X19873Y5470D1*
X19845D1*
Y5518D1*
X19825Y5408D2*
Y5322D1*
X19816Y5294D1*
X19806Y5284D1*
X19787Y5274D1*
X19758D1*
X19739Y5284D1*
X19730Y5294D1*
X19720Y5322D1*
Y5408D1*
X19921D1*
X19720Y5098D2*
Y5193D1*
X19806Y5203D1*
X19797Y5193D1*
X19787Y5165D1*
Y5136D1*
X19797Y5107D1*
X19816Y5088D1*
X19845Y5079D1*
X19864D1*
X19892Y5088D1*
X19912Y5107D1*
X19921Y5136D1*
Y5165D1*
X19912Y5193D1*
X19902Y5203D1*
X19883Y5213D1*
X19759Y5017D2*
X19749Y4998D1*
X19720Y4969D1*
X19921D1*
X20269Y5489D2*
X20250Y5499D1*
X20231Y5518D1*
X20222Y5537D1*
Y5575D1*
X20231Y5595D1*
X20250Y5614D1*
X20269Y5623D1*
X20298Y5633D1*
X20346D1*
X20375Y5623D1*
X20394Y5614D1*
X20413Y5595D1*
X20423Y5575D1*
Y5537D1*
X20413Y5518D1*
X20394Y5499D1*
X20375Y5489D1*
X20346D1*
Y5537D1*
X20327Y5428D2*
Y5341D1*
X20317Y5313D1*
X20308Y5303D1*
X20289Y5294D1*
X20260D1*
X20241Y5303D1*
X20231Y5313D1*
X20222Y5341D1*
Y5428D1*
X20423D1*
X20222Y5117D2*
Y5213D1*
X20308Y5222D1*
X20298Y5213D1*
X20289Y5184D1*
Y5155D1*
X20298Y5127D1*
X20317Y5107D1*
X20346Y5098D1*
X20365D1*
X20394Y5107D1*
X20413Y5127D1*
X20423Y5155D1*
Y5184D1*
X20413Y5213D1*
X20403Y5222D1*
X20384Y5232D1*
X20222Y4979D2*
X20231Y5007D1*
X20260Y5027D1*
X20308Y5036D1*
X20337D1*
X20384Y5027D1*
X20413Y5007D1*
X20423Y4979D1*
Y4960D1*
X20413Y4931D1*
X20384Y4912D1*
X20337Y4902D1*
X20308D1*
X20260Y4912D1*
X20231Y4931D1*
X20222Y4960D1*
Y4979D1*
X20260Y4912D2*
X20384Y5027D1*
X20769Y5497D2*
X20750Y5507D1*
X20731Y5526D1*
X20721Y5545D1*
Y5583D1*
X20731Y5603D1*
X20750Y5622D1*
X20769Y5631D1*
X20798Y5641D1*
X20846D1*
X20874Y5631D1*
X20894Y5622D1*
X20913Y5603D1*
X20922Y5583D1*
Y5545D1*
X20913Y5526D1*
X20894Y5507D1*
X20874Y5497D1*
X20846D1*
Y5545D1*
X20827Y5436D2*
Y5349D1*
X20817Y5321D1*
X20807Y5311D1*
X20788Y5302D1*
X20760D1*
X20741Y5311D1*
X20731Y5321D1*
X20721Y5349D1*
Y5436D1*
X20922D1*
X20722Y5125D2*
Y5221D1*
X20808Y5230D1*
X20798Y5221D1*
X20788Y5192D1*
Y5163D1*
X20798Y5135D1*
X20817Y5115D1*
X20846Y5106D1*
X20865D1*
X20894Y5115D1*
X20913Y5135D1*
X20922Y5163D1*
Y5192D1*
X20913Y5221D1*
X20903Y5230D1*
X20884Y5240D1*
X20769Y5034D2*
X20760D1*
X20741Y5025D1*
X20731Y5015D1*
X20722Y4996D1*
Y4958D1*
X20731Y4939D1*
X20741Y4929D1*
X20760Y4920D1*
X20779D1*
X20798Y4929D1*
X20827Y4948D1*
X20922Y5044D1*
Y4910D1*
X21259Y5505D2*
X21240Y5515D1*
X21221Y5534D1*
X21211Y5553D1*
Y5591D1*
X21221Y5611D1*
X21240Y5630D1*
X21259Y5639D1*
X21288Y5649D1*
X21336D1*
X21364Y5639D1*
X21384Y5630D1*
X21403Y5611D1*
X21412Y5591D1*
Y5553D1*
X21403Y5534D1*
X21384Y5515D1*
X21364Y5505D1*
X21336D1*
Y5553D1*
X21317Y5444D2*
Y5357D1*
X21307Y5329D1*
X21297Y5319D1*
X21278Y5310D1*
X21250D1*
X21231Y5319D1*
X21221Y5329D1*
X21211Y5357D1*
Y5444D1*
X21412D1*
X21278Y5123D2*
X21307Y5133D1*
X21326Y5152D1*
X21336Y5181D1*
Y5190D1*
X21326Y5219D1*
X21307Y5238D1*
X21278Y5248D1*
X21269D1*
X21240Y5238D1*
X21221Y5219D1*
X21212Y5190D1*
Y5181D1*
X21221Y5152D1*
X21240Y5133D1*
X21278Y5123D1*
X21326D1*
X21374Y5133D1*
X21403Y5152D1*
X21412Y5181D1*
Y5200D1*
X21403Y5229D1*
X21384Y5238D1*
X21412Y4966D2*
X21212D1*
X21345Y5062D1*
Y4918D1*
X21774Y5486D2*
X21755Y5496D1*
X21735Y5515D1*
X21726Y5534D1*
Y5572D1*
X21735Y5591D1*
X21755Y5610D1*
X21774Y5620D1*
X21802Y5630D1*
X21850D1*
X21879Y5620D1*
X21898Y5610D1*
X21917Y5591D1*
X21927Y5572D1*
Y5534D1*
X21917Y5515D1*
X21898Y5496D1*
X21879Y5486D1*
X21850D1*
Y5534D1*
X21831Y5424D2*
Y5338D1*
X21822Y5310D1*
X21812Y5300D1*
X21793Y5290D1*
X21764D1*
X21745Y5300D1*
X21735Y5310D1*
X21726Y5338D1*
Y5424D1*
X21927D1*
X21793Y5104D2*
X21822Y5114D1*
X21841Y5133D1*
X21850Y5162D1*
Y5171D1*
X21841Y5200D1*
X21822Y5219D1*
X21793Y5229D1*
X21783D1*
X21755Y5219D1*
X21736Y5200D1*
X21726Y5171D1*
Y5162D1*
X21736Y5133D1*
X21755Y5114D1*
X21793Y5104D1*
X21841D1*
X21889Y5114D1*
X21917Y5133D1*
X21927Y5162D1*
Y5181D1*
X21917Y5209D1*
X21898Y5219D1*
X21726Y5023D2*
Y4918D1*
X21803Y4975D1*
Y4947D1*
X21812Y4928D1*
X21822Y4918D1*
X21850Y4908D1*
X21869D1*
X21898Y4918D1*
X21917Y4937D1*
X21927Y4966D1*
Y4995D1*
X21917Y5023D1*
X21908Y5033D1*
X21889Y5042D1*
X23690Y6139D2*
X23699Y6158D1*
X23718Y6177D1*
X23737Y6187D1*
X23776D1*
X23795Y6177D1*
X23814Y6158D1*
X23824Y6139D1*
X23833Y6110D1*
Y6062D1*
X23824Y6034D1*
X23814Y6015D1*
X23795Y5996D1*
X23776Y5986D1*
X23737D1*
X23718Y5996D1*
X23699Y6015D1*
X23690Y6034D1*
Y6062D1*
X23737D1*
X23628Y6082D2*
X23542D1*
X23513Y6091D1*
X23504Y6101D1*
X23494Y6120D1*
Y6149D1*
X23504Y6168D1*
X23513Y6177D1*
X23542Y6187D1*
X23628D1*
Y5986D1*
X23432Y6148D2*
X23413Y6158D1*
X23384Y6187D1*
Y5986D1*
X23313Y6139D2*
Y6148D1*
X23303Y6168D1*
X23294Y6177D1*
X23275Y6187D1*
X23236D1*
X23217Y6177D1*
X23208Y6168D1*
X23198Y6148D1*
Y6129D1*
X23208Y6110D1*
X23227Y6082D1*
X23323Y5986D1*
X23189D1*
X23773Y6641D2*
X23782Y6660D1*
X23802Y6679D1*
X23821Y6688D1*
X23859D1*
X23878Y6679D1*
X23897Y6660D1*
X23907Y6641D1*
X23916Y6612D1*
Y6564D1*
X23907Y6535D1*
X23897Y6516D1*
X23878Y6497D1*
X23859Y6487D1*
X23821D1*
X23802Y6497D1*
X23782Y6516D1*
X23773Y6535D1*
Y6564D1*
X23821D1*
X23711Y6583D2*
X23625D1*
X23596Y6593D1*
X23587Y6602D1*
X23577Y6621D1*
Y6650D1*
X23587Y6669D1*
X23596Y6679D1*
X23625Y6688D1*
X23711D1*
Y6487D1*
X23420D2*
Y6688D1*
X23515Y6554D1*
X23372D1*
X23195Y6688D2*
X23291D1*
X23300Y6602D1*
X23291Y6612D1*
X23262Y6621D1*
X23234D1*
X23205Y6612D1*
X23186Y6593D1*
X23176Y6564D1*
Y6545D1*
X23186Y6516D1*
X23205Y6497D1*
X23234Y6487D1*
X23262D1*
X23291Y6497D1*
X23300Y6507D1*
X23310Y6526D1*
X23740Y7129D2*
X23750Y7148D1*
X23769Y7167D1*
X23788Y7177D1*
X23826D1*
X23846Y7167D1*
X23865Y7148D1*
X23874Y7129D1*
X23884Y7100D1*
Y7052D1*
X23874Y7024D1*
X23865Y7004D1*
X23846Y6985D1*
X23826Y6976D1*
X23788D1*
X23769Y6985D1*
X23750Y7004D1*
X23740Y7024D1*
Y7052D1*
X23788D1*
X23679Y7071D2*
X23592D1*
X23564Y7081D1*
X23554Y7091D1*
X23545Y7110D1*
Y7138D1*
X23554Y7157D1*
X23564Y7167D1*
X23592Y7177D1*
X23679D1*
Y6976D1*
X23435Y7176D2*
X23464Y7167D1*
X23473Y7148D1*
Y7129D1*
X23464Y7110D1*
X23445Y7100D1*
X23406Y7090D1*
X23378Y7081D1*
X23359Y7062D1*
X23349Y7043D1*
Y7014D1*
X23359Y6995D1*
X23368Y6985D1*
X23397Y6976D1*
X23435D1*
X23464Y6985D1*
X23473Y6995D1*
X23483Y7014D1*
Y7043D1*
X23473Y7062D1*
X23454Y7081D1*
X23426Y7090D1*
X23387Y7100D1*
X23368Y7110D1*
X23359Y7129D1*
Y7148D1*
X23368Y7167D1*
X23397Y7176D1*
X23435D1*
X23173Y7148D2*
X23182Y7167D1*
X23211Y7176D1*
X23230D1*
X23259Y7167D1*
X23278Y7138D1*
X23287Y7090D1*
Y7043D1*
X23278Y7004D1*
X23259Y6985D1*
X23230Y6976D1*
X23220D1*
X23192Y6985D1*
X23173Y7004D1*
X23163Y7033D1*
Y7043D1*
X23173Y7071D1*
X23192Y7090D1*
X23220Y7100D1*
X23230D1*
X23259Y7090D1*
X23278Y7071D1*
X23287Y7043D1*
X23593Y7657D2*
X23612Y7677D1*
X23641Y7686D1*
X23679D1*
X23708Y7677D1*
X23727Y7657D1*
Y7638D1*
X23718Y7619D1*
X23708Y7610D1*
X23689Y7600D1*
X23632Y7581D1*
X23612Y7571D1*
X23603Y7562D1*
X23593Y7543D1*
Y7514D1*
X23612Y7495D1*
X23641Y7485D1*
X23679D1*
X23708Y7495D1*
X23727Y7514D1*
X23532Y7686D2*
Y7485D1*
X23465D1*
X23436Y7495D1*
X23417Y7514D1*
X23407Y7533D1*
X23398Y7562D1*
Y7610D1*
X23407Y7638D1*
X23417Y7657D1*
X23436Y7677D1*
X23465Y7686D1*
X23532D1*
X23183Y7485D2*
X23259Y7686D1*
X23336Y7485D1*
X23307Y7552D2*
X23211D1*
X23559Y8151D2*
X23578Y8170D1*
X23607Y8180D1*
X23645D1*
X23674Y8170D1*
X23693Y8151D1*
Y8132D1*
X23684Y8113D1*
X23674Y8103D1*
X23655Y8094D1*
X23598Y8074D1*
X23578Y8065D1*
X23569Y8055D1*
X23559Y8036D1*
Y8007D1*
X23578Y7988D1*
X23607Y7979D1*
X23645D1*
X23674Y7988D1*
X23693Y8007D1*
X23354Y8132D2*
X23364Y8151D1*
X23383Y8170D1*
X23402Y8180D1*
X23440D1*
X23459Y8170D1*
X23478Y8151D1*
X23488Y8132D1*
X23498Y8103D1*
Y8055D1*
X23488Y8027D1*
X23478Y8007D1*
X23459Y7988D1*
X23440Y7979D1*
X23402D1*
X23383Y7988D1*
X23364Y8007D1*
X23354Y8027D1*
X23292Y8180D2*
Y7979D1*
X23178D1*
X23760Y8640D2*
X23769Y8659D1*
X23788Y8678D1*
X23807Y8687D1*
X23846D1*
X23865Y8678D1*
X23884Y8659D1*
X23894Y8640D1*
X23903Y8611D1*
Y8563D1*
X23894Y8534D1*
X23884Y8515D1*
X23865Y8496D1*
X23846Y8486D1*
X23807D1*
X23788Y8496D1*
X23769Y8515D1*
X23760Y8534D1*
Y8563D1*
X23807D1*
X23698Y8582D2*
X23612D1*
X23583Y8592D1*
X23573Y8601D1*
X23564Y8620D1*
Y8649D1*
X23573Y8668D1*
X23583Y8678D1*
X23612Y8687D1*
X23698D1*
Y8486D1*
X23454Y8687D2*
X23483Y8678D1*
X23493Y8659D1*
Y8639D1*
X23483Y8620D1*
X23464Y8611D1*
X23426Y8601D1*
X23397Y8592D1*
X23378Y8572D1*
X23368Y8553D1*
Y8525D1*
X23378Y8506D1*
X23387Y8496D1*
X23416Y8486D1*
X23454D1*
X23483Y8496D1*
X23493Y8506D1*
X23502Y8525D1*
Y8553D1*
X23493Y8572D1*
X23473Y8592D1*
X23445Y8601D1*
X23407Y8611D1*
X23387Y8620D1*
X23378Y8639D1*
Y8659D1*
X23387Y8678D1*
X23416Y8687D1*
X23454D1*
X23211Y8486D2*
Y8687D1*
X23307Y8553D1*
X23163D1*
X23771Y9128D2*
X23780Y9147D1*
X23800Y9166D1*
X23819Y9176D1*
X23857D1*
X23876Y9166D1*
X23895Y9147D1*
X23905Y9128D1*
X23914Y9099D1*
Y9051D1*
X23905Y9023D1*
X23895Y9004D1*
X23876Y8985D1*
X23857Y8975D1*
X23819D1*
X23800Y8985D1*
X23780Y9004D1*
X23771Y9023D1*
Y9051D1*
X23819D1*
X23709Y9071D2*
X23623D1*
X23594Y9080D1*
X23585Y9090D1*
X23575Y9109D1*
Y9138D1*
X23585Y9157D1*
X23594Y9166D1*
X23623Y9176D1*
X23709D1*
Y8975D1*
X23418D2*
Y9176D1*
X23513Y9042D1*
X23370D1*
X23213Y8975D2*
Y9176D1*
X23308Y9042D1*
X23165D1*
X15105Y4499D2*
Y4356D1*
X15095Y4327D1*
X15076Y4308D1*
X15048Y4298D1*
X15029D1*
X15000Y4308D1*
X14981Y4327D1*
X14971Y4356D1*
Y4499D1*
X14775Y4471D2*
X14794Y4490D1*
X14823Y4499D1*
X14861D1*
X14890Y4490D1*
X14909Y4471D1*
Y4452D1*
X14900Y4432D1*
X14890Y4423D1*
X14871Y4413D1*
X14814Y4394D1*
X14794Y4385D1*
X14785Y4375D1*
X14775Y4356D1*
Y4327D1*
X14794Y4308D1*
X14823Y4298D1*
X14861D1*
X14890Y4308D1*
X14909Y4327D1*
X14714Y4499D2*
Y4298D1*
X14627D1*
X14599Y4308D1*
X14589Y4318D1*
X14580Y4337D1*
Y4365D1*
X14589Y4385D1*
X14599Y4394D1*
X14627Y4404D1*
X14599Y4413D1*
X14589Y4423D1*
X14580Y4442D1*
Y4461D1*
X14589Y4480D1*
X14599Y4490D1*
X14627Y4499D1*
X14714D1*
Y4404D2*
X14627D1*
X14228Y4499D2*
Y4346D1*
X14237Y4318D1*
X14247Y4308D1*
X14266Y4298D1*
X14285D1*
X14304Y4308D1*
X14314Y4318D1*
X14323Y4346D1*
Y4365D1*
X14166Y4499D2*
Y4356D1*
X14156Y4327D1*
X14137Y4308D1*
X14108Y4298D1*
X14089D1*
X14061Y4308D1*
X14041Y4327D1*
X14032Y4356D1*
Y4499D1*
X13817Y4298D2*
Y4499D1*
X13894Y4298D1*
X13970Y4499D1*
Y4298D1*
X13755Y4394D2*
X13669D1*
X13641Y4404D1*
X13631Y4413D1*
X13621Y4432D1*
Y4461D1*
X13631Y4480D1*
X13641Y4490D1*
X13669Y4499D1*
X13755D1*
Y4298D1*
X13435Y4499D2*
X13560D1*
Y4298D1*
X13435D1*
X13560Y4404D2*
X13483D1*
X13374D2*
X13288D1*
X13259Y4413D1*
X13249Y4423D1*
X13240Y4442D1*
Y4461D1*
X13249Y4480D1*
X13259Y4490D1*
X13288Y4499D1*
X13374D1*
Y4298D1*
X13307Y4404D2*
X13240Y4298D1*
X13044Y4471D2*
X13063Y4490D1*
X13092Y4499D1*
X13130D1*
X13159Y4490D1*
X13178Y4471D1*
Y4452D1*
X13168Y4432D1*
X13159Y4423D1*
X13140Y4413D1*
X13082Y4394D1*
X13063Y4385D1*
X13054Y4375D1*
X13044Y4356D1*
Y4327D1*
X13063Y4308D1*
X13092Y4298D1*
X13130D1*
X13159Y4308D1*
X13178Y4327D1*
X15289Y4874D2*
X15442Y4788D1*
X15289Y4702D1*
X15227Y4788D2*
X15117D1*
X15055Y4889D2*
Y4688D1*
X14921Y4889D2*
Y4688D1*
X15055Y4793D2*
X14921D1*
X14802Y4889D2*
X14821Y4879D1*
X14840Y4860D1*
X14850Y4841D1*
X14859Y4812D1*
Y4764D1*
X14850Y4736D1*
X14840Y4717D1*
X14821Y4698D1*
X14802Y4688D1*
X14763D1*
X14744Y4698D1*
X14725Y4717D1*
X14716Y4736D1*
X14706Y4764D1*
Y4812D1*
X14716Y4841D1*
X14725Y4860D1*
X14744Y4879D1*
X14763Y4889D1*
X14802D1*
X14510Y4860D2*
X14529Y4879D1*
X14558Y4889D1*
X14596D1*
X14625Y4879D1*
X14644Y4860D1*
Y4841D1*
X14635Y4822D1*
X14625Y4812D1*
X14606Y4803D1*
X14549Y4784D1*
X14529Y4774D1*
X14520Y4764D1*
X14510Y4745D1*
Y4717D1*
X14529Y4698D1*
X14558Y4688D1*
X14596D1*
X14625Y4698D1*
X14644Y4717D1*
X14382Y4889D2*
Y4688D1*
X14449Y4889D2*
X14315D1*
X14253Y4688D2*
X14119Y4889D1*
X14057D2*
Y4688D1*
X13990D1*
X13962Y4698D1*
X13942Y4717D1*
X13933Y4736D1*
X13923Y4764D1*
Y4812D1*
X13933Y4841D1*
X13942Y4860D1*
X13962Y4879D1*
X13990Y4889D1*
X14057D1*
X13737D2*
X13861D1*
Y4688D1*
X13737D1*
X13861Y4793D2*
X13785D1*
X13675Y4889D2*
X13599Y4688D1*
X13523Y4889D1*
X13461D2*
Y4688D1*
X13256Y4841D2*
X13265Y4860D1*
X13284Y4879D1*
X13303Y4889D1*
X13342D1*
X13361Y4879D1*
X13380Y4860D1*
X13389Y4841D1*
X13399Y4812D1*
Y4764D1*
X13389Y4736D1*
X13380Y4717D1*
X13361Y4698D1*
X13342Y4688D1*
X13303D1*
X13284Y4698D1*
X13265Y4717D1*
X13256Y4736D1*
X13070Y4889D2*
X13194D1*
Y4688D1*
X13070D1*
X13194Y4793D2*
X13117D1*
X13008Y4788D2*
X12897D1*
X12835Y4874D2*
X12682Y4788D1*
X12835Y4702D1*
X26665Y10101D2*
Y9900D1*
X26531Y10101D2*
Y9900D1*
X26665Y10006D2*
X26531D1*
X26412Y10101D2*
X26431Y10092D1*
X26450Y10072D1*
X26460Y10053D1*
X26470Y10025D1*
Y9977D1*
X26460Y9948D1*
X26450Y9929D1*
X26431Y9910D1*
X26412Y9900D1*
X26374D1*
X26355Y9910D1*
X26336Y9929D1*
X26326Y9948D1*
X26317Y9977D1*
Y10025D1*
X26326Y10053D1*
X26336Y10072D1*
X26355Y10092D1*
X26374Y10101D1*
X26412D1*
X26121Y10072D2*
X26140Y10092D1*
X26169Y10101D1*
X26207D1*
X26236Y10092D1*
X26255Y10072D1*
Y10053D1*
X26245Y10034D1*
X26236Y10025D1*
X26217Y10015D1*
X26159Y9996D1*
X26140Y9986D1*
X26130Y9977D1*
X26121Y9958D1*
Y9929D1*
X26140Y9910D1*
X26169Y9900D1*
X26207D1*
X26236Y9910D1*
X26255Y9929D1*
X25992Y10101D2*
Y9900D1*
X26059Y10101D2*
X25925D1*
X25669Y9996D2*
X25583D1*
X25554Y10006D1*
X25545Y10015D1*
X25535Y10034D1*
Y10063D1*
X25545Y10082D1*
X25554Y10092D1*
X25583Y10101D1*
X25669D1*
Y9900D1*
X25473Y10101D2*
X25425Y9900D1*
X25378Y10101D1*
X25330Y9900D1*
X25282Y10101D1*
X25220Y10006D2*
X25134D1*
X25105Y10015D1*
X25096Y10025D1*
X25086Y10044D1*
Y10063D1*
X25096Y10082D1*
X25105Y10092D1*
X25134Y10101D1*
X25220D1*
Y9900D1*
X25153Y10006D2*
X25086Y9900D1*
X27112Y9209D2*
X26911D1*
Y9276D1*
X26921Y9305D1*
X26940Y9324D1*
X26959Y9334D1*
X26987Y9343D1*
X27035D1*
X27064Y9334D1*
X27083Y9324D1*
X27102Y9305D1*
X27112Y9276D1*
Y9209D1*
X27064Y9548D2*
X27083Y9539D1*
X27102Y9520D1*
X27112Y9501D1*
Y9462D1*
X27102Y9443D1*
X27083Y9424D1*
X27064Y9414D1*
X27035Y9405D1*
X26987D1*
X26959Y9414D1*
X26940Y9424D1*
X26921Y9443D1*
X26911Y9462D1*
Y9501D1*
X26921Y9520D1*
X26940Y9539D1*
X26959Y9548D1*
X27112Y9610D2*
X26911D1*
X27112Y9806D2*
X26911D1*
X27112Y9672D1*
X26911D1*
X27011Y9868D2*
Y9978D1*
X27097Y10040D2*
X27011Y10193D1*
X26925Y10040D1*
X27997Y9406D2*
X27911Y9253D1*
X27825Y9406D1*
X27911Y9468D2*
Y9579D1*
X27916Y9640D2*
Y9726D1*
X27926Y9755D1*
X27935Y9765D1*
X27954Y9774D1*
X27974D1*
X27993Y9765D1*
X28002Y9755D1*
X28012Y9726D1*
Y9640D1*
X27811D1*
X27916Y9707D2*
X27811Y9774D1*
X28012Y9960D2*
Y9836D1*
X27811D1*
Y9960D1*
X27916Y9836D2*
Y9913D1*
X27964Y10166D2*
X27983Y10156D1*
X28002Y10137D1*
X28012Y10118D1*
Y10080D1*
X28002Y10060D1*
X27983Y10041D1*
X27964Y10032D1*
X27935Y10022D1*
X27887D1*
X27859Y10032D1*
X27840Y10041D1*
X27821Y10060D1*
X27811Y10080D1*
Y10118D1*
X27821Y10137D1*
X27840Y10156D1*
X27859Y10166D1*
X27887D1*
Y10118D1*
X18499Y8116D2*
D91*
Y7848D1*
Y8039D2*
X18442Y8097D1*
X18404Y8116D1*
X18346D1*
X18308Y8097D1*
X18289Y8039D1*
Y7848D1*
Y8039D2*
X18232Y8097D1*
X18193Y8116D1*
X18136D1*
X18098Y8097D1*
X18078Y8039D1*
Y7848D1*
X17859Y8116D2*
X17897Y8097D1*
X17936Y8058D1*
X17955Y8001D1*
Y7963D1*
X17936Y7905D1*
X17897Y7867D1*
X17859Y7848D1*
X17802D1*
X17763Y7867D1*
X17725Y7905D1*
X17706Y7963D1*
Y8001D1*
X17725Y8058D1*
X17763Y8097D1*
X17802Y8116D1*
X17859D1*
X17582D2*
X17372D1*
X17582Y7848D1*
X17372D1*
X17248Y8116D2*
X17038D1*
X17248Y7848D1*
X17038D1*
X16914Y8116D2*
X16838Y7848D1*
X16761Y8116D1*
X16685Y7848D1*
X16608Y8116D1*
X16255D2*
Y7848D1*
Y8058D2*
X16293Y8097D1*
X16332Y8116D1*
X16389D1*
X16427Y8097D1*
X16465Y8058D1*
X16485Y8001D1*
Y7963D1*
X16465Y7905D1*
X16427Y7867D1*
X16389Y7848D1*
X16332D1*
X16293Y7867D1*
X16255Y7905D1*
X16132Y8250D2*
Y7848D1*
X15779Y8250D2*
Y7848D1*
Y8058D2*
X15817Y8097D1*
X15855Y8116D1*
X15913D1*
X15951Y8097D1*
X15989Y8058D1*
X16008Y8001D1*
Y7963D1*
X15989Y7905D1*
X15951Y7867D1*
X15913Y7848D1*
X15855D1*
X15817Y7867D1*
X15779Y7905D1*
X15636Y7886D2*
X15655Y7867D1*
X15636Y7848D1*
X15617Y7867D1*
X15636Y7886D1*
X15263Y8058D2*
X15302Y8097D1*
X15340Y8116D1*
X15397D1*
X15436Y8097D1*
X15474Y8058D1*
X15493Y8001D1*
Y7963D1*
X15474Y7905D1*
X15436Y7867D1*
X15397Y7848D1*
X15340D1*
X15302Y7867D1*
X15263Y7905D1*
X15044Y8116D2*
X15082Y8097D1*
X15121Y8058D1*
X15140Y8001D1*
Y7963D1*
X15121Y7905D1*
X15082Y7867D1*
X15044Y7848D1*
X14987D1*
X14948Y7867D1*
X14910Y7905D1*
X14891Y7963D1*
Y8001D1*
X14910Y8058D1*
X14948Y8097D1*
X14987Y8116D1*
X15044D1*
X14767D2*
Y7848D1*
Y8039D2*
X14710Y8097D1*
X14671Y8116D1*
X14614D1*
X14576Y8097D1*
X14557Y8039D1*
Y7848D1*
Y8039D2*
X14499Y8097D1*
X14461Y8116D1*
X14404D1*
X14365Y8097D1*
X14346Y8039D1*
Y7848D1*
X19789Y8935D2*
X19522D1*
X19789Y8533D1*
X19522D1*
X19398Y8935D2*
X19379Y8916D1*
X19360Y8935D1*
X19379Y8954D1*
X19398Y8935D1*
X19379Y8801D2*
Y8533D1*
X19236Y8801D2*
Y8399D1*
Y8743D2*
X19198Y8781D1*
X19160Y8801D1*
X19102D1*
X19064Y8781D1*
X19026Y8743D1*
X19006Y8686D1*
Y8647D1*
X19026Y8590D1*
X19064Y8552D1*
X19102Y8533D1*
X19160D1*
X19198Y8552D1*
X19236Y8590D1*
X18883Y8935D2*
X18864Y8916D1*
X18844Y8935D1*
X18864Y8954D1*
X18883Y8935D1*
X18864Y8801D2*
Y8533D1*
X18663Y8935D2*
Y8609D1*
X18644Y8552D1*
X18606Y8533D1*
X18568D1*
X18721Y8801D2*
X18587D1*
X18055Y8935D2*
X17787D1*
X18055Y8533D1*
X17787D1*
X17644Y8839D2*
Y8858D1*
X17625Y8896D1*
X17606Y8915D1*
X17568Y8934D1*
X17491D1*
X17453Y8915D1*
X17434Y8896D1*
X17415Y8858D1*
Y8820D1*
X17434Y8781D1*
X17472Y8724D1*
X17664Y8533D1*
X17396D1*
X16884Y8935D2*
Y8533D1*
X16711D1*
X16654Y8552D1*
X16635Y8571D1*
X16616Y8609D1*
Y8667D1*
X16635Y8705D1*
X16654Y8724D1*
X16711Y8743D1*
X16654Y8763D1*
X16635Y8782D1*
X16616Y8820D1*
Y8858D1*
X16635Y8896D1*
X16654Y8916D1*
X16711Y8935D1*
X16884D1*
Y8743D2*
X16711D1*
X16492Y8801D2*
Y8533D1*
Y8686D2*
X16473Y8743D1*
X16435Y8782D1*
X16396Y8801D1*
X16339D1*
X16215Y8686D2*
X15986D1*
Y8724D1*
X16005Y8763D1*
X16024Y8782D1*
X16062Y8801D1*
X16120D1*
X16158Y8782D1*
X16196Y8743D1*
X16215Y8686D1*
Y8648D1*
X16196Y8590D1*
X16158Y8552D1*
X16120Y8533D1*
X16062D1*
X16024Y8552D1*
X15986Y8590D1*
X15633Y8801D2*
Y8533D1*
Y8743D2*
X15671Y8782D1*
X15709Y8801D1*
X15766D1*
X15805Y8782D1*
X15843Y8743D1*
X15862Y8686D1*
Y8648D1*
X15843Y8590D1*
X15805Y8552D1*
X15766Y8533D1*
X15709D1*
X15671Y8552D1*
X15633Y8590D1*
X15509Y8935D2*
Y8533D1*
X15318Y8801D2*
X15509Y8609D1*
X15433Y8686D2*
X15299Y8533D1*
X15080Y8801D2*
X15118Y8782D1*
X15156Y8743D1*
X15175Y8686D1*
Y8648D1*
X15156Y8590D1*
X15118Y8552D1*
X15080Y8533D1*
X15022D1*
X14984Y8552D1*
X14946Y8590D1*
X14926Y8648D1*
Y8686D1*
X14946Y8743D1*
X14984Y8782D1*
X15022Y8801D1*
X15080D1*
X14803D2*
Y8609D1*
X14784Y8552D1*
X14745Y8533D1*
X14688D1*
X14650Y8552D1*
X14592Y8609D1*
Y8801D2*
Y8533D1*
X14411Y8935D2*
Y8609D1*
X14392Y8552D1*
X14354Y8533D1*
X14316D1*
X14469Y8801D2*
X14335D1*
X13803D2*
X13688Y8533D1*
X13574Y8801D1*
X13431Y8839D2*
Y8858D1*
X13412Y8896D1*
X13393Y8915D1*
X13355Y8934D1*
X13278D1*
X13240Y8915D1*
X13221Y8896D1*
X13202Y8858D1*
Y8820D1*
X13221Y8781D1*
X13259Y8724D1*
X13450Y8533D1*
X13183D1*
X26263Y7133D2*
D12*
Y6932D1*
X26067Y7133D2*
Y6932D1*
X26201Y7133D1*
Y6932D1*
X26005D2*
X25871Y7133D1*
X25790D2*
X25685D1*
X25743Y7056D1*
X25714D1*
X25695Y7047D1*
X25685Y7037D1*
X25676Y7008D1*
Y6989D1*
X25685Y6961D1*
X25704Y6941D1*
X25733Y6932D1*
X25762D1*
X25790Y6941D1*
X25800Y6951D1*
X25810Y6970D1*
X25614Y7133D2*
X25537Y6932D1*
X25461Y7133D1*
X25380D2*
X25275D1*
X25332Y7056D1*
X25304D1*
X25284Y7047D1*
X25275Y7037D1*
X25265Y7008D1*
Y6989D1*
X25275Y6961D1*
X25294Y6941D1*
X25323Y6932D1*
X25351D1*
X25380Y6941D1*
X25390Y6951D1*
X25399Y6970D1*
X25653Y6583D2*
X25662Y6602D1*
X25681Y6622D1*
X25700Y6631D1*
X25739D1*
X25758Y6622D1*
X25777Y6602D1*
X25787Y6583D1*
X25796Y6555D1*
Y6507D1*
X25787Y6478D1*
X25777Y6459D1*
X25758Y6440D1*
X25739Y6430D1*
X25700D1*
X25681Y6440D1*
X25662Y6459D1*
X25653Y6478D1*
Y6507D1*
X25700D1*
X25457Y6631D2*
Y6430D1*
X25591Y6631D1*
Y6430D1*
X25395Y6631D2*
Y6430D1*
X25328D1*
X25299Y6440D1*
X25280Y6459D1*
X25271Y6478D1*
X25261Y6507D1*
Y6555D1*
X25271Y6583D1*
X25280Y6602D1*
X25299Y6622D1*
X25328Y6631D1*
X25395D1*
X26427Y6020D2*
X26341D1*
X26312Y6030D1*
X26302Y6039D1*
X26293Y6058D1*
Y6077D1*
X26302Y6096D1*
X26312Y6106D1*
X26341Y6116D1*
X26427D1*
Y5915D1*
X26360Y6020D2*
X26293Y5915D1*
X26107Y6116D2*
X26231D1*
Y5915D1*
X26107D1*
X26231Y6020D2*
X26154D1*
X25901Y6068D2*
X25911Y6087D1*
X25930Y6106D1*
X25949Y6116D1*
X25987D1*
X26007Y6106D1*
X26026Y6087D1*
X26035Y6068D1*
X26045Y6039D1*
Y5991D1*
X26035Y5963D1*
X26026Y5943D1*
X26007Y5924D1*
X25987Y5915D1*
X25949D1*
X25930Y5924D1*
X25911Y5943D1*
X25901Y5963D1*
Y5991D1*
X25949D1*
X25840Y5882D2*
X25658D1*
X25481Y6115D2*
X25577D1*
X25586Y6029D1*
X25577Y6039D1*
X25548Y6049D1*
X25520D1*
X25491Y6039D1*
X25472Y6020D1*
X25462Y5991D1*
Y5972D1*
X25472Y5943D1*
X25491Y5924D1*
X25520Y5915D1*
X25548D1*
X25577Y5924D1*
X25586Y5934D1*
X25596Y5953D1*
X25400Y6116D2*
X25324Y5915D1*
X25247Y6116D1*
X26427Y5517D2*
X26341D1*
X26312Y5527D1*
X26303Y5536D1*
X26293Y5555D1*
Y5575D1*
X26303Y5594D1*
X26312Y5603D1*
X26341Y5613D1*
X26427D1*
Y5412D1*
X26360Y5517D2*
X26293Y5412D1*
X26107Y5613D2*
X26231D1*
Y5412D1*
X26107D1*
X26231Y5517D2*
X26155D1*
X25902Y5565D2*
X25911Y5584D1*
X25931Y5603D1*
X25950Y5613D1*
X25988D1*
X26007Y5603D1*
X26026Y5584D1*
X26036Y5565D1*
X26045Y5536D1*
Y5488D1*
X26036Y5460D1*
X26026Y5441D1*
X26007Y5422D1*
X25988Y5412D1*
X25950D1*
X25931Y5422D1*
X25911Y5441D1*
X25902Y5460D1*
Y5488D1*
X25950D1*
X25840Y5379D2*
X25658D1*
X25472Y5613D2*
X25597D1*
Y5412D1*
X25472D1*
X25597Y5517D2*
X25520D1*
X25277Y5613D2*
Y5412D1*
X25411Y5613D1*
Y5412D1*
X25594Y5139D2*
Y4938D1*
X25527D1*
X25498Y4948D1*
X25479Y4967D1*
X25469Y4986D1*
X25460Y5015D1*
Y5063D1*
X25469Y5092D1*
X25479Y5111D1*
X25498Y5130D1*
X25527Y5139D1*
X25594D1*
X25398Y5039D2*
X25288D1*
X25654Y4631D2*
Y4430D1*
X25587D1*
X25558Y4440D1*
X25539Y4459D1*
X25530Y4478D1*
X25520Y4506D1*
Y4554D1*
X25530Y4583D1*
X25539Y4602D1*
X25558Y4621D1*
X25587Y4631D1*
X25654D1*
X25372Y4616D2*
Y4444D1*
X25458Y4530D2*
X25286D1*
X5192Y7910D2*
X5393Y7834D1*
X5192Y7757D1*
X5239Y7552D2*
X5220Y7561D1*
X5201Y7581D1*
X5192Y7600D1*
Y7638D1*
X5201Y7657D1*
X5220Y7676D1*
X5239Y7686D1*
X5268Y7695D1*
X5316D1*
X5345Y7686D1*
X5364Y7676D1*
X5383Y7657D1*
X5393Y7638D1*
Y7600D1*
X5383Y7581D1*
X5364Y7561D1*
X5345Y7552D1*
X5239Y7347D2*
X5220Y7356D1*
X5201Y7375D1*
X5192Y7394D1*
Y7433D1*
X5201Y7452D1*
X5220Y7471D1*
X5239Y7481D1*
X5268Y7490D1*
X5316D1*
X5345Y7481D1*
X5364Y7471D1*
X5383Y7452D1*
X5393Y7433D1*
Y7394D1*
X5383Y7375D1*
X5364Y7356D1*
X5345Y7347D1*
X5712Y7901D2*
X5913D1*
Y7834D1*
X5903Y7805D1*
X5884Y7786D1*
X5865Y7777D1*
X5836Y7767D1*
X5788D1*
X5759Y7777D1*
X5740Y7786D1*
X5721Y7805D1*
X5712Y7834D1*
Y7901D1*
X5812Y7705D2*
Y7595D1*
X6206Y7938D2*
X6407D1*
Y7871D1*
X6398Y7842D1*
X6379Y7823D1*
X6359Y7813D1*
X6331Y7804D1*
X6283D1*
X6254Y7813D1*
X6235Y7823D1*
X6216Y7842D1*
X6206Y7871D1*
Y7938D1*
X6221Y7656D2*
X6393D1*
X6307Y7742D2*
Y7570D1*
X6693Y7905D2*
X6894D1*
X6693Y7843D2*
X6894D1*
Y7776D1*
X6884Y7748D1*
X6865Y7728D1*
X6846Y7719D1*
X6817Y7709D1*
X6769D1*
X6740Y7719D1*
X6721Y7728D1*
X6702Y7748D1*
X6693Y7776D1*
Y7843D1*
X7247Y7761D2*
X7228Y7771D1*
X7208Y7790D1*
X7199Y7809D1*
Y7847D1*
X7208Y7866D1*
X7228Y7885D1*
X7247Y7895D1*
X7275Y7905D1*
X7323D1*
X7352Y7895D1*
X7371Y7885D1*
X7390Y7866D1*
X7400Y7847D1*
Y7809D1*
X7390Y7790D1*
X7371Y7771D1*
X7352Y7761D1*
X7323D1*
Y7809D1*
X7199Y7565D2*
X7400D1*
X7199Y7699D1*
X7400D1*
X7199Y7504D2*
X7400D1*
Y7437D1*
X7390Y7408D1*
X7371Y7389D1*
X7352Y7379D1*
X7323Y7370D1*
X7275D1*
X7247Y7379D1*
X7228Y7389D1*
X7208Y7408D1*
X7199Y7437D1*
Y7504D1*
X26176Y8732D2*
X26090D1*
X26062Y8742D1*
X26052Y8752D1*
X26042Y8771D1*
Y8790D1*
X26052Y8809D1*
X26062Y8819D1*
X26090Y8828D1*
X26176D1*
Y8627D1*
X26109Y8732D2*
X26042Y8627D1*
X25856Y8828D2*
X25981D1*
Y8627D1*
X25856D1*
X25981Y8732D2*
X25904D1*
X25651Y8780D2*
X25661Y8799D1*
X25680Y8819D1*
X25699Y8828D1*
X25737D1*
X25756Y8819D1*
X25775Y8799D1*
X25785Y8780D1*
X25795Y8752D1*
Y8704D1*
X25785Y8675D1*
X25775Y8656D1*
X25756Y8637D1*
X25737Y8627D1*
X25699D1*
X25680Y8637D1*
X25661Y8656D1*
X25651Y8675D1*
Y8704D1*
X25699D1*
X25299Y8828D2*
Y8675D1*
X25309Y8646D1*
X25318Y8637D1*
X25337Y8627D1*
X25357D1*
X25376Y8637D1*
X25385Y8646D1*
X25395Y8675D1*
Y8694D1*
X25084Y8627D2*
Y8828D1*
X25161Y8627D1*
X25237Y8828D1*
Y8627D1*
X25023Y8723D2*
X24936D1*
X24908Y8732D1*
X24898Y8742D1*
X24889Y8761D1*
Y8790D1*
X24898Y8809D1*
X24908Y8819D1*
X24936Y8828D1*
X25023D1*
Y8627D1*
X24827Y8732D2*
X24741D1*
X24712Y8742D1*
X24703Y8752D1*
X24693Y8771D1*
Y8790D1*
X24703Y8809D1*
X24712Y8819D1*
X24741Y8828D1*
X24827D1*
Y8627D1*
X24760Y8732D2*
X24693Y8627D1*
X26105Y7874D2*
X26258Y7788D1*
X26105Y7702D1*
X26043Y7788D2*
X25932D1*
X25813Y7889D2*
X25832Y7879D1*
X25851Y7860D1*
X25861Y7841D1*
X25871Y7812D1*
Y7764D1*
X25861Y7736D1*
X25851Y7717D1*
X25832Y7698D1*
X25813Y7688D1*
X25775D1*
X25756Y7698D1*
X25737Y7717D1*
X25727Y7736D1*
X25718Y7764D1*
Y7812D1*
X25727Y7841D1*
X25737Y7860D1*
X25756Y7879D1*
X25775Y7889D1*
X25813D1*
X25522D2*
Y7688D1*
X25656Y7889D1*
Y7688D1*
X25460D2*
X25326Y7889D1*
X25140D2*
X25264D1*
Y7688D1*
X25140D1*
X25264Y7793D2*
X25188D1*
X24945Y7889D2*
Y7688D1*
X25078Y7889D1*
Y7688D1*
X24883Y7788D2*
X24772D1*
X24710Y7874D2*
X24557Y7788D1*
X24710Y7702D1*
X30702Y5625D2*
X30721Y5616D1*
X30741Y5597D1*
X30750Y5568D1*
Y5549D1*
X30741Y5520D1*
X30721Y5501D1*
X30702Y5491D1*
X30674D1*
X30654Y5501D1*
X30635Y5520D1*
X30626Y5549D1*
Y5568D1*
X30635Y5597D1*
X30654Y5616D1*
X30674Y5625D1*
X30702D1*
X30564D2*
Y5424D1*
Y5597D2*
X30545Y5616D1*
X30526Y5625D1*
X30497D1*
X30478Y5616D1*
X30459Y5597D1*
X30449Y5568D1*
Y5549D1*
X30459Y5520D1*
X30478Y5501D1*
X30497Y5491D1*
X30526D1*
X30545Y5501D1*
X30564Y5520D1*
X30387Y5568D2*
X30273D1*
Y5587D1*
X30282Y5606D1*
X30292Y5616D1*
X30311Y5625D1*
X30340D1*
X30359Y5616D1*
X30378Y5597D1*
X30387Y5568D1*
Y5549D1*
X30378Y5520D1*
X30359Y5501D1*
X30340Y5491D1*
X30311D1*
X30292Y5501D1*
X30273Y5520D1*
X30211Y5625D2*
Y5491D1*
Y5587D2*
X30182Y5616D1*
X30163Y5625D1*
X30134D1*
X30115Y5616D1*
X30106Y5587D1*
Y5491D1*
X29744Y5597D2*
X29754Y5616D1*
X29782Y5625D1*
X29811D1*
X29840Y5616D1*
X29849Y5597D1*
X29840Y5578D1*
X29821Y5568D1*
X29773Y5558D1*
X29754Y5549D1*
X29744Y5530D1*
Y5520D1*
X29754Y5501D1*
X29782Y5491D1*
X29811D1*
X29840Y5501D1*
X29849Y5520D1*
X29635Y5625D2*
X29654Y5616D1*
X29673Y5597D1*
X29682Y5568D1*
Y5549D1*
X29673Y5520D1*
X29654Y5501D1*
X29635Y5491D1*
X29606D1*
X29587Y5501D1*
X29568Y5520D1*
X29558Y5549D1*
Y5568D1*
X29568Y5597D1*
X29587Y5616D1*
X29606Y5625D1*
X29635D1*
X29496D2*
Y5530D1*
X29487Y5501D1*
X29467Y5491D1*
X29439D1*
X29420Y5501D1*
X29391Y5530D1*
Y5625D2*
Y5491D1*
X29329Y5625D2*
Y5491D1*
Y5568D2*
X29319Y5597D1*
X29300Y5616D1*
X29281Y5625D1*
X29252D1*
X29076Y5597D2*
X29095Y5616D1*
X29114Y5625D1*
X29143D1*
X29162Y5616D1*
X29181Y5597D1*
X29191Y5568D1*
Y5549D1*
X29181Y5520D1*
X29162Y5501D1*
X29143Y5491D1*
X29114D1*
X29095Y5501D1*
X29076Y5520D1*
X29014Y5568D2*
X28899D1*
Y5587D1*
X28909Y5606D1*
X28918Y5616D1*
X28937Y5625D1*
X28966D1*
X28985Y5616D1*
X29004Y5597D1*
X29014Y5568D1*
Y5549D1*
X29004Y5520D1*
X28985Y5501D1*
X28966Y5491D1*
X28937D1*
X28918Y5501D1*
X28899Y5520D1*
X30565Y5416D2*
Y5215D1*
Y5310D2*
X30533Y5339D1*
X30512Y5349D1*
X30481D1*
X30460Y5339D1*
X30449Y5310D1*
Y5215D1*
X30255Y5349D2*
Y5215D1*
Y5320D2*
X30276Y5339D1*
X30297Y5349D1*
X30329D1*
X30350Y5339D1*
X30371Y5320D1*
X30381Y5291D1*
Y5272D1*
X30371Y5243D1*
X30350Y5224D1*
X30329Y5215D1*
X30297D1*
X30276Y5224D1*
X30255Y5243D1*
X30187Y5349D2*
Y5215D1*
Y5291D2*
X30176Y5320D1*
X30156Y5339D1*
X30134Y5349D1*
X30103D1*
X29909Y5416D2*
Y5215D1*
Y5320D2*
X29930Y5339D1*
X29951Y5349D1*
X29982D1*
X30003Y5339D1*
X30024Y5320D1*
X30035Y5291D1*
Y5272D1*
X30024Y5243D1*
X30003Y5224D1*
X29982Y5215D1*
X29951D1*
X29930Y5224D1*
X29909Y5243D1*
X29841Y5349D2*
X29799Y5215D1*
X29757Y5349D1*
X29715Y5215D1*
X29672Y5349D1*
X29478D2*
Y5215D1*
Y5320D2*
X29499Y5339D1*
X29520Y5349D1*
X29552D1*
X29573Y5339D1*
X29594Y5320D1*
X29605Y5291D1*
Y5272D1*
X29594Y5243D1*
X29573Y5224D1*
X29552Y5215D1*
X29520D1*
X29499Y5224D1*
X29478Y5243D1*
X29410Y5349D2*
Y5215D1*
Y5291D2*
X29400Y5320D1*
X29379Y5339D1*
X29358Y5349D1*
X29326D1*
X29258Y5291D2*
X29132D1*
Y5310D1*
X29142Y5330D1*
X29153Y5339D1*
X29174Y5349D1*
X29206D1*
X29226Y5339D1*
X29248Y5320D1*
X29258Y5291D1*
Y5272D1*
X29248Y5243D1*
X29226Y5224D1*
X29206Y5215D1*
X29174D1*
X29153Y5224D1*
X29132Y5243D1*
X28393Y8093D2*
Y8188D1*
X28479Y8198D1*
X28470Y8188D1*
X28460Y8160D1*
Y8131D1*
X28470Y8102D1*
X28489Y8083D1*
X28517Y8074D1*
X28536D1*
X28565Y8083D1*
X28584Y8102D1*
X28594Y8131D1*
Y8160D1*
X28584Y8188D1*
X28575Y8198D1*
X28556Y8208D1*
X28393Y8012D2*
X28594Y7935D1*
X28393Y7859D1*
X30173Y8179D2*
X30374D1*
Y8112D1*
X30364Y8083D1*
X30345Y8064D1*
X30326Y8054D1*
X30298Y8045D1*
X30250D1*
X30221Y8054D1*
X30202Y8064D1*
X30183Y8083D1*
X30173Y8112D1*
Y8179D1*
X30188Y7897D2*
X30360D1*
X30274Y7983D2*
Y7811D1*
X29362Y8174D2*
X29563D1*
Y8107D1*
X29553Y8078D1*
X29534Y8059D1*
X29515Y8049D1*
X29486Y8040D1*
X29438D1*
X29410Y8049D1*
X29391Y8059D1*
X29371Y8078D1*
X29362Y8107D1*
Y8174D1*
X29462Y7978D2*
Y7867D1*
X31200Y8041D2*
X31181Y8051D1*
X31162Y8070D1*
X31152Y8089D1*
Y8127D1*
X31162Y8147D1*
X31181Y8166D1*
X31200Y8175D1*
X31229Y8185D1*
X31277D1*
X31305Y8175D1*
X31324Y8166D1*
X31343Y8147D1*
X31353Y8127D1*
Y8089D1*
X31343Y8070D1*
X31324Y8051D1*
X31305Y8041D1*
X31277D1*
Y8089D1*
X31152Y7846D2*
X31353D1*
X31152Y7980D1*
X31353D1*
X31152Y7784D2*
X31353D1*
Y7717D1*
X31343Y7688D1*
X31324Y7669D1*
X31305Y7660D1*
X31277Y7650D1*
X31229D1*
X31200Y7660D1*
X31181Y7669D1*
X31162Y7688D1*
X31152Y7717D1*
Y7784D1*
M02*
