M48
INCH
T01C0.0157
T02C0.02
T03C0.0276
T04C0.0335
T05C0.0362
T06C0.0453
T07C0.063
T08C0.0669
T09C0.0906
%
T01
X+023818Y+009943
X+023443Y+009943
X+026318Y+009318
X+026318Y+008443
X+026318Y+008068
X+020037Y+008008
X+019922Y+007570
X+019411Y+007676
X+019610Y+009401
X+019913Y+009622
X+017193Y+009443
X+014032Y+009498
X+013193Y+009818
X+013068Y+007943
X+014068Y+005193
X+015425Y+004493
X+018943Y+004755
X+006443Y+006818
X+005943Y+006818
T02
X+024180Y+009646
X+024180Y+009112
X+024180Y+008839
X+024180Y+008566
X+024180Y+008304
X+024180Y+008031
X+024180Y+007758
X+024180Y+007484
X+024180Y+006950
X+024180Y+006677
X+024180Y+006378
X+024180Y+006105
X+024180Y+005832
X+024180Y+005559
X+024180Y+005298
X+024180Y+004751
X+024180Y+004239
X+024180Y+010193
X+008955Y+010147
X+008955Y+009635
X+008955Y+009088
X+008955Y+008827
X+008955Y+008554
X+008955Y+008281
X+008955Y+008008
X+008955Y+007709
X+008955Y+007436
X+008955Y+006902
X+008955Y+006628
X+008955Y+006355
X+008955Y+006082
X+008955Y+005820
X+008955Y+005547
X+008955Y+005274
X+008955Y+004740
X+008955Y+004193
T03
X+010318Y+009068
X+010318Y+008568
X+010318Y+008068
X+010318Y+007568
X+010318Y+007068
X+010318Y+006568
X+010318Y+006068
X+011318Y+006068
X+011818Y+006068
X+012318Y+006068
X+012818Y+006068
X+013318Y+006068
X+013818Y+006068
X+014318Y+006068
X+014818Y+006068
X+015318Y+006068
X+015818Y+006068
X+016318Y+006068
X+016818Y+006068
X+017318Y+006068
X+017818Y+006068
X+018318Y+006068
X+018818Y+006068
X+019318Y+006068
X+019818Y+006068
X+020318Y+006068
X+020818Y+006068
X+021318Y+006068
X+021818Y+006068
X+022818Y+006068
X+022818Y+006568
X+022818Y+007068
X+022818Y+007568
X+022818Y+008068
X+022818Y+008568
X+022818Y+009068
X+024912Y+007019
X+024912Y+006519
X+024912Y+006019
X+024912Y+005519
X+024912Y+005019
X+024912Y+004519
X+007318Y+008414
X+006818Y+008414
X+006318Y+008414
X+005818Y+008414
X+005318Y+008414
T04
X+005346Y+005568
X+007314Y+005568
T05
X+028508Y+008758
X+029492Y+008758
X+030279Y+008758
X+031264Y+008758
T06
X+004952Y+004505
X+007708Y+004505
T07
X+021483Y+007337
X+021693Y+008693
X+011665Y+007346
X+011458Y+008693
T08
X+020909Y+009087
X+012227Y+009087
T09
X+027299Y+007691
X+032472Y+007691
T00
M30
