G04 DipTrace 2.4.0.2*
%INTopAssy.gbr*%
%MOIN*%
%ADD10C,0.0098*%
%ADD12C,0.003*%
%ADD21C,0.002*%
%ADD29C,0.0059*%
%ADD92C,0.0077*%
%FSLAX44Y44*%
G04*
G70*
G90*
G75*
G01*
%LNTopAssy*%
%LPD*%
X22237Y9638D2*
D10*
X10899D1*
X4755Y3934D2*
D29*
X7904D1*
X24305Y10443D2*
D21*
Y3943D1*
X8830D2*
Y10443D1*
X19364Y9808D2*
D92*
Y10310D1*
X19148D1*
X19077Y10286D1*
X19053Y10262D1*
X19029Y10214D1*
Y10143D1*
X19053Y10095D1*
X19077Y10071D1*
X19148Y10047D1*
X19077Y10023D1*
X19053Y9999D1*
X19029Y9951D1*
Y9903D1*
X19053Y9856D1*
X19077Y9831D1*
X19148Y9808D1*
X19364D1*
Y10047D2*
X19148D1*
X18731Y9808D2*
X18779Y9831D1*
X18827Y9880D1*
X18851Y9927D1*
X18875Y9999D1*
Y10119D1*
X18851Y10190D1*
X18827Y10238D1*
X18779Y10286D1*
X18731Y10310D1*
X18635D1*
X18588Y10286D1*
X18540Y10238D1*
X18516Y10190D1*
X18492Y10119D1*
Y9999D1*
X18516Y9927D1*
X18540Y9880D1*
X18588Y9831D1*
X18635Y9808D1*
X18731D1*
X17955Y10310D2*
X18147Y9808D1*
X18338Y10310D1*
X18266Y10143D2*
X18027D1*
X17800Y10047D2*
X17585D1*
X17514Y10023D1*
X17489Y9999D1*
X17466Y9951D1*
Y9903D1*
X17489Y9856D1*
X17514Y9831D1*
X17585Y9808D1*
X17800D1*
Y10310D1*
X17633Y10047D2*
X17466Y10310D1*
X17311Y9808D2*
Y10310D1*
X17144D1*
X17072Y10286D1*
X17024Y10238D1*
X17000Y10190D1*
X16976Y10119D1*
Y9999D1*
X17000Y9927D1*
X17024Y9880D1*
X17072Y9831D1*
X17144Y9808D1*
X17311D1*
X16025D2*
X16336D1*
Y10310D1*
X16025D1*
X16336Y10047D2*
X16145D1*
X15871Y9808D2*
Y10310D1*
X15703D1*
X15631Y10286D1*
X15583Y10238D1*
X15560Y10190D1*
X15536Y10119D1*
Y9999D1*
X15560Y9927D1*
X15583Y9880D1*
X15631Y9831D1*
X15703Y9808D1*
X15871D1*
X15023Y9927D2*
X15047Y9880D1*
X15095Y9831D1*
X15142Y9808D1*
X15238D1*
X15286Y9831D1*
X15333Y9880D1*
X15358Y9927D1*
X15381Y9999D1*
Y10119D1*
X15358Y10190D1*
X15333Y10238D1*
X15286Y10286D1*
X15238Y10310D1*
X15142D1*
X15095Y10286D1*
X15047Y10238D1*
X15023Y10190D1*
Y10119D1*
X15142D1*
X14558Y9808D2*
X14868D1*
Y10310D1*
X14558D1*
X14868Y10047D2*
X14677D1*
X5361Y3846D2*
D12*
Y3646D1*
X5447D1*
X5476Y3655D1*
X5485Y3665D1*
X5495Y3684D1*
Y3712D1*
X5485Y3732D1*
X5476Y3741D1*
X5447Y3751D1*
X5476Y3760D1*
X5485Y3770D1*
X5495Y3789D1*
Y3808D1*
X5485Y3827D1*
X5476Y3837D1*
X5447Y3846D1*
X5361D1*
Y3751D2*
X5447D1*
X5614Y3846D2*
X5595Y3837D1*
X5576Y3818D1*
X5566Y3799D1*
X5557Y3770D1*
Y3722D1*
X5566Y3693D1*
X5576Y3674D1*
X5595Y3655D1*
X5614Y3646D1*
X5652D1*
X5671Y3655D1*
X5691Y3674D1*
X5700Y3693D1*
X5710Y3722D1*
Y3770D1*
X5700Y3799D1*
X5691Y3818D1*
X5671Y3837D1*
X5652Y3846D1*
X5614D1*
X5925Y3646D2*
X5848Y3846D1*
X5771Y3646D1*
X5800Y3712D2*
X5896D1*
X5986Y3751D2*
X6072D1*
X6101Y3760D1*
X6111Y3770D1*
X6120Y3789D1*
Y3808D1*
X6111Y3827D1*
X6101Y3837D1*
X6072Y3846D1*
X5986D1*
Y3646D1*
X6053Y3751D2*
X6120Y3646D1*
X6182Y3846D2*
Y3646D1*
X6249D1*
X6278Y3655D1*
X6297Y3674D1*
X6307Y3693D1*
X6316Y3722D1*
Y3770D1*
X6307Y3799D1*
X6297Y3818D1*
X6278Y3837D1*
X6249Y3846D1*
X6182D1*
X6697D2*
X6572D1*
Y3646D1*
X6697D1*
X6572Y3751D2*
X6649D1*
X6758Y3846D2*
Y3646D1*
X6825D1*
X6854Y3655D1*
X6873Y3674D1*
X6883Y3693D1*
X6892Y3722D1*
Y3770D1*
X6883Y3799D1*
X6873Y3818D1*
X6854Y3837D1*
X6825Y3846D1*
X6758D1*
X7097Y3799D2*
X7088Y3818D1*
X7069Y3837D1*
X7050Y3846D1*
X7011D1*
X6992Y3837D1*
X6973Y3818D1*
X6964Y3799D1*
X6954Y3770D1*
Y3722D1*
X6964Y3693D1*
X6973Y3674D1*
X6992Y3655D1*
X7011Y3646D1*
X7050D1*
X7069Y3655D1*
X7088Y3674D1*
X7097Y3693D1*
Y3722D1*
X7050D1*
X7284Y3846D2*
X7159D1*
Y3646D1*
X7284D1*
X7159Y3751D2*
X7236D1*
M02*
