G04 DipTrace 2.4.0.2*
%INTopPaste.gbr*%
%MOIN*%
%ADD55R,0.055X0.0313*%
%ADD57R,0.0038X0.0195*%
%ADD63R,0.0313X0.0451*%
%ADD69R,0.051X0.051*%
%ADD75R,0.0077X0.0451*%
%ADD85R,0.0046X0.0746*%
%ADD87R,0.0353X0.0313*%
%ADD89R,0.0313X0.0353*%
%FSLAX44Y44*%
G04*
G70*
G90*
G75*
G01*
%LNTopPaste*%
%LPD*%
D89*
X24993Y9186D3*
Y8517D3*
D87*
X25737Y7834D3*
X25068D3*
D85*
X20308Y8693D3*
X20111D3*
X19914D3*
X19718D3*
X19521D3*
X19324D3*
X19127D3*
X18930D3*
X18733D3*
X18536D3*
X18340D3*
X18143D3*
X17946D3*
X17749D3*
X17552D3*
X17355D3*
X17159D3*
X16962D3*
X16174D3*
X15977D3*
X15781D3*
X15584D3*
X15387D3*
X15190D3*
X14993D3*
X14796D3*
X14599D3*
X14403D3*
X14206D3*
X14009D3*
X13812D3*
X13615D3*
X13418D3*
X13222D3*
X13025D3*
X12828D3*
D75*
X5818Y5568D3*
X6074D3*
X6330D3*
X6586D3*
X6842D3*
D69*
X5936Y4505D3*
X6724D3*
D63*
X24943Y9943D3*
X25534D3*
D89*
X26039Y5852D3*
Y6521D3*
D87*
X20631Y5130D3*
X21300D3*
X23006D3*
X22336D3*
D57*
X25943Y9318D3*
X25687D3*
X25431D3*
Y8373D3*
X25687D3*
X25943D3*
D55*
X25687Y8846D3*
M02*
