G04 DipTrace 2.4.0.2*
%INBottom.gbr*%
%MOIN*%
%ADD13C,0.01*%
%ADD14C,0.0079*%
%ADD15C,0.02*%
%ADD16C,0.015*%
%ADD17C,0.012*%
%ADD18C,0.03*%
%ADD22C,0.025*%
%ADD25R,0.0433X0.0394*%
%ADD28R,0.0689X0.0689*%
%ADD29C,0.0689*%
%ADD30R,0.0669X0.0669*%
%ADD31C,0.0669*%
%ADD32R,0.0126X0.0827*%
%ADD33C,0.0886*%
%ADD34R,0.063X0.063*%
%ADD35C,0.063*%
%ADD36C,0.1378*%
%ADD48C,0.031*%
%ADD49C,0.037*%
%FSLAX44Y44*%
G04*
G70*
G90*
G75*
G01*
%LNBottom*%
%LPD*%
X15452Y16565D2*
D17*
Y17239D1*
X16040D1*
Y16567D1*
X16042Y16565D1*
X15452Y17239D2*
X14662D1*
Y16567D1*
X14664Y16565D1*
X12696D2*
Y17232D1*
X13280D1*
Y16572D1*
X13286Y16565D1*
X13280Y17232D2*
X14662Y17239D1*
X16042Y16565D2*
Y15882D1*
D16*
X16389Y15535D1*
Y14126D1*
Y13315D1*
D17*
X16440D1*
X17814Y9859D2*
D15*
Y9265D1*
X21187Y7461D2*
D18*
X22187Y6461D1*
X18583Y15218D2*
D16*
Y15037D1*
X19234Y15687D1*
X22560D1*
X22751Y15497D1*
Y14273D1*
X22070Y13824D1*
X22190Y14065D1*
X15895Y14126D2*
X16389D1*
X6090Y10565D2*
D15*
X7383D1*
X8397Y11579D1*
X10266D1*
X10360Y11484D1*
X17814Y9265D2*
X18253D1*
X18263Y9254D1*
X18724D1*
X19128D1*
Y4612D1*
X20338D1*
X22187Y6461D1*
X12816Y9251D2*
D16*
Y9172D1*
X9122D1*
X22190Y12065D2*
D14*
X21681Y11556D1*
X20475D1*
X19615Y12416D1*
X15930D1*
X15500Y12847D1*
X12102Y12104D2*
Y11182D1*
X10398Y9479D1*
X8473D1*
X8291Y9296D1*
X7557Y9324D2*
Y9894D1*
X4542D1*
X4393Y10043D1*
Y15574D1*
X5562D1*
X5755Y15768D1*
X6775D1*
X8240Y14303D1*
X10142D1*
X10536Y14697D1*
Y16559D1*
X10530Y16565D1*
X22190Y11065D2*
X21654Y10529D1*
X20879D1*
X20646Y10763D1*
Y10985D1*
X19415Y12216D1*
X15500D1*
Y12275D1*
X8280Y8857D2*
Y8891D1*
X8444Y8727D1*
X12529D1*
X12537Y8734D1*
X7562Y8849D2*
X7467D1*
X7214Y9101D1*
Y9681D1*
X4286D1*
X4202Y9764D1*
Y15739D1*
X5444D1*
X5657Y15992D1*
X6831D1*
X8323Y14501D1*
X10031D1*
X10334Y14803D1*
Y16565D1*
X14074D2*
D17*
Y15950D1*
X14271D1*
Y16565D1*
X13894Y9683D2*
D18*
X13528D1*
X12854Y10358D1*
Y13485D1*
X13182Y13813D1*
X13565D1*
X14074Y14322D1*
Y15950D1*
X15752Y9672D2*
X17183D1*
Y10526D1*
X18723D1*
X19089D2*
D15*
X18727D1*
X19092Y10966D2*
Y10962D1*
D18*
X19705D1*
X20824Y9843D1*
X23073D1*
Y7982D1*
X22552Y7461D1*
X22187D1*
X18727Y10966D2*
D15*
Y10531D1*
X18723Y10526D1*
X19092Y10962D2*
Y10529D1*
X18727Y10966D2*
X19088D1*
X19871Y6188D2*
D18*
X19889Y6171D1*
Y5755D1*
X20378Y6222D2*
X20392Y6208D1*
Y5754D1*
X19889Y5755D2*
Y9465D1*
X19886Y9468D1*
X20392Y9455D2*
Y5755D1*
Y5754D1*
X15166Y15260D2*
D17*
X15568D1*
X15573Y15254D1*
X15987D1*
X16008Y15233D1*
X15649Y16565D2*
Y15742D1*
X15166Y15260D1*
X15845Y16565D2*
Y15396D1*
X16008Y15233D1*
X15166Y15260D2*
D14*
Y14821D1*
X15160Y14815D1*
X15573Y15254D2*
Y14800D1*
X15574D1*
X16008Y15233D2*
Y14810D1*
X15995Y14796D1*
X15577D1*
X15574Y14800D2*
X15175D1*
X15160Y14815D1*
X16239Y16565D2*
Y15956D1*
X16603Y15592D1*
Y13879D1*
X16830Y13653D1*
Y13080D1*
X16787Y13037D1*
X16314D1*
X15225Y14126D1*
X17220Y17246D2*
X17223Y16565D1*
X17420D2*
Y15897D1*
X17650Y15668D1*
Y14761D1*
X17640Y14751D1*
Y14732D1*
X18059Y14312D1*
X20437D1*
X21190Y15065D1*
X16436Y16565D2*
Y15989D1*
X16878Y15546D1*
Y14608D1*
X16886Y14600D1*
X13089Y16565D2*
X13099D1*
Y15019D1*
X12945Y14866D1*
Y14110D1*
X12551Y13716D1*
Y10243D1*
X13576Y9217D1*
X15233Y9238D2*
Y9772D1*
X16589Y11128D1*
X17480D1*
X22187Y8461D2*
D13*
X22245D1*
Y8315D1*
X14467Y16565D2*
D14*
Y15676D1*
X14368Y15576D1*
Y10495D1*
X14061Y10188D1*
X15117Y10212D2*
D13*
Y11211D1*
X15856Y11950D1*
X19215D1*
X20901Y10263D1*
X22201D1*
X22187Y10248D1*
X22541D1*
X22542D1*
X22554Y9445D2*
D14*
Y8828D1*
X22187Y8461D1*
X5053Y7589D2*
D17*
X4314Y8328D1*
Y9448D1*
X6921D1*
Y8935D1*
X7314Y8542D1*
X7925D1*
Y10064D1*
X9023Y11162D1*
X16830Y16565D2*
D14*
Y15857D1*
X17167Y15519D1*
Y14569D1*
X18958Y12777D1*
X19613D1*
X20418Y11973D1*
X21098D1*
X21190Y12065D1*
X17026Y16565D2*
Y15923D1*
X17381Y15568D1*
Y14631D1*
X18945Y13067D1*
X19860D1*
X20362Y12565D1*
Y12573D1*
X14861Y16565D2*
D13*
Y15820D1*
X14537Y15496D1*
Y9283D1*
X13954Y8701D1*
Y7976D1*
X13943D1*
X14440Y7307D1*
X15058Y16565D2*
Y15755D1*
X14757Y15454D1*
Y8632D1*
X14440Y8315D1*
X13440Y7307D2*
D14*
X12436D1*
X11152Y6023D1*
X13440Y8315D2*
X12656D1*
X10365Y6023D1*
X9940Y16565D2*
Y17209D1*
X9919Y17230D1*
X10137Y16565D2*
Y17074D1*
X10404Y17342D1*
Y17227D1*
X10727Y16565D2*
Y17093D1*
X10864Y17230D1*
X5090Y14565D2*
X4907D1*
X5573Y14984D1*
X5668Y15055D1*
Y15350D1*
X5876Y15558D1*
X6664D1*
X7407Y14816D1*
Y14559D1*
X7736Y14229D1*
X7956D1*
X8125Y14090D1*
X10267D1*
X10694Y14517D1*
Y15449D1*
X11121Y15876D1*
Y16565D1*
X11318D2*
Y15381D1*
X11043Y15106D1*
Y14548D1*
X10358Y13863D1*
X7810D1*
Y13906D1*
X7230Y13891D2*
X6880D1*
X6703Y14068D1*
X5593D1*
X5090Y13565D1*
X12409Y17205D2*
X11515D1*
Y16565D1*
X12062Y13355D2*
X11639D1*
X10520Y12237D1*
X6507D1*
X6298Y12028D1*
X5627D1*
X5090Y12565D1*
X6160Y15284D2*
X6654D1*
X7216Y14722D1*
Y14442D1*
X7525Y14133D1*
Y13625D1*
X10464D1*
X11440Y14602D1*
Y14848D1*
X11711Y15120D1*
Y16565D1*
X5184Y15306D2*
Y15255D1*
X4571D1*
Y12084D1*
X5090Y11565D1*
X13355Y14272D2*
Y14853D1*
X12088Y12629D2*
X11895D1*
X11188Y11922D1*
X7539D1*
X6645Y11028D1*
X5553D1*
X5090Y10565D1*
X11839Y14853D2*
X11908Y14922D1*
Y16565D1*
X6930Y13065D2*
X10610D1*
X11324Y13778D1*
X11948D1*
X12105Y13936D1*
Y16565D1*
X6930Y14565D2*
X6090D1*
Y13565D2*
Y13369D1*
X6432Y13028D1*
X6422D1*
X6885Y12565D1*
X10425D1*
X11481Y13621D1*
X12145D1*
X12302Y13778D1*
Y16565D1*
X6820Y11971D2*
X6929Y12079D1*
X10786D1*
X11718Y13012D1*
X12276D1*
X12568Y14272D2*
X12499Y14341D1*
Y16565D1*
X12765Y15227D2*
X12893Y15355D1*
Y16565D1*
X7313Y13409D2*
X10624D1*
X11535Y14320D1*
X6663Y11565D2*
X6090D1*
X16633Y16565D2*
Y17244D1*
X16626Y17251D1*
D48*
X15166Y15260D3*
X16008Y15233D3*
X20392Y5754D3*
X19889Y5755D3*
X19092Y10962D3*
X17480Y11128D3*
X16886Y14600D3*
X19886Y9468D3*
X20392Y9455D3*
X9122Y9172D3*
X12816Y9251D3*
X17814Y9859D3*
Y9265D3*
X9023Y11162D3*
X16440Y13315D3*
X16453Y12717D3*
X16626Y17251D3*
X17220Y17246D3*
X15752Y9672D3*
X15117Y10212D3*
X14061Y10188D3*
X13894Y9683D3*
X20362Y12573D3*
X9919Y17230D3*
X10864D3*
X10404Y17227D3*
X22542Y10248D3*
X22554Y9445D3*
X15500Y12275D3*
Y12847D3*
X8291Y9296D3*
X12537Y8734D3*
X12102Y12104D3*
X8280Y8857D3*
X7557Y9324D3*
X7562Y8849D3*
X7810Y13906D3*
X7230Y13891D3*
X6160Y15284D3*
X5184Y15306D3*
X13576Y9217D3*
X15233Y9238D3*
X18723Y10526D3*
X19089D3*
X18727Y10966D3*
D49*
X10360Y11484D3*
D48*
X18263Y9254D3*
X18724D3*
X15573Y15254D3*
X12409Y17205D3*
X12062Y13355D3*
X11839Y14853D3*
X13355D3*
Y14272D3*
X12088Y12629D3*
X6930Y13065D3*
Y14565D3*
X12568Y14272D3*
X12276Y13012D3*
X6820Y11971D3*
X12765Y15227D3*
X11535Y14320D3*
X7313Y13409D3*
X6663Y11565D3*
X15160Y14815D3*
X15574Y14800D3*
X15995Y14796D3*
X15708Y16837D2*
D13*
X15785D1*
X15708Y16738D2*
X15785D1*
X15708Y16640D2*
X15785D1*
X15708Y16541D2*
X15785D1*
X15708Y16442D2*
X15785D1*
X15708Y16344D2*
X15785D1*
X15708Y16245D2*
X15785D1*
X15708Y16146D2*
X15785D1*
X15708Y16048D2*
X15785D1*
X15616Y15949D2*
X15782D1*
X15513Y15850D2*
X15776D1*
X15408Y15752D2*
X15809D1*
X15304Y15653D2*
X15895D1*
X15199Y15554D2*
X15993D1*
X15099Y15455D2*
X16093D1*
X15032Y15357D2*
X16120D1*
X15032Y15258D2*
X16120D1*
X15032Y15159D2*
X16120D1*
X15032Y15061D2*
X16120D1*
X15032Y14962D2*
X16120D1*
X15032Y14863D2*
X16120D1*
X15032Y14765D2*
X16120D1*
X15032Y14666D2*
X16120D1*
X15699Y16936D2*
Y15968D1*
X15625D1*
X15235Y15597D1*
X15047Y15412D1*
X15023Y15389D1*
X15021Y14625D1*
X15179D1*
Y14640D1*
X15941D1*
Y14626D1*
X16129Y14625D1*
X16130Y15429D1*
X15859Y15699D1*
X15827Y15737D1*
X15804Y15781D1*
X15789Y15829D1*
X15783Y15878D1*
X15787Y15928D1*
X15798Y15966D1*
X15795Y15968D1*
Y16935D1*
X15697Y16936D1*
X17615Y9833D2*
D22*
X19257D1*
X17615Y9585D2*
X19257D1*
X17615Y9336D2*
X19257D1*
X17685Y9087D2*
X19257D1*
X18006Y8839D2*
X19253D1*
X18326Y8590D2*
X19253D1*
X18650Y8341D2*
X19253D1*
X18967Y8093D2*
X19253D1*
X18994Y7844D2*
X19253D1*
X18994Y7595D2*
X19253D1*
X18994Y7347D2*
X19253D1*
X18994Y7098D2*
X19253D1*
X18994Y6849D2*
X19253D1*
X18994Y6601D2*
X19253D1*
X21850D2*
X22456D1*
X18994Y6352D2*
X19253D1*
X21850D2*
X22456D1*
X18994Y6103D2*
X19249D1*
X21834D2*
X22452D1*
X18994Y5854D2*
X19249D1*
X21592D2*
X22253D1*
X18994Y5606D2*
X19249D1*
X21338D2*
X21815D1*
X18994Y5357D2*
X19249D1*
X21084D2*
X21663D1*
X18994Y5108D2*
X19249D1*
X20830D2*
X21589D1*
X18994Y4860D2*
X19249D1*
X20576D2*
X21331D1*
X18994Y4611D2*
X21073D1*
X18994Y4362D2*
X20819D1*
X21638Y5129D2*
X21663Y5279D1*
X21705Y5397D1*
X21765Y5506D1*
X21841Y5605D1*
X21932Y5691D1*
X22035Y5762D1*
X22147Y5816D1*
X22267Y5852D1*
X22402Y5870D1*
X22477Y5945D1*
X22484Y6786D1*
X21823Y6785D1*
X21822Y6155D1*
X21786Y6069D1*
X20534Y4847D1*
X20450Y4812D1*
X19399D1*
X19293Y4873D1*
X19274Y4937D1*
X19281Y10082D1*
X17589D1*
X17588Y9141D1*
X18922Y8108D1*
X18968Y8031D1*
X18970Y4352D1*
X20833D1*
X21635Y5130D1*
X19786Y9341D2*
X20533D1*
X19786Y9092D2*
X20533D1*
X19786Y8843D2*
X20533D1*
X19786Y8595D2*
X20533D1*
X19786Y8346D2*
X20533D1*
X19790Y8097D2*
X20529D1*
X19790Y7848D2*
X20529D1*
X19790Y7600D2*
X20529D1*
X19790Y7351D2*
X20529D1*
X19790Y7102D2*
X20525D1*
X19790Y6854D2*
X20525D1*
X19794Y6605D2*
X20525D1*
X19794Y6356D2*
X20525D1*
X19794Y6108D2*
X20525D1*
X19794Y5859D2*
X20521D1*
X19794Y5610D2*
X20513D1*
X20556Y9589D2*
X19760D1*
X19770Y5367D1*
X20550Y5614D1*
X20548Y6021D1*
X20560Y9588D1*
X13934Y16591D2*
X14114D1*
X13934Y16343D2*
X14114D1*
X13934Y16094D2*
X14114D1*
X13934Y15845D2*
X14083D1*
X13778Y14105D2*
X13954D1*
X13664Y13856D2*
X13954D1*
X14139Y15891D2*
Y16844D1*
X13909Y16840D1*
X13903Y14440D1*
X13636Y13851D1*
X13977D1*
X13979Y15491D1*
X14006Y15616D1*
X14020Y15644D1*
X14037Y15746D1*
X14139Y15891D1*
D28*
X5090Y14565D3*
D29*
Y13565D3*
Y12565D3*
Y11565D3*
Y10565D3*
X6090D3*
Y11565D3*
Y12565D3*
Y13565D3*
Y14565D3*
D30*
X13468Y13066D3*
D31*
Y12066D3*
Y11066D3*
D30*
X22190Y11065D3*
D31*
X21190D3*
X22190Y12065D3*
X21190D3*
X22190Y13065D3*
X21190D3*
X22190Y14065D3*
X21190D3*
X22190Y15065D3*
X21190D3*
D30*
X6053Y6589D3*
D31*
X5053D3*
D32*
X9940Y16565D3*
X10137D3*
X10334D3*
X10530D3*
X10727D3*
X10924D3*
X11121D3*
X11318D3*
X11515D3*
X11711D3*
X11908D3*
X12105D3*
X12302D3*
X12499D3*
X12696D3*
X12893D3*
X13089D3*
X13286D3*
X14074D3*
X14271D3*
X14467D3*
X14664D3*
X14861D3*
X15058D3*
X15255D3*
X15452D3*
X15649D3*
X15845D3*
X16042D3*
X16239D3*
X16436D3*
X16633D3*
X16830D3*
X17026D3*
X17223D3*
X17420D3*
D33*
X8765Y15209D3*
X18790Y16565D3*
X18583Y15218D3*
X8555Y16565D3*
D34*
X9380Y6023D3*
D35*
X10365D3*
X11152D3*
X12136D3*
D36*
X8172Y4956D3*
X13345D3*
D30*
X13440Y7307D3*
D31*
X14440D3*
X15440D3*
D30*
X13440Y8315D3*
D31*
X14440D3*
X15440D3*
D30*
X6053Y7589D3*
D31*
X5053D3*
D30*
X6053Y8589D3*
D31*
X5053D3*
D30*
X22187Y6461D3*
D31*
X21187D3*
X22187Y7461D3*
X21187D3*
X22187Y8461D3*
X21187D3*
D25*
X15895Y14126D3*
X15225D3*
M02*
