M48
INCH
T01C0.0157
T02C0.02
T03C0.0362
T04C0.0433
T05C0.0449
T06C0.063
T07C0.0669
T08C0.0906
T09C0.1083
%
T01
X+015166Y+015260
X+015573Y+015254
X+016008Y+015233
X+015995Y+014796
X+015574Y+014800
X+015160Y+014815
X+016886Y+014600
X+016440Y+013315
X+016453Y+012717
X+015500Y+012847
X+015500Y+012275
X+015117Y+010212
X+015752Y+009672
X+015233Y+009238
X+013894Y+009683
X+014061Y+010188
X+013576Y+009217
X+012816Y+009251
X+012537Y+008734
X+012102Y+012104
X+012088Y+012629
X+012276Y+013012
X+012062Y+013355
X+012568Y+014272
X+013355Y+014272
X+013355Y+014853
X+012765Y+015227
X+011839Y+014853
X+011535Y+014320
X+010864Y+017230
X+010404Y+017227
X+009919Y+017230
X+012409Y+017205
X+016626Y+017251
X+017220Y+017246
X+020362Y+012573
X+019092Y+010962
X+018727Y+010966
X+018723Y+010526
X+019089Y+010526
X+018724Y+009254
X+018263Y+009254
X+017814Y+009265
X+017814Y+009859
X+017480Y+011128
X+019886Y+009468
X+020392Y+009455
X+022554Y+009445
X+022542Y+010248
X+020392Y+005754
X+019889Y+005755
X+009122Y+009172
X+008291Y+009296
X+008280Y+008857
X+007562Y+008849
X+007557Y+009324
X+009023Y+011162
X+006820Y+011971
X+006663Y+011565
X+006930Y+013065
X+007313Y+013409
X+007230Y+013891
X+007810Y+013906
X+006930Y+014565
X+006160Y+015284
X+005184Y+015306
T02
X+010360Y+011484
T03
X+009380Y+006023
X+010365Y+006023
X+011152Y+006023
X+012136Y+006023
T04
X+013468Y+013066
X+013468Y+012066
X+013468Y+011066
X+013440Y+008315
X+014440Y+008315
X+015440Y+008315
X+015440Y+007307
X+014440Y+007307
X+013440Y+007307
X+006053Y+007589
X+006053Y+008589
X+005053Y+008589
X+005053Y+007589
X+005053Y+006589
X+006053Y+006589
X+021187Y+006461
X+021187Y+007461
X+021187Y+008461
X+022187Y+008461
X+022187Y+007461
X+022187Y+006461
X+022190Y+011065
X+022190Y+012065
X+022190Y+013065
X+021190Y+013065
X+021190Y+014065
X+021190Y+015065
X+022190Y+015065
X+022190Y+014065
X+021190Y+012065
X+021190Y+011065
T05
X+005090Y+014565
X+005090Y+013565
X+005090Y+012565
X+005090Y+011565
X+006090Y+011565
X+006090Y+012565
X+006090Y+013565
X+006090Y+014565
X+006090Y+010565
X+005090Y+010565
T06
X+008765Y+015209
X+008555Y+016565
X+018583Y+015218
X+018790Y+016565
T07
X+009339Y+016959
X+018021Y+016959
T08
X+008172Y+004956
X+013345Y+004956
T09
X+022440Y+005065
X+022440Y+016565
X+004940Y+016565
X+004940Y+005065
T00
M30
