G04 DipTrace 2.4.0.2*
%INTop.gbr*%
%MOIN*%
%ADD13C,0.01*%
%ADD14C,0.0079*%
%ADD15C,0.02*%
%ADD16C,0.015*%
%ADD17C,0.012*%
%ADD18C,0.03*%
%ADD19C,0.045*%
%ADD20C,0.04*%
%ADD21C,0.029*%
%ADD22C,0.025*%
%ADD25R,0.0433X0.0394*%
%ADD27R,0.0472X0.0472*%
%ADD28R,0.0689X0.0689*%
%ADD29C,0.0689*%
%ADD30R,0.0669X0.0669*%
%ADD31C,0.0669*%
%ADD33C,0.0886*%
%ADD34R,0.063X0.063*%
%ADD35C,0.063*%
%ADD36C,0.1378*%
%ADD38R,0.0157X0.0531*%
%ADD39R,0.0827X0.0787*%
%ADD40R,0.063X0.0748*%
%ADD41R,0.0472X0.0748*%
%ADD42R,0.0394X0.0531*%
%ADD44R,0.0413X0.0256*%
%ADD45R,0.0394X0.0433*%
%ADD46R,0.0276X0.0118*%
%ADD47R,0.0394X0.063*%
%ADD48C,0.031*%
%ADD49C,0.037*%
%FSLAX44Y44*%
G04*
G70*
G90*
G75*
G01*
%LNTop*%
%LPD*%
X18501Y11705D2*
D13*
Y12120D1*
X18422Y12200D1*
X18085D1*
X17706Y11821D1*
X17440D1*
X10063Y9991D2*
D14*
X10902D1*
X10927Y10016D1*
X10063Y10739D2*
D15*
X9958D1*
X9613Y10394D1*
Y8548D1*
X10010Y8151D1*
X9941D1*
X9543Y7753D1*
Y7125D1*
X8035Y5742D1*
Y5092D1*
X8172Y4956D1*
X10063Y13275D2*
X10007D1*
X9629Y12897D1*
Y11173D1*
X10063Y10739D1*
X16853Y5687D2*
D14*
X16272D1*
X16144Y5559D1*
X13948D1*
X13345Y4956D1*
X12136Y6023D2*
X12278D1*
X13345Y4956D1*
Y4528D1*
X8172D1*
Y4956D1*
X15750Y4634D2*
Y5165D1*
X16144Y5559D1*
X15750Y4634D2*
D15*
X17030D1*
X17699D1*
X18979D1*
X16965Y10585D2*
Y9409D1*
X17365D1*
X17814Y9859D1*
X16965Y9409D2*
X17207D1*
X17351Y9265D1*
X17814D1*
X16440Y13315D2*
D16*
X16775D1*
X16965Y13125D1*
X16453Y12717D2*
X16558D1*
X16965Y13125D1*
D14*
Y11823D1*
X16968Y11821D1*
X16495Y12077D2*
X16712D1*
X16968Y11821D1*
X16965Y10585D2*
X16968Y11821D1*
X18979Y4634D2*
D15*
Y5165D1*
X18585Y5559D1*
X18979Y4634D2*
D14*
X20359D1*
X22187Y6461D1*
X10063Y13275D2*
D15*
Y13431D1*
X9528Y13966D1*
X9496D1*
X8765Y14698D1*
Y15209D1*
X8555Y16565D2*
D19*
Y15420D1*
X8765Y15209D1*
X10360Y11484D2*
D15*
Y11037D1*
X10063Y10739D1*
X17814Y9859D2*
Y9265D1*
X18253D1*
X18263Y9254D1*
X18724D1*
D18*
X19127D1*
Y7832D1*
X20816D1*
X21187Y7461D1*
X17930Y10480D2*
D14*
Y9974D1*
X17814Y9859D1*
X18790Y16565D2*
D19*
X18646D1*
Y15280D1*
X18583Y15218D1*
X13468Y11066D2*
D16*
Y9903D1*
X12816Y9251D1*
X8290Y9824D2*
X8471D1*
X9122Y9172D1*
X6053Y6589D2*
D17*
Y7589D1*
Y8589D2*
Y7589D1*
X8262Y12333D2*
X7762D1*
Y9867D1*
X8247D1*
X8290Y9824D1*
X7762Y9867D2*
X7212D1*
Y8589D1*
Y7845D1*
X7771Y7286D1*
Y7234D1*
X7780Y7224D1*
X8300D1*
X6053Y8589D2*
X7212D1*
X16295Y10585D2*
D20*
Y9153D1*
X17221Y8228D1*
Y7683D1*
X17609Y7295D1*
X20249D1*
X21083Y6461D1*
X21187D1*
X13468Y12066D2*
X12726D1*
X11957Y11297D1*
Y7199D1*
X11533Y6774D1*
X10131D1*
X9380Y6023D1*
X12102Y12104D2*
D14*
X12543Y12544D1*
X15198D1*
X15500Y12847D1*
X7557Y9324D2*
X8263D1*
X8291Y9296D1*
X21271Y10065D2*
Y10074D1*
X21798Y10543D1*
X22719D1*
Y11536D1*
X22190Y12065D1*
X15500Y12275D2*
X14757D1*
X14064Y11583D1*
X12991D1*
X12835Y11426D1*
Y10454D1*
X12537Y10156D1*
Y8734D1*
X7562Y8849D2*
X8272D1*
X8280Y8857D1*
X21271Y9448D2*
X21087D1*
X20866Y9670D1*
Y10307D1*
X21102Y10543D1*
X21409D1*
X21834Y10968D1*
X22093D1*
X22190Y11065D1*
X21940Y10065D2*
D16*
Y9449D1*
X21941Y9448D1*
X13894Y9683D2*
D18*
X15752D1*
Y9672D1*
X22190Y13065D2*
X23080D1*
Y9079D1*
Y7985D1*
X22556Y7461D1*
X22187D1*
X19089Y10526D2*
D14*
D3*
Y11703D2*
X19092Y11705D1*
D15*
Y11331D1*
X18727Y10966D1*
X21941Y9448D2*
Y9079D1*
X23080D1*
X17440Y12077D2*
Y12930D1*
X17635Y13125D1*
X18130D1*
X19074Y12181D1*
Y11724D1*
X19092Y11705D1*
X19089Y10526D2*
Y10959D1*
X19092Y10962D1*
X18731D1*
X18727Y10966D1*
Y10531D1*
X18723Y10526D1*
X19089D1*
X8262Y13436D2*
D17*
X8624D1*
X9158Y12901D1*
X8262Y13436D2*
X7736D1*
X7518Y13217D1*
Y10763D1*
X6960D1*
Y9073D1*
X5537D1*
X5053Y8589D1*
X20392Y5754D2*
D18*
Y6210D1*
X19889D1*
Y5755D1*
X20392Y9455D2*
D21*
X20160D1*
D18*
Y9468D1*
X19886D1*
X13468Y13066D2*
X13904D1*
X14926Y14088D1*
X16008D1*
D20*
X17153D1*
X17584Y13656D1*
X18189D1*
X18390Y13672D1*
X20160Y11902D1*
Y9468D1*
X17876Y5687D2*
D15*
Y6764D1*
X19882D1*
Y5763D1*
X19889Y5755D1*
X19886Y9468D2*
D18*
Y8340D1*
X20392D1*
X21065D1*
X21187Y8461D1*
X20392Y9455D2*
Y8340D1*
X15166Y15260D2*
X15568D1*
X15573Y15254D1*
X15987D1*
X16008Y15233D1*
X15166Y15260D2*
D14*
Y14821D1*
X15160Y14815D1*
X15573Y15254D2*
Y14800D1*
X15574D1*
X10063Y12527D2*
X10877D1*
X10900Y12550D1*
X17220Y17246D2*
X17194D1*
X17225Y17214D1*
Y15332D1*
X18034Y14523D1*
X20648D1*
X21106Y14065D1*
X21190D1*
X16886Y14600D2*
X17297D1*
X17740Y14158D1*
X19271D1*
X20877Y12552D1*
X21511D1*
X21706Y12747D1*
Y14581D1*
X22190Y15065D1*
X17440Y11565D2*
Y11169D1*
X17480Y11128D1*
X13576Y9217D2*
X15212D1*
X15233Y9238D1*
X17480Y11128D2*
X17909D1*
X17930Y11150D1*
X14061Y10188D2*
D13*
X15093D1*
X15117Y10212D1*
X22542Y10248D2*
Y9457D1*
X22554Y9445D1*
X8290Y10926D2*
D17*
X8596D1*
X9157Y10365D1*
X8290Y10926D2*
X8787D1*
X9023Y11162D1*
X20362Y12573D2*
D14*
X20654Y12281D1*
Y11601D1*
X21190Y11065D1*
X15440Y7307D2*
X16217D1*
X17359Y6166D1*
Y5681D1*
X17365Y5687D1*
X15715Y8315D2*
X15440D1*
X17620Y5687D2*
Y6303D1*
X15609Y8314D1*
X15441D1*
X15440Y8315D1*
X10365Y6109D2*
Y6023D1*
X10900Y13220D2*
Y13419D1*
X9919Y14400D1*
Y17230D1*
X10927Y10685D2*
Y11639D1*
X11338Y12050D1*
Y13477D1*
X10950Y13865D1*
Y16686D1*
X10404D1*
Y17227D1*
X10900Y8080D2*
Y9103D1*
X11338Y9541D1*
Y11523D1*
X11797Y11981D1*
Y13526D1*
X11269Y14054D1*
Y17230D1*
X10864D1*
X7230Y13891D2*
X7810D1*
Y13906D1*
X12062Y13355D2*
Y14381D1*
X12220Y14538D1*
X13463D1*
X13621Y14695D1*
Y15993D1*
X12409Y17205D1*
X5184Y15306D2*
X6139D1*
X6160Y15284D1*
X13355Y14853D2*
X11839D1*
X12088Y12629D2*
Y12713D1*
X12565D1*
X12834Y12981D1*
Y13751D1*
X13355Y14272D1*
X6930Y14565D2*
Y13065D1*
X12276Y13012D2*
X12343D1*
X12577Y13245D1*
Y14281D1*
X12568Y14272D1*
X6820Y11971D2*
Y12408D1*
X6663Y12565D1*
X6090D1*
X11535Y14320D2*
Y15069D1*
X11692Y15227D1*
X12765D1*
X6663Y11565D2*
Y11577D1*
X7248D1*
Y13409D1*
X7313D1*
X16626Y17251D2*
Y17309D1*
X16640Y17295D1*
Y15576D1*
X17864Y14351D1*
X19839D1*
X21157Y13032D1*
X21190Y13065D1*
X8300Y8326D2*
D17*
X8555D1*
X9105Y7777D1*
X5053Y6589D2*
Y6484D1*
X5536Y6001D1*
X6723D1*
X7428Y6706D1*
X8547D1*
X9083Y7242D1*
Y7755D1*
X9105Y7777D1*
X10010Y7403D2*
D14*
X10892D1*
X10900Y7410D1*
D48*
X15166Y15260D3*
X16008Y15233D3*
X20392Y5754D3*
X19889Y5755D3*
X19092Y10962D3*
X17480Y11128D3*
X16886Y14600D3*
X19886Y9468D3*
X20392Y9455D3*
X9122Y9172D3*
X12816Y9251D3*
X17814Y9859D3*
Y9265D3*
X9023Y11162D3*
X16440Y13315D3*
X16453Y12717D3*
X16626Y17251D3*
X17220Y17246D3*
X15752Y9672D3*
X15117Y10212D3*
X14061Y10188D3*
X13894Y9683D3*
X20362Y12573D3*
X9919Y17230D3*
X10864D3*
X10404Y17227D3*
X22542Y10248D3*
X22554Y9445D3*
X15500Y12275D3*
Y12847D3*
X8291Y9296D3*
X12537Y8734D3*
X12102Y12104D3*
X8280Y8857D3*
X7557Y9324D3*
X7562Y8849D3*
X7810Y13906D3*
X7230Y13891D3*
X6160Y15284D3*
X5184Y15306D3*
X13576Y9217D3*
X15233Y9238D3*
X18723Y10526D3*
X19089D3*
X18727Y10966D3*
D49*
X10360Y11484D3*
D48*
X18263Y9254D3*
X18724D3*
X15573Y15254D3*
X12409Y17205D3*
X12062Y13355D3*
X11839Y14853D3*
X13355D3*
Y14272D3*
X12088Y12629D3*
X6930Y13065D3*
Y14565D3*
X12568Y14272D3*
X12276Y13012D3*
X6820Y11971D3*
X12765Y15227D3*
X11535Y14320D3*
X7313Y13409D3*
X6663Y11565D3*
X15160Y14815D3*
X15574Y14800D3*
X15995Y14796D3*
X15133Y15108D2*
D22*
X16048D1*
X15133Y14859D2*
X16048D1*
X15133Y14611D2*
X16048D1*
X14930Y14362D2*
X16048D1*
X14692Y14113D2*
X16048D1*
X14453Y13865D2*
X14790D1*
X14211Y13616D2*
X14540D1*
X13260Y13367D2*
X14294D1*
X13260Y13119D2*
X14048D1*
X13260Y12870D2*
X13802D1*
X13238Y12862D2*
X13816D1*
X14978Y14030D1*
X15066Y14067D1*
X16072Y14073D1*
Y15357D1*
X15109Y15356D1*
X15108Y14623D1*
X15075Y14540D1*
X14088Y13515D1*
X14002Y13478D1*
X13235D1*
Y12864D1*
X14917Y11501D2*
X16481D1*
X13187Y11252D2*
X16481D1*
X13183Y11004D2*
X16418D1*
X15621Y10755D2*
X16367D1*
X15988Y10506D2*
X16371D1*
X16506Y11245D2*
Y11753D1*
X15131Y11750D1*
X14894D1*
Y11442D1*
X14833Y11336D1*
X14769Y11317D1*
X13161Y11316D1*
X13157Y10757D1*
X15576Y10755D1*
X15646Y10734D1*
X16126Y10391D1*
X16395D1*
X16394Y10802D1*
X16506Y11243D1*
X17471Y12979D2*
X18453D1*
X17471Y12730D2*
X18699D1*
X18651Y12482D2*
X18941D1*
X18987Y12233D2*
X19187D1*
X19050Y11984D2*
X19433D1*
X19050Y11736D2*
X19523D1*
X19050Y11487D2*
X19523D1*
X19026Y11238D2*
X19523D1*
X18483Y10990D2*
X19523D1*
X18483Y10741D2*
X19472D1*
X18483Y10492D2*
X19394D1*
X18483Y10243D2*
X19320D1*
X17447Y13224D2*
Y12663D1*
X17435D1*
X17437Y12145D1*
X17543Y12148D1*
Y12422D1*
X17604Y12527D1*
X17668Y12547D1*
X18514Y12545D1*
X18600Y12509D1*
X18864Y12237D1*
X18963Y12236D1*
Y12131D1*
X18989Y12105D1*
X19024Y12022D1*
Y11312D1*
X18963Y11207D1*
Y11175D1*
X18459D1*
X18458Y10182D1*
X19322D1*
X19548Y10912D1*
Y11890D1*
X18237Y13225D1*
X17449Y13227D1*
X16043Y13324D2*
X17022D1*
X16043Y13075D2*
X17022D1*
X16043Y12827D2*
X17022D1*
X16043Y12578D2*
X17022D1*
X16043Y12329D2*
X17010D1*
X16924Y12080D2*
X17015D1*
X16924Y11832D2*
X17015D1*
X16924Y11583D2*
X17015D1*
X16924Y11334D2*
X17015D1*
X16916Y11086D2*
X17026D1*
X16916Y10837D2*
X17026D1*
X16912Y10588D2*
X18010D1*
X16912Y10340D2*
X18010D1*
X16912Y10091D2*
X18010D1*
X16912Y9842D2*
X18010D1*
X16908Y9594D2*
X19257D1*
X16959Y9345D2*
X19260D1*
X17221Y9096D2*
X19260D1*
X17486Y8848D2*
X19264D1*
X17748Y8599D2*
X19264D1*
X17822Y8350D2*
X19264D1*
X17822Y8101D2*
X19268D1*
X17822Y7853D2*
X19268D1*
X17049Y11241D2*
X17037D1*
X17041Y11889D1*
X17037Y12003D1*
Y12401D1*
X17049D1*
X17047Y13568D1*
X16020Y13572D1*
X16019Y12137D1*
X16093Y12136D1*
X16092Y12145D1*
X16898D1*
X16894Y11497D1*
X16898Y11389D1*
X16890Y11130D1*
X16884Y9392D1*
X17758Y8565D1*
X17796Y8478D1*
Y7830D1*
X19292D1*
X19281Y9696D1*
X18162D1*
X18056Y9757D1*
X18037Y9821D1*
X18036Y10608D1*
X17176Y10611D1*
X17070Y10673D1*
X17051Y10736D1*
X17050Y11240D1*
X16896Y11889D2*
X16898Y11514D1*
X17037Y11497D1*
X17041Y12145D1*
X21853Y6506D2*
X23033D1*
X21853Y6258D2*
X23033D1*
X11861Y6009D2*
X12612D1*
X21716D2*
X23033D1*
X7537Y5760D2*
X8440D1*
X11865D2*
X16740D1*
X18345D2*
X18885D1*
X21470D2*
X22006D1*
X22872D2*
X23033D1*
X7537Y5512D2*
X8694D1*
X11865D2*
X16319D1*
X18431D2*
X18885D1*
X21228D2*
X21744D1*
X7537Y5263D2*
X8947D1*
X11865D2*
X15588D1*
X20982D2*
X21635D1*
X7537Y5014D2*
X15588D1*
X19181D2*
X21612D1*
X7537Y4766D2*
X15803D1*
X18904D2*
X21666D1*
X7537Y4517D2*
X15803D1*
X18904D2*
X21822D1*
X21976Y4407D2*
X21888Y4478D1*
X21804Y4570D1*
X21735Y4674D1*
X21683Y4788D1*
X21649Y4908D1*
X21634Y5032D1*
X21639Y5157D1*
X21663Y5279D1*
X21705Y5397D1*
X21765Y5506D1*
X21841Y5605D1*
X21932Y5691D1*
X22035Y5762D1*
X22147Y5816D1*
X22267Y5852D1*
X22390Y5870D1*
X22515Y5868D1*
X22638Y5847D1*
X22756Y5807D1*
X22867Y5749D1*
X22968Y5675D1*
X23058Y5583D1*
Y6753D1*
X21827Y6755D1*
X21825Y6192D1*
X21790Y6108D1*
X20819Y5127D1*
X20734Y5091D1*
X19152D1*
X19155Y4773D1*
X18877D1*
X18879Y4473D1*
X19116Y4476D1*
Y4402D1*
X19635Y4405D1*
X21974Y4407D1*
X16765Y5660D2*
Y5809D1*
X14554Y5811D1*
X12763D1*
X12657Y5872D1*
X12638Y5936D1*
X12637Y6236D1*
X11837D1*
X11840Y5214D1*
X11779Y5109D1*
X11715Y5089D1*
X9198Y5091D1*
X9114Y5125D1*
X8450Y5777D1*
X7512Y5775D1*
X7510Y4396D1*
X15615Y4402D1*
X15614Y4495D1*
X15828D1*
X15830Y4774D1*
X15614Y4773D1*
Y5401D1*
X16344D1*
X16342Y5657D1*
X16767D1*
X18407Y5401D2*
X18907D1*
X18909Y5823D1*
X18320Y5821D1*
X18318Y5653D1*
X18407Y5657D1*
Y5403D1*
X19794Y9864D2*
X20554D1*
X19794Y9616D2*
X20554D1*
X19794Y9367D2*
X20554D1*
X19794Y9118D2*
X20554D1*
X19794Y8870D2*
X20554D1*
X19794Y8621D2*
X21363D1*
X19794Y8372D2*
X21363D1*
X21389Y8250D2*
Y8695D1*
X20703Y8700D1*
X20598Y8762D1*
X20578Y8825D1*
X20577Y10106D1*
X19769Y10112D1*
Y8247D1*
X21390D1*
X17937Y6563D2*
X20247D1*
X19590Y6315D2*
X20469D1*
X19613Y6066D2*
X20520D1*
X19613Y5817D2*
X20520D1*
X19613Y5569D2*
X20520D1*
X18172Y6367D2*
X19464D1*
X19569Y6305D1*
X19589Y6242D1*
Y5516D1*
X20546D1*
Y6262D1*
X20042Y6813D1*
X17910Y6812D1*
X17914Y6383D1*
X17925Y6268D1*
X17933Y6294D1*
X18029Y6365D1*
X18172Y6367D1*
D25*
X17635Y13125D3*
X16965D3*
X16295Y10585D3*
X16965D3*
D27*
X8300Y7224D3*
Y8326D3*
X8290Y9824D3*
Y10926D3*
X8262Y12333D3*
Y13436D3*
D28*
X5090Y14565D3*
D29*
Y13565D3*
Y12565D3*
Y11565D3*
Y10565D3*
X6090D3*
Y11565D3*
Y12565D3*
Y13565D3*
Y14565D3*
D30*
X13468Y13066D3*
D31*
Y12066D3*
Y11066D3*
D30*
X22190Y11065D3*
D31*
X21190D3*
X22190Y12065D3*
X21190D3*
X22190Y13065D3*
X21190D3*
X22190Y14065D3*
X21190D3*
X22190Y15065D3*
X21190D3*
D30*
X6053Y6589D3*
D31*
X5053D3*
D33*
X8765Y15209D3*
X18790Y16565D3*
X18583Y15218D3*
X8555Y16565D3*
D34*
X9380Y6023D3*
D35*
X10365D3*
X11152D3*
X12136D3*
D36*
X8172Y4956D3*
X13345D3*
D30*
X13440Y7307D3*
D31*
X14440D3*
X15440D3*
D30*
X13440Y8315D3*
D31*
X14440D3*
X15440D3*
D38*
X17876Y5687D3*
X17620D3*
X17365D3*
X17109D3*
X16853D3*
D39*
X18585Y5559D3*
X16144D3*
D40*
X18979Y4634D3*
X15750D3*
D41*
X17699D3*
X17030D3*
D30*
X6053Y7589D3*
D31*
X5053D3*
D30*
X6053Y8589D3*
D31*
X5053D3*
D30*
X22187Y6461D3*
D31*
X21187D3*
X22187Y7461D3*
X21187D3*
X22187Y8461D3*
X21187D3*
D42*
X18501Y11705D3*
X19092D3*
D44*
X10010Y7403D3*
Y8151D3*
X9105Y7777D3*
X10063Y9991D3*
Y10739D3*
X9157Y10365D3*
X10063Y12527D3*
Y13275D3*
X9158Y12901D3*
D25*
X21271Y9448D3*
X21941D3*
X21271Y10065D3*
X21940D3*
D45*
X10900Y7410D3*
Y8080D3*
X10927Y10016D3*
Y10685D3*
X10900Y12550D3*
Y13220D3*
X17930Y10480D3*
Y11150D3*
D46*
X17440Y11565D3*
Y11821D3*
Y12077D3*
X16495D3*
Y11821D3*
Y11565D3*
D47*
X16968Y11821D3*
M02*
