G04 DipTrace 2.4.0.2*
%INTopMask.gbr*%
%MOIN*%
%ADD50C,0.1083*%
%ADD51C,0.0669*%
%ADD58R,0.0474X0.071*%
%ADD60R,0.0356X0.0198*%
%ADD62R,0.0474X0.0513*%
%ADD64R,0.0493X0.0336*%
%ADD66R,0.0474X0.0611*%
%ADD68R,0.0552X0.0828*%
%ADD70R,0.071X0.0828*%
%ADD72R,0.0907X0.0867*%
%ADD74R,0.0237X0.0611*%
%ADD76C,0.1458*%
%ADD78C,0.071*%
%ADD80R,0.071X0.071*%
%ADD82C,0.0966*%
%ADD86C,0.0749*%
%ADD88R,0.0749X0.0749*%
%ADD90C,0.0769*%
%ADD92R,0.0769X0.0769*%
%ADD94R,0.0552X0.0552*%
%ADD96R,0.0513X0.0474*%
%FSLAX44Y44*%
G04*
G70*
G90*
G75*
G01*
%LNTopMask*%
%LPD*%
D96*
X17635Y13125D3*
X16965D3*
X16295Y10585D3*
X16965D3*
D94*
X8300Y7224D3*
Y8326D3*
X8290Y9824D3*
Y10926D3*
X8262Y12333D3*
Y13436D3*
D92*
X5090Y14565D3*
D90*
Y13565D3*
Y12565D3*
Y11565D3*
Y10565D3*
X6090D3*
Y11565D3*
Y12565D3*
Y13565D3*
Y14565D3*
D50*
X22440Y5065D3*
Y16565D3*
X4940Y5065D3*
Y16565D3*
D88*
X13468Y13066D3*
D86*
Y12066D3*
Y11066D3*
D88*
X22190Y11065D3*
D86*
X21190D3*
X22190Y12065D3*
X21190D3*
X22190Y13065D3*
X21190D3*
X22190Y14065D3*
X21190D3*
X22190Y15065D3*
X21190D3*
D88*
X6053Y6589D3*
D86*
X5053D3*
D82*
X8765Y15209D3*
X18790Y16565D3*
X18583Y15218D3*
X8555Y16565D3*
D51*
X9339Y16959D3*
X18021D3*
D80*
X9380Y6023D3*
D78*
X10365D3*
X11152D3*
X12136D3*
D76*
X8172Y4956D3*
X13345D3*
D88*
X13440Y7307D3*
D86*
X14440D3*
X15440D3*
D88*
X13440Y8315D3*
D86*
X14440D3*
X15440D3*
D74*
X17876Y5687D3*
X17620D3*
X17365D3*
X17109D3*
X16853D3*
D72*
X18585Y5559D3*
X16144D3*
D70*
X18979Y4634D3*
X15750D3*
D68*
X17699D3*
X17030D3*
D88*
X6053Y7589D3*
D86*
X5053D3*
D88*
X6053Y8589D3*
D86*
X5053D3*
D88*
X22187Y6461D3*
D86*
X21187D3*
X22187Y7461D3*
X21187D3*
X22187Y8461D3*
X21187D3*
D66*
X18501Y11705D3*
X19092D3*
D64*
X10010Y7403D3*
Y8151D3*
X9105Y7777D3*
X10063Y9991D3*
Y10739D3*
X9157Y10365D3*
X10063Y12527D3*
Y13275D3*
X9158Y12901D3*
D96*
X21271Y9448D3*
X21941D3*
X21271Y10065D3*
X21940D3*
D62*
X10900Y7410D3*
Y8080D3*
X10927Y10016D3*
Y10685D3*
X10900Y12550D3*
Y13220D3*
X17930Y10480D3*
Y11150D3*
D60*
X17440Y11565D3*
Y11821D3*
Y12077D3*
X16495D3*
Y11821D3*
Y11565D3*
D58*
X16968Y11821D3*
M02*
