G04 DipTrace 2.4.0.2*
%INTopSilk.gbr*%
%MOIN*%
%ADD10C,0.0098*%
%ADD24C,0.0168*%
%ADD26C,0.0157*%
%ADD37C,0.0197*%
%ADD43C,0.0154*%
%ADD98C,0.0046*%
%ADD99C,0.0062*%
%ADD100C,0.0087*%
%FSLAX44Y44*%
G04*
G70*
G90*
G75*
G01*
%LNTopSilk*%
%LPD*%
X7946Y7539D2*
D10*
Y8011D1*
X8654Y7539D2*
Y8011D1*
D26*
X8300Y6811D3*
X7936Y10139D2*
D10*
Y10611D1*
X8644Y10139D2*
Y10611D1*
D26*
X8290Y9411D3*
X7907Y12648D2*
D10*
Y13121D1*
X8616Y12648D2*
Y13121D1*
D26*
X8262Y11920D3*
X6606Y15085D2*
D10*
X4574D1*
Y10045D1*
X6606D1*
Y15085D1*
X13968Y13566D2*
X12968D1*
Y10566D1*
X13968D1*
Y13566D1*
X20690Y10565D2*
X22690D1*
Y15565D1*
X20690D1*
Y10565D1*
X6553Y6089D2*
X4553D1*
Y7089D1*
X6553D1*
Y6089D1*
X8160Y6507D2*
X13356D1*
Y909D2*
Y4090D1*
Y5822D2*
Y6500D1*
Y909D2*
X8160D1*
Y4090D1*
Y5822D2*
Y6500D1*
X12940Y7807D2*
X15940D1*
Y6807D1*
X12940D1*
Y7807D1*
Y8815D2*
X15940D1*
Y7815D1*
X12940D1*
Y8815D1*
X18861Y4142D2*
Y3787D1*
X15869D2*
Y4142D1*
D37*
X17876Y6169D3*
X15770Y3787D2*
D10*
X18959D1*
X15770D2*
Y3551D1*
X18959Y3787D2*
Y3551D1*
X15770D2*
X18959D1*
X6553Y7089D2*
X4553D1*
Y8089D1*
X6553D1*
Y7089D1*
Y8089D2*
X4553D1*
Y9089D1*
X6553D1*
Y8089D1*
X20687Y5961D2*
X22687D1*
Y8961D1*
X20687D1*
Y5961D1*
D43*
X10158Y7094D3*
X9656Y7186D2*
D10*
Y8367D1*
X9459D1*
Y7186D1*
X9656D1*
D43*
X10210Y9682D3*
X9708Y9775D2*
D10*
Y10956D1*
X9512D1*
Y9775D1*
X9708D1*
D43*
X10210Y12219D3*
X9709Y12311D2*
D10*
Y13492D1*
X9512D1*
Y12311D1*
X9709D1*
D24*
X15991Y12104D3*
X17325Y13690D2*
D98*
X17311Y13718D1*
X17282Y13747D1*
X17254Y13761D1*
X17196D1*
X17167Y13747D1*
X17139Y13718D1*
X17124Y13690D1*
X17110Y13646D1*
Y13574D1*
X17124Y13532D1*
X17139Y13503D1*
X17167Y13474D1*
X17196Y13460D1*
X17254D1*
X17282Y13474D1*
X17311Y13503D1*
X17325Y13532D1*
X17418Y13703D2*
X17447Y13718D1*
X17490Y13761D1*
Y13460D1*
X16591Y10215D2*
X16577Y10243D1*
X16548Y10272D1*
X16519Y10286D1*
X16462D1*
X16433Y10272D1*
X16404Y10243D1*
X16390Y10215D1*
X16376Y10172D1*
Y10100D1*
X16390Y10057D1*
X16404Y10028D1*
X16433Y10000D1*
X16462Y9985D1*
X16519D1*
X16548Y10000D1*
X16577Y10028D1*
X16591Y10057D1*
X16698Y10214D2*
Y10229D1*
X16712Y10258D1*
X16727Y10272D1*
X16755Y10286D1*
X16813D1*
X16841Y10272D1*
X16856Y10258D1*
X16870Y10229D1*
Y10200D1*
X16856Y10171D1*
X16827Y10129D1*
X16683Y9985D1*
X16884D1*
X8117Y9002D2*
Y8700D1*
X8218D1*
X8261Y8715D1*
X8290Y8743D1*
X8304Y8772D1*
X8318Y8815D1*
Y8887D1*
X8304Y8930D1*
X8290Y8959D1*
X8261Y8987D1*
X8218Y9002D1*
X8117D1*
X8411Y8944D2*
X8440Y8959D1*
X8483Y9001D1*
Y8700D1*
X8043Y11602D2*
Y11300D1*
X8143D1*
X8186Y11315D1*
X8215Y11343D1*
X8229Y11372D1*
X8244Y11415D1*
Y11487D1*
X8229Y11530D1*
X8215Y11559D1*
X8186Y11587D1*
X8143Y11602D1*
X8043D1*
X8351Y11530D2*
Y11544D1*
X8365Y11573D1*
X8379Y11587D1*
X8408Y11601D1*
X8466D1*
X8494Y11587D1*
X8508Y11573D1*
X8523Y11544D1*
Y11516D1*
X8508Y11487D1*
X8480Y11444D1*
X8336Y11300D1*
X8537D1*
X8014Y14111D2*
Y13810D1*
X8115D1*
X8158Y13824D1*
X8187Y13853D1*
X8201Y13882D1*
X8215Y13924D1*
Y13996D1*
X8201Y14040D1*
X8187Y14068D1*
X8158Y14097D1*
X8115Y14111D1*
X8014D1*
X8337D2*
X8494D1*
X8408Y13996D1*
X8452D1*
X8480Y13982D1*
X8494Y13968D1*
X8509Y13924D1*
Y13896D1*
X8494Y13853D1*
X8466Y13824D1*
X8423Y13810D1*
X8380D1*
X8337Y13824D1*
X8323Y13839D1*
X8308Y13867D1*
X20251Y11072D2*
X20552D1*
X20323Y11180D2*
X20308D1*
X20280Y11194D1*
X20265Y11208D1*
X20251Y11237D1*
Y11294D1*
X20265Y11323D1*
X20280Y11337D1*
X20308Y11352D1*
X20337D1*
X20366Y11337D1*
X20409Y11309D1*
X20552Y11165D1*
Y11366D1*
X20322Y11674D2*
X20294Y11659D1*
X20265Y11631D1*
X20251Y11602D1*
Y11545D1*
X20265Y11516D1*
X20294Y11487D1*
X20322Y11473D1*
X20365Y11459D1*
X20437D1*
X20480Y11473D1*
X20509Y11487D1*
X20538Y11516D1*
X20552Y11545D1*
Y11602D1*
X20538Y11631D1*
X20509Y11659D1*
X20480Y11674D1*
X20552Y11766D2*
X20251Y11967D1*
X20552Y12290D2*
X20251Y12175D1*
X20552Y12060D1*
X20452Y12103D2*
Y12247D1*
X20351Y12382D2*
X20495D1*
X20538Y12397D1*
X20552Y12426D1*
Y12469D1*
X20538Y12497D1*
X20495Y12540D1*
X20351D2*
X20552D1*
X20251Y12805D2*
X20552D1*
X20394D2*
X20365Y12776D1*
X20351Y12748D1*
Y12705D1*
X20365Y12676D1*
X20394Y12647D1*
X20437Y12633D1*
X20466D1*
X20509Y12647D1*
X20538Y12676D1*
X20552Y12705D1*
Y12748D1*
X20538Y12776D1*
X20509Y12805D1*
X20251Y12898D2*
X20265Y12912D1*
X20251Y12926D1*
X20236Y12912D1*
X20251Y12898D1*
X20351Y12912D2*
X20552D1*
X20351Y13091D2*
X20365Y13062D1*
X20394Y13033D1*
X20437Y13019D1*
X20466D1*
X20509Y13033D1*
X20538Y13062D1*
X20552Y13091D1*
Y13134D1*
X20538Y13163D1*
X20509Y13191D1*
X20466Y13206D1*
X20437D1*
X20394Y13191D1*
X20365Y13163D1*
X20351Y13134D1*
Y13091D1*
X20251Y13590D2*
X20552D1*
X20251Y13791D2*
X20552D1*
X20394Y13590D2*
Y13791D1*
X20437Y13884D2*
Y14056D1*
X20409D1*
X20380Y14042D1*
X20365Y14027D1*
X20351Y13998D1*
Y13955D1*
X20365Y13927D1*
X20394Y13898D1*
X20437Y13884D1*
X20466D1*
X20509Y13898D1*
X20538Y13927D1*
X20552Y13955D1*
Y13998D1*
X20538Y14027D1*
X20509Y14056D1*
X20351Y14321D2*
X20552D1*
X20394D2*
X20365Y14292D1*
X20351Y14263D1*
Y14220D1*
X20365Y14192D1*
X20394Y14163D1*
X20437Y14148D1*
X20466D1*
X20509Y14163D1*
X20538Y14192D1*
X20552Y14220D1*
Y14263D1*
X20538Y14292D1*
X20509Y14321D1*
X20251Y14585D2*
X20552D1*
X20394D2*
X20365Y14557D1*
X20351Y14528D1*
Y14485D1*
X20365Y14456D1*
X20394Y14427D1*
X20437Y14413D1*
X20466D1*
X20509Y14427D1*
X20538Y14456D1*
X20552Y14485D1*
Y14528D1*
X20538Y14557D1*
X20509Y14585D1*
X20437Y14678D2*
Y14850D1*
X20409D1*
X20380Y14836D1*
X20365Y14821D1*
X20351Y14793D1*
Y14750D1*
X20365Y14721D1*
X20394Y14692D1*
X20437Y14678D1*
X20466D1*
X20509Y14692D1*
X20538Y14721D1*
X20552Y14750D1*
Y14793D1*
X20538Y14821D1*
X20509Y14850D1*
X20351Y14943D2*
X20552D1*
X20437D2*
X20394Y14957D1*
X20365Y14986D1*
X20351Y15015D1*
Y15058D1*
X19391Y11537D2*
X19692D1*
Y11709D1*
X19448Y11802D2*
X19434Y11831D1*
X19391Y11874D1*
X19692D1*
X9456Y8807D2*
X9427Y8793D1*
X9398Y8764D1*
X9384Y8735D1*
X9369Y8692D1*
Y8620D1*
X9384Y8577D1*
X9398Y8549D1*
X9427Y8520D1*
X9456Y8505D1*
X9513D1*
X9542Y8520D1*
X9570Y8549D1*
X9585Y8577D1*
X9599Y8620D1*
Y8692D1*
X9585Y8735D1*
X9570Y8764D1*
X9542Y8793D1*
X9513Y8807D1*
X9456D1*
X9499Y8563D2*
X9585Y8477D1*
X9692Y8749D2*
X9721Y8763D1*
X9764Y8806D1*
Y8505D1*
X9443Y11395D2*
X9415Y11381D1*
X9386Y11352D1*
X9372Y11323D1*
X9357Y11280D1*
Y11209D1*
X9372Y11165D1*
X9386Y11137D1*
X9415Y11108D1*
X9443Y11094D1*
X9501D1*
X9529Y11108D1*
X9558Y11137D1*
X9572Y11165D1*
X9587Y11209D1*
Y11280D1*
X9572Y11323D1*
X9558Y11352D1*
X9529Y11381D1*
X9501Y11395D1*
X9443D1*
X9486Y11151D2*
X9572Y11065D1*
X9694Y11323D2*
Y11337D1*
X9708Y11366D1*
X9723Y11380D1*
X9751Y11395D1*
X9809D1*
X9837Y11380D1*
X9852Y11366D1*
X9866Y11337D1*
Y11309D1*
X9852Y11280D1*
X9823Y11237D1*
X9679Y11093D1*
X9880D1*
X9444Y13931D2*
X9415Y13917D1*
X9386Y13889D1*
X9372Y13860D1*
X9358Y13817D1*
Y13745D1*
X9372Y13702D1*
X9386Y13673D1*
X9415Y13644D1*
X9444Y13630D1*
X9501D1*
X9530Y13644D1*
X9559Y13673D1*
X9573Y13702D1*
X9587Y13745D1*
Y13817D1*
X9573Y13860D1*
X9559Y13889D1*
X9530Y13917D1*
X9501Y13931D1*
X9444D1*
X9487Y13688D2*
X9573Y13601D1*
X9709Y13931D2*
X9866D1*
X9780Y13816D1*
X9824D1*
X9852Y13802D1*
X9866Y13788D1*
X9881Y13745D1*
Y13716D1*
X9866Y13673D1*
X9838Y13644D1*
X9795Y13630D1*
X9752D1*
X9709Y13644D1*
X9695Y13659D1*
X9680Y13687D1*
X10717Y8678D2*
X10746Y8692D1*
X10789Y8735D1*
Y8434D1*
X10882Y8736D2*
Y8434D1*
X11083Y8736D2*
X10882Y8535D1*
X10953Y8607D2*
X11083Y8434D1*
X10744Y11283D2*
X10773Y11298D1*
X10816Y11340D1*
Y11039D1*
X10909Y11341D2*
Y11039D1*
X11110Y11341D2*
X10909Y11140D1*
X10980Y11212D2*
X11110Y11039D1*
X10717Y13818D2*
X10746Y13832D1*
X10789Y13875D1*
Y13574D1*
X10882Y13876D2*
Y13574D1*
X11083Y13876D2*
X10882Y13675D1*
X10953Y13747D2*
X11083Y13574D1*
X17600Y10104D2*
X17629Y10119D1*
X17672Y10162D1*
Y9861D1*
X17851Y10162D2*
X17808Y10147D1*
X17779Y10104D1*
X17765Y10033D1*
Y9990D1*
X17779Y9918D1*
X17808Y9875D1*
X17851Y9861D1*
X17880D1*
X17923Y9875D1*
X17951Y9918D1*
X17966Y9990D1*
Y10033D1*
X17951Y10104D1*
X17923Y10147D1*
X17880Y10162D1*
X17851D1*
X17951Y10104D2*
X17779Y9918D1*
X18059Y10162D2*
Y9861D1*
X18260Y10162D2*
X18059Y9961D1*
X18130Y10033D2*
X18260Y9861D1*
X12244Y7436D2*
Y7134D1*
X12345D1*
X12388Y7149D1*
X12417Y7177D1*
X12431Y7206D1*
X12445Y7249D1*
Y7321D1*
X12431Y7364D1*
X12417Y7393D1*
X12388Y7422D1*
X12345Y7436D1*
X12244D1*
X12667Y7414D2*
Y7156D1*
X12538Y7285D2*
X12796D1*
X12257Y8486D2*
Y8184D1*
X12358D1*
X12401Y8199D1*
X12430Y8227D1*
X12444Y8256D1*
X12458Y8299D1*
Y8371D1*
X12444Y8414D1*
X12430Y8442D1*
X12401Y8471D1*
X12358Y8486D1*
X12257D1*
X12551Y8335D2*
X12717D1*
X11702Y7943D2*
Y7641D1*
X11903Y7943D2*
Y7641D1*
X11702Y7799D2*
X11903D1*
X12082Y7943D2*
X12053Y7928D1*
X12024Y7899D1*
X12010Y7871D1*
X11996Y7828D1*
Y7756D1*
X12010Y7713D1*
X12024Y7684D1*
X12053Y7656D1*
X12082Y7641D1*
X12139D1*
X12168Y7656D1*
X12197Y7684D1*
X12211Y7713D1*
X12225Y7756D1*
Y7828D1*
X12211Y7871D1*
X12197Y7899D1*
X12168Y7928D1*
X12139Y7943D1*
X12082D1*
X12519Y7899D2*
X12490Y7928D1*
X12447Y7943D1*
X12390D1*
X12347Y7928D1*
X12318Y7899D1*
Y7871D1*
X12332Y7842D1*
X12347Y7828D1*
X12375Y7814D1*
X12461Y7785D1*
X12490Y7770D1*
X12504Y7756D1*
X12519Y7727D1*
Y7684D1*
X12490Y7656D1*
X12447Y7641D1*
X12390D1*
X12347Y7656D1*
X12318Y7684D1*
X12712Y7943D2*
Y7641D1*
X12611Y7943D2*
X12812D1*
X16212Y7962D2*
X16184Y7948D1*
X16155Y7919D1*
X16140Y7890D1*
X16126Y7847D1*
Y7775D1*
X16140Y7732D1*
X16155Y7704D1*
X16184Y7675D1*
X16212Y7660D1*
X16270D1*
X16298Y7675D1*
X16327Y7704D1*
X16341Y7732D1*
X16356Y7775D1*
Y7847D1*
X16341Y7890D1*
X16327Y7919D1*
X16298Y7948D1*
X16270Y7962D1*
X16212D1*
X16549D2*
Y7660D1*
X16448Y7962D2*
X16649D1*
X16957Y7890D2*
X16943Y7919D1*
X16914Y7948D1*
X16885Y7962D1*
X16828D1*
X16799Y7948D1*
X16771Y7919D1*
X16756Y7890D1*
X16742Y7847D1*
Y7775D1*
X16756Y7732D1*
X16771Y7704D1*
X16799Y7675D1*
X16828Y7660D1*
X16885D1*
X16914Y7675D1*
X16943Y7704D1*
X16957Y7732D1*
Y7775D1*
X16885D1*
X14180Y11070D2*
X14309D1*
X14352Y11085D1*
X14366Y11099D1*
X14380Y11128D1*
Y11157D1*
X14366Y11185D1*
X14352Y11200D1*
X14309Y11214D1*
X14180D1*
Y10913D1*
X14280Y11070D2*
X14380Y10913D1*
X14659Y11214D2*
X14473D1*
Y10913D1*
X14659D1*
X14473Y11070D2*
X14588D1*
X14967Y11142D2*
X14953Y11171D1*
X14924Y11200D1*
X14896Y11214D1*
X14838D1*
X14809Y11200D1*
X14781Y11171D1*
X14766Y11142D1*
X14752Y11099D1*
Y11027D1*
X14766Y10985D1*
X14781Y10956D1*
X14809Y10927D1*
X14838Y10913D1*
X14896D1*
X14924Y10927D1*
X14953Y10956D1*
X14967Y10985D1*
Y11027D1*
X14896D1*
X15232Y11214D2*
X15089D1*
X15075Y11085D1*
X15089Y11099D1*
X15132Y11114D1*
X15175D1*
X15218Y11099D1*
X15247Y11070D1*
X15261Y11027D1*
Y10999D1*
X15247Y10956D1*
X15218Y10927D1*
X15175Y10913D1*
X15132D1*
X15089Y10927D1*
X15075Y10941D1*
X15060Y10970D1*
X15354Y11214D2*
X15468Y10913D1*
X15583Y11214D1*
X14145Y13236D2*
Y12934D1*
X14245D1*
X14289Y12949D1*
X14317Y12977D1*
X14332Y13006D1*
X14346Y13049D1*
Y13121D1*
X14332Y13164D1*
X14317Y13193D1*
X14289Y13221D1*
X14245Y13236D1*
X14145D1*
X14654Y13164D2*
X14639Y13193D1*
X14611Y13221D1*
X14582Y13236D1*
X14525D1*
X14496Y13221D1*
X14467Y13193D1*
X14453Y13164D1*
X14439Y13121D1*
Y13049D1*
X14453Y13006D1*
X14467Y12977D1*
X14496Y12949D1*
X14525Y12934D1*
X14582D1*
X14611Y12949D1*
X14639Y12977D1*
X14654Y13006D1*
X14746Y12884D2*
X15019D1*
X15112Y13236D2*
Y12934D1*
X15405Y13236D2*
Y12934D1*
X15204Y13236D1*
Y12934D1*
X14128Y12233D2*
X14242Y11932D1*
X14357Y12233D1*
X14665Y12162D2*
X14651Y12190D1*
X14622Y12219D1*
X14593Y12233D1*
X14536D1*
X14507Y12219D1*
X14479Y12190D1*
X14464Y12162D1*
X14450Y12119D1*
Y12047D1*
X14464Y12004D1*
X14479Y11975D1*
X14507Y11947D1*
X14536Y11932D1*
X14593D1*
X14622Y11947D1*
X14651Y11975D1*
X14665Y12004D1*
X14973Y12162D2*
X14959Y12190D1*
X14930Y12219D1*
X14901Y12233D1*
X14844D1*
X14815Y12219D1*
X14786Y12190D1*
X14772Y12162D1*
X14758Y12119D1*
Y12047D1*
X14772Y12004D1*
X14786Y11975D1*
X14815Y11947D1*
X14844Y11932D1*
X14901D1*
X14930Y11947D1*
X14959Y11975D1*
X14973Y12004D1*
X12555Y10295D2*
X12770D1*
X12813Y10309D1*
X12842Y10338D1*
X12856Y10381D1*
Y10410D1*
X12842Y10453D1*
X12813Y10482D1*
X12770Y10496D1*
X12555D1*
X12598Y10789D2*
X12569Y10761D1*
X12555Y10718D1*
Y10660D1*
X12569Y10617D1*
X12598Y10589D1*
X12626D1*
X12655Y10603D1*
X12669Y10617D1*
X12684Y10646D1*
X12713Y10732D1*
X12727Y10761D1*
X12741Y10775D1*
X12770Y10789D1*
X12813D1*
X12842Y10761D1*
X12856Y10718D1*
Y10660D1*
X12842Y10617D1*
X12813Y10589D1*
X12555Y10882D2*
X12856D1*
Y11011D1*
X12842Y11055D1*
X12827Y11069D1*
X12799Y11083D1*
X12756D1*
X12727Y11069D1*
X12713Y11055D1*
X12698Y11011D1*
X12684Y11055D1*
X12669Y11069D1*
X12641Y11083D1*
X12612D1*
X12584Y11069D1*
X12569Y11055D1*
X12555Y11011D1*
Y10882D1*
X12698D2*
Y11011D1*
X12555Y11467D2*
X12856D1*
X12555Y11668D2*
X12856D1*
X12698Y11467D2*
Y11668D1*
X12555Y11847D2*
X12569Y11818D1*
X12598Y11790D1*
X12626Y11775D1*
X12669Y11761D1*
X12741D1*
X12784Y11775D1*
X12813Y11790D1*
X12842Y11818D1*
X12856Y11847D1*
Y11905D1*
X12842Y11933D1*
X12813Y11962D1*
X12784Y11976D1*
X12741Y11990D1*
X12669D1*
X12626Y11976D1*
X12598Y11962D1*
X12569Y11933D1*
X12555Y11905D1*
Y11847D1*
X12598Y12284D2*
X12569Y12255D1*
X12555Y12212D1*
Y12155D1*
X12569Y12112D1*
X12598Y12083D1*
X12626D1*
X12655Y12098D1*
X12669Y12112D1*
X12684Y12140D1*
X12713Y12227D1*
X12727Y12255D1*
X12741Y12270D1*
X12770Y12284D1*
X12813D1*
X12842Y12255D1*
X12856Y12212D1*
Y12155D1*
X12842Y12112D1*
X12813Y12083D1*
X12555Y12477D2*
X12856D1*
X12555Y12377D2*
Y12578D1*
X12713Y12962D2*
Y13091D1*
X12698Y13134D1*
X12684Y13149D1*
X12655Y13163D1*
X12612D1*
X12584Y13149D1*
X12569Y13134D1*
X12555Y13091D1*
Y12962D1*
X12856D1*
X12555Y13255D2*
X12856Y13327D1*
X12555Y13399D1*
X12856Y13471D1*
X12555Y13543D1*
X12698Y13635D2*
Y13764D1*
X12684Y13807D1*
X12669Y13822D1*
X12641Y13836D1*
X12612D1*
X12584Y13822D1*
X12569Y13807D1*
X12555Y13764D1*
Y13635D1*
X12856D1*
X12698Y13736D2*
X12856Y13836D1*
X4796Y9519D2*
D99*
X4968D1*
X5025Y9539D1*
X5045Y9558D1*
X5064Y9596D1*
Y9634D1*
X5045Y9672D1*
X5025Y9692D1*
X4968Y9711D1*
X4796D1*
Y9309D1*
X4930Y9519D2*
X5064Y9309D1*
X5187Y9462D2*
X5417D1*
Y9500D1*
X5398Y9539D1*
X5379Y9558D1*
X5340Y9577D1*
X5283D1*
X5245Y9558D1*
X5206Y9519D1*
X5187Y9462D1*
Y9424D1*
X5206Y9366D1*
X5245Y9328D1*
X5283Y9309D1*
X5340D1*
X5379Y9328D1*
X5417Y9366D1*
X5540Y9711D2*
Y9309D1*
X5893Y9577D2*
Y9309D1*
Y9519D2*
X5855Y9558D1*
X5817Y9577D1*
X5760D1*
X5721Y9558D1*
X5683Y9519D1*
X5664Y9462D1*
Y9424D1*
X5683Y9366D1*
X5721Y9328D1*
X5760Y9309D1*
X5817D1*
X5855Y9328D1*
X5893Y9366D1*
X6036Y9577D2*
X6151Y9309D1*
X6113Y9232D1*
X6074Y9194D1*
X6036Y9175D1*
X6017D1*
X6266Y9577D2*
X6151Y9309D1*
X7003Y8609D2*
X6984Y8647D1*
X6945Y8686D1*
X6907Y8705D1*
X6831D1*
X6792Y8686D1*
X6754Y8647D1*
X6735Y8609D1*
X6716Y8552D1*
Y8456D1*
X6735Y8399D1*
X6754Y8360D1*
X6792Y8322D1*
X6831Y8303D1*
X6907D1*
X6945Y8322D1*
X6984Y8360D1*
X7003Y8399D1*
Y8456D1*
X6907D1*
X7318Y8303D2*
Y8704D1*
X7126Y8437D1*
X7413D1*
X7728Y8303D2*
Y8704D1*
X7537Y8437D1*
X7824D1*
X7004Y7607D2*
X6985Y7645D1*
X6947Y7684D1*
X6909Y7703D1*
X6832D1*
X6794Y7684D1*
X6756Y7645D1*
X6736Y7607D1*
X6717Y7550D1*
Y7454D1*
X6736Y7397D1*
X6756Y7358D1*
X6794Y7320D1*
X6832Y7301D1*
X6909D1*
X6947Y7320D1*
X6985Y7358D1*
X7004Y7397D1*
Y7454D1*
X6909D1*
X7223Y7702D2*
X7166Y7683D1*
X7147Y7645D1*
Y7607D1*
X7166Y7569D1*
X7204Y7549D1*
X7281Y7530D1*
X7338Y7511D1*
X7376Y7473D1*
X7395Y7435D1*
Y7377D1*
X7376Y7339D1*
X7357Y7320D1*
X7300Y7301D1*
X7223D1*
X7166Y7320D1*
X7147Y7339D1*
X7128Y7377D1*
Y7435D1*
X7147Y7473D1*
X7185Y7511D1*
X7242Y7530D1*
X7319Y7549D1*
X7357Y7569D1*
X7376Y7607D1*
Y7645D1*
X7357Y7683D1*
X7300Y7702D1*
X7223D1*
X7710Y7301D2*
Y7702D1*
X7519Y7435D1*
X7806D1*
X7006Y6591D2*
X6987Y6629D1*
X6949Y6667D1*
X6910Y6686D1*
X6834D1*
X6796Y6667D1*
X6758Y6629D1*
X6738Y6591D1*
X6719Y6533D1*
Y6437D1*
X6738Y6380D1*
X6758Y6342D1*
X6796Y6304D1*
X6834Y6284D1*
X6910D1*
X6949Y6304D1*
X6987Y6342D1*
X7006Y6380D1*
Y6437D1*
X6910D1*
X7225Y6686D2*
X7168Y6667D1*
X7149Y6629D1*
Y6590D1*
X7168Y6552D1*
X7206Y6533D1*
X7283Y6514D1*
X7340Y6495D1*
X7378Y6456D1*
X7397Y6418D1*
Y6361D1*
X7378Y6323D1*
X7359Y6303D1*
X7302Y6284D1*
X7225D1*
X7168Y6303D1*
X7149Y6323D1*
X7130Y6361D1*
Y6418D1*
X7149Y6456D1*
X7187Y6495D1*
X7244Y6514D1*
X7321Y6533D1*
X7359Y6552D1*
X7378Y6590D1*
Y6629D1*
X7359Y6667D1*
X7302Y6686D1*
X7225D1*
X7750Y6629D2*
X7731Y6667D1*
X7674Y6686D1*
X7635D1*
X7578Y6667D1*
X7540Y6609D1*
X7521Y6514D1*
Y6418D1*
X7540Y6342D1*
X7578Y6303D1*
X7635Y6284D1*
X7655D1*
X7712Y6303D1*
X7750Y6342D1*
X7769Y6399D1*
Y6418D1*
X7750Y6476D1*
X7712Y6514D1*
X7655Y6533D1*
X7635D1*
X7578Y6514D1*
X7540Y6476D1*
X7521Y6418D1*
X22931Y8171D2*
D98*
X22917Y8199D1*
X22874Y8243D1*
X23175D1*
X22874Y8335D2*
X23175Y8450D1*
X22874Y8565D1*
Y8729D2*
X22888Y8686D1*
X22917Y8672D1*
X22946D1*
X22974Y8686D1*
X22989Y8715D1*
X23003Y8772D1*
X23017Y8815D1*
X23046Y8844D1*
X23075Y8858D1*
X23118D1*
X23146Y8844D1*
X23161Y8829D1*
X23175Y8786D1*
Y8729D1*
X23161Y8686D1*
X23146Y8672D1*
X23118Y8657D1*
X23075D1*
X23046Y8672D1*
X23017Y8700D1*
X23003Y8743D1*
X22989Y8801D1*
X22974Y8829D1*
X22946Y8844D1*
X22917D1*
X22888Y8829D1*
X22874Y8786D1*
Y8729D1*
X22883Y7109D2*
Y7266D1*
X22998Y7180D1*
Y7223D1*
X23012Y7252D1*
X23026Y7266D1*
X23069Y7281D1*
X23098D1*
X23141Y7266D1*
X23170Y7238D1*
X23184Y7195D1*
Y7151D1*
X23170Y7109D1*
X23155Y7094D1*
X23127Y7080D1*
X22883Y7373D2*
X23184Y7488D1*
X22883Y7603D1*
Y7724D2*
Y7882D1*
X22998Y7796D1*
Y7839D1*
X23012Y7868D1*
X23026Y7882D1*
X23069Y7896D1*
X23098D1*
X23141Y7882D1*
X23170Y7853D1*
X23184Y7810D1*
Y7767D1*
X23170Y7724D1*
X23155Y7710D1*
X23127Y7696D1*
X22957Y6219D2*
X22929Y6204D1*
X22900Y6175D1*
X22886Y6147D1*
Y6090D1*
X22900Y6061D1*
X22929Y6032D1*
X22957Y6018D1*
X23001Y6003D1*
X23072D1*
X23115Y6018D1*
X23144Y6032D1*
X23173Y6061D1*
X23187Y6090D1*
Y6147D1*
X23173Y6175D1*
X23144Y6204D1*
X23115Y6219D1*
X23072D1*
Y6147D1*
X22886Y6512D2*
X23187D1*
X22886Y6311D1*
X23187D1*
X22886Y6605D2*
X23187D1*
Y6705D1*
X23173Y6748D1*
X23144Y6777D1*
X23115Y6792D1*
X23072Y6806D1*
X23001D1*
X22957Y6792D1*
X22929Y6777D1*
X22900Y6748D1*
X22886Y6705D1*
Y6605D1*
X19106Y6480D2*
X19235D1*
X19279Y6495D1*
X19293Y6509D1*
X19307Y6538D1*
Y6567D1*
X19293Y6595D1*
X19279Y6610D1*
X19235Y6624D1*
X19106D1*
Y6322D1*
X19207Y6480D2*
X19307Y6322D1*
X19586Y6624D2*
X19400D1*
Y6322D1*
X19586D1*
X19400Y6480D2*
X19515D1*
X19894Y6552D2*
X19880Y6581D1*
X19851Y6610D1*
X19823Y6624D1*
X19765D1*
X19736Y6610D1*
X19708Y6581D1*
X19693Y6552D1*
X19679Y6509D1*
Y6437D1*
X19693Y6394D1*
X19708Y6366D1*
X19736Y6337D1*
X19765Y6322D1*
X19823D1*
X19851Y6337D1*
X19880Y6366D1*
X19894Y6394D1*
Y6437D1*
X19823D1*
X20159Y6624D2*
X20016D1*
X20001Y6495D1*
X20016Y6509D1*
X20059Y6523D1*
X20102D1*
X20145Y6509D1*
X20174Y6480D1*
X20188Y6437D1*
Y6409D1*
X20174Y6366D1*
X20145Y6337D1*
X20102Y6322D1*
X20059D1*
X20016Y6337D1*
X20001Y6351D1*
X19987Y6380D1*
X20281Y6624D2*
X20395Y6322D1*
X20510Y6624D1*
X19596Y8645D2*
Y8344D1*
X19696D1*
X19739Y8359D1*
X19768Y8387D1*
X19783Y8416D1*
X19797Y8459D1*
Y8531D1*
X19783Y8574D1*
X19768Y8602D1*
X19739Y8631D1*
X19696Y8645D1*
X19596D1*
X20105Y8574D2*
X20090Y8602D1*
X20062Y8631D1*
X20033Y8645D1*
X19976D1*
X19947Y8631D1*
X19918Y8602D1*
X19904Y8574D1*
X19889Y8531D1*
Y8459D1*
X19904Y8416D1*
X19918Y8387D1*
X19947Y8359D1*
X19976Y8344D1*
X20033D1*
X20062Y8359D1*
X20090Y8387D1*
X20105Y8416D1*
X20197Y8645D2*
Y8344D1*
X20491Y8645D2*
Y8344D1*
X20290Y8645D1*
Y8344D1*
X9847Y16205D2*
D100*
X10115D1*
X9847Y15803D1*
X10115D1*
X10290Y16205D2*
X10309Y16186D1*
X10329Y16205D1*
X10309Y16225D1*
X10290Y16205D1*
X10309Y16071D2*
Y15803D1*
X10504Y16071D2*
Y15669D1*
Y16014D2*
X10542Y16052D1*
X10580Y16071D1*
X10638D1*
X10676Y16052D1*
X10714Y16014D1*
X10734Y15956D1*
Y15918D1*
X10714Y15861D1*
X10676Y15822D1*
X10638Y15803D1*
X10580D1*
X10542Y15822D1*
X10504Y15861D1*
X10908Y16205D2*
X10928Y16186D1*
X10947Y16205D1*
X10928Y16225D1*
X10908Y16205D1*
X10928Y16071D2*
Y15803D1*
X11179Y16205D2*
Y15880D1*
X11198Y15823D1*
X11237Y15803D1*
X11275D1*
X11122Y16071D2*
X11256D1*
X11890Y16205D2*
X12158D1*
X11890Y15803D1*
X12158D1*
X12353Y16109D2*
Y16128D1*
X12372Y16167D1*
X12391Y16186D1*
X12429Y16205D1*
X12506D1*
X12544Y16186D1*
X12563Y16167D1*
X12582Y16128D1*
Y16090D1*
X12563Y16052D1*
X12525Y15995D1*
X12333Y15803D1*
X12601D1*
X13216Y16205D2*
Y15803D1*
X13389D1*
X13446Y15823D1*
X13465Y15842D1*
X13484Y15880D1*
Y15937D1*
X13465Y15976D1*
X13446Y15995D1*
X13389Y16014D1*
X13446Y16033D1*
X13465Y16052D1*
X13484Y16090D1*
Y16129D1*
X13465Y16167D1*
X13446Y16186D1*
X13389Y16205D1*
X13216D1*
Y16014D2*
X13389D1*
X13659Y16071D2*
Y15803D1*
Y15956D2*
X13679Y16014D1*
X13717Y16052D1*
X13755Y16071D1*
X13813D1*
X13988Y15956D2*
X14217D1*
Y15995D1*
X14198Y16033D1*
X14179Y16052D1*
X14141Y16071D1*
X14083D1*
X14045Y16052D1*
X14007Y16014D1*
X13988Y15956D1*
Y15918D1*
X14007Y15861D1*
X14045Y15823D1*
X14083Y15803D1*
X14141D1*
X14179Y15823D1*
X14217Y15861D1*
X14622Y16071D2*
Y15803D1*
Y16014D2*
X14584Y16052D1*
X14545Y16071D1*
X14488D1*
X14450Y16052D1*
X14412Y16014D1*
X14392Y15956D1*
Y15918D1*
X14412Y15861D1*
X14450Y15823D1*
X14488Y15803D1*
X14545D1*
X14584Y15823D1*
X14622Y15861D1*
X14797Y16205D2*
Y15803D1*
X14988Y16071D2*
X14797Y15880D1*
X14873Y15956D2*
X15007Y15803D1*
X15277Y16071D2*
X15239Y16052D1*
X15201Y16014D1*
X15182Y15956D1*
Y15918D1*
X15201Y15861D1*
X15239Y15823D1*
X15277Y15803D1*
X15335D1*
X15373Y15823D1*
X15411Y15861D1*
X15431Y15918D1*
Y15956D1*
X15411Y16014D1*
X15373Y16052D1*
X15335Y16071D1*
X15277D1*
X15606D2*
Y15880D1*
X15625Y15823D1*
X15663Y15803D1*
X15721D1*
X15759Y15823D1*
X15816Y15880D1*
Y16071D2*
Y15803D1*
X16049Y16205D2*
Y15880D1*
X16068Y15823D1*
X16106Y15803D1*
X16144D1*
X15991Y16071D2*
X16125D1*
X16760D2*
X16875Y15803D1*
X16989Y16071D1*
X17164Y16128D2*
X17203Y16148D1*
X17260Y16205D1*
Y15803D1*
X11305Y16861D2*
D99*
Y16593D1*
Y16785D2*
X11363Y16842D1*
X11401Y16861D1*
X11458D1*
X11497Y16842D1*
X11516Y16785D1*
Y16593D1*
Y16785D2*
X11573Y16842D1*
X11612Y16861D1*
X11669D1*
X11707Y16842D1*
X11727Y16785D1*
Y16593D1*
X11946Y16861D2*
X11908Y16842D1*
X11869Y16804D1*
X11850Y16746D1*
Y16708D1*
X11869Y16651D1*
X11908Y16613D1*
X11946Y16593D1*
X12003D1*
X12042Y16613D1*
X12080Y16651D1*
X12099Y16708D1*
Y16746D1*
X12080Y16804D1*
X12042Y16842D1*
X12003Y16861D1*
X11946D1*
X12223D2*
X12433D1*
X12223Y16593D1*
X12433D1*
X12557Y16861D2*
X12767D1*
X12557Y16593D1*
X12767D1*
X12890Y16861D2*
X12967Y16593D1*
X13043Y16861D1*
X13120Y16593D1*
X13196Y16861D1*
X13549D2*
Y16593D1*
Y16804D2*
X13511Y16842D1*
X13473Y16861D1*
X13416D1*
X13377Y16842D1*
X13339Y16804D1*
X13320Y16746D1*
Y16708D1*
X13339Y16651D1*
X13377Y16613D1*
X13416Y16593D1*
X13473D1*
X13511Y16613D1*
X13549Y16651D1*
X13673Y16995D2*
Y16593D1*
X14026Y16995D2*
Y16593D1*
Y16804D2*
X13988Y16842D1*
X13949Y16861D1*
X13892D1*
X13854Y16842D1*
X13815Y16804D1*
X13796Y16746D1*
Y16708D1*
X13815Y16651D1*
X13854Y16613D1*
X13892Y16593D1*
X13949D1*
X13988Y16613D1*
X14026Y16651D1*
X14168Y16632D2*
X14149Y16612D1*
X14168Y16593D1*
X14188Y16612D1*
X14168Y16632D1*
X14541Y16804D2*
X14503Y16842D1*
X14464Y16861D1*
X14407D1*
X14369Y16842D1*
X14331Y16804D1*
X14311Y16746D1*
Y16708D1*
X14331Y16651D1*
X14369Y16613D1*
X14407Y16593D1*
X14464D1*
X14503Y16613D1*
X14541Y16651D1*
X14760Y16861D2*
X14722Y16842D1*
X14684Y16804D1*
X14665Y16746D1*
Y16708D1*
X14684Y16651D1*
X14722Y16613D1*
X14760Y16593D1*
X14818D1*
X14856Y16613D1*
X14894Y16651D1*
X14914Y16708D1*
Y16746D1*
X14894Y16804D1*
X14856Y16842D1*
X14818Y16861D1*
X14760D1*
X15037D2*
Y16593D1*
Y16785D2*
X15095Y16842D1*
X15133Y16861D1*
X15190D1*
X15229Y16842D1*
X15248Y16785D1*
Y16593D1*
Y16785D2*
X15305Y16842D1*
X15344Y16861D1*
X15401D1*
X15439Y16842D1*
X15459Y16785D1*
Y16593D1*
X19896Y7557D2*
D98*
X19882Y7586D1*
X19853Y7615D1*
X19824Y7629D1*
X19767D1*
X19738Y7615D1*
X19710Y7586D1*
X19695Y7557D1*
X19681Y7514D1*
Y7442D1*
X19695Y7400D1*
X19710Y7371D1*
X19738Y7342D1*
X19767Y7328D1*
X19824D1*
X19853Y7342D1*
X19882Y7371D1*
X19896Y7400D1*
Y7442D1*
X19824D1*
X20190Y7629D2*
Y7328D1*
X19989Y7629D1*
Y7328D1*
X20282Y7629D2*
Y7328D1*
X20383D1*
X20426Y7342D1*
X20455Y7371D1*
X20469Y7400D1*
X20483Y7442D1*
Y7514D1*
X20469Y7557D1*
X20455Y7586D1*
X20426Y7615D1*
X20383Y7629D1*
X20282D1*
X20113Y10153D2*
X20142Y10167D1*
X20185Y10210D1*
Y9909D1*
X20364Y10210D2*
X20321Y10196D1*
X20292Y10153D1*
X20278Y10081D1*
Y10038D1*
X20292Y9966D1*
X20321Y9923D1*
X20364Y9909D1*
X20392D1*
X20435Y9923D1*
X20464Y9966D1*
X20479Y10038D1*
Y10081D1*
X20464Y10153D1*
X20435Y10196D1*
X20392Y10210D1*
X20364D1*
X20464Y10153D2*
X20292Y9966D1*
X20571Y10210D2*
Y9909D1*
X20772Y10210D2*
X20571Y10009D1*
X20643Y10081D2*
X20772Y9909D1*
X20145Y9541D2*
X20174Y9555D1*
X20217Y9598D1*
Y9297D1*
X20396Y9598D2*
X20353Y9584D1*
X20324Y9541D1*
X20310Y9469D1*
Y9426D1*
X20324Y9354D1*
X20353Y9311D1*
X20396Y9297D1*
X20424D1*
X20467Y9311D1*
X20496Y9354D1*
X20511Y9426D1*
Y9469D1*
X20496Y9541D1*
X20467Y9584D1*
X20424Y9598D1*
X20396D1*
X20496Y9541D2*
X20324Y9354D1*
X20603Y9598D2*
Y9297D1*
X20804Y9598D2*
X20603Y9398D1*
X20675Y9469D2*
X20804Y9297D1*
X6936Y11001D2*
D99*
X6898Y10982D1*
X6859Y10943D1*
X6840Y10905D1*
Y10829D1*
X6859Y10790D1*
X6898Y10752D1*
X6936Y10733D1*
X6993Y10714D1*
X7089D1*
X7146Y10733D1*
X7185Y10752D1*
X7223Y10790D1*
X7242Y10829D1*
Y10905D1*
X7223Y10943D1*
X7185Y10982D1*
X7146Y11001D1*
X7089D1*
Y10905D1*
X7051Y11124D2*
Y11297D1*
X7032Y11354D1*
X7012Y11373D1*
X6974Y11392D1*
X6917D1*
X6879Y11373D1*
X6859Y11354D1*
X6840Y11297D1*
Y11124D1*
X7242D1*
X6840Y11516D2*
X7242D1*
X6840Y11754D2*
X6859Y11716D1*
X6898Y11678D1*
X6936Y11658D1*
X6993Y11639D1*
X7089D1*
X7146Y11658D1*
X7185Y11678D1*
X7223Y11716D1*
X7242Y11754D1*
Y11831D1*
X7223Y11869D1*
X7185Y11907D1*
X7146Y11926D1*
X7089Y11945D1*
X6993D1*
X6936Y11926D1*
X6898Y11907D1*
X6859Y11869D1*
X6840Y11831D1*
Y11754D1*
Y12458D2*
X7242D1*
X6840Y12726D2*
X7242D1*
X7032Y12458D2*
Y12726D1*
X7089Y12849D2*
Y13079D1*
X7051D1*
X7012Y13060D1*
X6993Y13041D1*
X6974Y13002D1*
Y12945D1*
X6993Y12907D1*
X7032Y12868D1*
X7089Y12849D1*
X7127D1*
X7185Y12868D1*
X7223Y12907D1*
X7242Y12945D1*
Y13002D1*
X7223Y13041D1*
X7185Y13079D1*
X6974Y13432D2*
X7242D1*
X7032D2*
X6993Y13394D1*
X6974Y13355D1*
Y13298D1*
X6993Y13260D1*
X7032Y13222D1*
X7089Y13202D1*
X7127D1*
X7185Y13222D1*
X7223Y13260D1*
X7242Y13298D1*
Y13355D1*
X7223Y13394D1*
X7185Y13432D1*
X6840Y13785D2*
X7242D1*
X7032D2*
X6993Y13747D1*
X6974Y13708D1*
Y13651D1*
X6993Y13613D1*
X7032Y13574D1*
X7089Y13555D1*
X7127D1*
X7185Y13574D1*
X7223Y13613D1*
X7242Y13651D1*
Y13708D1*
X7223Y13747D1*
X7185Y13785D1*
X7089Y13908D2*
Y14138D1*
X7051D1*
X7012Y14119D1*
X6993Y14100D1*
X6974Y14061D1*
Y14004D1*
X6993Y13966D1*
X7032Y13927D1*
X7089Y13908D1*
X7127D1*
X7185Y13927D1*
X7223Y13966D1*
X7242Y14004D1*
Y14061D1*
X7223Y14100D1*
X7185Y14138D1*
X6974Y14261D2*
X7242D1*
X7089D2*
X7032Y14281D1*
X6993Y14319D1*
X6974Y14357D1*
Y14414D1*
X16155Y7385D2*
D98*
Y7084D1*
X16255D1*
X16298Y7098D1*
X16327Y7127D1*
X16341Y7156D1*
X16355Y7198D1*
Y7270D1*
X16341Y7313D1*
X16327Y7342D1*
X16298Y7371D1*
X16255Y7385D1*
X16155D1*
X16577Y7363D2*
Y7105D1*
X16448Y7234D2*
X16706D1*
X16144Y8522D2*
Y8221D1*
X16244D1*
X16287Y8236D1*
X16316Y8264D1*
X16330Y8293D1*
X16345Y8336D1*
Y8408D1*
X16330Y8451D1*
X16316Y8479D1*
X16287Y8508D1*
X16244Y8522D1*
X16144D1*
X16437Y8371D2*
X16603D1*
M02*
